/* XPM */
static char *result[] = {
/* columns rows colors chars-per-pixel */
"64 62 7 1 ",
"  c black",
". c #54FC54",
"X c #00A800",
"o c gray33",
"O c #A80000",
"+ c #FC5454",
"@ c white",
/* pixels */
" ..   ....  XXXX...             .............       ............",
".XX.X.XXX...oooXXX...oXX..     XX.oX.XXXXX.X..     oo.oX.XX..ooo",
"ooooXXXXXXooooooXX.XooooX..   XooXoX.ooooo.ooX.   oooXoX.XX..ooo",
"ooooXXXXXooooooooX.XoooooX.   XooXoXXoooooXooXo   oooXoX.XX..ooo",
"ooooXXoXXooooooooX.ooooooX..  oooooXXoooooXooXo   oooXoXXoX..ooo",
"ooooXXoXoooooooooX.ooooooXX.  oooooXXooooooooXo   oooXoXXoXX.ooo",
"ooooXXoXoooooooooXXooooooXo.  oooooXoooooooooXo   oooooXXoXX.ooo",
"oooooXoXoooooooooo.ooooooXX.  oooooXooooooXooXo   oooXoXXoXXXooo",
"oooooXoXooooooooooXooooooXX.  oooooXooooooooooo   oooooXooXXXooo",
"oooooXoXooooooooooXooooooXo.  oooooXoooooooooXo   ooooooXooXXooo",
"oooooXoooooooooooooooooooXoX  oooooXooooooooooo   oooooooooXoooo",
"ooooooooXooooooooooooooooXoX  oooooXooooooooooX   oooooooooXoooo",
"oooooXooXoooooooooXooooooooX  ooooooooooooooooX   oooooooooXoooo",
"ooooooooooooXooooooooooooooX  ooooooooooooooooo   XoooXooooooooo",
"oooooooXoooooooOOooooooXoXo   oooooXooooooooooX   XoOOXooooXoooo",
"oooooooXooooXXoOOOooOOooooX   ooOOoXoooOoOooooX   XoOOXooooooooo",
"ooooooooooooXXooOOooOOoXooXX  oOOOooooOoOoOoooX   XOoXXooooooooo",
"ooooooooooooXXooooOoooOXooX   OoOOooOoOOOOoXooX   XXoXXoooXooooo",
"oooooooooooooooooooooooXOOXX  oOOOoooOOOOoOoooX   XXoXXXooXoooXo",
"ooXoooooooooXXoooooooooXXO+   OoOOooOOOOOOoXoX.   XXoXXXoXXoooXo",
"oXXXooooooooooooooXoXXXXXX     OooooOOOOOoXXXX.    XXXXXXXXoooXo",
"XXXXX XX          oooOoOoO                  X.      XXXXXXXXXXXX",
"                   XOX+++o X++++++X+O++XXOO+O++ XX.     ooooooo ",
"..X........     ooooXOOOOooOXOOOOO+OOOOXOOOOOOOoXXX.    XXXX....",
"oXXX..Xooo..   ooooooOOOOOooOOOOOOOOOOoOOOOOOoooXoXXX  XoooXXXoo",
"oXXX..ooooo.   oooooXOOOOOOOoOOOOOOOOOOOOOOoooOOoooX.  oooooXooo",
"oXXXX.oooooX   oooooooOOOOOOOOOOOOOOOOOOOooooOOooooXX  oooooXooo",
"ooXXX.oooooX   oOOooooOOOOOOOOoOOOOOOOOOoOooOoOoOooo.  oooooXooo",
"ooXXX.oooooX   oOOoooOoOoOOOOOOOOOOOOOOXOOOOOOoOoooX.  oOOooXooo",
"ooXXoXoooooo   XooOoooOOOoOOOOOOOOOOOOoOOOOOOoOooooo.  OOOooXooo",
"oooXoXooOOO+   OoOoXXooOOOoOOOOOOOOOOOOOOOoooooOoOOX.  ooooooooo",
"oooXoXoOOOO+   XOooOOOoooOOoOOOOOOOOOOoOoooXoooooooX.  oooooXooo",
"oooXoXooOOOO   OoOoOOOOOOXoOoOOOOOOOOOOXoOOOOOOOOooo.  oooooXooo",
"oooooXoooooo   XooXooooooXoOOOOOOOOOOOOOOooooOOOOooX.  ooooooooo",
"oooXoXoooooo   XXoXoXooooXOOOOOOOOOOOOOOOOoOoooooooo.  ooooooooo",
"oooooXoooooo   XXoXXXooooOOOOOOOOOOOOOOOOOOOOoOooooo.  ooooooooo",
"oooooooooooo   XXoXXXoOoOOOOOOOOOOOOOOoOOOOOXOoOoooX.  ooooooooo",
"ooooooooooo   XXXXXXXOoOOOOOoOOOOOOOOOooXOXOOXOXOooX.X  oooooooo",
"          XXXXXoooooOoOoOOOo              OOoO      X.X         ",
"         X.........O.OXOOXOO.+O  O        OXOXOXX XX....X       ",
"XXXX    XoX.XooX.XXXOXOXOOOOXO+OO    OoOoooOXoooooooX.XooooXoXXX",
"oXoXX   ooX.ooooOXoOoooOXOOoXOO+OO  OOoOooo.ooOOooooo.Xooooooooo",
"oXoXX  XooXXooOOXooooOoOOXOooOOO+   OOoOooooooOOoooooXXooooooooo",
"oXoXX   ooXXooOOooooooOooXOooOOOO   OOoOooo.oooooooooXXooooooooo",
"oXoXo   oooXooooooooooooooOooOOOO   OOoOooOooooooooooXoooooooooo",
"oooXo   oooXoooooooooooooOOooOOOO   OOoooooOOooooooooXoooooooooo",
"oooXo   oooXoooooooooooOOoOooOOOO   OOoooooOOoooOooooXoooooooooo",
"oooXo   oooXoooooooooooOOoOooOOOO   OOoooooooooooOOooXoooooooooo",
"oooXo   oooXooooooooooooooOooOOOO   OOooooooooooooOooooooooooooo",
"ooooo   oooXoooooooooooXXoOoooOXO   OOoooooooooooooooooooooooooo",
"ooooo   oooXoooooooooooXXXooooOXO   OOoooooooooooooooXoooooooooo",
"oooXo   oooXooooooooooXXXXooooOXO   OooooooXoooooooooXoooooooooo",
"oooXo   ooooooooooooooXXXXooooOXO   Oooooooooooooooooooooooooooo",
"ooooo   ooooooooooooooXXXXooooOXO   oOoooooXoooooXoooooooooooooo",
"ooooo   oooooooooooooooXXXoooooXO   oOoooooXoooooooooooooooooooo",
"ooooo   oooXoooooooooooXXXoooooXO   XooooooXoooooXoooooooooooooo",
"ooooo   oooXoooooooooooXoXoooooXO   XooooooXoooooXoooooXoooooooo",
"ooooo   oooooooooooooooXoXoooooXX   ooXooooXoooooXoooooXoooooooo",
"ooooo   oooooooooooooooXooooooooX   XoXooooXooooXXoooooXoooooooo",
"ooooo   oooooooooooooooXoXooooooo   XoXooooXooooXXoooooXXooooooo",
"ooooo   oooooooooooooooooooooooXX   XXooooXXooooXXXoooXXXooooooo",
"oooo     ooooooooooooooXooooooXXX    XXoooXXXXoXXXXoooXXXoooXoXo"
};
