/* XPM */
static char *result[] = {
/* columns rows colors chars-per-pixel */
"64 61 6 1 ",
"  c black",
". c #54FC54",
"X c #00A800",
"o c gray66",
"O c gray33",
"+ c white",
/* pixels */
" ..   ....  .......             ............X       ............",
"............XXX......o....     ...X...........     OX.X......XXX",
"XXXX......oooooX....oooX...   .XX.X..XXXXX.XX..   Ooo.X......ooo",
"oooX.....oooooooX...ooooX..   .oX.X..ooooX.oX.o   Ooo.X......ooo",
"oooX..X..oooooooX..oooooX...  OoooX..ooooo.oX.o   Ooo.X..X...ooo",
"oooX..X.ooooooooX..oooooX...  OoooX..oooooooX.o   Ooo.o..X...ooo",
"oooo..X.ooooooooX..oooooX.X.  OoooX.ooooooooX.o   Ooooo..X...ooo",
"ooooX.X.oooooooooX.oooooX...  OoooX.oooooo.oo.o   Ooo.o..X...ooo",
"ooooX.X.oooooooooX.oooooX...  OoooX.ooooooooooo   Ooooo.oX...ooo",
"ooooo.X.oooooooooX.oooooo.X.  Ooooo.ooooooooo.o   Oooooo.oX..ooo",
"ooooo.ooooooooooooooooooo.X.  Ooooo.ooooooooooo   OoooooooX.oooo",
"oooooooo.oooooooooooooooo.X.  Ooooo.oooooooooo.   OoooooooX.oooo",
"ooooo.oo.ooooooooo.oooooooX.  Oooooooooooooooo.   OoooooooX.oooo",
"oooooooooooo.oooooooooooooX.  Ooooooooooooooooo   Xooo.ooooooooo",
"ooooooo.ooooooooooooooo.o.o   Ooooo.oooooooooo.   Xoo..oooo.oooo",
"ooooooo.oooo..oooooooooooo.   Ooooo.oooooooooo.   Xooo.ooooooooo",
"oooooooooooo..ooooooooo.oo.X  Oooooooooooooooo.   Xoo..ooooooooo",
"oooooooooooo..ooooooooo.oo.   Ooooooooooooo.oo.   X.o..ooo.ooooo",
"ooooooooooooooooooooooo.o..X  Oooooooooooooooo.   X.o...oo.ooo.o",
"oo.ooooooooo..ooooooooo...X   OOooooooooooo.o..   X.o...o..ooo.o",
"OXXXOOOOOOOOOOOOOO.O.....X     OOOOOOOOOOO....X    X.......OOO.O",
"XXXXX XX          XXXXXXXX                  XX      XXXXXXXXXXXX",
"                   ...     ... ................ ..X     XXXXXXX ",
"...........     Oooo.ooooooo.oooXX.........XXXXo....    ........",
"X......XXX..   Ooooooooooooo.oooooX.XXX..Xoooooo.o..X  .XXX...Xo",
"X.....XoooX.   Ooooo.oooooooooooooo.ooX..oooooooooo..  OoooX.ooo",
"X.....ooooo.   Ooooooooooooo.oooooooooX..oooooooooo..  OoooX.ooo",
"oX....ooooo.   OooooooooooooooooooooooX.oooooooooooo.  OoooX.ooo",
"oX....ooooo.   Oooooooooooooooooooo.ooo.ooooooooooo..  Ooooo.ooo",
"oX..X.oooooo   Xooooooooooooooooooooooo.oooooooooooo.  Ooooo.ooo",
"ooX.X.oooooo   Xooo..oooooooooooooooooooooooooooooo..  Ooooooooo",
"ooX.X.ooooo.   Xooo..oooo.ooooooooooooo.ooo.ooooooo..  Ooooo.ooo",
"ooX.X.oooooo   Xooooooooo.ooooooooooooo.oooooooooooo.  Ooooo.ooo",
"ooooX.oooooo   Xoo.oooooo.ooooooooooooooooooooooooo..  Ooooooooo",
"ooo.X.oooooo   X.o.o.oooo.ooooooooooooooooo.oooooooo.  Ooooooooo",
"ooooX.oooooo   X.o...oooo.ooooooooooooooooo.oooooooo.  Ooooooooo",
"oooooooooooO   X.o...oooo.ooooooooooooooooo..oooooo..  OOooooooo",
"OOOOOOOOOOO   XXXXXXXXOOXXXOOOOOOOOOOOOOXXXXXXXXOOOXX.  OOOOOOOO",
"          .....XXXXXXXXXXXXX               XXX      XX.         ",
"         .....................X           ....... .......       ",
"....    .X...XX.................     OooooX..XXXooXX...oooo.o...",
"o.o..   OX..oooX..XXXXXX..XX....X   Ooooooo.XoooooooX..ooooooooo",
"o.o..  XOX..oooX.oooooooX.ooXX...   OoooooooooooooooX..ooooooooo",
"o.o..   OX..ooooooooooooX.oooX...   Ooooooo.ooooooooX..ooooooooo",
"o.o.o   OoX.oooooooooooooooooX...   OoooooooooooooooX.oooooooooo",
"ooo.o   OoX.ooooooooooooooooooX..   OoooooooooooooooX.oooooooooo",
"ooo.o   OoX.ooooooooooooooooooX..   Ooooooooooooooooo.oooooooooo",
"ooo.o   OoX.ooooooooooooooooooX..   Ooooooooooooooooo.oooooooooo",
"ooo.o   OoX.ooooooooooooooooooX..   Oooooooooooooooooooooooooooo",
"ooooo   OoX.ooooooooooo..oooooX..   Oooooooooooooooooooooooooooo",
"ooooo   OoX.ooooooooooo...ooooX..   Ooooooooooooooooo.oooooooooo",
"ooo.o   OoX.oooooooooo....ooooo..   Ooooooo.ooooooooo.oooooooooo",
"ooo.o   Oooooooooooooo....ooooX..   Oooooooooooooooooooooooooooo",
"ooooo   Oooooooooooooo....ooooo..   Ooooooo.ooooo.oooooooooooooo",
"ooooo   Ooooooooooooooo...ooooo..   Ooooooo.oooooooooooooooooooo",
"ooooo   Ooo.ooooooooooo...ooooo..   .oooooo.ooooo.oooooooooooooo",
"ooooo   Ooo.ooooooooooo.o.ooooo..   .oooooo.ooooo.ooooo.oooooooo",
"ooooo   Ooooooooooooooo.o.ooooo..   Oo.oooo.ooooo.ooooo.oooooooo",
"ooooo   Ooooooooooooooo.oooooooo.   Xo.oooo.oooo..ooooo.oooooooo",
"ooooo   Ooooooooooooooo.o.ooooooo   Xo.oooo.oooo..ooooo..ooooooo",
"ooooO   OOooooooooooooooooooooo..   X.oooo..oooo...ooo...ooooooo"
};
