/* XPM */
static char *result[] = {
/* columns rows colors chars-per-pixel */
"64 62 8 1 ",
"  c black",
". c #54FC54",
"X c #00A800",
"o c gray66",
"O c gray33",
"+ c #FC5454",
"@ c #A80000",
"# c white",
/* pixels */
" ..   ....  .......             ............X       ............",
"............XXX......o....     ...X...........     OX.X......XXX",
"XXXX......oooooX....oooX...   .XX.X..XXXXX.XX..   Ooo.X......ooo",
"oooX.....oooooooX...ooooX..   .oX.X..ooooX.oX.o   Ooo.X......ooo",
"oooX..X..oooooooX..oooooX...  OoooX..ooooo.oX.o   Ooo.+..X...o@o",
"oooX..X.ooooooooX..oooooX...  OoooX..oooooooX.o   Ooo.@+.X@+.@@@",
"oooo..X.ooooo@ooX..oooooX.X.  OoooX.ooooooooX.o   Oo@@+@.@+@.@@o",
"ooooX.X.oooooooooX.oooooX...  OoooX.oooooo.oo.o   Ooo@@+.@@+@ooo",
"ooooX.X.oooooooooX.oooooX...  OoooX.oooo@oooooo   O@+o@@o@+@.@oo",
"oo@oo.X.oooooooooX.oooooo.X.  Ooooo.ooooooooo@+   @+@+@@.@@.@o@o",
"ooooo.ooooooooooooo++oooo.X.  Oo++o.ooooooooo@+   O@+o@@+@X@+@oo",
"oooooooo.o++ooooooo++oooo.X.  Oo@+o.oo@+oooooo.   O@@+o@@+@+@o@o",
"ooooo.oo.o@+oooo+o.@+oooooX.  O@oooooooooooooo.   O@@@+@+@+@o@oo",
"oo@+oooooooo.ooo@+o@+oooooX.  Ooooooooooooooooo   @o@o@+@+@o@o@o",
"oo@@ooo.o++ooooo@+ooooo.O+++  Ooooo.++oooooooo.   X@o@@@+@+@o@o@",
"ooooooo.o@+++.oo@+o+oooo+++   Ooooo++@oo@ooooo.   Xo@o@+@+@+@+@o",
"oooooooooo@+++ooooo@+oo@@+++  Ooooo+@ooooooooo.   X@o@@@+@+@@@o@",
"ooooo++ooo@@@++ooo@@o@o.+++   Oooo@oooooooo.oo.   X.@.@+@@@o@@@o",
"ooooo@+oooo@@@+oooo@+oo+++@X  Oo@ooooo@ooooooo.   X.o.@@o@+@o@.o",
"oo.oooo@oooo.@@+ooo@+++++@X   OOooooo@@oooo.o..   X.o.@+o@@o@o@o",
"OXXXOOOOOOOOOO@@@O.@@@.@@@     OOOOOOOOOOO....X    X..@@.@+OOO.O",
"XXXXX XX          XX@X@@@X                  XX      XX@+X@@XXXXX",
"                   +@@@ @  .@@@................ ..X     XXXXXXX ",
"...........     @@@@@+@+o@o+@+@oXX.........XXXXo....    ........",
"X......XXX..   O@@+@+@+o@o+@@@ooooX.XXX..Xoooooo.o..X  .X@+...Xo",
"X.....XoooX.   Oo@@@@+@+o+++++++++o.ooX..oooooooooo..  Oo@+X.ooo",
"X..+..oo@o++   O@@+@+@+@+@+@+@+@++++ooX..ooooo@+ooo..  Ooo@X.ooo",
"oX@+..o@o+++   @@@@@@+@+@+@+@+@+@@@oooX.oooooo@@oooo.  OoooX.ooo",
"oX@@..oo@@@@   O@@+@+@+@@+@@+@@@ooo.ooo++++oooooooo..  Ooooo.ooo",
"oX..X.oooooo   X@@@@@+@+@+o@@oooooooooo.o@@o@ooooooo.  Oo@oo.ooo",
"ooX.X.ooooo@   X@@+@+@+@@+o@+@+@+@+@+@+oooooooooooo..  Ooooooooo",
"ooX.X.oooo@.   Xo@@@@+@+@++@@+@+@+@+@+@+ooo.oooo+oo..  Ooooo.@+o",
"ooX.X.ooo@o+   X@@+@+@+@@+@@+@@@@@@@@@@.ooooooo+++oo.  Ooo@o.@@o",
"ooooX.oo@o+@   Xo@@@@+@+@+@@@@@@@@@@@@oooo@+ooo@++o..  Ooooooooo",
"ooo.X.ooo+@o   X.@+@+@+@@+o@+ooo+oooooooooo@ooo@++oo.  Ooooooooo",
"ooooX.o++@oo   X.@@@@+@@@.o@@+ooo@+ooo@oooo.oooo@+oo.  Ooooooooo",
"ooooooo@@ooO   X.@@@@@@@o.o@+@ooo@@oooooooo..ooo@+o..  OOooooooo",
"OOOOOOOOOOO   XXX@X@@X@OXXXO+OOOOOOOOOOOXXXXXXXXO+OXX.  OOOOOOOO",
"          .....XXXX@@XXXXXXX               XXX      XX.         ",
"         ......@.@@@@.@..+....X           ....... .......       ",
"....    .X...XX@.@@++.@..+......     OooooX..XXXooXX...oooo.o...",
"o.o..   OX..ooo@.@@++X@X..X++...X   Ooooooo.XoooooooX..ooooooooo",
"o.o..  XOX..ooo@.@@++o@oX.o@+X...   Oooooo@+oo@oooooX..ooooooooo",
"o.o..   OX..ooo@o@@++o@oX+o@+X...   Ooo@ooo.ooooo+ooX..oo@oooooo",
"o.o.o   OoX.ooo@o@@++o@ooooooX...   Oooooooo@+oooo++X.oooooooooo",
"ooo.o   OoX.ooo@o@@++oooooooooX..   Oo@+o@ooooo+ooo@+++ooooooooo",
"ooo.o   OoX.ooooo@@o+o@oo@ooooX..   Oo@@ooooooo@+ooo@@++oooooooo",
"oo@+o   OoX.ooooo@@o+o@ooooo+oX..   Ooo@oooooooo++ooo@@@oooooooo",
"oo@@o   OoX.oooooo@o+oooooooooX..   Oooo@+oooooo@+oooo@ooooooooo",
"ooooo   OoX.ooo@oo@oooo..oooooX..   Oooo@@oooooooooooooooooooooo",
"ooooo   OoX.ooo@oo@oooo...o@+oX..   Ooooooooooooooooo.oooooooooo",
"ooo.o   OoX.oooooooooo....o@@oo..   Ooooooo.ooooooooo.oooooooooo",
"ooo.o   Oooooooooooooo....ooooX..   Oooooooooooooooooooooooooooo",
"ooooo   Oooooooooo@ooo....ooooo..   Ooooooo.oo@oo.oooooooooooooo",
"ooooo   Ooooooooooooooo...ooooo..   Ooooooo.oooooooooooooooooooo",
"ooooo   Ooo.ooooooooooo...ooooo..   .ooo@oo.ooooo.oooooooooooooo",
"ooooo   Ooo.ooooooooooo.o.ooooo..   .oooooo.ooooo.ooooo.oooooooo",
"ooooo   Ooooooooooooooo.o.ooooo..   Oo.oooo.ooooo.ooooo.oooooooo",
"ooooo   Ooooooooooooooo.oooooooo.   Xo.oooo.oooo..ooooo.oooooooo",
"ooooo   Ooooooooooooooo.o.ooooooo   Xo.oooo.oooo..ooooo..ooooooo",
"ooooO   OOooooooooooooooooooooo..   X.oooo..oooo...ooo...ooooooo",
"OOOO     OOOOOOOOOOOOOO.OOOOOO...    X.ooo....o....ooo...ooo.o.o"
};
