/* XPM */
static char *result[] = {
/* columns rows colors chars-per-pixel */
"65 63 6 1 ",
"  c black",
". c #54FC54",
"X c #00A800",
"o c #007959",
"O c gray33",
"+ c white",
/* pixels */
" ..   ....  XXXX...             .............       ............o",
".XX.X.XXX...OOOXXX...OXX..     XX.OX.XXXXX.X..     OO.OX.XX..OOOo",
"OOOOXXXXXXOOOOOOXX.XOOOOX..   XOOXOX.OOOOO.OOX.   OOOXOX.XX..OOOo",
"OOOOXXXXXOOOOOOOOX.XOOOOOX.   XOOXOXXOOOOOXOOXO   OOOXOX.XX..OOOo",
"OOOOXXOXXOOOOOOOOX.OOOOOOX..  OOOOOXXOOOOOXOOXO   OOOXOXXOX..OOOo",
"OOOOXXOXOOOOOOOOOX.OOOOOOXX.  OOOOOXXOOOOOOOOXO   OOOXOXXOXX.OOOo",
"OOOOXXOXOOOOOOOOOXXOOOOOOXO.  OOOOOXOOOOOOOOOXO   OOOOOXXOXX.OOOo",
"OOOOOXOXOOOOOOOOOO.OOOOOOXX.  OOOOOXOOOOOOXOOXO   OOOXOXXOXXXOOOo",
"OOOOOXOXOOOOOOOOOOXOOOOOOXX.  OOOOOXOOOOOOOOOOO   OOOOOXOOXXXOOOo",
"OOOOOXOXOOOOOOOOOOXOOOOOOXO.  OOOOOXOOOOOOOOOXO   OOOOOOXOOXXOOOo",
"OOOOOXOOOOOOOOOOOOOOOOOOOXOX  OOOOOXOOOOOOOOOOO   OOOOOOOOOXOOOOo",
"OOOOOOOOXOOOOOOOOOOOOOOOOXOX  OOOOOXOOOOOOOOOOX   OOOOOOOOOXOOOOo",
"OOOOOXOOXOOOOOOOOOXOOOOOOOOX  OOOOOOOOOOOOOOOOX   OOOOOOOOOXOOOOo",
"OOOOOOOOOOOOXOOOOOOOOOOOOOOX  OOOOOOOOOOOOOOOOO   XOOOXOOOOOOOOOo",
"OOOOOOOXOOOOOOOOOOOOOOOXOXO   OOOOOXOOOOOOOOOOX   XOOXXOOOOXOOOOo",
"OOOOOOOXOOOOXXOOOOOOOOOOOOX   OOOOOXOOOOOOOOOOX   XOOOXOOOOOOOOOo",
"OOOOOOOOOOOOXXOOOOOOOOOXOOXX  OOOOOOOOOOOOOOOOX   XOOXXOOOOOOOOOo",
"OOOOOOOOOOOOXXOOOOOOOOOXOOX   OOOOOOOOOOOOOXOOX   XXOXXOOOXOOOOOo",
"OOOOOOOOOOOOOOOOOOOOOOOXOXXX  OOOOOOOOOOOOOOOOX   XXOXXXOOXOOOXOo",
"OOXOOOOOOOOOXXOOOOOOOOOXXXX   OOOOOOOOOOOOOXOX.   XXOXXXOXXOOOXOo",
"OXXXOOOOOOOOOOOOOOXOXXXXXX     OOOOOOOOOOOXXXX.    XXXXXXXXOOOXOo",
"XXXXX XX          OOOOOOOO                  X.      XXXXXXXXXXXXo",
"                   XXX     XXX XXXXXXXXXXXXXXX. XX.     OOOOOOO o",
"..X........     OOOOXOOOOOOOXOOOOOXXX..X...OOOOOXXX.    XXXX....o",
"OXXX..XOOO..   OOOOOOOOOOOOOXOOOOOOXOOOX.OOOOOOOXOXXX  XOOOXXXOOo",
"OXXX..OOOOO.   OOOOOXOOOOOOOOOOOOOOXOOOX.OOOOOOOOOOX.  OOOOOXOOOo",
"OXXXX.OOOOOX   OOOOOOOOOOOOOXOOOOOOOOOOXXOOOOOOOOOOXX  OOOOOXOOOo",
"OOXXX.OOOOOX   OOOOOOOOOOOOOOOOOOOOOOOOXOOOOOOOOOOOO.  OOOOOXOOOo",
"OOXXX.OOOOOX   OOOOOOOOOOOOOOOOOOOOXOOOXOOOOOOOOOOOX.  OOOOOXOOOo",
"OOXXOXOOOOOO   XOOOOOOOOOOOOOOOOOOOOOOOXOOOOOOOOOOOO.  OOOOOXOOOo",
"OOOXOXOOOOOO   XOOOXXOOOOOOOOOOOOOOOOOOOOOOOOOOOOOOX.  OOOOOOOOOo",
"OOOXOXOOOOOX   XOOOXXOOOOXOOOOOOOOOOOOOXOOOXOOOOOOOX.  OOOOOXOOOo",
"OOOXOXOOOOOO   XOOOOOOOOOXOOOOOOOOOOOOOXOOOOOOOOOOOO.  OOOOOXOOOo",
"OOOOOXOOOOOO   XOOXOOOOOOXOOOOOOOOOOOOOOOOOOOOOOOOOX.  OOOOOOOOOo",
"OOOXOXOOOOOO   XXOXOXOOOOXOOOOOOOOOOOOOOOOOXOOOOOOOO.  OOOOOOOOOo",
"OOOOOXOOOOOO   XXOXXXOOOOXOOOOOOOOOOOOOOOOOXOOOOOOOO.  OOOOOOOOOo",
"OOOOOOOOOOOO   XXOXXXOOOOXOOOOOOOOOOOOOOOOOXXOOOOOOX.  OOOOOOOOOo",
"OOOOOOOOOOO   XXXXXXXXOOXXXOOOOOOOOOOOOOXXXXXXXXOOOX.X  OOOOOOOOo",
"          XXXXXOOOOOOOOOOOOO               OOO      X.X         o",
"         X............XXXX....X           XXXXXXX XX....X       o",
"XXXX    XOX.XOOX.XXXXXXXX.XXXX..     OOOOOO.XOOOOOOOX.XOOOOXOXXXo",
"OXOXX   OOX.OOOOXXOOOOOOX.OOXXX..   OOOOOOO.OOOOOOOOO.XOOOOOOOOOo",
"OXOXX  XOOXXOOOOXOOOOOOOOXOOOOXX.   OOOOOOOOOOOOOOOOOXXOOOOOOOOOo",
"OXOXX   OOXXOOOOOOOOOOOOOXOOOOXX.   OOOOOOO.OOOOOOOOOXXOOOOOOOOOo",
"OXOXO   OOOXOOOOOOOOOOOOOOOOOOXX.   OOOOOOOOOOOOOOOOOXOOOOOOOOOOo",
"OOOXO   OOOXOOOOOOOOOOOOOOOOOOOX.   OOOOOOOOOOOOOOOOOXOOOOOOOOOOo",
"OOOXO   OOOXOOOOOOOOOOOOOOOOOOOX.   OOOOOOOOOOOOOOOOOXOOOOOOOOOOo",
"OOOXO   OOOXOOOOOOOOOOOOOOOOOOOX.   OOOOOOOOOOOOOOOOOXOOOOOOOOOOo",
"OOOXO   OOOXOOOOOOOOOOOOOOOOOOOX.   OOOOOOOOOOOOOOOOOOOOOOOOOOOOo",
"OOOOO   OOOXOOOOOOOOOOOXXOOOOOOX.   OOOOOOOOOOOOOOOOOOOOOOOOOOOOo",
"OOOOO   OOOXOOOOOOOOOOOXXXOOOOOX.   OOOOOOOOOOOOOOOOOXOOOOOOOOOOo",
"OOOXO   OOOXOOOOOOOOOOXXXXOOOOOXX   OOOOOOOXOOOOOOOOOXOOOOOOOOOOo",
"OOOXO   OOOOOOOOOOOOOOXXXXOOOOOXX   OOOOOOOOOOOOOOOOOOOOOOOOOOOOo",
"OOOOO   OOOOOOOOOOOOOOXXXXOOOOOXX   OOOOOOOXOOOOOXOOOOOOOOOOOOOOo",
"OOOOO   OOOOOOOOOOOOOOOXXXOOOOOXX   OOOOOOOXOOOOOOOOOOOOOOOOOOOOo",
"OOOOO   OOOXOOOOOOOOOOOXXXOOOOOXX   XOOOOOOXOOOOOXOOOOOOOOOOOOOOo",
"OOOOO   OOOXOOOOOOOOOOOXOXOOOOOXX   XOOOOOOXOOOOOXOOOOOXOOOOOOOOo",
"OOOOO   OOOOOOOOOOOOOOOXOXOOOOOXX   OOXOOOOXOOOOOXOOOOOXOOOOOOOOo",
"OOOOO   OOOOOOOOOOOOOOOXOOOOOOOOX   XOXOOOOXOOOOXXOOOOOXOOOOOOOOo",
"OOOOO   OOOOOOOOOOOOOOOXOXOOOOOOO   XOXOOOOXOOOOXXOOOOOXXOOOOOOOo",
"OOOOO   OOOOOOOOOOOOOOOOOOOOOOOXX   XXOOOOXXOOOOXXXOOOXXXOOOOOOOo",
"OOOO     OOOOOOOOOOOOOOXOOOOOOXXX    XXOOOXXXXOXXXXOOOXXXOOOXOXOo",
"                           XX XX      XXXXXXXXXXXXXXXXXXXXX X X o"
};
