/* XPM */
static char *result[] = {
/* columns rows colors chars-per-pixel */
"64 64 8 1 ",
"  c #007959",
". c #00A800",
"X c #54FC54",
"o c #FCFC54",
"O c gray99",
"+ c gray33",
"@ c black",
"# c white",
/* pixels */
" ............XXXXXXXXXXXXXX.....................................",
" ........XXXXXXXXXXXXXXXXXXXXXXXX...............XXXX............",
" ......XXXXXXXXXXXXXXXXXXXX.....XXXX........XXXXXXXXXXX.........",
" .....XXXXXXXXXXXXXXXXXXXXXXXXX....XXXXXXXXX..XXXXXXXXXXX.......",
" ....XXXXXXXXXXXXXXXXXXXXXXXXXXXX...........XXXXXXXXXXXXXXX.....",
" ....XXXXXXXXXXXXXXXXXXXXXXXXXXXXXXX.....XXXXXXXXXXXXXXXXXXX....",
" ...XXXXXXXXXXXXXXXXXXXXXXXXXXXXXXXXXXXXXXXXXXXXXXXXXXXXXXXX....",
" ...XXXXXXXXXXXXXXooooooooooooXXXXXXXXXXXXXXXXXXXXXXXXXXXXXXX...",
" ...XXXXXXXXXXXXooXXXXXXXXXXXXooooXXXXXXXXXXXXoooooXXXXXXXXXX...",
" ...XXXXXXXXXXooooooooooooooXXXXXXooooXXXooooooXXXoooXXXXXXXX...",
" ...XXXXXXXXXooooooooooooooooooXXXXXXoooooooXXXXXXXXooXXXXXXX...",
" ...XXXXXXXXoooooooooooooooooooooooXXXXooooooooooXXXXooXXXXX....",
" ...XXXXXXXXoooooooooooOOOOOOOooooooooooooooooooooXXXXoXXXXX....",
" ....X.XXXXooooooooooOOOOOOooOOOOooooooooooooooooooXXXoXXXXX....",
" ....X.XXXXoooooooooOOOOOOOOOoooOOOOOoooOOOOooooooooXXoXXXXXX...",
" ....X..XXXoooooooooOOOOOOOOOOOoooooOOOOOOOOOOooooooXXoXXXXXX...",
" ....XX.XXXooooooooOOOOoooooOOOOOOOOOOOOOOOOOOoooooooXoXXXXXXX..",
" ....XX..XXooooooooOOOoooooooooOOOOOOOOOoooOOOOooooooXoXXXXXXX..",
" .....XX..XXoooooooOOooooOOOOoooooOOOOooooooOOOooooooooXXXXXXX..",
" .....XX..XXoXoooooOOoooOOOOOOOoooooooooooooOOOoooooooXXXXXXXX..",
" .....XXX..XoXoooooOOooOOOOOOOOOoooooOOOoooOOOOoooooooXXXXXXXX..",
" ......XX..XoXXooooOOOoOOOOOOOOOOOOOOOOOOooOOOOooooooXXXXXXXXX..",
" ......XXX.XooXooooOOOoOOOOOOOOOOOOOOOOOOoOOOoOoooooXXXXXXXXXX..",
" .......XX.XooXooooOOOooOOOOOOOOOOOOOOOOOoOOOoOoooooXXXXXXXXXX..",
" .......XX.XXoXXooooOOOoOOOOooOooooooOOOOoOOOoOOoooXXXXXXXXX.X..",
" .......XX.XXoXXooooOOOooOOoOoooooooOoOOOooOOooOoooXXXXXXXXX.X..",
" .......XX.XXoXXooooOOOOoOoOooo+@@+ooOoOOOoOOOoOoooXXXXXXXX..X..",
" .......XX.XXoXXooooOoOOoooooo+@@@@+oOOoOOooOOoOooooXXXXXXX..X..",
" .......XXXXXoXoooooOoOOOoOooo+@@@@+ooOoOOooOOOOooooXXXXXXX..X..",
" .......XXXXXoXooooOOoOOOoOooo+@@@@+ooOoOOooOOOOOoooXXXXXXX..X..",
" .......XXXXXoooooOOooOOOooOooo+@@+oooOoOOooOOOOOoXoXXXXXXX..X..",
" ......X.XXXXoooooOooOOOoooOoooo@@oooOoOOOooOOOOOoXooXXXXXX..X..",
" ......X.XXXXoooooOoOOOooooOooo+@@+ooOoOOoooOOOOOoXXoXXXXXX..XX.",
" .....XX.XXXoooooOOoOOoooOOoOoo+@@+ooOoOOooOOOOOooXXooXXXXX...X.",
" .....X..XXXoooooOoOOOooOOOoOoo+@@+ooOoOoooOOOoOoooXXoXXXXX...X.",
" ....X..XXXXoooooOoOOoooOOOoOo+@@@@+oOooooOOOOoOoooXXoXXXXX...X.",
" ...XX..XXXooooooOoOOoooOOoOoo+@@@@+ooOoooOOOoOOoooXXoXXXXXX..XX",
" ...X..XXXXooooooOOOOooooOoOoo@@@@@@ooOooOOOOoOooooXXoXXXXXX...X",
" ..X...XXXXoooooooOOOOoooOOooooooooooooooOOOOoOoooooXooXXXXX...X",
" ..X...XXXooooooooOOOOooooOOooooooOoooOOooOOOoOoooooXXoXXXXX...X",
" .XX..XXXXoooXoooooOOOOoooOOOOOOOOOOOOOOOoOOOoOoooooXXoXXXXX...X",
" .X...XXXXoooXXooooOOOOooOOOOOOOOOOOOOOOOooOOooOooooXXoXXXXX...X",
" .X...XXXXooXXXooooOoOOooOOOOOOOOOOOOOOOOOoOOOoOoooooXoXXXXXX..X",
" .X...XXXXooXXXoooOOoOOooOOOOOOOOOOOOOOOOOoOOOoOOooooXoXXXXXX..X",
" .X..XXXXXooXXXoooOooOOoooOOOOOooooOOOOOOOoOOOOoOooooXoXXXXXX.XX",
" .X..XXXXXoXXXXoooOooOOooooooooooooooOOOOooOOOOoOooooXoXXXXXX.XX",
" .X..XXXXXoXXXooooOoOOOOoooooOOOOOoooooooooOOOOOOooooXoXXXXXX.XX",
" .X..XXXXXoXXXooooOoOOOOOOOOOOOOOOOOooooooOOOOOOoooooXoXXXXXX.X.",
" .X..XXXXXoXXXooooOOOOOOOOOOOOOOOOOOOOOOOOOOOOOOoooooooXXXXXXXX.",
" .XX.XXXXXooXXoooooOOOOOOooooooooooOOOOOOOOOOOOoooooXooXXXXXXXX.",
" .XX.XXXXXXoXXooooooOOOOOOOOOooooooooooOOOOOOOooooooooXXXXXXXXX.",
" .XX.XXXXXXoXXooooooooooooooOOOOoooooooooOOOooooooooooXXXXXXXXX.",
" ..X.XXXXXXooXXoooooooooooooooooOOOOOOOOOooooooooooooXXXXXXXXXX.",
" ..XXXXXXXXXooXXooooooooooXXXXXXXXooooooooooooooooXooXXXXXXXXX..",
" ...XXXXXXXXXoooXXoooooooooooXXXXXXXXXooooooooooXXooXXXXXXXXXX..",
" ...XXXXXXXXXXooooooooXXXXXXoooooXXXXXXXXXXXXXXXoooXXXXXXXXXXX..",
" ....XXXXXXXXXXXXXXXXXXXXXXXXXXXoooooXXXXXXXXooooXXXXXXXXXXXX...",
" .....XXXXXXXXXXXXXXXXXXXXXXXXXXXXXXooooooooooXXXXXXXXXXXXXXX...",
" ......XXXXXXXXXXXXXXXXX.......XXXXXXXXXXXXXXXXXXXXXXXXXXXXX....",
" .......XXXXXXXXXXXXX.................XXXXXXXXXXXXXXXXXXXXX.....",
" .........XXXXXXX.......XXXXXXXXXXXXXX....XXXXXXXXXXXXXX........",
" ............XXXXXXXXXXXX............XXXXXXXXXXXXXX.............",
" ...............................................................",
" ..............................................................."
};
