/* XPM */
static char *result[] = {
/* columns rows colors chars-per-pixel */
"63 63 33 1 ",
"  c #2C2C2C",
". c #202020",
"X c black",
"o c gray22",
"O c gray27",
"+ c gray8",
"@ c #492410",
"# c #552C14",
"$ c #65381C",
"% c #512810",
"& c #5D3018",
"* c #381C0C",
"= c #41200C",
"- c #4D2424",
"; c #714120",
": c #45200C",
"> c #4D2410",
", c #794924",
"< c #341818",
"1 c #515151",
"2 c #3C1C0C",
"3 c gray51",
"4 c DimGray",
"5 c gray46",
"6 c #CBCBCB",
"7 c #9A9A9A",
"8 c gray65",
"9 c #5D5D5D",
"0 c #8E8E8E",
"q c #B2B2B2",
"w c #552828",
"e c #411C1C",
"r c white",
/* pixels */
" ..............................................................",
" .............X ........Xo.....................................",
" .... o X......... o X.......... o X ....... o X........ o X...",
" ....oOoX.........oOoX..........oOoX........oOoX.......XoOoX...",
" .... o XX ....... o X.......... o X........ o X........ o X...",
" ..............................................................",
" ..............................................................",
"X++++++++++++++++++++++++++++++  ++++++++++++++++++++++++++++++",
" o .@#$%$#&&#&#$#*=@%&@#%%#&#-. o.-&@#$%$#&&#&#%*=@%&@#%%#&-. o",
". o .-;#$&$;$$$$&:#>#$%$#&&$&-. O.-;>&;#$&$;$$$&:#>#$%$#&&-. o ",
"-. o .-&,$;,$;;,$@&%&$#;$$;;$-. o.-,#$,&,$;,$;;$@&%&$#;$$-. o .",
"&-. o .-,;;,;;;,;<&%&;&,;$;,$-. O.-,#$;&,;;,;;;$<&%&;&,;-. o .-",
"&$-. o .-;;;$;$,;<&%&$&,;$;,$-. o.-;&$;&,;;;$;$$<&%&$&,-. o .-;",
"&&$-. o .-;$;,$;$@&%&$$,;;;;$-. o.-;$$$&;$;$;,$$@&%&$$-. o .-:$",
"&$&$-. O .-$;,$;$=&%&$;,,;,$;-. O.-$;$&&;$;$;,$$=&%&$-. o .-;:$",
"&$&$;-. o .-;,&;;=&#&$$,,$;$$-. o.-$;$#&;;;&;,&;=&#&-. o .-$;=#",
"&$#$;;-. o .-,&;$=&#&$$;,;,$;-. o.-$;;#&;$;&$,&;=&#-. o .-$;&=#",
"&$#$$;%-. o .-#;$=&#&&$;,;;$,-. O.-$$;%&;$;&;,#;=&-. o .-;$,&=#",
"&$@$;,:&-. O .-,;=&#&$$$;$,$;-. o.-$;,:&,;;&;;&$=-. o .-$,$;&=#",
"&$@$$;:&,-. o .-;=&#&&#&;$,$$-. O.-$$;:&,;;&;,#$-. o .-;$,$$&=#",
"$$@$;,%$;;-. o .-=&#&$#$,$;$$-. O.-$;,%$;;$&$;#-. o .-$,$;$$&=#",
"$&@&$,&$,;$-. Oo.-@%&;#$,$,$;-. O.-&$,&$,;$#$;-. o .-#$,$,$;&=#",
"$&@#$;&$;;$#-. 1 .-%&;#;,$,$;. oo .#$;&$;;$#$-. o .-;#;,$,$;&>#",
";%@%#,&;;;$#;-. O .-&$%;;$,$. o  o .#,&;;;$#-. o .-&$%;;$,$,&>#",
";#=#&;&;;;$#$$-. o .-;@$;$;. o .. o .;&;;;$-. o .-%&;@$;$;$;&>#",
",@<@#$&,$;$&;$#-. o .-@$;$. o .  . o .&,$;-. o .-&%&;@$;$;$,$>#",
",@<=@;&,&;$&,;&&-. o .-&$. O . OO . O .,&-. o .-2$&&$@&$;$$;$>#",
";@<@@,&;&;$&,;&&;-. o .-. o . 134O . o .-. o .-;=&&&&@#&$;$;$>#",
",#@@#;&,&;$&,;&&;<-. o . o . O5674O . o . o .-&;<$&&#=>&$$$$&>#",
",&@&$;&,&;$&;;#&;=$-. o O .OO478754O . O o .-;#$=$&&>=%&&;$&#=#",
",&@#$;&,&,$&;;&&,=&&-. o .o940000054O . o .-;;&$=&&>%@#&&$&#>=#",
",#@#$,&,&,$&$;&&,<$&. O .O48003333054O . O .-;&;<$&>&%$&&$&&==#",
";#@#$,&;&,$&;,#&,<$. O .O48q8030033034O . O .-#$<$&%$%;&&&$&>=#",
";#@#$;&;&,$&;,#&,<. o . O40870333333834O . o .-$<$##;&$&$&;&%=#",
"$###$,&$&,$&$,#&,. o . O4030030303330754O . o .-<$&&$;$&;&;$#>#",
"$#@#$,&$&,$&;,#&. O . O400303033333078054O . O .-&#$$$$&$&,$$%#",
"$&#&$,&$&,$&;,#. o . O40870330703008qqq734O . o .-&$$;$&;&,$$##",
"$$#&$,&$&;$&$,. o . O1455445544544454354441O . o .-;$;$&;&;$$&#",
"$$&$$,$$&;$&;. o . O19191191119191911491991OO . o .-$$$&;&$$&&#",
"$$$;$;;$&$;&. o      o   o  o      o  o   o      o .-;$&$&;$%$#",
"$$;;$;;$&$;. oooooOoooOooOOOOO. o.OOOOOooOoooOooooo .-;$$#$$%$%",
"$$;,$$;$&$. o                 . O.                 o .-$;&&;%;%",
"$$;,$;$$&. o .<w-ewww--w-w----. o.w-w-www-w-ww-wew. o .-$&$$&$%",
"$$;,$;$$. o .w<&$=&&;$;,$$&$$w. O.w,$;$$&$;&;@<@=&w. o .-&$$&$%",
"$$;,$$;. o .w#=&$=&&;$;,$;&&;w. o.w,$$;$&$$&,#=#=&&w. o .-&;%;%",
"$$;;$;. o .w,%@&$=&#$$;;$$#$$-. o.w;$;;$&$;&,%@%=&#$w. o .-$%$%",
"$$$;$. o .-&;&%&$=$#;$;$&$&;$w. O.w;$;;$&$;&;&%#=$#;$-. o .-%$#",
"$$&$. o .-$&;$#&;=$#;$$$&;&$$-. o.w$$,$$&;$&;$#&=$#;$$w. o .-&#",
"$$#. o .-;$&$,%&;=$#;$;$&;&;$w. o.w&$,&$&;$&$,%&=$#;$;$-. o .-#",
"$&. o .-&,$&;,#&,=$&$$;$&;&,$w. O.w&$,&$&,$&;,#&=$&$$;$&w. o .-",
"$. o .w$&,$&;,#&,=&#$$$$&$&,$-. o.w#$,&$&,$&;,#&=&#$$$$&$w. o .",
". o .w&$&,$&$,#&,<$&&$;$&;&;$w. O.w#$,&$&,$&$,#$<$&&$;$&;&w. o ",
" o .w&%&%$#%&$>%$<#>>&%#%#%&%w. O.w>#&%&%$#%&$>#<#>>&%#%#%$w. o",
".oOOoo         ooOOoo  ooo    + O+ ooOooOoOo    oOOooOOooOOo   ",
" ..............................................................",
" .............X ........Xo.....................................",
" .... o X......... o X.......... o X ....... o X........ o X...",
" ....oOoX.........oOoX..........oOoX........oOoX.......XoOoX...",
" .... o XX ....... o X.......... o X........ o X........ o X...",
" ..............................................................",
" ..............................................................",
" .................X ............Xo...............X ............",
"+++++++++++++++++++++++++++++++++++++++++++++++++++++++++++++++"
};
