/* XPM */
static char *result[] = {
/* columns rows colors chars-per-pixel */
"121 127 38 1 ",
"  c #007777",
". c #007B7B",
"X c #007373",
"o c #008F8F",
"O c #005B5B",
"+ c #007F7F",
"@ c #00A7A7",
"# c #004343",
"$ c #006F6F",
"% c #4BC3C3",
"& c #9FDFDF",
"* c #009B9B",
"= c #00B7B7",
"- c #008787",
"; c #23B3B3",
": c #009F9F",
"> c #77CBCB",
", c #23B7B7",
"< c #00ABAB",
"1 c black",
"2 c #AB5700",
"3 c #F3B323",
"4 c #D7D700",
"5 c #C7C700",
"6 c #BBBB00",
"7 c #E3E300",
"8 c #2F2F2F",
"9 c gray23",
"0 c #2B1700",
"q c gray12",
"w c #1B0700",
"e c #372300",
"r c #6B6B00",
"t c #BBEBEB",
"y c #DBF7F7",
"u c #5B5B5B",
"i c #573F1F",
"p c white",
/* pixels */
"                                                                              .               .                          ",
"........... . .................. ....................... ................       . .......       . ...... ................",
"           .                                                             .. ..  ..       .. ..  ..                       ",
"..XXoooo.. ......... ...... ......... ...... ...... ......... ...... ...... ........ ...... ................. ...XXoooo..",
" OO+o@@@o..  . . ..  ..  ... . ... ... . .+. .+. ... ...+.........+...+...............+............... ... ...  OO+o@@@o.",
".##$o%&%X.................................+++.+.+.+.+.+.+.+...+.+.+++++++..++.++.++.+++++..++.++.++.++.........$##$o%&%X.",
".##O+*=*$.+.........+......+.........+......+......+.........+......+....++..++++++++.+..++..++++++++.+......+.O##O+*=*$.",
"+###O++XO+.+.++++++++++++++++++++++++++++++++++++++++++++++++++++++++++++++.++..+..++.+++++.++..+..++.+++++++++O###O++XO+",
".O#####O$..+....................+.......................+............++.........+...............+..............OO#####O$.",
"+OO###O$++++.+++..++.++..++.+++++++++.+++++++++++++++++++++++++++++++++++..+..+...+..+..++.+..+...+..+..+++++.+$OO###O$++",
"+XOOOO$++++.................+.+++.+.+.+.+++++++++++++++++++++++++++++++++++++++++++++++++++++++++++++++++++.+.++XOOOO$+++",
"+++o+X+o+o+++++++++++++++++++++++o+++o+++o+++o+o+++o+++o+o+ooo+++o+ooo+oo+++++++o++++++o++o+++++o++++++o++o++o++++o+X+o+o",
"+++++++++++o++++++++++++++++++++++++++++++++++++++++++++++++++++++++++++++++o+++o++oo++o++o+++++o++oo++o++o++++++++++++++",
"+ooooo+ooo+++++ooooo+ooooooooooooooooooooooo+ooooooooooooooooooooooo+oooooooooooooooooooooooooooooooooooooooooooooooo+ooo",
"oo++oo+oo+o+-+    +  ++     ++     ++     +  ++     ++     ++     +  ++   ++  ++ ++ +++ ++  +o+o+oo+ooo+oo++oo++o++oo+oo+",
"+oooooooooo++XX############################################################################################OXoooooooooooo",
"oooooo*oooo+X*OOOOOOOOOOOOOOOOOOOOOOOOOOOOOOOOOOOOOOOOOOOOOOOOOOOOOOOOOOOOOOOOOOOOOOOOOOOOOOOOOOOOOOOOOOOOOOOoooooooo*ooo",
"oo***o*o*ooo;:*------------------------------------------------------------------------------------------- O#***o***o*o*o",
"o**o*ooooo**>,:*ooooooooo*oooooo*oooooo*ooooooooo*oooooo*oooooo*ooooooooooo*****o******o*********o*****o**-O#*****o*ooooo",
"**XXoooo***o>%:**********************************************************o**oo**o**oo**o**oo*oo**o**o**o**-O#ooo*XXoooo**",
"*OO+o@@@oo*o>%:ooooo*ooooooooooooooooooooooo*ooooooooooooooooooooooo**ooooooooooooooooooooo**o***ooo*ooooo-O#o**$O+o@@@oo",
"o##$o%&%X*o*>%:o**o***o**o***o*****o***o**********************************oo**oo*oo**oo*oo*o***oo@*o**o*oo-O#**X##$o%&%X*",
"o##O+*=*$*o*>%:ooooooooooooo***o*o*ooo*o*********************************************************@********-O#*-X##O+*=*$*",
"*###O++XO***>%:**************@***@*********@*@*@@@***@*@*@*@***@***@*@@@@*****@***@**@******@******@**@***-O#*-X###O++XO*",
"*O#####OX***>%@***************************************************************@***@**@**@@**@**@@**@**@**@-O#**-O#####OX*",
"*XO###OX@@**>%@@@@@@@@@@@@@@@@@@*@@@@@@@@@@@@@@@@@@@@@@@*@@@@@@@@@@@@@@@@@@@@@@@@@@@@@@@@@@@@@@@@@@@@@@@@@oO#@@-XO###OX@@",
"*-XXXX-@***@>%@*@@**@**@<$11111111111111111111111111111111111111111111111111111111111111111111X<@@@@@@**@@oO#@@:-XXXX-@**",
"*:---:@@@@*@>%@@@@@@@@@@$1111111111111111111111111111111111111111111111111111111111111111111111X@@@@@@@@@;*O#@@@:---:@@@@",
"@@@@@@@@@@@@>%@@*@@**@@*111233333333333333333333333333333333333333333333333333333333333333332111@@@@@@@@@@*O#@@@@@@@@@@@@",
"@;;@;;;@;;@@>%@@@@@@@@@@112344566666666666666666666666666666666666666666666666666666666665443211-@;;;@;;@;*O#;@@;;@;;;@;;",
";@@@@@@@@@;@>%@@@@@@;@@@113732111111111111111111111111111111111111111111111111111111111111237311-@@@@@@@@@oO#@@@@@@@@@@@@",
"@;@;;@;;@@@;>%@@;;@@;@@;113721111111111111111111111111111111111111111111111111111111111111127311-;;@;;@@;@oO#@;;;@;;@;;@@",
";;;;;@@@;;@;>%;@@@@@@@@@113411111111111111111111111111111111111111111111111111111111111111114311-;;@@@;;;;*O#;;;;;;;@@@;;",
"@;;,@,;;;@@;>%;;@@;;@;;@113511118911111111111111111111111111111111111111111111111111111891115311-@@,;;;@;;*O#,;;;;,@,;;;@",
";;;;;,;;;;;@>>;@@@@@@@@@11351110qq01111111111111111111111111111111111111111111111111110qq0115311-;;,;;;;;;*O#,;;;;;;,;;;;",
";,*Xoooo;;;;>>,;;;;;;;;;1135111we0w111111111111111111111111111111111111111111111111111we0w115311-,;;;;;;,;*O#;;;,*Xooo*;;",
";*O+o@@.o,;,>>%;;;;;;;;;113511111111111111111111111111111111111111111111111111111111111111115311X,,;,,,,,,*O#,,,*O+o@@.o,",
";##$o%&%X%;,>&%,,,,,;,,,113511111111111111111111rrrrrr1111rrrrrrrrrrrrrrrr1111111111111111115311X%%%,,%%,,:O#,,*##$o%&%X%",
",##O+*=*$,,;>&%,;;,,;,,;113511111111111111111111rrrrrr1111rrrrrrrrrrrrrrrr1111111111111111115311X,,%,,,,,%;O#%%o##O+*=*$,",
",###O++XO%,,>&%,,,,,,,,,113511111111111111111111rrrrrr1111rrrrrrrrrrrrrrrr1111111111111111115311X,%%%%%%,%;O#%%o###O++XO%",
"%O#####O-%%,>&%,,%,,%,,%113511111111111111111111rrrrrr1111rrrrrrrrrrrrrrrr1111111111111111115311X%%,%%%%%%;O#%%oO#####O-%",
",oO###O+>>,%&t>%%%%%%%%%113511111111111111111111rrrrrr1111rrrrrrrrrrrrrrrr1111111111111111115311X>%,%%%%%%;O#%%@oO###O+>>",
"%@oooo*%%%%%&t>%,,,,,,,,113511111111111111111111rrrrrr1111rrrrrr11111111111111111111111111115311X%%%%%%%%%;O#%%%@oooo*%%%",
"%%@@@%>>%>%%&t>%%%%%%%%%113511111111111111111111rrrrrr1111rrrrrr11111111111111111111111111115311X%>>%%>>%>%O#>>>%@@@%>>%>",
">%%%>>%%>>>%&t>%%%%%%%%%113511111111111111111111rrrrrr1111rrrrrr11111111111111111111111111115311X%%%%%%%>>%O#>>>%%%>>%%>>",
"%&>>>>>>&>%%&t>%>>%>>>%>113511111111111111111111rrrrrr1111rrrrrr11111111111111111111111111115311X>%%>>%>>%%O#%%%&>>>>>>&>",
"%%>%%%>%%%%>tt>%%%%%%%%%113511111111111111111111rrrrrrrrrrrrrrrrrrrrrrrrrr1111111111111111115311X>>>>>>>>>%O#>>>&>>>>>>&>",
">>>&&>>&>>&&tt&>>>>>>>>>113511111111111111111111rrrrrrrrrrrrrrrrrrrrrrrrrr1111111111111111115311X&&&&&&&&&&O#&&&&&&&&&&&&",
"&&&&&&&>&&&&tt&&>>&&>&&>113511111111111111111111rrrrrrrrrrrrrrrrrrrrrrrrrr1111111111111111115311X>>&>>&>&&&O#&&&>>&&&&>&&",
">t&&tt&ttt>>yt&&&&&&&&&&113511111111111111111111rrrrrrrrrrrrrrrrrrrrrrrrrr1111111111111111115311X&&&&&&&&t&O#tttt&&tt&ttt",
"&t&&&&&tt&&&yt&>&&>>&>>&113511111111111111111111rrrrrrrrrrrrrrrrrrrrrrrrrr1111111111111111115311X&&&&&&&&&&O#&&&t&&&&&tt&",
"&t;Xoooott&ty&&&&&&&&&&&1135111111111111111111111111111111rrrrrr1111rrrrrr1111111111111111115311Xtt&ttttt&&O#tttt;Xoooott",
"&*O+o@@@@tttyytt&&t&&&t&1135111111111111111111111111111111rrrrrr1111rrrrrr1111111111111111115311X&ttt&tttt&O#tttoO+o@@@@t",
"&##$o%&%Xy&&yytttttttttt1135111111111111111111111111111111rrrrrr1111rrrrrr1111111111111111115311X&ttt&ttty>O#ytt##$o%&%Xy",
"t##O+*=*$tttyyt&&&&&t&&&1135111111111111111111111111111111rrrrrr1111rrrrrr1111111111111111115311Xtttyttttt&O#tt%##O+*=*$t",
"t###O++XOtttyytttttttttt113511111111111111111111rrrrrrrrrrrrrrrr1111rrrrrr1111111111111111115311Xyytyyytyy>O#ty;###O++XOt",
"yO#####O*tytyyttttttttty113511111111111111111111rrrrrrrrrrrrrrrr1111rrrrrr1111111111111111115311Xttttttttt&O#t&@O#####O*t",
"t*O###Oottttyyyttyytyytt113511111111111111111111rrrrrrrrrrrrrrrr1111rrrrrr1111111111111111115311Xttytttttt&O#t&,*O###Oott",
"t%*o**;%&&tyyyyttttttttt113511111111111111111111rrrrrrrrrrrrrrrr1111rrrrrr1111111111111111115311Xttytt&&tt&O#t&>%*o**;%&&",
"t>,,,,%tttttyyyyt&ttt&tt113511111111111111111111rrrrrrrrrrrrrrrr1111rrrrrr1111111111111111115311Xttttttttt&O#tt&>,,,,%ttt",
"tt&&&&&&t&ttyyytt&ttt&tt113511111111111111111111111111111111111111111111111111111111111111115311Xt&&&t&&t&>O#&&&t&&&&&&t&",
"&ttt&&&&&&&&yyttttt&tttt113511111111111111111111111111111111111111111111111111111111111111115311Xttt&ttt&&>O#&&&ttt&&&&&&",
"t>&&&&&>>&&ty&t&&t&&&t&&113511111111111111111111111111111111111111111111111111111111111111115311X&&t&&t&&t&O#ttt>&&&&&>>&",
"&>&&&&&&&&&&ytttt&&t&&&t113511111111111111111111111111111111111111111111111111111111111111115311X&&&&&&&&&&O#&&&>&&&&&&&&",
"&&&>&&>&&>&&ytt&&>&&&>&>113511111111111111111111111111111111111111111111111111111111111111115311X&&>&&>&&&&O#>&&&&>&&>&&>",
">&&>>>>>>>>>yt&&&&&&&&&&113511111111111111111111111111111111111111111111111111111111111111115311X&&>>&>&>>%O#>>>&&>>>&&>>",
"&%>>%%>%%%>>yt&>>>>>>>>>113511111111111111111111111111111111111111111111111111111111111111115311X>>>>>>>>%%O#%%%%>>%%>%%%",
"&%oXoooo%>>>tt&>>&>%>&>%113511111111111111111111111111111111111111111111111111111111111111115311X>>>>>>>>>%O#>>>%oXoooo%>",
">-O+o@@@o%>>tt&>>%>%>%%%113511111111111111u1uuuii1uu119uiu19u9i911uuu9u91uu919u91111111111115311X%%%%%%%%%;O#%%%+O+o@@@o%",
"%##$o%&%X%%%tt>>>%>>>%>>113511111111111111111111111111111111111111111111111111111111111111115311X>%%>>%%%%;O#%%%##$o%&%X%",
">##O+*=*$,%>tt>%%%%%%%%%113511111111111111uu1uuii9uu1uu11u9uu91919uiiu91uu9iu1i91111111111115311X>%%%%%%%%;O#%%:##O+*=*$,",
"%###O++XO%%%tt>>>>%%%>>>113511111111111111111111111111111111111111111111111111111111111111115311X%%%%%%%%%;O#%%:###O++XO%",
">O#####O+,%%tt>%%%%%%%%%113511111111111111uiuuuu9iu911uu1u1uu91uu1uuiu9u11ui1ui91111111111115311X,,%,,%,,,;O#%,:O#####O+,",
"%:O###O+%,%,t&>%%%%%%%%%113511111111111111111111111111111111111111111111111111111111111111115311X%%%%%%,,%:O#%%::O###O+;,",
"%:--XX-%,,%%t&>%%,,%,,,%113511111111111111uuuu91u1uu11uiu1ui1uuu991uu1uu1uiu1ui91111111111115311X%%,%%,,,,:O#,,,:--XX-;,,",
",,:::,,,,,,,&&>%%%,%,%%%113511111111111111111111111111111111111111111111111111111111111111115311X,,,,,,,,,*O#,,,,:::,,,,,",
"%;;;;;;;;;,,&&%,,,,,,,,,113511111111111111uu1uu11uuu1u911u1uu91u1u911uuiuuuu91uu1111111111115311X;;;;;;;;;*O#;;;;;;;;;;;;",
"%;;;,,,;,;,;&>%;;,;;;,;;113511111111111111111111111111111111111111111111111111111111111111115311X;,,,;,;;,*O#,,,;;;,,,;,;",
",;;;;;;;;;,,&>%;;;;,;;;;113511111111111111iiuuuu91uiiiu91uiuu91911uuiuu911u919uu1111111111115311X;;;;;;;;;*O#;;;;;;;;;;;;",
";;;;;;;;;;;;>>%,,;;,;;;,113511111111111111111111111111111111111111111111111111111111111111115311X;;;;;;;;;*O#;;;;;;;;;;;;",
";@@@@@@@@@;;>%,;;;;;;;;;113511111111111111uuuuuiu11uiiu1uiu1iuuuui1u11u119uuuu1u1111111111115311X@@@@@@@@@oO#@@@@@@@@@@@@",
"@;;@@;@@;;@@>%;@@;;@;;@@113511118911111111111111111111111111111111111111111111111111111891115311X@@;@@;;@@*O#@@@;;@@;@@;;",
";@@@@;@@@@;;>%;@@@@@@@@@11351110qq01111111111111111111111111111111111111111111111111110qq0115311X@@;@@@@@@*O#@@@@@@@;@@@@",
"@*+Xoooo;;@@>%;;;@;;;@;;1135111we0w111111111111111111111111111111111111111111111111111we0w115311X@;@@@;;;@*O#;;;@XXoooo;;",
"@$O+o@@@o*@;>%;@;@;@;@;@113511111111111111111111111111111111111111111111111111111111111111115311X@@@@@@*;@*O#@;;$O+o@@@o*",
"@##$o%&%X@@@>%;@@@;@;@@@113511111111111111111111111111111111111111111111111111111111111111115311X@@@@@@@@@oO#@@@##$o%&%X@",
"@##O+*=*$@@@>%;@@@@@@@*@113721111111111111111111111111111111111111111111111111111111111111127311X**@**@@@@-O#**-##O+*=*$@",
"*###O++XO@@*>%@@@@@@@@@@113732111111111111111111111111111111111111111111111111111111111111234311X@@@@@@*@@-O#@@-###O++XO@",
"@O#####OO@@@>%:*@**@**@*112377555555555555555555555555555555555555555555555555555555555554773211X*********-O#**-O#####O.@",
"*XO###OO*@**>%:*@**@**@*111233333333333333333333333333333333333333333333333333333333333333332111X@@***@@@*-O#@*-XO###O$*@",
"@-XXXX-****@>%:*********O1111111111111111111111111111111111111111111111111111111111111111111111#X*********-O#***-XXXX-***",
"**----**@***>%:**@***@**+O11111111111111111111111111111111111111111111111111111111111111111111#X-*********-O#****----**@*",
"@ooo********>%:***********XOOOOOOOOOOOOOOOOOOOOOOOOOOOOOOOOOOOOOOOOOOOOOOOOOOOOOOOOOOOOOOOOOOXXoooooooo*oo-O#oooooo******",
"o***o***o*oo>%:**o***o**o**------------------------------------------------------------------******o******-O#******o***o*",
"*o**o***o*o*>%:**o***o**o*******o******o**o***o**o******o******o******o**o******o**oooo*oooooo*oo**oooo*oo-O#o**o**o***o*",
"o*****o***oo>%:****o*******o**o***o**o******o******o**o***o**o***o**o******o**o***oo*********o****oo******-O#o*******o***",
"**ooo*o*oo**>%:ooo*o*ooo*o*o**o*o*o*ooo*ooo*o*ooo*ooo*ooooooooooooooooooooooooooooooo*ooo*oo*oooooooo*ooo*-O#ooo*ooo*o*oo",
"ooo***o***oo>%*o***o***ooo****o*o*ooo*ooo***o***ooo***ooooooooo+oooooooooooooooo+ooooooooooooooo+ooooooooo-O#*oooo***o***",
"ooooo+oooooo>%*ooo+oooooooooooooooooooooooo+ooooooooooooooo+ooo+ooo+o+ooo+oo++oo+oo+o++o++oo++oo+oo+o++o+++O#ooooooo+oooo",
"ooXXoooooo++>%*ooooooooooooooooooooooooooooooooooooooooooooooooooooooooooooooooooooooooooooooooooooooooooo+O#ooooXXoooooo",
"+$O+o@@@o+oo>%*++o+++o++o+++oo++o++o+++o++o+++o++o+++o++o++oo++o++o+++o++o+++o++o++o+++++++++o++o++o++++++ O#+++OO+o@@@o+",
"+##$o%&%X+o+>%*++o+++o++o+++++++o++o+++o++o+++o++o+++o++o++++++o++o+++o++o+++o++o++oooo+oo+++o++o++oooo+o+ O#+++##$o%&%X+",
"$##O+*=*$+oo>%*++++o+++++++o++o+++++++++++++o+++++++++++++o+++++++++++++++++++++++++++++++++++++++++++++++ O#+++##O+*=*$+",
"$###O++XO+++>%*o+++o+++o+++o++o+++o+++++o+++o+++o+++++o+.+o+.+.+++.++..++..+..++..+.+++++..+..++..+.+++++++O#+++###O++XO+",
"+O#####OO+++>%*+++++++++++++++++++++++++++++++++++++++++++...+...+++..................................++++ O#+++O#####OO+",
".XO###OO+...>%*..++.++..+++.++.++..++.++..++.++..++.++..++.++.++..++.++..++.++..++.++++..++.++..++.+++.++. O#.++XO###OO+.",
".+XXOOX+++++>%*++++.+++++++.++.++++++.++++++.++++++.++++++.++.++++++.++++++.++++++...++++++.++++++..++.+++ O#.+++XXOOX+++",
"+.+XX+++.++.>%*++.+++.++.+++++++.++.+++.++.+++.++.+++.++.++++++.++.+++.++.+++.++.+++++.++.+++.++.+++++++.+ O#+++.+XX+++.+",
"...+X+.+.+++>%*.+.+.+.+...++...+.+...+...+.+.+.+...++.............................................++...+.+.O#+....+X+.+.+",
"++...+.+....>>*-------------------------------------------------------------------------------------------+OO...+...+.+..",
"......... ..o%&>,,::::::::::::::::::::::::::::::::::::::::::::::::::::::::::::::::::::::::::::::::::::::::-O$........... ",
"             o@=>>========================================================================================-$             ",
". ..  .  ...  ..  .. ...   .  .   .  .  ..  .  ..  .  .   .  .   .  .  ..  .     .  .  ..  .  ..   .  .   .  .   ..  .  .",
".     .                .   .  .   .  .      .      .  .   .  .   .  .      . .   .  .      .   .   .  .   .  .       .   ",
"    .   .   . . ..   ..  .      .         .   .                                              ..  .      .          .   . ",
"  XXoooo.   . .          .  .   .   .     .   .     .     $   $ $ . $$ $$ $   $ $ . $$ $$ $      .  .   .   .    XXoooo. ",
" OO+o@@@o                                                                                                       OO+o@@@o ",
" ##$o%&%X   $$$  $ $$    $  $$  $  $$  $  $$ $$  $  $$  $  $$  $  $$  $    $$  $  $$  $  $ $$    $  $$  $  $$   ##$o%&%X ",
" ##O+*=*$        $       $      $      $         $      $      $      $ $      $      $  $       $      $      O##O+*=*$ ",
" ###O++XO          $ $$                                                                    $ $$                O###O++XO ",
" O#####OO                                                                                                      OO#####OO ",
"$OO###OO$$$$$$$$$ $$$$$$$ $$$$$$ $$$$$$ $$$$$$$$$ $$$$$$ $$$$$$ $$$$$$$$ $$$$$$ $$$$$$$$$ $$$$$$$ $$$$$$ $$$$$$$OO###OO$$",
"  OOOOO                                                                                                          OOOOO   ",
"$$$$      $$           $$$$$$$$$   $$  $$$                                             $$$$$$$$$$$$$$$$$   $$   $$$      ",
"         .     ..  .             .   .         ..  .     ..  ..    .     ..  ..        .                 .   .          .",
"                                                                                                                         ",
" ..... ............ .. .... .. ... .. ...... ...... .. ... .. ..... .. ... .. ...... ...... .. .... .. ... .. ....... ..."
};
