/* XPM */
static char *result[] = {
/* columns rows colors chars-per-pixel */
"146 123 64 1 ",
"  c gray34",
". c #4B4B4B",
"X c #232323",
"o c gray45",
"O c gray50",
"+ c gray56",
"@ c #676767",
"# c gray23",
"$ c #2F2F2F",
"% c #434343",
"& c gray67",
"* c LightGray",
"= c #DFDFDF",
"- c #C3C3C3",
"; c #B7B7B7",
": c #9B9B9B",
"> c #5B5B5B",
", c #C7C700",
"< c #BBBB00",
"1 c #AFAF00",
"2 c #777700",
"3 c #CF6300",
"4 c #FF7B00",
"5 c #E3E300",
"6 c yellow",
"7 c white",
"8 c #FFFF57",
"9 c #EFEF00",
"0 c #FF9B43",
"q c gray20",
"w c #9F9F00",
"e c #878700",
"r c #D7D700",
"t c black",
"y c #939300",
"u c #9F4F00",
"i c #4F4F00",
"p c #FF8B23",
"a c red",
"s c #E76F00",
"d c #B75700",
"f c #5F5F00",
"g c #B30000",
"h c #EF0000",
"j c #630000",
"k c gray12",
"l c #6B6B00",
"z c #434300",
"x c #BF0000",
"c c #830000",
"v c #373737",
"b c #CB0000",
"n c #A70000",
"m c #9B0000",
"M c #770000",
"N c #6F0000",
"B c #D70000",
"V c #E30000",
"C c #8F0000",
"Z c #EFEFEF",
"A c #BBBBBB",
"S c #F35353",
"D c #7B7B7B",
"F c #570000",
/* pixels */
"                    ..X oO++OOO+++++++++++++++++OOo@ XXX####$ @ooOOOOOOOOOOOOOOooo $$$XX#%..................                                      ",
"                    ..@&*==--***===***=*=****-;&&&-=- XX###.:-;&;;;;&&&&;&&:&&:::Oo $$XX#.............................                            ",
"                    ..&*=*-&-*-&---&&&---;&&;;&::+O&++XX##$:*;&:&&&&::::&:&:&&:+:O@ #$XX#%>oOOOOOOOOOOOOoo@@ ...................                  ",
"..........          ..-=*-&&&&&&*+&++::+&:::O++++&O+++XX##o-*;:+++::++:++:+:+:++Oo@ #$XX#%@O++++++++++++OOoo@@ ...........................        ",
"OOOOOOOOOOoo@@@ ..  ..-=*;&-:&+*&-+O:++O:&O+&+&&::+oo+XX##+-*&:::+::++:++:++::+&Oo@ #$XX#.o+&-*********---;;&&&&:&:::::+OOOOOOOOOOOOOOOOOOOOOO  ..",
";;;;;;;;;&&::+Oo#.  ..-=*;&&;+::-&&+++++OO+:+&++&:+o@oXX##+-*&&:&++++::+:+::++++Oo@ #$XX#.o:-*===========**-----;;;;;;;;;;;;;;;;;;;;;;;;;&&::+O #.",
"--------;;&,,,,<12 343-=*&&&&&:-:+:+&:O++++++O+&+&:o @XX##+&*&++++:+:::::+++++++O@  #$XX#.o:*===********===343-&1<,,,,**********--------;;&:::O@#.",
"----------,5678669,,600.X$@:&+:&:&:&O&++&:++&+O+O&Oo  XXq#+&;&++:+:+:+:++:++++++O@  #$XX#.o:*=**------O#X.006,,9668765,-------------------&&++o@##",
"+++&::&,966we<59779679r0tX# 1,,,,,,,,,,,,,,,,,,,,,,,,,,,,,,,,,,,,,,,,,,,,,,,,,,,,,,,,,,,,,,,,,,,,,,,1 #Xt0r97697795<ew669,+:::::+++&:+::::&&+Oo ##",
"+O++++,96779999699958r60tX.$Xy,6666666666666666666666666666666666666666666666666666666666666666666,yX$.Xt06r85999699997769,&+&::+O+++++:+:&&+Oo ##",
"&O&:OO,966665569696,50r0uiXt.$uyyyyyyyyyyyyyyyyyyyyyyyyyyyyyyyyyyyyyyyyyyyyyyyyyyyyyyyyyyyyyyyyyyyu$.tXiu0r05,696965566669,+:&&&&O&:O++++++&+Oo ##",
"O++:OO14o@@yyw1<<,,w,p1auuiX$$tuuuuuuuuuuuuuuuuuuuuuu3ss3u3s3uuuuuud33dud3duuuuuuuuuuuuuuuuuuuuuuut$$Xiuua1p,w,,<<1wyyooo41+&:&&O++:O:+:O::&Oo@ X#",
":O&O+Oo@@o@@  .%X$fe33g=*&hgtttgjtttkkkkkkXXkkkXkkXkkk$$kk$$$kkkXXk$$$$X$$$kXXkkkkkkkkttkkkX$XXXjgtttggg  g33e@  @oooooooO+&++:::O&O++:+O+::o@ .X$",
"+:O++oo@o@o@@ .%X$$$..-=*:ahlzzlxcjtv###%###%##%v#%v$Xtt$$$$$$qvv##%%#######%vvq$$$$$tttXXv%vXjcxlzzlxgg.oo@ooo@@o@oo@oOoo:+:++:+:O++++O+&++o@ %X$",
"O+O+OOOoOoOO@ .%X$$$..-=*&aal22ibxgnmcMN$$##...>.. %v%XXX$##q###%............%qqqqqq$XX$q#%vMngxbf22ixgg..Ooo@oOOOoOOoOOOO+++:++O+O+O+O++O++@ .%X$",
"::+++O:++++o ..#X$$$..;**&aaBxxBVbxxggnmCCCc####......                          ......###gbBVaaaVBxngxgg..O+OOO+:+OO:+O+O++:++O+::+++&+&++:O@ .%X$",
"+++O+::++:+o ..#X$$$..&**:aahhVVVBBBbbxxggnnnnggxbBVhaZ7@@7ZaVBbxgnn:+ttOonmCCmmnngxbBVhaaaaaaaahVBbxxgg @o&++++++::O::O:O+++O:O+++O+::++:+o ..#X$",
"+O&+&+::OOo@ .#$X$$$..&**&aahhVVVBBBbbxxggnnnnggxbBVhaZ7@@7ZaVBbxgnn:+ttOonmCCmmnngxbBVhaaaaaaaahVBbxxgg>>o:::+++:+O+O+:OOO+O:O++O&+&+::OOo@ .#$X$",
"o+oOoooo  ..%#$XX$$$..+*=&aahhVVVBBBbbxxggnnnnggxbBVhaZ7@@7ZaVBbxgnn:+ttOonmCCmmnngxbBVhaaaaaaaahVBbxxgg  @++++O+O+OO+OO+o+oOo+@o+oOoooo  ..%#$XX$",
"o@@@@@@@ .%%#$XXX$$$..+;=;aahhVVVBBBbbxxggnnnnggxbBVhaZ7@@7ZaVBbxgnn:+ttOonmCCmmnngxbBVhaaaaaaaahVBbxxgg>>@OOooOoOo@OoOoOo@o@o@oo@@@@@@@ .%%#$XXX$",
"     ....%q$XXXXX$$$%.o;=;aahhVVVBBBbbxxggnnnnggxbBVhaZ7@@7ZaVBbxgnn:+ttOonmCCmmnngxbBVhaaaaaaaahVBbxxgg.. @          @ @ . .. .     ....%q$XXXXX$",
".%%%#####q$XXXXX$$$$%.o:=-aahhVVVBBBbbxxggnnnnggxbBVhaZ7@@7ZaVBbxgnn:+ttOonmCCmmnngxbBVhaaaaaaaahVBbxxgg%%   ....  .. . .........%%%#####q$XXXXX$$",
"$$$$XXXXXXXX$$$$qq##. .+--aahhVVVBBBbbxxggnnnnggxbBVhaZ7@@7ZaVBbxgnn:+ttOonmCCmmnngxbBVhaaaaaaaahVBbxxggv$%.##########$$$$$$$$$$$$$$XXXXXXXX$$$$qq",
"XXXXXXXXX$$$$$$qqq##. .O-*aahhVVVBBBbbxxggnnnnggxbBVhaZ7@@7ZaVBbxgnn:+ttOonmCCmmnngxbBVhaaaaaaaahVBbxxggXXv####$$$$$$$$$$$$$$$$$XXXXXXXXX$$$$$$qqq",
"$$$$$$$$$$$$$$$$qq##. .@;*aahhVVVBBBbbxxggnnnnggxbBVhaZ7@@7ZaVBbxgnn:+ttOonmCCmmnngxbBVhaaaaaaaahVBbxxggXX$vvv$$XXXXXXXXXXXXXXXX$$$$$$$$$$$$$$$$qq",
"$$$$$$$$$$$$$$$$qq##. ..&*aahhVVVBBBbbxxggnnnnggxbBVhaZ7@@7ZaVBbxgnn:+ttOonmCCmmnngxbBVhaaaaaaaahVBbxxggXXX$$$$$$$XXXXXXXXXXXXXX$$$$$$$$$$$$$$$$qq",
"####################. ..:-aahhVVVBBBbbxxggnnnnggxbBVhaZ7@@7ZaVBbxgnn:+ttOonmCCmmnngxbBVhaaaaaaaahVBbxxggkkXX$$####################################",
"####################. ..+-aahhVVVBBBbbxxggnnnnggxbBVhaZ7@@7ZaVBbxgnn:+ttOonmCCmmnngxbBVhaaaaaaaahVBbxxggXX$$$#####################################",
" .%%################. ..o;aahhVVVBBBbbxxggnnnnggxbBVhaZ7@@7ZaVBbxgnn:+ttOonmCCmmnngxbBVhaaaaaaaahVBbxxgg$$$$$##%................ .%%##############",
"         .....######%...@&aahhVVVBBBbbxxggnnnnggxbBVhaZ7@@7ZaVBbxgnn:+ttOonmCCmmnngxbBVhaaaaaaaahVBbxxgg$$$$##%.................         .....####",
":::::+++++Oo@@@@@ #qq#. .+aahhVVVBBBbbxxggnnnnggxbBVhaZ7@@7ZaVBbxgnn:+ttOonmCCmmnngxbBVhaaaaaaaahVBbxxggv.oOO+:::::::::::::::::::::::+++++Oo@@@@@ ",
";;;;;;;;;&&::::+O@$$$q. .OaahhVVVBBBbbxxggnnnnggxbBVhaZ7@@7ZaVBbxgnn:+ttOonmCCmmnngxbBVhaaaaaaaahVBbxxgg.>O+&;;;;;;;;;;;;;;;;;;;;;;;;;;;;&&::::+O@",
"===========*;&:+O@#q$q# .@aahhVVVBBBbbxxggnnnnggxbBVhaZ7@@7ZaVBbxgnn:+ttOonmCCmmnngxbBVhaaaaaaaahVBbxxgg@O:&===============================*;&:+O@",
"--------AA-A;&+Oo@#q$q#  .aahhVVVBBBbbxxggnnnnggxbBVhaZ7@@7Z+:&&&:o :+ttOonmCCmmnngxbBVhaaaaaaaahVBbxxgg@+:&----------------------------AA-A;&+Oo@",
";&;;;&&&&:&:+:Ooo@#qXq#  .aahhVVVBBBbbxxggnnnnggxbBVS:ZZ@@7Z==ZZ==*;::ttOo@.CCmmnngxbBVhaaaaaaaahVBbxxgg@O+;;;&&&&&;;&&;;;;&;;;;;&;;;&&&&:&:+:Ooo@",
";&&&&&&&&:&+:+Ooo@#qXq#  .aahhVVVBBBbbxxggnnnnggxbS:**Z-@@7ZZZZZ==**;:ttOOOO@.mmnngxbBVhaaaaaaaahVBbxxgg OO&&&&&&;&;&&&&&&;&&&&&;&&&&&&&&:&+:+Ooo@",
"+::&+++:+&&+&:Ooo@#qXq#.  aahhVVVBBBbbxxggnnnnggxo;=;O  @@77ZZZZ==**;:tttt$ OOo.nngxbBVhaaaaaaaahVBbxxgg DD&:&:&&:::&&&:::+::&::+::&+++:+&&+&:Ooo@",
"&+:+&&:&&+:&+:Oo@ #qX$#.  aahhVVVBBBbbxxggnnnnggo;=O..  @O77ZZZZ==**;:tttttt$ oO@.gxbBVhaaaaaaaahVBbxxgg DO:&:::&&::+&+&::&+:+::&+:+&&:&&+:&+:Oo@ ",
"+:&&+:::&:+;&:Oo@ #qX$#.  aahhVVVBBBbbxxggnnnngo-&.$..O&==*-;&:+++++:::::o#ttt$ +:oxbBVhaaaaaaaahVBbxxgg oD&:;:::++:&+&+&&+:&:+&+:&&+:::&:+;&:Oo@ ",
"&+:+&&:+:&&:++Oo@ #qX$#.  aahhVVVBBBbbxxggnnnno:+.$#.&7*:Oo@  ..#$XXXXtt# oo#ttt$o&obBVhaaaaaaaahVBbxxgg oD:&+:&::::+&::+:&+:+&:&+:+&&:+:&&:++Oo@ ",
":&&+:::&:+:+;:Oo@ #qX$#.  aahhVVVBBBbbxxggnnn@:+#$#o*=;o@@@@oOOOO@%%%%XXtt$.O@#tt$o&oBVhaaaaaaaahVBbxxgg.@o+&:&:&:+&:++&++:&&::+:&&+:::&:+:+;:Oo@ ",
"&+:&&+::&&++&:O@@ #qX$#.  aahhVVVBBBbbxxggnn ++#$#o=;o  o:=7ZZZZ==**;;+o$ttt#@o tt$O;oVhaaaaaaaahVBbxxgg.@@:+&+:++&:+++:::&+:&::&+:&&+::&&++&:O@@ ",
"++&:&&:+&&:&::O@  #qX$q#  aahhVVVBBBbbxxggn o+$t$o=: . :*7&o..@&==**;;&&O $ttt.o tt$+;ohaaaaaaaahVBbxxgg.@o&++&&:+::++++&&++&+;&++&:&&:+&&:&::O@  ",
":&:&+::&&:&+&:O@ .#qX$q#. aahhVVVBBBbbxxggnoO tXo;: $.*77+@ .##.+=**;;&&::o ttt.o tt$;:haaaaaaaahVBbxxgg.@o:::++&+++:+&+&::&:&+::&:&+::&&:&+&:O@ .",
"&:&::+;++:+:&:O@ .#qX$##%#aahhVVVBBBbbxxgg O@tXo;:.$ *7=+o...##. &**;;&&::++O#tt.o tt *OaaaaaaaahVBbxxgg.@D:+&:++&+&::::&:&:&:+:&:&::+;++:+:&:O@ .",
":&+&:&&&+:::+:O@ %#qX$##@&aahhVVVBBBbbxxggoOXt ;: $ *7=+@ ...##..@**;;&&::++OO#tt.o.tt+:aaaaaaaahVBbxxgg.>o:+&+:+++:+&+++&:&+::&:&+&:&&&+:::+:O@ %",
"+:&&+&::&&+:+:O@ %#qX$##&=aahhVVVBBBbbxxg O t#:: $ =7=+@  ...##. +**;;&O.$$>OOo#tt.o#t.;aaaaaaaahVBbxxgg. o:&&:&++::++&+&++:&&+++:&&+&::&&+:+:O@ %",
"++:+++&++:+:++o .%#qX$##=-aahhVVVBBBbbxxg+OXto: $ ===+@   ...## +=**;;o$tt$$.Ooo#tt @tt;OaaaaaaahVBbxxgg%.o+:&&:++:::+::++++::++++:+++&++:+:++o .%",
"OO+++++++&+++O@ %##qX$##=&aahhVVVBBBbbxx@+ t#:o$.:==&@    ...#@+-=**;oXttttt$.ooo#t$o#tO:aaaaaaahVBbxxgg%%@OOOOOOOOOOOOOOOOO+++OOO+++++++&+++O@ %#",
"@@@@@@@@@OOOo@ .%##qX$##=&aahhVVVBBBbbxx@oXto:.X -=-+     ....+-==**o#ktttttt$.oOo#t  t.;aaaaaaahVBbxxggv$%@@@@@@@@@@@@@@@@@@@@@@@@@@@@@@OOOo@ .%#",
".    >>@@@@@ .%####qX$##=&7777Z=*-;&:++++@tX+@X.:-=-@     ...o&-==*:#kkttttttt$.OO@X$o##;ZZZZZ==*-;&:+OokXv#...............    ..    >>@@@@@ .%###",
".... .     .%%###qq$X$##=&7777Z=*-;&:++++.t.+#to--=&@     ...@+-==:#Xkktttttttt$oO+#t @t;ZZZZZ==*-;&:+OoXk$$q###########%%.......... .     .%%###q",
"......######qqqq$XXX$q##=&OOo@ .##$$XXtttt#@@X$:--==O     ...# +-- XXkkttttttttt$o+.t.Ot$.@@@@@ .#$Xtttt$X$XXXXXXXXXXXX$$$vv#%........######qqqq$X",
"%%%###qqqqqq$$$XX$$$q###=&OOo@ .##$$XXtttt#o t.;--==-O    ...##   XXXkktttttttttt$+ot$+t$.@@@@@ .#$Xtttt$$$$XXXXXXXXXXXXXXX$v###%%%###qqqqqq$$$XX$",
"XXXXXXXXXXXX$$$$$q#%%...=&7777Z=*-;&:++++Ooo.tO---==7-O   ...###$$XXXkkttttttttttt+Ott+-*ZZZZZ==*-;&:+Oo$$$$$$$$$$$$$$$XXXXXXXXXXXXXXXXXXXXX$$$$$q",
"XXXXXXXXXXXX$$###%. ....=&7777Z=*-;&:++++Ooo#t+---==77-O  ...###$$XXXkkt$$tttttttt+OttO;*ZZZZZ==*-;&:+Oo$$$$########$$$$$$XXXXXXXXXXXXXXXXXX$$###%",
".%....   @@@@@@@@@@@ %XX=&aahhVVVBBBbbx.+OooXt;-::==777*+ ...###$$XXXkk$oo$ttttttt+OttO;*+.aaaaaVVbbxxgg$$$$#%   ....###########.%....   @@@@@@@@@",
"..@@@@oo++::++++++++..XX=&aahhVVVBBBbbx +Ooott-&##o-7777=+...###$$XXXk$@::o$ttttto+OttO;*+ aaaaaVVbbxxgg$$$#%%         ..#######..@@@@oo++::++++++",
"@@++;;======******&& #XX=&aahhVVVBBBbbx@+Ooott-+#$#@*7777= ..###$$XXX$@&::+o$tt$oO+OttO;*+@aaaaaVVbbxxgg%>o+::+o@@  ..........  @@++;;======******",
"@o++;&&&&&&&&&&&&&:& #XX=&aahhVVVBBBbbx@+Ooott-o#$##o*777* ..###$$XXX$#@::++O$$ OO+OttO;*+@aaaaaVVbbxxgg@o:&;&&:+OOo@@  ......  @o++;&&&&&&&&&&&&&",
"@O&:++&++:::&;&-:::: #XXZ&aahhVVVBBBbbx +Ooott- #$##.+*7*+...###$$XXXkk#@:++OOooOO+OttO;*+ aaaaaVVbbxxgg@O+--;;-*======*&+o ... @O&:++&++:::&;&-::",
"@O&:+++O:++O::::&::: #XXZ&aahhVVVBBBbbx.+OooXt; #$##.. ++ ...###$$XXXkktt@++OOooOO+OttO;*+.aaaaaVVbbxxggoDO-;--;;;;;-;-;;&O .#. @O&:+++O:++O::::&:",
"@O-&+&&+++++:&::::&+ #XXZ&7777Z=*-;&:++++Ooo#t+ #$##..    ...###$$XXXkkttt@+OOooOO+OttO;*ZZZZZ==*-;&:+OoDo+;-;&&&:&:&:+:++O .#. @O-&+&&+++++:&::::",
"@O-&++:+&:O:++::&+:+ #XXZ&7777Z=*-;&:++++Ooo.tOO#$##..    ...###$$XXXkktttt@OOooOO+Ott+-*ZZZZZ==*-;&:+OooDO;&;&:&&::&+:O+OO .#. @O-&++:+&:O:++::&+",
"@O-&+&:&O&++&::++:&: #XXZ&OOo@ .##$$XXtttt#o t.- $##..    ...##+=+XXXkkttttt@OooOO+ot$+t$.@@@@@ .#$XttttDoO-;&:&:&:&++OOOo@ .#..@O-&+&:&O&++&::++:",
"@O-&++O:&++O+:+;++:: #XXZ&OOo@ .##$$XXtttt#@@X$:: .#..    ...#OZ==+XXkktttttt@ooOO+.t.Ot$.@@@@@ .#$Xtttto@O&&:&:&:&+::OOo@o .##.@O-&++O:&++O+:+;++",
"@O-;+;+&+O+&+++&::+: #XX=&7777Z=*-;&:++++.t.+#to-:O...    ...o-Z==*+Xkktttttt$ooOO+Xt @t;ZZZZZ==*-;&:+Oo@oO&:::&::+:+OOOoo@ .##.@O-;+;+&+O+&+++&::",
"@O-A:+:+&+O+:+&:+::: #XX=&7777Z=*-;&:++++@tX+@X.:-:O..    ..o-ZZ==** kktttttttooOO@t$o#t;ZZZZZ==*-;&:+Oo@>D:&&::::O+OOoOO@o .##.@O-A:+:+&+O+:+&:+:",
"@O-&&+++:O++O&+&:+++ #XX=&aahhVVVBBBbbxx@oXto:.X -=;+.    .o-ZZZ==*&@$ktttttttooOO#t  t.;aaaaaaahVBbxxgg>@o&&::::++OOOOo@o@ .##.@O-&&+++:O++O&+&:+",
"@O-;+&O+O+O+++:+O+O+ #XX=&aahhVVVBBBbbxx@+ t#:o$.:===+   .+=ZZZZ==&@$$ktttttt#ooO#t$o#tO:aaaaaaahVBbxxgg@>o&:&::++OOO+oOo@o .##.@O-;+&O+O+O+++:+O+",
"@O-A:&+:O+++&:O+:OOO #XX-&aahhVVVBBBbbxxg+OXto: $ ==77****77ZZZZ=;@$$kkttttttOoo.tt @tt;OaaaaaaahVBbxxgg >o:&::+:O+OOoOO@o@ .###@O-A:&+:O+++&:O+:O",
"@O-A&+&++&O&+++O++Oo #XX-&aahhVVVBBBbbxxg O t#:: $ =77777777ZZZZ=@$$Xkkttttt@Oo tt.o#t.;aaaaaaaahVBbxxgg..@+:++O+oOOoOo@o@  .###@O-A&+&++&O&+++O++",
"@O-&&&++++&+:+O+O+oO #XX;&aahhVVVBBBbbxxggoOXt ;: $ *7777777ZZZZ=@$XXkktttt@OO tt.o.tt+:aaaaaaaahVBbxxgg%% oOOOooO@o@@@@ @ .####@O-&&&++++&+:+O+O+",
"@O-;+&O&::+O+O++::Oo #XX;;aahhVVVBBBbbxxgg O@tXo;:.$ *777777ZZZZ=; XXkkttt@OO#tt.o tt *OaaaaaaaahVBbxxggX$%.              .#$$##@O-;+&O&::+O+O++::",
"@O-A::&+:++:++;+++OO #XX:;aahhVVVBBBbbxxggnoO tXo;: $.*77777ZZZZ==; Xkktt@@ $tt.o tt$;:haaaaaaaahVBbxxggkkXX$$$$$$$$$$$$$$XX$###@O-A::&+:++:++;+++",
"@O-;&&:++::+:+&:+O:O #XX:;aahhVVVBBBbbxxggn o+$t$o=: . :7777ZZZZ==*& Xkt@ #ttt.o tt$+;ohaaaaaaaahVBbxxggXk$$$$$$$$$$$$$$$$$$####@O-;&&:++::+:+&:+O",
"@O-A::+:+:+:+&:+:+OO #XXO&aahhVVVBBBbbxxggnn ++#$#o7;o  o:=7ZZZZ==**;&+o$ttt#@o tt$O;oVhaaaaaaaahVBbxxgg$$$$$$##################@O-A::+:+:+:+&:+:+",
"@O-&&&++&&+&+&&:+:oo #XXO:aahhVVVBBBbbxxggnnn@:+#$#o*7;o@@@oO+::::O@.#XXtt$.O@#tt$o&oBVhaaaaaaaahVBbxxgg$$$$$$#################.@O-&&&++&&+&+&&:+:",
"@O-A++&&::&+&O+O:+:O #Xq :aahhVVVBBBbbxxggnnnno:+.$#.&7*:Oo@....##XXXXtt# oo#ttt$o&obBVhaaaaaaaahVBbxxggvv##..             ###. @O-A++&&::&+&O+O:+",
"@O-&&::&::;&&++::+Oo #Xq :aahhVVVBBBbbxxggnnnngo-&.$..O&==*-:+OOOOO+:&&&:o#ttt$ +:oxbBVhaaaaaaaahVBbxxgg.. @oOOOOOOOOOOOOO@.##. @O-&&::&::;&&++::+",
"@O-&+:&+&::+::&++OOo #Xq.OaahhVVVBBBbbxxggnnnnggo;=O..  @O77ZZZZ=*-;;;tttttt$ oOO@gxbBVhaaaaaaaahVBbxxgg@oO:-********--;&&O ##. @O-&+:&+&::+::&++O",
"@O-&+&:++:+;+::&+:oo #Xq.OaahhVVVBBBbbxxggnnnnggxo;=;O  @@77ZZZZ=*-;;;$Xtt$ OOo@.ngxbBVhaaaaaaaahVBbxxggo+:-*========*-;&:O@##. @O-&+&:++:+;+::&+:",
"@O-A+:+;:++&::+++Oo@.#$q..aahhVVVBBBbbxxggnnnnggxbB:**Z-@@7ZZZZZ=*-;;;$X+OOOO@.mnngxbBVhaaaaaaaahVBbxxggO+:*========**;;:+@@$$..@O-A+:+;:++&::+++O",
"@OA&&+::&+&:+:&+:O@ .X$q..aahhVVVBBBbbxxggnnnnggxbBVh:ZZ@@7Z==ZZ=*-;;;$X+O@.CCmmnngxbBVhaaaaaaaahVBbxxggDD+-------;;---&+O@@$$..@OA&&+::&+&:+:&+:O",
"@O-A::+&+&+&:+:O+O  .X$q..aahhVVVBBBbbxxggnnnnggxbBVhaZ7@@7Z+:&&&:o ;;$X+OmmCCmmnngxbBVhaaaaaaaahVBbxxggoDD;--;;;;&;;;&:OO@ #$#.@O-A::+&+&+&:+:O+O",
"@OA&&&&+:+:+O:OO:O  #X$#..aahhVVVBBBbbxxggnnnnggxbBVhaZ7@@7ZahVBbxgn;;$X+OmmCCmmnngxbBVhaaaaaaaahVBbxxgg@@o&:&&&;&;&&&:+OO@ #$#.@OA&&&&+:+:+O:OO:O",
"@O;&++&&+:O+:OO:OO .XX##..aahhVVVBBBbbxxggnnnnggxbBVhaZ7@@7ZahVBbxgn;;$X+OmmCCmmnngxbBVhaaaaaaaahVBbxxgg >@&+:::&:&;:&++Oo@ #$##@O;&++&&+:O+:OO:OO",
"@o:&:::+:++O++OOOo .XX##..aahhVVVBBBbbxxggnnnnggxbBVhaZ7@@7ZahVBbxgn;;$X+OmmCCmmnngxbBVhaaaaaaaahVBbxxgg> D:+;&&+&:&:+:+Oo@ #$$#@o:&:::+:++O++OOOo",
".@::::+:++O+OOOOOo #XX#%..aahhVVVBBBbbxxggnnnnggxbBVhaZ7 @7ZahVBbxgn;;$X+OmmCCmmnngxbBVhaaaaaaaahVBbxxgg@>o&::++:+;:&:++Oo@ #$$#.@::::+:++O+OOOOOo",
".@::::+O+OO+O+OOo@.$X$#%..aahhVVVBBBbbxxggnnnnggxbBVhaZ7 @7ZahVBbxgn;;$X+OmmCCmmnngxbBVhaaaaaaaahVBbxxgg @D+:+;+++&+:O++Oo@ .$$#.@::::+O+OO+O+OOo@",
".@::::O+O+OO+O+@@ $X$q#%..aahhVVVBBBbbxxggnnnnggxbBVhaZ7 @7ZahVBbxgn;;$X+OmmCCmmnngxbBVhaaaaaaaahVBbxxgg@ @:++&:::+:O++OOo@ .$$#.@::::O+O+OO+O+@@ ",
"..::++oOOOOOO@  .$X$$q#%..aahhVVVBBBbbxxggnnnnggxbBVha77 @77ahVBbxgn;;$X+OmmCCmmnngxbBVhaaaaaaaahVBbxxgg>@@&+&:+:::++O++Oo@ .$$#..::++oOOOOOO@  .$",
"..oOOO@@@@@    .$X$$$q#%..aahhVVVBBBbbxxggnnnnggxbBVha77 @77ahVBbxgn;;$X+OmmCCmmnngxbBVhaaaaaaaahVBbxxgg @o+&+&:+&+:O+O+Oo@ .X$#..oOOO@@@@@    .$X",
".. @@@  ....%%#X$$$$$q#%..aahhVVVBBBbbxxggnnnnggxbBVha77 @77ahVBbxgn;;$X+OmmCCmmnngxbBVhaaaaaaaahVBbxxgg  o:+:+OO:+++O+OOo@ .X$#.. @@@  ....%%#X$$",
"..%%###qqqqqqqq$$$$$q#%%..aahhVVVBBBbbxxggnnnnggxbBVha77  77ahVBbxgn;;$X+OmmCCmmnngxbBVhaaaaaaaahVBbxxgg  @+:O+:O+O&O+O+Oo@ .X$#..%%###qqqqqqqq$$$",
"..%#qqq$$$$$$$$$$$$qq#%%..aahhVVVBBBbbxxggnnnnggxbBVha77  77ahVBbxgn;;$X+OmmCCmmnngxbBVhaaaaaaaahVBbxxgg@ o+:+:+:++++O++Oo@ .X$#..%#qqq$$$$$$$$$$$",
"    ..%##q$$$$$$$$$$q#%%##aahhVVVBBBbbxxggnnnnggxbBVha77  77ahVBbxgn;;$X+OmmCCmmnngxbBVhaaaaaaaahVBbxxgg .o+O+O++O+OO++OOo@ .X$#    ..%##q$$$$$$$$",
"  ......%#qqq$q$$$$$##%%##aahhVVVBBBbbxxggnnnnggxbBVha77  77ahVBbxgn;;$X+OmmCCmmnngxbBVhaaaaaaaahVBbxxgg> @::O+:O+O+O:OOOo@ #X$#  ......%#qqq$q$$$",
"...#####.%%%%#qqqq$$##%%#$aahhVVVBBBbbxxggnnnnggxbBVha77. 77ahVBbxgn;;$X+OmmCCmmnngxbBVhaaaaaaaahVBbxxgg .@OO+O++O+OO+O+Oo@ #X$#...#####.%%%%#qqqq",
"..###  ooooo@  ##########$aahhVVVBBBbbxxggnnnnggxbBVha77. 77ahVBbxgn;;$X+OmmCCmmnngxbBVhaaaaaaaahVBbxxgg. @O+OO+++OO+O+Ooo  $X##..###  ooooo@  ###",
".##@+::;;;;&+Oo   .######$aahhVVVBBBbbxxggnnnnggxbBVha77. 77ahVBbxgn;;$X+OmmCCmmnngxbBVhaaaaaaaahVBbxxgg.. OOO+O+O+O+OOo@@ .$X##.##@+::;;;;&+Oo   ",
".#@+-*====***;&:Oo    .##$aahhVVVBBBbbxxggnnnnggxbBVha77. 77ahVBbxgn;;$X+OmmCCmmnngxbBVhaaaaaaaahVBbxxgg..@oOOoOOoOOOOo@@@ .XX##.#@+-*====***;&:Oo",
"##O-**---&&;-***-;:Oo  ..#aahhVVVBBBbbxxggnnnnggxbBVha77..77ahVBbxgn;;$X+OmmCCmmnngxbBVhaaaaaaaahVBbxxgg.. ooooooooo@@@@@ .#$$####O-**---&&;-***-;",
"##+-*-;&&&&&;;;-*=*-&:Oo .aahhVVVBBBbbxxggnnnnggxbBVha77..77ahVBbxgn;;$X+OmmCCmmnngxbBVhaaaaaaaahVBbxxggvv.             ..##$$####+-*-;&&&&&;;;-*=",
".#:*-;&&;&&&&&&&;;*=*--;:OaahhVVVBBBbbxxggnnnnggxbBVha77..77ahVBbxgn;;$X+OmmCCmmnngxbBVhaaaaaaaahVBbxxgg$$%..........#####$$###..#:*-;&&;&&&&&&&;;",
".#:*;&::::::::::&&&--***A&aahhVVVBBBbbxxggnnnnggxbBVha77..77ahVBbxgn;;$X+OmmCCmmnngxbBVhaaaaaaaahVBbxxggXXv########$$$$$$$$$##...#:*;&::::::::::&&",
".#:*;&+++:+;::++:&&&&-*==*aahhVVVBBBbbxxggnnnnggxbBVha77..77ahVBbxgn;;$X+OmmCCmmnngxbBVhaaaaaaaahVBbxxggkk$$$$$$$$$$$$$$$$###....#:*;&+++:+;::++:&",
".#:*;:+::++&:&&:+:+:::&---aahhVVVBBBbbxxggnnnnggxbBVha77..77ahVBbxgn;;$X+OmmCCmmnngxbBVhaaaaaaaahVBbxxggkkX$$$$$$$$$$$$$####.....#:*;:+::++&:&&:+:",
".#:-;:&+&+&:+&+++:+;++:&&;aahhVVVBBBbbxxggnnnnggxbBVha77..77ahVBbxgn;;$X+OmmCCmmnngxbBVhaaaaaaaahVBbxxggXXX$$#############..... .#:-;:&+&+&:+&+++:",
".#:;;++&:::::++::++&:++&;&aahhVVVBBBbbxxggnnnnggxbBVha77..77ahVBbxgn;;$X+OmCCCCmnngxbBVhaaaaaaaahVBbxxggXXX$$###########......  .#:;;++&:::::++::+",
".#:-;+&:+:&+:+&+&+&:+::::&aahhVVVBBBbbxxggnnnnggxbBVhaZZ..ZZahVBbxgm&&$X+OmcNMcCnngxbBBVaaaaaaaaVVBbxxncXXX$$#...........       .#:-;+&:+:&+:+&+&+",
".#:;;&+&:+:+:++&:&+&:+:++:+o              ....####mmmm&&tt&&mmmmmmmmoott@@tkkkkFFNCngxBBBVhhhhVVVVBxnCMXXX$$#.............      .#:;;&+&:+:+:++&:&",
"..:;;:&:::&+++:&:+&++&++::::@@ o  > >@>>> > >@>>>   ......###..#.vXkkkXXXX#....    >>>>>.%v$$$$$$.     @@ooO&&&&&&&:++Oo .....  ..:;;:&:::&+++:&:+",
"..+&;:::::&;+;&++&:&+&+:&:&:+o@ooo@>D@>@o@ >@>@> >@@ >@>>@>>  >. vXkkkXXX$ @@@@o@oooDDDD@.%v$$$$.oOOOODDDD+-****--*-;;;&O@....  ..+&;:::::&;+;&++&",
"..o++&:&&:::-:::::&::&:+:++&:o+o++oDooDooDo@o@@Doo@@oD@DD@o@o@@ @.v$XXXX$$@DODODOODODODOOo %$$%@O:+OODDDOOO;;;---;;;;;&&&: ...  ..o++&:&&:::-:::::",
".. oOO+:+;&&+&+&::&&::+:::++:+&&+&+&+;&&::+:::++:+:++++ooOooOOo@@ #$XX$$$#+&;;&;&;&++++++O@.$$@+&:++++++O+:&&&&&&:&&&&:&:+O ..  .. oOO+:+;&&+&+&::",
". # o@@@ooooo@ooooooo@@@oo@@@@oo@@@@@@@OOOo@OO@ #  @@ @@  @      ##$XX$##.+&&&;&;&;&;&&::+O ##O;*&&:&&:&&&&&&&:&:&&&&:&::+O #.  . # o@@@ooooo@oooo",
"..###.%%%%%%%%%%%%%%%%%%%%%%%%%%%%%%##%%%%%%%%%###################$XXX$...++::::::::::::++O@..&-&:&:+&&:&:&::&:&&:&:&::+:+O $#  ..###.%%%%%%%%%%%%",
"..###$$$$$$$$$$$$$$$$$$$$$$$$$$$$$$$$$$$XXXXXXXXXXXXXXXXXXXXXXXXXXXXXX$... OOOOOOOOOOOOOOO@ ..:&&:+:+::+::+::+:+:+:+::+:++O $#  ..###$$$$$$$$$$$$$",
"..%#q$$$$$$$$$$$$$$$$$$$$$$$$$$$$$$$$XXXXXXXXXXXXXXXXXXXXXXXXXXXXXXXXX$...#  @@@@@@oooo@@@ ...O:++++++++++++++++++++++++++o $#  ..%#q$$$$$$$$$$$$$",
"  ..#####qqqqqqqqqqqqqqqqqqqqqqq$$$$$$$$$$$$$$$$$$$$$$$$$$$$$$$$$$$$$$$.#####..    @@@@ .#$$##@oOOOOOOOOOOOOOOOOOOOOOOOOOo@ $#    ..#####qqqqqqqqq",
"  ..######$$$$$$q#######qq$$$$$$$$$$$$$$$$$$$$$$$$$$$$$$$$$$$$$$$$$$$$$.#######$$$$$$$$$$$$###.                            #$.    ..######$$$$$$q#",
"       ..%%%%%%%........##########################################################################$$$$$$$$$$$$$$$$$$$$$$$$$$#.         ..%%%%%%%.."
};
