/* XPM */
static char *result[] = {
/* columns rows colors chars-per-pixel */
"119 122 84 1 ",
"  c gray34",
". c #4B4B4B",
"X c #232323",
"o c #9B9B9B",
"O c #C3C3C3",
"+ c #DFDFDF",
"@ c gray23",
"# c #2F2F2F",
"$ c gray45",
"% c LightGray",
"& c gray67",
"* c gray50",
"= c #434343",
"- c #B7B7B7",
"; c gray56",
": c #676767",
"> c #5B5B5B",
", c #C7C700",
"< c #777700",
"1 c #939300",
"2 c #5F5F00",
"3 c #9F9F00",
"4 c #AFAF00",
"5 c #7B7B7B",
"6 c #373737",
"7 c gray20",
"8 c #BF7B4B",
"9 c #DF8B57",
"0 c #EB8F5B",
"q c #935F37",
"w c #FFCFB3",
"e c #EFBB9B",
"r c #FFB383",
"t c #EBA377",
"y c #FF9F63",
"u c #FFD7BF",
"i c #FFA773",
"p c #D38353",
"a c #5F4323",
"s c #4B3B1B",
"d c #FFDBC7",
"f c #FFBB93",
"g c #FFAB5F",
"h c #B77347",
"j c #6F4B27",
"k c #8B5B33",
"l c #FFBF9F",
"z c #FFC7A7",
"x c #83532F",
"c c #AB6B43",
"v c #774F2B",
"b c #CB7F4F",
"n c #A3673F",
"m c #F3975F",
"M c gray12",
"N c #2B230F",
"B c black",
"V c #9F633B",
"C c #43331B",
"Z c #3B2F17",
"A c #BBBBBB",
"S c #875333",
"D c #573F1F",
"F c #C3774B",
"G c #D70000",
"H c #DF0000",
"J c #CB0000",
"K c #BF0000",
"L c #9B0000",
"P c #9F0000",
"I c #830000",
"U c #8F0000",
"Y c #A70000",
"T c #B30000",
"R c #770000",
"E c #B75700",
"W c red",
"Q c #6F0000",
"! c #630000",
"~ c #4B0000",
"^ c #9F4F00",
"/ c #570000",
"( c #878700",
") c white",
/* pixels */
"             ..XoO++++++++++++++++++++++++++OoXXX@@@@#$oO%%%%%%%%%%%%OOOO&* ###XX@=..................                  ",
"             ..oO+++OOOO&O&OO&--&-&O-OO-;;*&+OoXX@@@.oO-&&&oooooooo&oooooo*$ ##XX@...................                  ",
"             ..O+%O-&&%&&o&&&&&&&&ooo--ooo;*&;;XX@@#o%-oo;;o;;;;;o;o;;oo;o*: @#XX@=>$************$$:: .................",
"...          ..,,,,,,,,,,,,,,,,,,,,,,,,,,,,,,,,,,,,,,,,,,,,,,,,,,,,,,,,,,,,,,,,,,,,,,,,,,,,,,,,,,,<$$:: ...............",
"*******  ..  ..1<<<<<<<<<<<<<<<<<<<<<<<<<<<<<<<<<<<<<<<<<<<<<<<<<<<<<<<<<<<<<<<<<<<<<<<<<<<<<<<<<1<$-&&&&o&o&ooo;******",
"--&&oo;* @.  ..1<222222222222222222222222222222222222222222222222222222222222222222222222222222213<*OOOOO--&&----------",
"O--&ooo*:@.  ..1<2@@@@@@@@@@@@@@@@@@@@@@@@@@@@@@@@@@@@@@@@@@@@@@@@=@@@@@@@@@@@@@@@@@@@@@@@@@@@@@43<;+++++++%%%%%%%%%%%%",
"OOO&&;;$:@@. ..1<2>     > >>    > > > >>  >>   >>> >  >>> >>  >      > >     > >>    > > > >>   ,3<5OOOOOOOOOOOOOOOOOOO",
"ooo&&;*$ @@. ..1<2:5$5::5$$::$:$$5$5:$::$$:$5*$>:$$$:5$$:$:$$$$5$$:55$::5$5::5$$::$:$$5$5:$::$$$,3<:o&o;o;&;o;o&o;o;ooo",
"o;o&&;*$ @@= ..1<2>$$:55:$:55$5:$$:$$:$:$5$$:::5$5$$$:$$$:5:$$:$::5$$$$:$$:55:$:55$5:$$:$$:$:$5$,3< &o&oo&;;oo;o;;oo&;&",
";;;;&;*$ @@=...1<2:$:5:5$:5$$:$55$555*$5$:5:>>>  .==@@@@@@@ >::$$$$$5555$:5:5$:5$$:$55$555*$5$:$,3<>;oo;o;oo;&ooo&&o;o&",
"o*oo&*$: X@@...1<2::55$:$$$::$5$$:$$:::$$> >> ....=@@@##XXXX66@ $5:::$$$:55$:$$$::$5$$:$$:::$$5$,3<>o;oo&;&&;ooo;o;;;&o",
";*;oo$: .X#7@..1<2::$::$$$:$$$:::*:$5:$>    ::     ..@66#####XX6@ $5:$$$:$::$$$:$$$:::*:$5:$$$$$,3<:oooo;&;;o;&oo;o;&;;",
"*;&;;$: =X#7@..1<2:$$$$:$:$::$:5$:$:$>>  :5;5:::  >  .=@@@@66#XXXX@ $:$$$$$$:$:$::$:5$:$:$$5::5$,3<>o&;&;o&o;;oo;o;o;o;",
";;*;;: .=X###..1<2:5$$:$:$:$$$$$$$$$   5o5o5::   :>:  .=@@@@...@66#X@ :$5$$:$:$:$$$$$$$$$:$:$5:$,3<:&o;oo;;o;o*;o;*;;;o",
"&;;o*: .=X###..1<2>$:$$:$$5$::::$::$ $$;5$:: > :: ::   .=@@@.  .@@6XXX@ $:$$:$$5$::::$::$$$$$$$$,3<>;o;;o&o;;o;o;*;;o;;",
";;o;$ ..@X###..1<2:$5$$5:$::*$$$$5$>>>>  $:    ::>>::   .@@.    ..@#XXXX 5$$5:$::*$$$$5$$$$$$:5$,3<>&;;;;;;oo*oo*o*;;;*",
"o**$: .@#X###..1<2:$$::$5$$5:5$$:$$89088q >  >>::   ::  .@@  >> = @6#XXXX ::$5$$5:5$$:$$:5:$$$:$,3<>ooo;;;o;*;*;o***;*o",
"$  ..=@#XX###..1<2:$$*$$:5:5:$$$5:5werty08 >    :>  $$   X@  : :@==@6XXXXX $$:5:5:$$$5:55:$$$5$$,3< ;;;;*;*;**;**;$;$*$",
": .==@#XXX###..1<2:5$:$$$:$:5::5:$tuuwtip98 =.as   $$$$ .X7::: :@ .@67XXXX@$$$:$:5::5:$:$$5:$:$$,3< **$$*$*$:*$*$*$:$:$",
"..=7#XXXXX###=.1<2::$5$:$$$:$$$$$$wdwefrig9h jkka> :$$: .X@::$$$7 =6##XXXXX :$$$:$$$$$$$5$:5$$5$,3<=:          : : . ..",
"@@7#XXXXX####=.1<2::$$$$$$$5:5:$:ldzwzfzlig9 xckv    :  .X7  : :776X#X#XXXX@$$$$5:5:$:$5:5$:5$$$,3<=  ....  .. . ......",
"XXXXX####77@@. 1<2:$:$:$$$:$$:$5;uuefzzeffi0bc0pq@=... ==XX@.  .@##X#X#XXXXX$$$:$$:$5*$$::$$:::$,3<#.@@@@@@@@@@########",
"XX######777@@. 1<2:5$:*$:$$$$55:lzuzzzfzltyy0p0yq@@=..= =XX7@...@7#XXXXXXXXX$:$$$$55:$:55$$:$$:$,3<X@@@@###############",
"#########77@@. 1<2::55:$$$$$:>:$wuzfzezzlfy09900n@@@... =XX7@@@@@##XXXXXXXXX$$$$$:>:$:5::$:5$$5$,3<X666##XXXXXXXXXXXXXX",
"#########77@@. 1<2:$:$$$5:$:55$fwwwzzllztym00ygmc@@@@==@@Xs@@=7@6#XXXXXXXXXX$5:$:55$5:$$$$$$:::$,3<M#######XXXXXXXXXXXX",
"@@@@@@@@@@@@@. 1<2:5$$$::5$$:$$wp8mzzzzfrygy0g9mh@@@@=@@@Xs7@@=6#XXXXXXXXXXX::$$$:$$:$:$$$5$$$$$,3<M###@@@@@@@@@@@@@@@@",
"@@@@@@@@@@@@@. 1<2:$::5$$$$$$$$kNXqpytetggmggyiy8vvvvvvvvvj@@@X#XXXXXXXXXXX@$$$$$$$$:55:$$:::$5$,3<X@@@@@@@@@@@@@@@@@@@",
"@@@@@@@@@@@@@. 1<2::5::$$$$$$:$$XXk0ygffg0gmgiyf88hch888h8pqvsXXXXXXXXXXXXX=$$$$$$:$$:$:$$555$:$,3<#=====..............",
"  .....@@@@@@=.1<2>::55$$:::$$:$ksBV99terygrmtfitggg0gm8yp8ccvsXXXXXXXXXXX@>$$:::$$:$$$5::$::$$$,3<#...................",
";;;*$::::: @77@1<2:5$:$$$$*$:5:0qkX8V8yzlttiflfyi0y00pm0pzzr9xvCXXXXXXXXX@ $$$$$$:5:5::$$5::$$:$,3<>ooooooooooooooooooo",
"--&&oooo;*:###71<2::$:$$$5:5$:ofVavpcy0frzltfrmryy0p0mpmzippypjaXXXXXXXXX.:$$$5:5$:5:::$::$:$$*$,3<$-------------------",
"++++%-&o;*:@7#71<2:$$5:$$$5::ozicpjbyzzllezztrrym0pyppp0yc9itmaaZXXXXXXX=:5:$$$5:::5$5$:$5$$$$:$,3<;+++++++++++++++++++",
"OAAOA-&;*$:@7#71<2 $:$5:$:$5ozi080fytfuwzeerfy0099p8p800qaacimasCXXXXXXX :$5:$:$555:$$:5$::5$$:$,3<*OOOOOOOOOOOOOOOOOOO",
"&&o&o;o*$$:@7X71<2:$5$:$$$::wfy98htzzuuuwzrriyg9mp9p808pVcSvipasCXXXXXX@$5$:$$$::::$$:5:$5$::55$,3<5---&&&&&--&&----&--",
"&&o&;o;*$$:@7X71<2:55$$$$$:$iigp0V9ruuuweiiyy00m80pp9ppp8c08i8CssCXXXXX 55$$$$$:$$$5:5:5$5$$*:$$,3<$&&&&&&-&-&&&&&&-&&&",
"o;&&;&o*$$:@7X71<2::$5$$$$5$$$Vhqc8yewzlryggy09808pp8pp8Vf00pcCCaCXXX#@$:$5$$$$5$$$$5:5:$:$$$$:$,3<:&o&o&&ooo&&&ooo;oo&",
"&&;o&;o*$: @7X#1<2:$::$$:$$:5$@#@8c8rtrtgyyy08p0889888p809m0VvCDaCXXX7 $$::$$:$$:5$::5:$:$:$:55$,3<$o&ooo&&oo;&;&oo&;o;",
"o&o;-&o*$: @7X#1<2>$$55:$$$5$:@#@g9mrrry00000pp8p8h8h8890ppcvCCDaCXXX7::$$55:$$$5$:$5:55$$$$$::$,3<:&o-ooo;;o&;&;&&;o&o",
";o&&o;;*$: @7X#1<2:5$::$5$:5:5@#@tpglrry0ymymp808pcccVVchcqaCCDaaCXX7 $55$::$5$:5:5:$$:$$$$$$:$$,3<:o&;o&oooo;&oo;o&;o;",
"&o;o;-o*$: @7X#1<2::::5$:$$::$@BX8pyltfiy0g0p09c8qcqkSSSqxCCCDjjaCZa $$$:::5$:$$::$5$5$$:$:5$5$$,3<>;&o&o&o;&o;;&;;o&&o",
"o&&;;&o*:: @7X#1<2:5$$:$5:$5$$$vvV8frletig00y9p8ccVkkSqkxSvaaxvvaCCD $$:5$$:$5:$5$$$$$:$$$$::$$$,3< o;&;o;;&o;;;ooo&;o&",
";&&o&oo*:  @7X#1<2:$:$:$:$5::$chhc8m0irtyyggppphcVvSkqkxvSqxxSvjaCCj:55$$:$:$:$5::$:::$:::$$:::$,3<>&;;&&o;oo;;;;&&;;&;",
"&&o&;&o*: .@7X#1<2>$$$$:5$::*c0ttpyyyyifyiy00ppcckqqkkxvxqccVSvjaCCa5$::$$$$:5$::*$$5$$5$5$$$:$$,3<>ooo;;&;;;o;&;&oo&o&",
";;o;o&o*: .@7X#1<2::$$:$$$$5:c0ttm00ygyriigy0p8hVqkSkkvxkqcqqqvjaCCa:$$$:$$:$$$$5::$$$$:::$:$$$$,3<:o;&o;;&;&oooo&o&o&o",
"&;ooo;o*: =@7X#1<2:5:$*$::$:5hptygm00ygrrym98hhVcVkVVkkVc8chcvvasCCaq::55:$*$::$:55$::$5$$$$$5:$,3<>o;&;o;;;o;&;;;&o&;o",
"o&&;o;o*: =@7X#1<2>::$::55:5$:cbym09900yy90p88VcckVqVcccccVckvDsCCakqq5:::$::55:5$:$$5$::$5$:::$,3<>o&&o&;;oo;;&;&;;o&&",
";;o;o;;$ .=@7X#1<2:$5$$5$$5::5:c8p09p800008ccckqqVkqVh8cchqvassCDSkSkjq5$5$$5$$5::5:::$$5::$:$5$,3<>;o&&o;;ooo;oo;;;;oo",
";;&;;;*: =@@7X#1<2::5::$::$$$:55hc88pphphcqVkSVccqSq89p8hqvasavkVkSjvjq::5::$::$$$:555:$$55:5$$$,3<.*****************;;",
"::***$: .=@@7X#1<2:5:$$$$$:5$$:$:$5:VVhckSVkVccnVqqcp88hkjaqVVcVkSajavk:5:$$$$$:5$$:$:$5:$:5:::$,3<#:::::::::::::::::::",
"::::: .=@@@@7X#1<2:::$5:$$$::5$:$:$:$5kVVqnc8hnVqqccpp8ckqqcVkVSSSvvvvvv::$5:$$$::5$:$:$:$5:5$$$,3<X@...............   ",
"    .==@@@77#X#1<2>$$$:$$$$$$:$$$5$5$$$:$cchbhVqkV89y88hVccVkVSqvSjvjsvjvk$:$$$$$$:$$$5$5$$$:$:$,3<M#7@@@@@@@@@@@==....",
"@@@@@7777#XXX#71<2:5::5$$$:$$$$$$:$$:5$:$$88phcqch80pp8qVkkVVkkVvvjjsjjvSvvk$$$:$$$$$$:$$:5$:$$$,3<MXXXXXXXXXXXX###66@=",
"77777###XX###7@1<2:::5:$5$$$$$:5$:$$5::5$$5pb8cc880m8qkqkVcqkccqVvaajSkSSvSjvk$$$$$:5$:$$5::5$$$,3<X#XXXXXXXXXXXXXXX#6@",
"XXXXX#####7@==.1<2:$5$5:5$5$$5$:$$:::$$:$:c8ccV8cp98cqqVckcVcqVvsssvvvSSvvvSjvvk$$5$:$$:::$$:$:$,3<#@###########XXXXXXX",
"XXXXX##@@@=. ..1<2:5:::$:$:$$:$:$$:$:$:$$8ckccVh8p8SqqhcqccccvDDDjvVcccccVqqSSSvvk:$:$$:$:$:$$$$,3<6 .@@@@@@@######XXXX",
"  ::::::::::: =1<2>:5$$$$$5$$$$$$$5:$$$$8cSakV8hcVkVhhhh888vaDSVqqhhp88chp88cVVkSvvk$$$5:$$$$55$,3<6      ....@@@@@@@@@",
"$;;oo;;;;;;;;..1<2:$:$$5$:::55$$:$:5$$$8ckvaakc8VVhh8pchcvDavqVhp89ppp8pp8pp9FFcVkvvvk$:5$$$$$$$,3<#.           ..@@@@@",
"+++++%%%%%%&& @1<2:::$$$$$$5$:::$:5:$$8cvvvvjah8h8808h8vaDSVchbh88hhcpp088ppppp0FcVjvvk5:$$$$::$,3<>&&o;$::  ..........",
"&&&&&&&&&&&o& @1<2:5$5::5$$::$:$$5$5:8VkqvjjkhcV8pppcqNDjqV8888p8p8p98889p9p89p08c8Vkvvk5:$::$$$,3<*%-&&o;**$::  ......",
";;ooo&-&Ooooo @1<2>$$:55:$:55$5:$$:$nVqvSkvc8hp0000hvNaSqV8c88h88hp888p8p8h998p8p0hcSvajk$:$:$5$,3<5OO--O%++++++%&;$ ..",
"*o;;*oooo&ooo @1<2:$:5:5$:5$$:$55$5VqqSkvqp800090p8jNaavc8h8p88pppp8ppp988p89p80pphhckaavk$$5$:$,3<$O-OO-----O-O--&* .@",
";;;;;o&oooo&; @1<2::55$:$$$::$5$$:VkvvjvVpp0myyyp8jNDvkchc8p8998pp8hhhcVqh88V8hhch88VvCsaav:$$5$,3<5-O-&&&o&o&o;o;;* .@",
";&o*o;;oo&;o; @1<2::$::$$$:$$$::::vjjjvcpp0myyypcvNakvV8cp8888h8h88hVcVVVcVccVkSqkkSkvVvsssv$$$$,3<$-&-&o&&oo&;o*;** .@",
"&*&;;&oo;;o&o @1<2:$$$$:$:$::$:5$vZajvSVskytrm98vNCaSVh888889p988ccVcVVVhVccVVSkSvqvaajkvasa::5$,3<$O-&o&o&o&;;***$: .@",
"o&;;*;o;-;;oo @1<2:5$$:$:$:$$$$$SasNavqkZNS0r0hjNsavV8hcp8ppV8cqVcccVVqVcVkScVVqcckkvvssaasC$5:$,3<$&&o&o&o&;oo**$:$ .@",
"&;*;&;;;&oo;o @1<2>$:$$:$$5$:::vSDDssvVvNNNv08vZCjSchh8988p8pccVvSjkcqcqVVkqqcVcVqSSvvaCNsas$$$$,3<$&ooo&oo;o;***$$: .@",
";&;*;o;&o;ooo @1<2:$5$$5:$::$$VqkkvsvckDjvNNasCCvSchp9p8pphhVckqkaDvq8h8h88h8c8cqhVckkvasNas$:5$,3<:o&&oooo*;**$**:$ .@",
";o*;;*&;&o;;; @1<2:$$::$5$$5:5VVSSvavVvavavDDavjvqh8p890p888hhVSaaZsak8hh8cchp8cckcckSSaDDss$$:$,3<>&&oooo;;****$:$: .@",
";*;*;;;o;*;*; @1<2:$$$$$:5:5:cqqqvvvakavvvjvvjjk8p89mp99ph8hVcvvaZsv8h8hppp8h8pccq8hVcjaaCss$5$$,3<>&o&oo;;***;$*$:$ .@",
"o*;;;&o*;o*** @1<2:5$:$$$:$:5kkVSSjvjqDvVccVkqh88c90pph808cccqSaDNvqV8cp9pV8p9ccqcchcqvDassC$:$$,3<>o&oo;o*;**$**:$: .@",
";;&*&;;;*;;*$ @1<2::$5$:$$$:$cVqkSvvjsSkchcccV8hhhh8cV80pc8cqkvaZNqv888p8h8p8pVcSq88VVvaasCD$$5$,3< ;o;;*;$**$*$:$:  .@",
";;;&;o;*;*;$* @1<2::$$$$$$$5qckkSSvvvavqcccVhhchhkcSkqh888qckSaCNNa8h89pc8p0p8Vckk8hVVvaasss5$$$,3<=$***$$*:$:::: : .@@",
"&oo;*;*;;oo*$ @1<2:$:$:$$$:$cqqVVSvvvvcVVVc8hp00yphh8cSvVccVvaaCNNcch8phh809p8cqvVchcVvaasss:::$,3<#.              .@##",
";o;;o;;-;;;** @1<2:5$:$$:$$$ccVkkvvvvvVccV800p9yp8h8c8VvvScvaasNNk8898ch9pp08VVSjV8pqkvaasss$$:$,3<MX##############XX#@",
";;oo;o;&o;*o* @1<2::55:$$$$cVSkqvkvvvvhccp00000y8ph8b8qvkVkjjDCZcVVVc8888ymc8cqvvVq8VvvaasCD$$5$,3<M#################@@",
"o;o;o;&o;o;** @1<2:$:$$$5:$VchqVkSvvvkcVh000yyym88p88kavVqkvajNkVccV8h8p00p8ccvjjc89ckvaasss:::$,3<#@@@@@@@@@@@@@@@@@@@",
";&&;&;&&o;o$$ @1<2:5$$$::5$cqcVkkvvvvccc8myyyy988888Vavckqvaaa&o&&mp8p89ypp8Vvvvac8mqSDassss$$$$,3<#.@@@@@@@@@@@@@@@@@@",
"&oo&;&*;*o;o* @1<2:$::5$$$$cccVkqkvvvkVq8phpp8888888vaScSjaaa&5o&OO&&ppm08hhSjjaahpgqkaassC.:$5$,3<6                @@@",
"&oo-&&;;oo;*$ @1<2::5::$$$VcqkqqkSvvVhccqSCNskV888hkavkkaaaao  7@77@&oGHppcvvjjaah9ycvaassD 5$:$,3<.***************:.@@",
";&oo;oo&;;**$ @1<2>::55$$:VqVVkVkkvvVVVcqqvvNNsaV8pkCvqDjaa:o BB77@7&ocJKLSvvvaaa8mycvaasss :$$$,3<*%%%%%%%%%%OO-&&* @@",
";;o;-;oo&;o$$ @1<2:5$:$$$chckcSVSvvkhVh888p8CCNNNaaCkvaaa$ @O$BBO&&&&&;VHJLvvjjaa8y0cvaasDs:$$:$,3<;++++++++++%O-&o*:@@",
"-o;;&oo;;;*$:.@1<2::$:$$$cScqvVkkvvSkccptymcCCnxvvvjkaaa$o:7O& B>&oo;;;5JGJPPvjaa89gVvaasCs:$$;$,3<;+++++++++%%--o;::##",
"o&;&o;o&;o*: .X1<2:$$5:$cc8VccVqqvjcc8nhptmpDChckkSVaaaI$o #BBBBBBBB7 55>GJKPPjaa8pmVSsCaCs$$$:$,3<5OOOOOOO--OOO&;*::##",
"&;&;&o;o*;*  .X1<2 $:$5:cchh8hSkvvccqcpnpt08aD88SkkvaDUY$o  BBBBBBBBB@55>KKKTPRvk88ckvssCZs5$$:$,3<:-OO----&---&o**: @#",
";o;o;*o**o*  @X1<2:$5$:cVcVccckvjvVV8hpt0my8vahnqkqaDUYKE$o;5: @#B$ 7755>TTTTULIvkSkvjDZCCs::55$,3<>&o&&&-&-&&&o;**: @#",
"&;o*;o**o** .XX1<2:55$$VVVcccccvSvhc88pttty8kvcqSqaaUYTKW$o;ooo:@B $@@$:vTYPUUUURVkqvasZNCs$;:$$,3< &;ooo&o&-o&;;*$: @#",
";o;;*;;***$ .XX1<2::$588hcVqqVvvvkqch88900yphckSaacxLLYKJH;o7777#B>>$$::aPLLLLIURRvvsCCNNas$$$:$,3<:o;-&&;&o&o;o;*$: @#",
"o;;*;*****$ @XX1<2:$::h8VVqSVqjvkvcVhh8pymy8cVkqaqcVqYLYHJ:577@@@7 ::::vPUUULIIIQIDsssZNCas$:55$,3<>&oo;;o;-o&o;;*$: @#",
"*;**;*;**$:.#X#1<2>$$58cqcchqkcckVcc8h89pp98kkaDm0988qaKKHH5;5;$::::::vULULLRIRRQ!~DssCNCa>$$::$,3<:;o;-;;;&;o*;;*$: .#",
";*;**;*;:: #X#71<2:5$:chVVqhkVVVVkVch888h888kkaaqy09p8hh^^HJ$5::::::vPPLLLIIIURQQ//DssZCaa:$$:$$,3< o;;&ooo;o*;;**$: .#",
"******:  .#X##71<2::h898cccSvv8hcccqkSqkqkp8pypvVcm09888cvaKKGGJTTLLLPUURURLRR!!//~~CCCaav:5$5$$,3< &;&o;ooo;;*;;*$: .#",
"::::    .#X###71<2:58p88phccVv88VVVckkSkkkhptr8kCaV009phhVvDCKHHGYYTPPLULLIRRR/!Q!~~CCaaav$::$$$,3<>;&;&o;&;o*;*;*$: .X",
" ....==@X#####71<2:$hp8phbpcV8ccqcqqkVVVVq0ite0caCDc0m888hVvDCKLPPLLRPLLURRR!/!Q~~~Naaaajj$$:::$,3<>o;o;**o;;;*;**$: .X",
"77777777#####7@1<2>$88p8p8hhp888cVcccVVcVV0ief00VDac0ym8ch8VvDNKYPLPPUUIIIRR/!!/~/NCaaavvV$$$:$$,3< ;o*;o*;*&*;*;*$: .X",
"############77@1<2::$$hp888p8888cVqVqchp8mgii08m0nkh9gym8hcqkaDNKUULIUIIQR!/!!~~/NCaaajjvS$:$$$$,3<>;o;o;o;;;;*;;*$: .X",
"@@7##########7@1<2:5:$8888p89pp8cccVcVppmyym8p8800hpm90088qVVvaDNULULIRURR!Q!/~~NsaaajvvkV$$$5:$,3<>;*;*;;*;**;;**$: .X",
".=@777#7#####@@1<2>::$::pp8phhppp8hch88h9y0mm9hpppm0ggym88VVckjaC/ILRUIQ/!!/~//NsaaavvSSk:5$:::$,3<.oo*;o*;*;*o***$: @X",
"@.====@7777##@@1<2:$5$$588pc$58hh8h8cV880ym088h8pp0mp09p89cVckSaCNLLURRI!!!!/~NsaaajvvkqcV:$:$5$,3< **;*;;*;**;*;*$: @X",
"$$$$$:  @@@@@@@1<2::5::$::$$$:55$$8pppc8mmp8cq8cVqh80y0p98ccvSjaaC/IRQQ/~/~~~NCaaaDvkVVVch5:5$$$,3<.*;**;;;**;*;*$$  #X",
"----&;*$   .@@@1<2:5:$$$$$:5$$:$:$b8ph8c9p8hc8chVcVqp8p888VckSjvaCNUQR!//~~NNCaavjvvkSchch:5:::$,3<.***;*;*;*;**$:: .#X",
"+++%%%-&o*$    1<2:::$5:$$$::5$:$$pppp8988h8hhcVhhSvSSSSSkvSvvvjvsCQQ!~~~~NaaaajvvqqVcchh85:5$$$,3<.$**$**$****$::: .XX",
"OO&&-O%%%O-o*$ 1<2>$$$:$$$$$$:$$$5pmppp8888hhchhcckSSSSkvSVkvvjvvvCC/Q~~NNaDvjvvkqqccc8898$$:$:$,3<.$$$$$$$$$::::: .@##",
"&&&&&---O%+%O&o1<2:5::5$$$:$$$$$$:$8pyp88p88p8p88hc8c8cVVkSkqSkqSkaZ/~~aSvjvSSkScVc888h8985$:$$$,3<6             ..@@##",
"&-&&&&&&&--%+%O1<2:::5:$5$$$$$:5$:$$phh9889pppppp8888hccVccVSVVkqkva~~avavSvkVcccchh0p8pp8::5$$$,3<#..........@@@@@##@@",
"ooooooooo&&&OO%1<2:$5$5:5$5$$5$:$$:::$$hppp089p08p9p9ppppc8hhqVcqcvkjjvSSqkVqcc988pp80yp8:$$:$:$,3<X@@@@@@@@#########@@",
";;o;-oo;;o&&&&O1<2:5:::$:$:$$:$:$$:$:$:$8pyp00p9mp98990p8p88hb8ccchVcqcVcSqVcc88pph8899c$:$:$$$$,3<M###############@@@.",
"oo;;&o&&o;o;ooo1<2>:5$$$$$5$$$$$$$5:$$$$55:5$h0m0m0yy0m0gyy0090088hhp88chp8888p90p8$$$$5:$$$$55$,3<M#############@@@@..",
";&;&o;&;;;o;-;;1<2:$:$$5$:::55$$:$:5$$$$$$$:$$00m0y00yp9899p8p8p0p00ppp9p8pp98888p5$$:$:5$$$$$$$,3<X@@@@@@@@@@@@@@@....",
"&ooooo;;oo;;&o;1<2:::$$$$$$5$:::$:5:$$$$::$5$::p0y0gy9b$5:$5$$5h8p88h9p0pp9998$$5$:::$:5:$$$$::$,3<X@@@@@@@@@@@@@......",
"o;o&;o;&;&;&o;o1<2:5$5::5$$::$:$$5$5:$::$$:$5;$>8900pp$$:$:$$$$588hpp8hhp8b8cp$$::$:$$5$5:$::$$$,3<#..............     ",
"&o;o;o;;&o&;&o;1<2>$$:55:$:55$5:$$:$$:$:$5$$:::5$5$$$:$$$:5:$$:$::5$$$$:$$:55:$:55$5:$$:$$:$:$5$,3<#...............    ",
"ooo&;;;o&o;&;;&1<2:$:5:5$:5$$:$55$555*$5$:5:$$$$$:$:55::55$$5::$$$$$5555$:5:5$:5$$:$55$555$$5$:$,3<;++++++++++++o......",
"ooo&-;-&;;&o&;&1<2>:$$$$$$$$$$$$$$$$$$$$$$$$$$$$$$$$$$$$$$$$$$$$$$$$$$$$$$$$$$$$$$$$$$$$$$$$$$$$,3<5OOOOOOOOO---&*.....",
"&&oooOooooo&oo&1<21,,,,,,,,,,,,,,,,,,,,,,,,,,,,,,,,,,,,,,,,,,,,,,,,,,,,,,,,,,,,,,,,,,,,,,,,,,,,,,3<$-&&o&o&&oo&&&&o ...",
"o;-&&;&;&oo&&oo1<(33333333333333333333333333333333333333333333333333333333333333333333333333333333<>&&&&&&o&&&&o&o;* ..",
":$$$$$:$$$$$$$:1<<<<<<<<<<<<<<<<<<<<<<<<<<<<<<<<<<<<<<<<<<<<<<<<<<<<<<<<<<<<<<<<<<<<<<<<<<<<<<<<<<<:&&&o&o&&&&o&oo;* @.",
"================#MMMMMMMMMMMMMMMMMMMMMMMMMMMMMMMMMMMMMMMMMMMMMMMMMM6666666666666666##MM=.=6=66==6=>:oo&o&&o&o&oo;o;* #@",
"#################################XXXXXXXXXXXXXXXXXXXXXXXXXXXXXX#7776===============@677 >> . .  . > oo;o;o;o;oo;o;;* #@",
"##############################XXXXXXXXXXXXXXXXXXXXXXXXXXXXXXXXX#@@@7==......    ...=@@@$$:::::::: $$;;;;;;;;;;;;;;;$ #@",
"@@77777777777777777777777#######################################.@@@@@..    :::: .@##@@***************************$: #@",
"@@@######7@@@@@@@77#############################################.@@@@@@@############@@@                             @#."
};
