/* XPM */
static char *result[] = {
/* columns rows colors chars-per-pixel */
"125 124 70 1 ",
"  c gray23",
". c gray45",
"X c #B7B7B7",
"o c LightGray",
"O c #EFEFEF",
"+ c #DFDFDF",
"@ c #C3C3C3",
"# c #9B9B9B",
"$ c gray34",
"% c #2F2F2F",
"& c #4B4B4B",
"* c #676767",
"= c gray67",
"- c gray56",
"; c gray50",
": c #232323",
"> c black",
", c gray12",
"< c #373737",
"1 c #0F0000",
"2 c #070000",
"3 c #1B0700",
"4 c #0B0000",
"5 c #434343",
"6 c #434300",
"7 c #6B6B00",
"8 c #4F4F00",
"9 c #878700",
"0 c #939300",
"q c #5F5F00",
"w c #AFAF00",
"e c #E3E300",
"r c yellow",
"t c #BBBB00",
"y c #9F9F00",
"u c #D7D700",
"i c #EFEF00",
"p c #C7C700",
"a c #FFFF57",
"s c #777700",
"d c #373700",
"f c #2B1700",
"g c white",
"h c #372300",
"j c #3F3300",
"k c #230B00",
"l c #4B4300",
"z c gray20",
"x c #535300",
"c c #130000",
"v c #43331B",
"b c #BF0000",
"n c #9B0000",
"m c #8F0000",
"M c #E30000",
"N c red",
"B c #EF0000",
"V c #D70000",
"C c #CB0000",
"Z c #B30000",
"A c #A70000",
"S c #570000",
"D c #830000",
"F c #630000",
"G c #770000",
"H c #430000",
"J c #6F0000",
"K c #4B0000",
"L c #5B5B5B",
"P c #370000",
/* pixels */
" .XoOOOoOOoOo++Oo++++++@#$%    &&&$.###.&&%%%*ooo+++++++++++++++++++++++++++++oo$ %% $.##*            *#+++++++++++++oOoOoX. ",
"$#oX#X===XX-===-===-=-=-;&%    &.=OOoo@=#.%%*#oo@+@@@@=@=@@=XX=X=@@=XX=X=@X@@XXo# %%.#=@oOo=$&        X+X-=-====-======XXo=;$",
"$#OX-=-X-=-=X--=X--=--*       *=oOoX====@-$%*=o@XX==o==#================###XX#o##*% -@===XoOo=&       X+X;;--=----=--X==--=.$",
"$#OX#--#-=X-=-=-=-=X;*  ::   *=oX=X===XX@#.%%#o@X======o-=--##-=-=--##-=###;--@@#*%&#@X===X=Xo=*     :&=+=##-=--#-=--#--#--.$",
"$#o##-X-#-#-------;* ::::%   .o@##===XXX=@#*%*=@X=@#=-o=@-;#--;#@-;#--;#=;-=-=##* %#@=XX===##@o..    ::&;#X#--##=--##-X--##.$",
"$#o###=-=X-#--X-;* :::%      .o@@=@=@==XX@#-%$#o#==X-##@==-----;==-----;;-#-=--#$%&#@X==@=@=@@o..      :&&;XX##-XX#-=-=#---.$",
"$#@---#=-=-=-#-*& :%&&.--.% %$X==@##=@-@==@#*%.=@====#@#-#-=#;---#-=#;------;-#- %#@=@-@=##@==X$*%%.--.&  $;#XX#-=-===#-#-#.$",
"$#@=;##=-=X-#-*$:% &.XoooX*%%$.X===-=-##===#.%*-o=#=-#=#=#=;=--==#=;=--=#--=-;#*%&#==##-=-===X.$%%*XoooX.& $-#@X#-=##-=#-#-.$",
"$#@--#-#=-=#-*$::&.=oX==X@#*%%&.X#=X#-XXX@@#;&%.=@=-==##-;#=--;--;#=--;--==#--= %;#@XXX-#X=##.&%%*#@X=#Xo=.&&$-@X##--;##--=.$",
"$#@=###=-##-*$:% .oXX##=-X@#*%%&.====X##@##=-*%*-o#==#-=X-=-;-=-;;#;=##=#-=##-*%&-=#@##X===#.&%%*#@X#=##=Xo.  $#@=#-#------.$",
"$#@--#-;--=*&::&.O=#-#=##-#o-* %&.-#=#;X==@@-;&%.X@-==####-=-;-#;--;-;-#-#=#-. %;-@==X;#=#-.&% *-oX#####-#=o. &.#X=#-#;-#;=.$",
"$#@##=##--*&:: .O=#-#-##=#-=o-*%%&.--==-#-#---.%$#o=-#-==--#;--;=-=-=--;-----$%&--#-#-==--.&%%*-o=-#=##-#-#=o. &$#@#--#----.$",
"$#@--#--#**:: .XX=##=#-X#==#=o-* %&.--=;-=-;;-;&%.==#=##=;-;-;--;==--;;;;.;;. %;-;-=-;=--.&% *-o=#==#X-#=##=XX. &*#=-=-=-==.$",
"$#@#-#-;.& : .=o=##--#X#-###-=@-*%%&.###=-#-;;-*%$.#;#=####;-=-=-#-=--;.;;;-$%&-;-#-=###.&%%*-@=-###-#X#--##=o=* &.==###-#=.&",
"$#@#-#=.$&:%&#=X##-#=-#-##-#-==X-* %&.--;-;X-##*&%&..;;-;-;-;;;-;--.#.;;.... %*#-X;-;--.&% *-X==-#-##-#-=#-##X=;& $#@=#=-#=.$",
"$==-#=-$ %: &-##----==###=;-=;=-X-* %$.-#;#-;;;*$% &$$**.**...**...**..*$$& % *;;-#;#-.$% *-X-=;=-;=###==----##;&  .#X=@---.$",
"&#=-##* %:% $;-#-#=#---=-=-=-=;-==-* % .;;.;.*$$ %:%%  &&&&&&&&&&&&&&&&  %%%%$$*.;.;;. % *-==-;=-=-=-=---#=#-#-;$  &.#=###=.$",
"&-==#.&%::% $.;;#X#=#X--=-=-=-==--=-*%% .*.*$$ %%%%%::::::::::::::::::::::%::% $$*.*. %%*-=--==-=-=-=--X#=#X#;;.$   $.#X#==.&",
" ...;$:::%% &$.;;##=-#X-#-#=;-#-=--#;& % && %%%:::::>,,,,,,,,,,,,,,,,,,,,,,>:<%%% && % &;#--=-#-;=#-#-X#-=##;;.&     $.-@=#.&",
" &$$&%:$.. %  &$.;#-=##-;--;-;#=-=--#$&%%%%%,,,,,,>>>>>>>>>>>>>>>>>>>>>>>>>>>>::::   %&*#--=-=#;-;--;-##=-#;.$&%%    %$.;;..&",
"  ::::.ooX#$%%% &*;;-=-=#;=-=----;;;*$&::,,,,,,>>>>>>>>>>>>>>>>>>>>>>>>>>>>>>>>>>:::::$;*;;;----=-=;#=-=-;;*  %%$#XX.$ $$$$$%",
"    %.Oo@@XX#$ % &&*;;;;-#---#--#;.$&& ::>>>>>>>>>>>>>>>>>>>>>>>>>>>>>>>>>>>>>>>>>>>>:*;*$.;#--#---#-;;;;*& % $#XX=#;$$%%%%%%",
"    .Oo@==##XX#$%% &$*.-;#;#--;-;.$&& :>>>>>>>>>>>>>>>>>>>>>>>>>>>>>>>>>>>>>>>>>>>>>>:%**$$.;-;--#;#;-.*$& %$#XX##=XX;.$ ::::",
"    #O@X#X==##Xo#$%  &$.;;#;-;-;$&&  :>>>>>>>>>>>>>>>>>>>>>>>>>>>>>>>>>>>>>>>>>>>>>>>>: $$&&$;-;-;#;;.$& %$#oX##==X#X#.* %:::",
"   .Oo#=#=##=-##Xo=$%%&$...;#;.$&& ::>>>>>>>>>11222111111111111111111111>>>>>>>11112>>>:%  &&$.;#;...$&%$=oX##-===#===;*  :::",
"   #O@=##X##-#=-#-Xo#$% &$*..*&& %,>>>>>>>2>>>>>22>:,,,,,,,,,,,,,,,,,,,3>44::4>>>>>>>>>>::%% &&*..*$& $#oX-#-=#-##X=#=#*$ :::",
"   ooX#==#X#==-##-#-Xo#$% &&$&  %,>>>>>>>>>>1,,:,>:%%:%%:%%%:%::%::%:%,,,2:  :>>>44>>>>>>>::%  &$&& %#oX-#-##-===X#==#X.$ %::",
"  .o@XX-##-=-==#=X-#=Xoo.%% %%%:,>>>>>>>>221, <%:2: <<<<%<%%5<<5<<5<5<%::44::444>>>444444444:%%%% %.ooX=#-X=#==-=-=#-XX;. %::",
"  #oX=-X#-=-=#=X-#==##=@=.%::::>414>>>14422,<& %,2:& <5  5<5<55<55 5  %:,4>>:,,,,,,4444,,,,44:::::.o@=##==#-X=#=-=-#X-=#.$ ::",
"  oo##--=#-=#=-@X=#-==-@#;%:3>>>>4:::%::422&&  %,2:55< <<  555<55 5<<5%:,4>,<5$$&5 :444,:%,,41444%Xo@-==-#=X@-=#=-#=--##.$ ::",
"  o@--=##--=--=#=-=#--==-* :4444:::%% %:422&&  %,2:< 5 < <55<5<<5< 5<<%:,4,5&&5  5  ,4,:%%::,114:;;X@=--#=-=#=--=--X#=--;* ::",
"  oX#=X=-#=-==--#=-=-==-;$ :4>2:::% 5 %:422&6776,22:%%%%%%%%%<<%<<<<<<:,44,$587900q5,4,%   %:,44:.;-@@=-=-=#--==-=#-=X=#;* :%",
"  o=-#=##=####-==-=-#=#;* %344:::% 5  %,427wert76224,,,,,,,,,::,::::::,444,$8yttuiipq4,%&55<%:,4%$;;=@=#-=-==-####==#=#-;* ::",
"  #==##-##-#=-;#-==-#X;.$%:344::% 5 <<%,7uaarruw7q2224444444::444444444444,$ywwwwtuii0,%& <<<%,14%$..@X#-==-#;-=##=#=##=;$ ::",
"  $*.;;--#--#---#--=X#;* ,444::: 555<<6waarett90ps222222222:  :44444444444,$t0q6870wui0%& <<<<::14%&*-@X=--#-=;#==###;-;$$ ::",
"   $$$$*...;;##=##===-.$ ,4>4::%   <%6tarrpwsqdq0s::::::4444::4444::::::::4$t0687d89wui0&5 <<<%:,4% $.=@=====##;;...$$$$$  ::",
" %%%%%%%  &&$$*..;###;$ :,24:::%%<<< 9ariw9qfffqsq:: 5<%::44sywtppqd$&&&5:4$w08>>>d67wie0  5<<%%:14%&*;@=#;..$$$&&  %%%%%%%%%",
"     %%%%%%    &&$$**$ %:224::%%%%% 7uauwqdf1ffqs8<$&&5&$$80piggggres55  :450tq>>>>h6swee75<5<<<::4%%&*$$$$&& %%%%%%%%%%%%%%%",
"% .X+@=-;&%%%%%%%%  && ::>>4::%%%<560iitsdf11fjs96&&&&55559pigrret8ytpps5:459ts>>>>>h70uet6<< %<%:34%  %%%%%%%%%%%%&--#XoX. %",
"%#@@@=@X@ooX#;.&%%%%%%%32>>:::%%%<<6tee08qk11fl996$&55   <0prrriiiitwgep924 7w91>>>kfl0eet6555<<%:444%%%%%%%%&.;#XoooXXX#=;$%",
"%#+=--##===X@ooOO+X#$<%,122:::%%%<d7ertsyqf11fqyw6&55   <<0priieeeeeeeupp24 qwy3>>>ffdstre7d 5< %:445&*.##X+OOoo@XoXo==--=.$%",
"%#O--#-##-##-#=XXXXo.55%,22:::%%% 60eewy9qhkkfqwtq   5  <%0priiuwsll<%<l924%qtwk>>kkd8swre06<<55%:4z**#XOoXXoo=#-=#-X--#--.$%",
"%#o##--X##=##=#X-##=.&5%,22::::,:d6treyt9qdffkxwps6< 5  <%0paieps>7>22% %24%7pwf>>ffl8syrrt6d <5:44 &*;@+=##-##=##=##X--##.$%",
"%#o--##=-#-==-=-=###;5<:,222:::::d7preytsqjjfkjwuts6:%%%: 9paaip98>y>>>>%24h0iwh>>fdls9wrrp7d<%::44z&$*@o###=-=-==-#-=##--.$%",
"%#@###-#--#--=##-##=;5%,,22222>22d7ureyt0qjjfkhyeut77>>>7wtuaaiup9q8y8>>>>80rryj>kf8s0serru7d:::444 z&*@o=##-##=--#--#-###.$%",
"%#@-#-#=-=-#=-=#;#--;5%,,22222>22d9ureyy0qjhfhk9eutwtuwtuerraariupw90turrruuri0l>ff870surru9d444444zz5;@+--#;#=-=#-=-=#-#-.$%",
"%#@=#;;-#-##--#-##-=;5::,22::2>22d9ereyysqjhk3k9eeppeiiirrgggarrrruttuewytpuuu9lfhdd7s9pere9d4444445  #@+=-##-#--##-#-;;#=.$%",
"%#@--;#-;#----;-=-#-.5%:,2:  :>,,d9eruy97qjjkfkjwttpeirgggggggariiiiiiuw07s9s7ldhd8877ypere9d11::44z &;@+-#-=;;----#;-#;--.$%",
"%#@=;#-#-#-#-=--=#--;5%:,2:%%:>:<d9eruy97yjlhf3hjxx9ergraaggaariieeeeepw08fffffdd887y7ytere9d11:::45 &*@@--#=;;=-#-#-#-#;=.$%",
"%#X----;-;-#;---=-#-;5:,,2:%%:>,%d9eru9y7u686hf3khjjerrraaaaaaieeuuuuupy98ffffjq6887u7ytere9d11:%:4zz .@+-#-=-;-;#-;-;----.$%",
"%-#=;=#-;#;X-#;--#--;5,,,2:%%:>,%d9eru9y7t6s8h6fff3jurrraaarrieppppppww9s6fhj87q68s7t7y0ere9d11: :4z%z*@@--#=-;#-X;#;-#=;=.$%",
"%.-#-#-#=;-;=;-#;-;;*<%:,2:%%:>,%d9eru99yy7y7hs6hfffurrrarriiet0ttttwwy78ffj66qs6dy7yyy9ere9d11:5:4:55*@X-#-;#-;=;-;=#-#-#.$%",
":*.....;-;.-.....***$%<:,2:%%:>,:d9erey9py7s78wsjjhftrrrrriupwy7wwwyy09q6fh8j6sw86s79py9ere9d11: :4:z$5-;..*.....-.;-;....*$:",
":&*$$****$$$**.**$$$&%:,22:%%:>,:d7uretypy777qs666j69urrrrepwys80yyy0s78ffj6d86sq6979py0erusd11:<::4: &$.$$***.**$$$****$$$&:",
":::::::::::::::::::::,2222:%%:>,:d7uretyey7y7wq768q6qwirrruty00s099ssqqdffd8867qwdy7seyteru7d11:%:::444::::::::::::::::::::::",
"&    %%%%%%%%%%%%%%%%,24222::2>,:d7trepyry7y7wqy7q86dserrruty09s99s7q86fffd8qlyqw7y7sr9prrt7d11:%:::c:% &$$$$$$$$$$$$$$$$$&::",
"&.@oo+OOO+oooooOoOoX.%:,422222>,,d7wrepyiy7pyq776sq8f8trriuwy0s7sss78ldff44qs877qyp77i9prrw8d11::::c: &.-X@+OOO+oooooOoOoX. :",
"&@OoXXooo@@XoXoXXXo=;55<,22222>22d60reuypyyp9ys6ddsqfdwriuwyy07q77q8ljff444s8d6sy9p97pyurr06d144444:$**-@oXXooo@@XoXoXXXo=;$:",
"&@+=##-#=#-=#-X==--=.<<5%22222>22d69rruyy9up9w07>>d8dfsrptw00sq8q866jhf444:6dh7099p97yyurr96d444444&*$$=X=##-#=#-=#-X==--=.$:",
"&@o###=-#=##=##--#--.%%<%22222>22dd7rreyp9up97w9>>d6dfsrpsss7q8866jjhhf44,%hhh9979pw9pwerr7dd,44444&$5&@X###=-#=##=##--#--.$:",
"&@o=##-#=-==-#-X--##.%,%%22%   %24d7urueryuu9d8d444d6f8re98jjjjjjjjhhfh44%&<%%q9qyww9rwuru7d::<:444 5&*@X=##-#=-==-#-X--##.$:",
"&@o###=-#=--#--=##--.%:::2, %%%%24d7truuryuu9dd44444d4frrwqhhhhhhhh3f6q44: %%:<qdywpyrwurt7d:%&%:4: &&.@X###=-#=--#--=##--.$:",
"&@o=##-#-#=-=-=#-###.:%:,2%%:%%%44dqyruururu9444444444fiew7dhfhdh3338s044:  5 55%ywuwrturyqd: &%:4:&&$-@==##-#-#=-=-=#-###.$:",
"&@+--#;#=-=#-=-=#-#-.,,%,2%:%%%%,4d8serpeyruy422%&$*& fepyq6hfdddh38s0u44:<  5<<:ywryetres8d:& %:44$5$-@=--#;#=-=#-=-=#-#-.$:",
"&@+=-##-#--##-#-;;#=.<:%:2%::%%%%446qwrupyrw944%&55555 wpy86dhdhhd6s0tu44:  < &&:ywrypurwq6:: %::44$&&.@X=-##-#--##-#-;;#=.$:",
"&@+-#-=;;----#;-#;--.5<::2:::::%%44669erpyew944%55 555 0ey66dddhhd69wp044%:%::%:,yweypre966:::::444&$$.@X-#-=;;----#;-#;--.$:",
"&@@--#=;;=-#-#-#-#;=.<,:,2::::::::446qtriwww944%<<  <  7uy76ddhhhhdywp742>>>>>>>2ywtwirtq6444444444  &*=X--#=;;=-#-#-#-#;=.$:",
"&@+-#-=-;-;#-;-;----.%,,,2,::::::::4v69eruywy44,%%%%%%%6wy96dhhhhhh0wp642>:: :>>2ywture96v>>>>>>>>4 %&;#=-#-=-;-;#-;-;----.$:",
"&@@--#=-;#-X;#;-#=;=.%,::22,,,,,,,,44dqtripwy442,,,,,,,6wy9dhhhhhhhjtt442::%%::44ywtirtqh444:444444  &*##--#=-;#-X;#;-#=;=.$:",
"&@X-#-;#-;=;-;=#-#-#.::%:22222>224444hd7eripy44244444449ey88hhhhhhhh0u4424::::444ypire7hh44: :44444 &**-#-#-;#-;=;-;=#-#-#.$:",
"&-;..*.....-.;-;....*%%:,2222>22244444kh9eriy422444444qyu88dhhhhhhhh8uq4244244444wire9hk4444:344444: &*;;..*.....-.;-;....*$:",
"& .$$***.**$$$****$$$:,,4>>: $$&&&$$$&d67wery4224444460iau8>hh>>>hsuuuw:,42%&$$&%trew7kk::4444  %:4::, $.$$***.**$$$****$$$&:",
"&%%%%%%%%%%%%%%%%%%%%,4442: &$555<<  < dd7tey4,,%%%%:uuiys9s>>>>>su0qrrt84%$$&& %pet7kd:,:444$.$&%:ccc:%%%%%%%%%%%%%%%%%%%%%:",
"&%%%%%%%%%%%%%%%%%%%%44442: 55555< << <%dd7ty4:<$$$&i0hibnn88>>>>8q7suyuw4%$5 <&%ue7dd:::,44<$$& & :ccc%%%%%%%%%%%%%%%%%%%%%:",
"&.@oo+OOO+oooooOoOoX.%:,42: <5&     <<<%:dd7y4:%&&&$itnimbMNNNNNNNMbmr88u4%$5&  %e7d8:::::44<&&    %: $;@oo+OOO+oooooOoOoX. :",
"&@OoXXooo@@XoXoXXXo=;5<%,2: << <<<<  5<%:4dd74,%55 5mibNBNVCCCCCCCVNNNbu74%$5<5 %768::::%:44% <  %%:%$*;OoXXooo@@XoXoXXXo=;$:",
"&@+=##=#-=#-X==-##-=.:%,:2,%  <   << < %:44dd4,:  <mNBBVCCbbZZZZZZZZCMNNCm%&5<5 %6s::,,%%:44:%<< %%%55 ;+=##=#-=#-X==-##-=.$:",
"&@o##-#=##=##--#X#--.::::2,:5<%%%  << <::444d:,%5 MNBCCCZZZZAAAAAAAAAAAbMNS&< 5 %s:,,:%< :44::% <%:%  &;o##-#=##=##--#X#--.$:",
"&@o=##=-==-#-X---;##.,,%%22,::::::::::::4444%<,%mNBCCZZnDFSFFFFFFGGGnnAZZCNNm   %,,,:%<< :444::%%::%5z&*o=##=-==-#-X---;##.$:",
"&@+---#=--#--=##=-#-.,,,,222224::44444444444:%5mNMCbZnSSSFFFGDDGGFFFSSDnnZZCNm<5%,,%%  <<:44:44::::zz&$;+---#=--#--=##=-#-.$:",
"&@+=-#-#=-=-=#-#-##=.:%%%22222:  :444444444445mBMCbnFHSFHH>>>>>>>>>HHFFSDZZZCNm  :% %<<<5:1: %14444555&;+=-#-#=-=-=#-#-##=.$:",
"&@+-##=-=#-=-=#-;#--.:,%,222224::444444444444mMBMCmHSSH>>>>>>>>>>>>>>::SSDZnZCBm<%<<% 5 <:1: :31444z5z$;@-##=-=#-=-=#-;#--.$:",
"&@@---#--##-#-;;#=;=.%:,,2>><$%>>><$$$$& :44mBBD:::::::>>>::::::::::::%%>>>FJZCMm:55  5 <:1:::3<$:4zz$.*@---#--##-#-;;#=;=.$:",
"&@+-#;;----#;-#;;#--.:,,:22:<&&:>:<&&$& %:4JBBBD:@@@@@@>>>:@@@@@@@@@@@@@@@@>JZZCVJ:< < < :14:1%$$:4 z%$$X-#;;----#;-#;;#--.$:",
"&@@--;;=-#-#-#-##=;=.%,,:22:%55:>:%555 %%:4VBBBD:X####X>>>:X##############X>HDnZVD,:55<< :1444 $&%4 zz&$X--;;=-#-#-#-##=;=.$:",
"&@X-#-;-;#-;-;---#-#.%:%:22:%<5:>:%<5&  %,DVBBVJ:X####X>>>:X##############X:KDnAZCD,%<<% :1444 $5%4 & &.--#-;-;#-;-;---#-#.$:",
"&-;..*.....-.;-;....*%%:,22:%<<:>:%<<  <%,CVVVnG:X####X>>>:X##############X::DnAAZn:,%<<<:1444<$5%4: &&.;..*.....-.;-;....*$:",
"& .$$***.**$$$****$$$%,,422,% %:>,%  <%%%JCCCCGG:X####X>>>:X##############X::JnnAAZJ,%%<<,1444%&5:4::%&$.##;**.**$$$****$$$&:",
"&%%%%%%%%%%%%%%%%%%%%444422,%%::>,::<%%%%DbbbnGF:X####X>>>:X####-.........->>KnnnAAD,,%%:,1444,:%:ccccc%%%%%%%%%%%%%%%%%%%%%:",
"&%%%%%%%%%%%%%%%%%%%%4444222,::>>2,:::::4nAAZmFK:X####X>>>:X####X>>>>>>>>>>>>>JAnnAn,,,,,:1444444cccccc%%%%%%%%%%%%%%%%%%%%%:",
"&.@oo+OOO+oooooOoOoX.<%:>22222>224444444JZAAAGF>:X####X>>>:X####X>>>>>>>>>>>>>KbnnAZJ,,,,144::444cc, &$-@oo+OOO+oooooOoOoX. :",
"&@OoXXooo@@XoXoXXXo=;5%%:22222>224444444DZAAnGK>:X####X>>>:X####X>>>>>>>>>>>>>>bnnAAD444444:  :4444 $&.@OoXXooo@@XoXoXXXo=;$:",
"&@+=##-#-=#;--#-##-=.5<,%222:::::::::::4nAAAmF>>:X####X::::X####X:::::::::::>>>AmnAAn4444444::444445&$.@+=##-#-=#;--#-##-=.$:",
"&@o###=-=-#-=#-#X#--.<%%:2::%&&$**$&&5 :ZAAnGK>>:X####X@@@@X####X@@@@@@@@@@:>>>FAnnAZ444:<&&$$&&%44 5.-@o###=-=-#-=#-#X#--.$:",
"&@o=##-XX#-;#;---;##.5<%%2:% 5 &&&&5  %:AAnnGK>>:X########################X:>>>KbnnAZ44:&$&55&$*5:455$.@o=##-XX#-;#;---;##.$:",
"&@+-#-=#=-=##-##;#--.$5<%2:%  &  && & %,AnnnG>>>:X########################X:>>>>bnnnA44%$&5 55&$5:45&*-@=-#-=#=-=##-##;#--.$:",
"&@@--#=-;#-X;#;-#=;=.5<:%2:<<< <<<<< 5%,nmnnG>>>:X########################X:>>>>bnnnA44%&55<5&&&<:45&$.@=--#=-;#-X;#;-#=;=.$:",
"&@X-#-;#-;=;-;=#-#-#.5%%,2:< <<< < <<<%,mmnnG>>>:X########################X:>>>>bnnnA44 & <<<5 &<,4z5&*=#-#-;#-;=;-;=#-#-#.$:",
"&-;..*.....-.;-;....*<,,,2:<55<<5<55<<%,mmnAG>>>:-.........-####-....-####X:>>>>bnnnn44<& <<<<<5 ,4:z&$-;..*.....-.;-;....*$:",
"& .$$***.**$$$****$$$,,,,2:<5<%<5<5<%5%,mmAAGK>>:::::::::::X####X>>>:X####X:>>>>bnnnn44<&5 <<<<<5<:4:z&*.$$***.**$$$****$$$&:",
"& %%%%%%%%%%%%%%%%%%%44442,<<< <<<<< <%,DmAZnF>>>>>>>>>>>>:X####X>>>:X####X:>>>KZnnmD44 &  5<<%<%<:4cc: %%%%%%%%%%%%%%%%%%%%:",
"& %%%%%%%%%%%%%%%%%%%44442:%% <%%%% <<%,SnAZZG>>>>>>>>>>>>:X####X>>>:X####X:>>>FZnmmJ44%&55<5<<<<%::cc: %%%%%%%%%%%%%%%%%%%%:",
"&.@oo+OOO+oooooOoOoX.<%:22:<5%%<5<5%%%%,4nAZZnK>:::::::::::X####X>>>:X####X:>>>nZnmm:44:55 << %<5<:% &$.@oo+OOO+oooooOoOoX. :",
"&@OoXXooo@@XoXoXXXo=;%<%,2,<<<5<<<<<5<%,4DZZZnJ>:@@@@@@@@@@X####X>>>:X####X:::FbZmmD:44: & 555<<% :z&$5@OoXXooo@@XoXoXXXo=;$:",
"&@+=##-#-=#;--#-##-=. 5%,2:<%<<<%<%<< %:4SnZbZG%:X##############X>>>:X####X::KDbnmmJ:44:<& 5 5< % 4z&*.@+=##-#-=#;--#-##-=.$:",
"&@o###=-=-#-=#-#X#--. <%,2:%5 < 5 5 <%:,44nZZbnH:X##############X>>>:X####X:>JbAmmD::44:: 5 <<55 %4z5.#@o###=-=-#-=#-#X#--.$:",
"&@o=##-XX#-;#;---;##.<%%:2::%%% < <%:,,:44SnZbbHcX##############X>>>:X####X:HJAnmmJ::444:<55< <5<:4 5&.@o=##-XX#-;#;---;##.$:",
"&@+--#;##-##=-=#=-#-.5,:,22::::::::::::4444DnZbHcX##############X>>>:X####X:JJDnmn:::444:%55 <%%,:4z$z*@+--#;##-##=-=#=-#-.$:",
"&@+=-##-#--;#=-#-##=.&%:,222:::::::::444444SDnAJc-..............->>>:-....-:GJDmmJ, :4444:% %:,,,44z$&;@+=-##-#--;#=-#-##=.$:",
"&@+-#-=#=-=##-##;#--.&%%:22222>2244444444444SnnmSS:::::::>>>>>>>>>>>:::::::KFJDmS::5:44:444:,,>4444 &&;@+-#-=#=-=##-##;#--.$:",
"&@@--#=-;#-X;#;-#=;=. %,,22222>22444444444444SmmmJJSSS::>>>>>>>>>>>>>>KKKKKKFJDS::<5:4:$:4444444444z%&L@@--#=-;#-X;#;-#=;=.$:",
"&@X-#-;#-;=;-;=#-#-#.:%,,22>::::::::::::::::::SmnnmmmSSSF>>>>>>>>>>GmmmDFSSSFJS::<55:4& %44::::::44zz& @X-#-;#-;=;-;=#-#-#.$:",
"&-;..*.....-.;-;....*%,,,22: $$$$$$$$$$$$$$$$<<SmnAZZbVNNNMMMMMMMMMMMCnDJJJJJS::<55<:4  %4% $$$$ :4,%%&-;..*.....-.;-;....*$:",
"& .$$***.**$$$****$$$,,,22: &&&&&&&&&&&&&&&555%%SDnAZZZZCCCCCCCCCCCCCZADGGGGS::< 5< :4% %: $&&&&&%:4,,, .$$***.**$$$****$$$&:",
"&::::::::::::::::::::22222:555&555 5&555 555555::SDmnAAZZZZZZZZZZZZZZZADGGGS:%   5<5:4::::&$5555& ::44:::::::::::::::::::::::",
"&::::::::::::::::::::22222:55555 55555 555& 5<55%,:PJmnnnAAAAAAAAAAAAAnDJS22& <<%<<<:44:4:5&5 5555::44:::::::::::::::::::::::",
" .@oo+OOO+oooooOoOoX.<<:,2:5  5<<5< 5<<5<<<5 < < <:,::SJJmnnnnnnnnnmJJS,::4455<   <<:4444:5&& &5 5:4 $$.@oo+OOO+oooooOoOoX. :",
" @OoXXooo@@XoXoXXXo=;%%<%2: &5<< 5<5<< 5<<5 <<5 <  <:,,:HHFFFFFFFFFH:::4  :4 5%%<<<%:4444: &&& 5<%:4$&5@OoXXooo@@XoXoXXXo=;$:",
" @+=##-#-=#;--#-##-=.:,,<2:<<< <<  < <<  <<<   <<<%<<::%%           ,44 $ :::::::::::44:4:: 5 5 <:4 zz @+=##-#-=#;--#-##-=.$:",
" @o###=-=-#-=#-#X#--.:%%<2:<5 < <<% < <<% < << <<%<< %%<............* 4: ::44444444444:&:4:% 5  %:4$55 @o###=-=-#-=#-#X#--.$:",
" @o=##-XX#-;#;---;##.,:%%22%%%<55 <%<55 <%<<<<<%%<<<<%%*###=####-#-##* 4::4444444444444:444::%%%::455 %@o=##-XX#-;#;---;##.$:",
" @+-#-=#=-=##-##;#--.::%,224:::%%<%::%%<%%%%%%%%%%%%%**--#-#--##---#--**444444444444444444444444444z5  @+-#-=#=-=##-##;#--.$:",
" @@--#=-;#-X;#;-#=;=.:%<5*;X++++++++++++++++++++++++++XX--#-#-#----#=Xoooooooo@@@++++++ooooo++++o=-.$& @@--#=-;#-X;#;-#=;=.$:",
" @X-#-;#-;=;-;=#-#-#. &$;=X+@@@@==XX=X=@X@@+@@@@=@=@@=XX=X=@X@@X====########=####===========X@X@XX=;$& @X-#-;#-;=;-;=#-#-#.$:"
};
