/* XPM */
static char *result[] = {
/* columns rows colors chars-per-pixel */
"62 62 61 1 ",
"  c gray44",
". c #7C7C7C",
"X c gray55",
"o c #989898",
"O c gray66",
"+ c #646464",
"@ c #FC2020",
"# c #E00000",
"$ c #FC0000",
"% c #980000",
"& c #FC4040",
"* c #EC0000",
"= c #C80000",
"- c #B00000",
"; c #D40000",
": c #BC0000",
"> c #A80000",
", c gray33",
"< c #7C0000",
"1 c #484848",
"2 c #880000",
"3 c gray22",
"4 c #A40000",
"5 c #640000",
"6 c #4C4C4C",
"7 c #580000",
"8 c gray25",
"9 c #700000",
"0 c #543C1C",
"q c #744C28",
"w c gray36",
"e c #FC5454",
"r c #FC5C5C",
"t c #FC7C7C",
"y c #B47044",
"u c #FC9C9C",
"i c #C87C4C",
"p c #B4B4B4",
"a c #BC7848",
"s c #D08050",
"d c #FCB8B8",
"f c #80502C",
"g c #9C6038",
"h c #D0D0D0",
"j c #C0C0C0",
"k c black",
"l c #905C34",
"z c #4C0000",
"x c #885830",
"c c gray19",
"v c #282828",
"b c #2C2C2C",
"n c #400000",
"m c #202020",
"M c #A0643C",
"N c #343434",
"B c #5C4020",
"V c #A86840",
"C c gray11",
"Z c #403018",
"A c white",
/* pixels */
" .. ..XX.X.o..XXO+o.XoXoX.XoXXXoX.o.XooXXoXX.o.XXX.X..X.. . . ",
"@@@#@@$@$@@@@@@@@%Xo&@@@@@@@@@@@@@@@@@@X.o$$$$$$$#$$$*$$$$#*=+",
"$-;:*:>$%$$$$$#$:=,.@$$$$$=$$$$$$$$$<$%1XX$$$$:=$=$>;:$;-*2$:3",
"$4=;**;*%:$$:*$$*$,X@$;$$<:$#$5$$<:$*$$,X.$=-$$$$$$#=*$*>$2==1",
":=4##$=$4$$-$=$$$$,.@$4$$%*$=$>$$=$$$$$,.X$%;*$:#=;:4$*$%#2;=1",
"%#2$=*5#$$$*$;$*$*1.@$=$-#$$$$#$$$*$*#$6..*4$$4#$*-*%$-$7***:8",
">;#;>;4##>#2%::4*:1 **>>>%=$-$;$$*-$$2$3. **$$9==>4==;:=2;=%=3",
"33831818,6,,,++ +,,X ,,68161868611,,6116XX+60q,,,66,,133113333",
"  ++ w +..XXooooXOooX .. ..+XX+.... ..XX...X....X.   + . ++w++",
";:;#4;*%XOertttttttre&$*$$$@&.X&&&&&&&&&&e&&&ee&&yXX.#=##=;=;;",
";2%#7;#: Otuuuuuuuuut&-$4-&eioptastttttttXttottttsoOX&9#=-;%;:",
":5:;7=#:.puuduuuuuuut&f#g&ttuphuuuuuuuuuuuuuuuuuuupjO&-:;=;-;>",
"=>;;%==:Xjukkkkkkkkpteg:ettkkkkkkkkkkkkkkkkkkkkkkkkhpe=;;;;2:5",
"=4%=57-fXjukkkkkkkkuurl&etukkkkkkkkkkkkkkkkkkkkkkkkjpyg4%%-%=7",
">%>>z%-:Xjukkkkkkkkuutxytoukkkkkkkkkkkkkkkkkkkkkkkkpjsq4-%4z%<",
"3c3vb81w.jjkkkkkkkkppOX.oppkkkkkkkkkkkkkkkkkkkkkkkkpjo+1333c3b",
",16,w++.OjhkkkkkkkkpppoopjjkkkkkkkkkkkkkkkkkkkkkkkkpjO.+w,,6,6",
":-4:-::&suukkkkkkkkpjttetuukkkkkkkkkkkkkkkkkkkkkkkktutg=::-2>6",
"%%<:--:fiOukkkkkkkkpjttytuukkkkkkkkkkkkkkkkkkkkkkkkuOsg-:9%n%m",
"2-2%%::qsOukkkkkkkkpjtsysuukkkkkkkkkkkkkkkkkkkkkkkkuus::>z-9%c",
">%-<--:qiuukkkkkkkkpjtsytuukkkkkkkktuuuupjuuuuOuuuuptyg--n422c",
"55><--:fytukkkkkkkkpjtyssOukkkkkkkkuddupppuutXttooossg--45445c",
"<%%4<2ffyoukkkkkkkkpjoaisOukkkkkkkkpjutoooiyyMyyyyygf422%%922c",
"vvmv38,+.opkkkkkkkkjjpXooppkkkkkkkkjpoX...+,1111611133Nbbvvbvv",
"16366,+..OjkkkkkkkkjjpOOpjjkkkkkkkkjjOoX. ++,w,w++++,,83131611",
"%%%%%%4+Xtukkkkkkkkuputtuuukkkkkkkkuutisyygfgggggg.Xg4<%44%%%%",
"%5%9%42,.sukkkkkkkkupuuuuuukkkkkkkkupuOtsXsaiyyssXXOgf%42%972%",
"72%5%2%1 sukkkkkkkksOpupuuukkkkkkkkuuppuuuuuuOuuuOOpif442%99%%",
"<%%9%9<1..ukkkkkkkkkkkkkkkkkkkkkkkkkkkkkkkkkkkkkkkkpsg4%2%nz<%",
"22<9%2%1+Xukkkkkkkkkkkkkkkkkkkkkkkkkkkkkkkkkkkkkkkkjslf%%%n922",
"5z5z99%6 sukkkkkkkkkkkkkkkkkkkkkkkkkkkkkkkkkkkkkkkkpoxf2<5n9<9",
"vvmmmb31.oOkkkkkkkkkkkkkkkkkkkkkkkkkkkkkkkkkkkkkkkkpO 13bvmmmm",
"383331,,.OjkkkkkkkkkkkkkkkkkkkkkkkkkkkkkkkkkkkkkkkkpOX+138N333",
"<2<<<2<fgsukkkkkkkkkkkkkkkkkkkkkkkkkkkkkkkkkkkkkkkkooyf%<2<<92",
"<<<<59<BxspkkkkkkkkkkkkkkkkkkkkkkkkkkkkkkkkkkkkkkkktoyB2<<9<9<",
"<<59n22%fspkkkkkkkkkkkkkkkkkkkkkkkkkkkkkkkkkkkkkkkkooyB%22<<z<",
"9<9<5<52fyoppuuOOOOOpuOOOOXkkkkkkkksupjpppOkkkkkkkkooyf%59<<79",
"<<<7z<52fxVssooooooOpupppppkkkkkkkkpjjjppjpkkkkkkkkssMq<<<<777",
"5z5755z9<BfllMgxMVV.oaooOppkkkkkkkkpjpOooppkkkkkkkkooVf<577555",
"mCmmCmmvc3111161161,  .XoOpkkkkkkkkppOX..Opkkkkkkkkoo.,3bvmmCC",
"N383333338,,,w,,w,w+  XoopjkkkkkkkkppoX.XoOkkkkkkkkoOX+133bv3c",
"9995599v66ffflglggfflVyaXupkkkkkkkkOOyglVaOkkkkkkkkooyf2<99999",
"999n595b6+gV.XsX..aXXsoOOppkkkkkkkkOoVfqlaokkkkkkkkOo f<975595",
"975n995N,.XoOOOOOOOOOpppjpOkkkkkkkkOoyfqgaokkkkkkkkoo f2<99577",
"55979958+oOkkkkkkkkkkkkkkkkkkkkkkkkOoVqfg.okkkkkkkkooyf<95n59z",
"9nzz9551.OOkkkkkkkkkkkkkkkkkkkkkkkkOOVqfx.okkkkkkkkooyf<59n95n",
"zzn77z9,XOokkkkkkkkkkkkkkkkkkkkkkkkoo qqqXokkkkkkkkoXyq555z7nz",
"CmCCCmN,XOokkkkkkkkkkkkkkkkkkkkkkkkOo.,1wXOkkkkkkkkoo.,3vmCCmC",
"bvvbb38+XOOkkkkkkkkkkkkkkkkkkkkkkkkOOX++ opkkkkkkkkoOo+13NmbNb",
"c355599fyookkkkkkkkkkkkkkkkkkkkkkkkOOVfflXOkkkkkkkksoXf<555555",
"vv55597qVookkkkkkkkkkkkkkkkkkkkkkkkOoVffqXOkkkkkkkkOoyq97575z7",
"mb5n555BMoOkkkkkkkkkkkkkkkkkkkkkkkkOXlBfByOkkkkkkkkOo f975z5n5",
"mb5n5z7<BVoOOOoooXoOooOoooXooooooOOO qZ20 opoX..ooOoXxB5z5n775",
"bv7z5zz50qVXXoXooooooOOooooOoOXooXXVf<590xXOoooooooXMq97z5nn55",
"mvn7zznzZ5BqxxMxMMV V.XVV yyVyVVVxxq5775Zq X.XX..VxqBB57n7nzzn",
"bbmCCCmmvvc3181116616,+,,,,,,,,618Ncvmmmb3, ++++ww,13cmmCCCCCC",
"vvmmmmvvccN3338881116616,11611118833Nbvb336,,w,w,,18Ncbbmvvvbv",
"7777777mb5575755555555555555N83555557z757555BBBB55Nc5577777z77",
"7n77n7nCv7775n7557n5n5zz755nCbb5zn5nzn777n7757n55zCm77z77n7n77",
"7n77nzzCvz77nzz7n7n7n7zz777zCbv7nn7n77z77n77nznz7zCm77nzzn7n7z",
"7n77n7zCvn7zz7z7z7znz7n7zn7zCmv7nn7777z7zn77nz777nCv77nz777n7z",
"nn77nzzCmz7nn7n7n77n77nnzz7zCmv77n7n77z7nzn7n777znCmn7nn77znnn"
};
