/* XPM */
static char *result[] = {
/* columns rows colors chars-per-pixel */
"62 61 67 1 ",
"  c #FC2020",
". c #E00000",
"X c #980000",
"o c #989898",
"O c gray66",
"+ c #FC4040",
"@ c gray55",
"# c #FC0000",
"$ c #EC0000",
"% c #D40000",
"& c #7C7C7C",
"* c #BC0000",
"= c #C80000",
"- c #B00000",
"; c #A40000",
": c #646464",
"> c gray33",
", c #484848",
"< c gray99",
"1 c #ECECEC",
"2 c gainsboro",
"3 c #D0D0D0",
"4 c #202020",
"5 c #C0C0C0",
"6 c #B4B4B4",
"7 c #A800A8",
"8 c #C800CC",
"9 c #9C009C",
"0 c #FC7800",
"q c #840084",
"w c #400040",
"e c #E46C00",
"r c #FC8820",
"t c #6C0070",
"y c #5C4020",
"u c #9C4C00",
"i c #A85400",
"p c #CC6000",
"a c #B400B4",
"s c #280040",
"d c #FC54FC",
"f c #FC7CFC",
"g c gray11",
"h c #600064",
"j c #003800",
"k c #00001C",
"l c #580058",
"z c #480048",
"x c #500050",
"c c #A80000",
"v c gray22",
"b c gray25",
"n c black",
"m c #343434",
"M c #282828",
"N c gray36",
"B c #4C4C4C",
"V c gray44",
"C c #580000",
"Z c #880000",
"A c #7C0000",
"S c #640000",
"D c #400000",
"F c gray19",
"G c #4C0000",
"H c #700000",
"J c white",
/* pixels */
"   .             XoO+                  o@O#######$########$$%&",
"#*.=$=-#;#####.#=%:@ #####%#########X#;>oo####=%#%#-.=#%*#X#=,",
"<<<<<<<<<<<<<<<<<<<<<<<<<<<<<<<<<<<<<<<<<<<<<<<<<<<<<<<<<<<<<<",
"<<<<<<<<<<<<<<<<<<<<<<<<<<<<<<<<<<<<<<<<<<<<<<<<<<<<<<<<<<<<<1",
"<<#########################################################$11",
"11$<<<<<<<<<<<<<<<<<<<<<<<<<<<<<<<<<<<<<<<<<<<<<<<<<<<<<<11$11",
"11$1@>2<<<<<<<<<<<<<<<<<<<<<<<<<<<<<<<<<<<<<<<<<<<<<<<<1@>3$11",
"11$1>451<<<<<<<<<<<<<<<<<<<<<<<<<<<<<<<<<<<<<<<<<<<<1111>46.12",
"21.13531111<<<<<<<<<<<<<<77879788800<<<<<<<<<<<<<1111111355.22",
"22.211111111111<<<<<<<<<<<77q98ww80e0r<<<<<<<11111111111222.22",
"22222221111111111111<<<<<<<7t78888yuipe11111111111111222222233",
"3322222222111111111111111117q7aaa7ii11111111111111222222223333",
"377777777aaaqsqaaaaadf111111qq9a9q911111fdaaaaaqsq777777777793",
"3t77777777777sgaaaaaa8111111qhttqqq11111jaaaaa7gs77777777799t3",
"33997777777777k97777aaa2222tqtq9aa99222aaa77779k77777777999935",
"53tqqqqqqqqqq99k97777777@2lthtq979q72d77777779k9qqqqqqqqqqqh55",
"555ssssssssssssskq777777q9wzzthtq7hh97777777qksssssssssssss555",
"555q9999999999977kt777779qwwwllhllth9777777tk9999999999999q555",
"5555t9999999999999skh777qqwllqqqqqqqqq977hks9999999999999t5566",
"66*55tqqqqqqqqqqqqqsgzlhttxhtq997999tttlzgsqqqqqqqqqqqqqt66*66",
"66*666sssssssssssssssssssswllt999999qsssssssssssssssssss666-66",
"66-6666q9999999999999999qtwlxt999999q99999999999999999q6666-66",
"O6-66666tq99999999999999qtwxxlq99999q99999999999999qqt66666cOO",
"OOc6666666tqq99999999999qhxwxlqq99qqq99999999999qqqt66666OOcOO",
"OOcOOO666666ttqqqqqqqqtqqlzzzzt99qqttqqtqqqqqqqtth666OOOOOOcOO",
"OOcOOOOOOO66666666tllllxhzhzwhlqqttqqtwllllt666666OOOOOOOOO;OO",
"OO;OOOOOOOOOOOO6666666tqqqhxszlhthtqqqtt66666OOOOOOOOOOOOOO;OO",
"OO;OOOOOOOOOOOOOOOOOOqqqqhtlxwwzxxlq9qqqtOOOOOOOOOOOOOOOOOO;OO",
"oO;OOOOOOOOOOOOOOOO@tqqtththxxzxhhlthtq9qt@OOOOOOOOOOOOOOOOXoo",
"ooXo:v@OOOOOOOOOOOOhhqtqzhhbgnnnnn4mzwlq9qqOOOOOOOOOOOOO:v@Xoo",
"ooXovg&OOOOOOOOOOOOxztqlqgMN@oOOOo&BghwzhtqOOOOOOOOOoooovg&Xoo",
"ooXo@&@ooooOOOOOOOOOhzhgM&OOOOOnVOOO&MghhqOOOOOOoooooooo@&&Xoo",
"ooXooooooooooooooOOOOtnNOOOOOOnnnVOOOONkqOOooooooooooooooooXoo",
"@oXXXXXXXXXXXXXXXXXXXC&oooooonnnn:oooooo>XXXXXXXXXXXXXXXXXXX@@",
"@@XXXXXXXXXXXXXXXXXXCVoooooonnnnooooooooovXXXXXXXXXXXXXXXXXX@@",
"@@X@@@@oooooooooooo:boooooonnnMoooovoooooog&oooooooo@@@@@@@Z@@",
"@@Znnnnnnnnnnnnnnnnn@ooooonnn4oooo4nnoooooVgnnnnnnnnnnnnnnnZ@@",
"@@Znnnnnnnnnnnnnnn4Booooonnnnmooognnnnoooo@4nnnnnnnnnnnnnnnZ@@",
"@@Z@@@@@@@@@@@@@@Vn&@@@@@@nnnng&4nnnnnn@@@@&N@@@@@@@@@@@@@@Z@@",
"@@ZZZZZZZZZZZZZZZAn@@@@@@@@nnnnnnnnngnnn@@@&gSZZZZZZZZZZZZZZ@@",
"@@ZZZZZZZZZZZZZZZDF@@@nn@@@&nnnnnng@ngnnn@@@bGZZZZZZZZZZZZZZ@@",
"&@ZZZZZZZZZZZZZZZD>@@ngng@@@@nnnng&@@nnnng@&>DZZZZZZZZZZZZZA&&",
"&&AAZZZZZZZZZZZZZD>@@nnnng@@nnnnnnn&@@ngng@@:DZZZZZZZZZZAAAA&&",
"&&AAAAAAZZZZZZZZZDB@@@nnnnmFnnnnnnnn@@@nn@@@>DZZZZZZAAAAAAAA&&",
"&&AAAAAAAAAAAZZZZDM@@@@nnnnnnnn@mnnnnV@V@@@VvGZAAAAAAAAAAAAA&&",
"&&AAAAAAAAAAAAAAACn&@@@@nnnnnn@@@nnnnn@&&&&:gCAAAAAAAAAAAAAA&&",
"&&A&&&&&&&&&&&&&&NgN&&&&&nnnn&&&&nnnnn&&&&&vv&&&&&&&&&&&&&&A&&",
"&&AnnnnnnnnnnnnnnnMM&&&&&&nn&&&&gnnnn&&&&&&nnnnnnnnnnnnnnnnA&&",
"&&Annnnnnnnnnnnnnnnn:&&&&&&&&&&nnnnn&&&&&&bMnnnnnnnnnnnnnnnAVV",
"VVH&&&&&&&&&&&&&&&&:gV&&&&&&&&gnnnn&&&&&&:n:&&&&&&&&&&&&VVVHVV",
"VVHHHHHAAAAAAAAAAAAAGM&&&&&&&nnnnn&&&&&&VgCAAAAAAAAAHHHHHHHHVV",
"VVHHHHHHHHHHAAAAAAAAADMV&&&&&&nnn&&&&&&VgCAAAAAHHHHHHHHHHHHHVV",
"VVHVVVVVVVVVVVVVVVVV&VMg:&&&&&&n&&&&&&>nvVVVVVVVVVVVVVVVVVVHVV",
"VVHVVVVVVVVVVVVVVVVVVVV,nF:VVVVVVVVV>4g>VVVVVVVVVVVVVVVVVVVHVV",
"VVHV,M:VVVVVVVVVVVVVVVVV:mngFbb,BvMng,VVVVVVVVVVVVVVVVVV,M:HVV",
"VVHVMg>VVVVVVVVVVVVVVVVVVVV>vFM4Mm,:VVVVVVVVVVVVVVVVVVVVMg>HVV",
"VVHV:>NVVVVVVVVVVVVVVVVVVVVVVVVVVVVVVVVVVVVVVVVVVVVVVVVV:>NHVV",
":VHHHHHHHHHHHHHHHHHHHHHHHHHHHHHHHHHHHHHHHHHHHHHHHHHHHHHHHHHS::",
":::::VVVVVVVVVVVVVVVVVVVVVVVVVVVVVVVVVVVVVVVVVVVVVVVVVV:::::::",
":::::::::VVVVVVVVVVVVVVVVVVVVVVVVVVVVVVVVVVVVVVVVVV:::::::::::",
"GDDDDDDg4DGDDDDGDGGDGDDDDDGDg44DGDGDGDDDDDDGDGGDDDg4DDDDDDDDDD"
};
