/* XPM */
static char *result[] = {
/* columns rows colors chars-per-pixel */
"62 63 62 1 ",
"  c black",
". c gray11",
"X c #282828",
"o c #202020",
"O c gray22",
"+ c #484848",
"@ c gray33",
"# c gray25",
"$ c #646464",
"% c #989898",
"& c #9C9CFC",
"* c #B8BCFC",
"= c #D8D8FC",
"- c gray99",
"; c #ECECEC",
": c gray55",
"> c #00001C",
", c #7C7C7C",
"< c gray44",
"1 c gray19",
"2 c #580000",
"3 c #403018",
"4 c #483818",
"5 c #5C4020",
"6 c #302410",
"7 c #4C0000",
"8 c #640000",
"9 c #543C1C",
"0 c #382C14",
"q c #744C28",
"w c #885830",
"e c #A0643C",
"r c #9C6038",
"t c #6C4824",
"y c #80502C",
"u c #905C34",
"i c #B47044",
"p c #F0945C",
"a c #BC7848",
"s c #700000",
"d c #FCB080",
"f c #FCC4A4",
"g c #FCD4BC",
"h c #FCD8C4",
"j c #FCE8DC",
"k c #D08050",
"l c #FCBC9C",
"z c #FCCCB0",
"x c #28200C",
"c c #C87C4C",
"v c #FC9C60",
"b c #FCD8D8",
"n c #400000",
"m c #7C0000",
"M c #A86840",
"N c #FCA470",
"B c #DC8854",
"V c #E88C58",
"C c #880000",
"Z c #9C4C00",
"A c #2C2C2C",
"S c white",
/* pixels */
"  ..XoOXO+@#+$%&*&&====--&--*-----&----=-*;*&*&$:@$$$+.XXoo..>",
">..o.XO#+@$,%&:&$=:=<---=--&--*--*-*-;=;=;%**%&:%:,$#+@1XX....",
"...22222222222222233455555543678882222222222222222222222O.o..>",
">..22222222222272349555555555406677722222222222222222222oXoo..",
"...7222222222729955qweeerwqqqt93066772222222222222222277.XX...",
"..X777222222225tyyuipppppaaaaaut333662222222222222277777.1....",
".o.22222222s2twwipdfggh;jjjjjjddie5336628828282272727277.XXX..",
"...22282228s5rklfzhhhhhhjjjjhhgfldkry96x7282222222222227.1XXo.",
".Xo82828282sucvfzzzgggggbhhhhhzllddpar9x6x78282828282822.1X...",
".oo888888ssrcdlffffzggggggzzfffzflldpar5xxxn728888888882.XXoX.",
"o.o8888ssmwkdllfffffzggggzfllfffflldpcMw5xxxn72s8s8s8822.X1o.o",
".Xo88888ssivdlllllllfzlzfflddddllfffppaMwt3xxn78s8888887.O.1X>",
".oXs8s8ssykddNvdddddlzlzldpkMMaddlzzdpiuuwt46xn888888s82.o1..X",
"..XssssmmMBvdvvddddddNVVVey5595uwuridaeyyyu936x28888s8s8.OXXX ",
"..XmsmmmyBpddvvvvVkVVNdcy930099yyq59qywq5qwt90xn788sss8s.oX.X.",
".oo8mmmmMBvvvvdMuwrVNNVr46004qMirq94300449qt90xxn2ssss88.O1X.X",
".XossCmqkBpvviy599qaNNBr3003tq5940000330345559xxxn8m8s8s.oXXX.",
"..XsmmCekBpcMy93330rNNBM303444t660666603049954xxxx88ssss.XX.o.",
".XomsmZiBBBkkit9593rNNBM06x6tBut59300660309993xxxx28smsm.11ooX",
"X..smCwikkBkcryt440uNNBu0x9wkBBBBay55943339936xxxxn8mmms.o.oo.",
" oXmm5rckkcM5335449iNNku59ykBBBaieuuuyqttt5436xxxxx2smss.XoX..",
"X..sm5eckkM4963rtrckNNcrqwrikBBppppppBcirq5406xxxxx7ssss.o1.XX",
"..om59MaaM504yickkVVVViywciwwcBBpppBkciiey5406xxxxxnssss.X.X. ",
".Xos99iaiq4qiaacVVVVcw5455t5tikkkkkaaaiirq5466xxxxxx8sss.XX.XX",
"..Xm49iaaqwaiaVVVVaa540xxxxxx5kkkkaiiMMuyt5366xxxxxx2msm.XXX..",
"...s09iairiaaVVVaiy90xxxxxxxxx3aaiiierwwt94366xxxxxxnsss...oX ",
"..Xs09MkiakkVVVaMt4xxxxxxxxxxxx5iiiMruyq54306xxxxxxxxsss.Xo...",
".o.s09MaaakVVVkiq3xxxxxxxxxxxxxxtiMeuyy54006xxxxxxxxx8ss...Xoo",
"...m09MakkkVVkiq4xxxxxxxxxxxxxxxxywuwqt4006xxxxxxxxxx2ss.oX...",
".oos34MakkkVkke90xxxxxxxxxxxxxxxxxtytt54006xxxxxxxxxx2ss..oXo.",
"...s44rikkkVkiy36xxxxx6xxxxxxxxxxx0ttt94066xxxxxxxxxx7ss.X. ..",
"..os94yikikkkit666xx6xxxxxxxxxxxxxx9qq59066xxxxxxxxxxx7s..oo. ",
"...sm4teaakkki4xxxxxxx6xxxxxxxxxxxx3qwq936xxxxxxxxxxxxxs......",
".. ss4teaaaaau0xxxx6xxxxxxxxxxxxxxx05wy536xxxxxxxxxxxxxs .X...",
". .ms45eaaaaaw3x4xxxx6xxxxxxxxxxxxx09wy536xxxxxxxxxxxxxm . ...",
".. sm94eeaaaau6xt9etxxo+@Oo.oxxxxxxx9yw536xxxxxxxxxxxxxs .....",
"...ss54eeaaaae5xeuu9xoxxxxxxxxxxxxx69qy536xxxxxxxxxxxxxs .....",
". .sss3weMaaae56eie6xxxxxxxxxxxxxxx64ty536xxxxxxx6xxxxx8 o ...",
" ..sss3weMaaaet5iiwxxxxxxxxxxxxxxxxx45t46xxxxxxxxxxxxxn8 .... ",
".  sstyweMMaaawqiiyxxxxnnnnnnnxxx6669t536xxxxxxxxxxxxxn8 .. ..",
" ..ssy4qeMMMaaeeiit  nnnnnn2nnn 6066tyt36xxxxxxxxxxxxx2s . ...",
"...ssq35uMMMMaeeMit  nnnnnnnnnnx3304www46xxxxxxxxxxxxnss .. . ",
"  .sst00urMMMaMurMt nnnnnxxxxx04404yeew46xxxxxxxxxxxx2ss . .. ",
" ..ss500quMMMMeuuMu6 05q5twuuy53009uuuu46xxxxxxxxxxn2sss ... .",
".  ss540quMMMMaMuMMu5tuuMuuuut40x69uuuu46xxxxxxxxxx2ssss ...  ",
"   ss5t5tuMMMMMeuMMiiiiiiMuwy90xx64quuq3xxxxxxxxxx88ssss ..  .",
" . ss5ttqwMMMMMMeMiiiiiiMMMMut46664quu56xxxxxxxxxxssssss    . ",
".  sss5yyyrMMMMMMeiiiiiiiiMMMut9045uuu9xxxxxxxxxxnssssss   .  ",
"  .sss555ywrMMMMMMiiiMMMMiiMMuyt5tywut0xxxxxxxxxxnssssss ..  .",
" . ssss995qurMMMMMiMMMMiiiiMMuyqqyyyt46xxxxxxxxxn2ssssss   .. ",
" . ssss4465yuuMMMMMiMMiiiiiMuuyqqqq90xxxxxxxxxxxn8ssssss . . .",
"  .ssss36xtqwruuMMMMMMMMMMMiuwyt5546xxxxxxxxxxxnnsssssss      ",
".  ssssssm9tywruuMMMMMMMMMiuuyt546xxxxxxxxxxxxxn2sssssss .    ",
"  .sssssssm9tyuuyyuuMMMMMMuwyt93xxxxxxxxxxxxxxxn2sssssss      ",
"   ssssssss99tyuuyyuuuuyyyt5936xxxxxxxxxxxxxxxxn7sssssss      ",
"   ssssssssm995yuuyyyyqt5936xxxxxxxxxxxxxxxxxxxx7sssssss      ",
"   ssmsssmss4995yyyyy936xxxxxxxxxxxxxxxxxxxxxxx65mssssss     .",
"   ssssssssss4999qqq546xxxx...xxxxxxxxxxxxxxxxxxyyssssss      ",
"   ssssmsmsms4999955596xxxxxxxxxxxxxxxxxxxxxxxxuyysmssss      ",
"   sssssssssmm49999994Axxxxxxxxxxxxxxxxxxxxxx3uuuyssssss      ",
"   s888sssssss339999933xxxxxxxxxxxxxxxxxxxx9yuuuu5ssssss      ",
"                                                              ",
"                   .  .   . . . ..  ... .       .             "
};
