/* XPM */
static char *result[] = {
/* columns rows colors chars-per-pixel */
"62 63 41 1 ",
"  c #D0D0D0",
". c #C0C0C0",
"X c #B4B4B4",
"o c #ECECEC",
"O c gray66",
"+ c gainsboro",
"@ c gray55",
"# c gray44",
"$ c #646464",
"% c #484848",
"& c gray19",
"* c gray22",
"= c #7C7C7C",
"- c gray99",
"; c #282828",
": c gray33",
"> c #989898",
", c gray11",
"< c gray25",
"1 c #202020",
"2 c black",
"3 c #7C0000",
"4 c #580000",
"5 c #BC0000",
"6 c #C80000",
"7 c #FC2020",
"8 c #FC0000",
"9 c #880000",
"0 c #FC4040",
"q c #E00000",
"w c #980000",
"e c #400000",
"r c #B00000",
"t c #A40000",
"y c #700000",
"u c #EC0000",
"i c #640000",
"p c #D40000",
"a c #4C0000",
"s c #A80000",
"d c white",
/* pixels */
" .X ..oO++.XO@@#$%&*#@= -o---o--o-- X-- XO.X#;$X-o.O:&%  . XXX",
"OX>O.. . XO>#%&,;,<#$@O+XO-----o-X X-o OOO@>;&= + >=:1,=XOX@>>",
"@>@XO@@@=$#%;,%**;<:=X..> X>... + + .@@>=$::;:X-  >@#;,%. >OX>",
"$$=$:#$#:&,1%#X@%:%%::#@@>X +  .X  + @=#<%;1%@ oX+ O#<,1@=#O#$",
"%::<$:%*,,;## +XO>=:%11%##>X+O.X@@$$$::%&;&11>X>>++>@$;,%@==::",
";,,,11,;1*> .+   ooO=;,,,;:%$=@=#=@:%;,2,&%,# @=O.X@@=<,2*%:%&",
":*<%&%1;*# X= + X XXX>:;1,,1;&*&**;,2,1&:>%,X@#@>O.OO@:;,2;*1,",
"@>@@=$%&*$OX.O>OXO.-+XO$:;1;,;;,,,&%%#OX>#1%O=@>O X@=##:;,,,1*",
"XXXX>#$:1;$@==>>XX X>XOO=$11&<%%$#=@X.XX##,:X@=OXO>>=>#$:1,*$=",
"OO.XX>%%;1%::#$=@>>O>X. #$;;1&:#=X .+ XO#$2:>>OO@#$:#@##:,,$#@",
">==@@#$::345677888888.OO#5349777777777778348077778qq8$:::,;#=>",
"@@>>==@$:w4ert6778888@==$5t3688888888888w9y88888uu586&<:*,%=@@",
"====@@#$%8i2,,2&;;;t8#::<py1,,1<&,222,22,2212222222wi*&*,,$=@=",
"####=#$#%8w222222,2wt:%%1tr1&;:*22,2222,22222222222ee;;1,,::#$",
"%%:%:$#$%u9222222224a;;,,9w1**&,,112222222222222222ey;&&1,:$@=",
"%$:::<:::8522222222ee,22,et1,,,,,,1,222222222222222sw=#$*,%$#:",
"$$%:::#$$qr,222222,wt%*;,ey,,;,,22222222222222,;*;1rt##$,,*%:<",
"%::%%%%:%5a2222,&::88@$:1ee,2,22,2,222222222,,1,222q8$%%;,;%%#",
"%##::%*%&ae&;1**,&188@$$%5422,212,2222222,,,,,,2,2288#$:;,,**:",
"$:%%<*&;,ee,,<&*,&,u5:$#%6t2222222222222,,,,,2222226s%<&;,,1%:",
"**<%<&121e9;;1,,,,,qw%:::6822222222tee48888qppw888q5p$%&&12,;*",
"&&*&&,2,*uu12,,222299%::=5q22222222aa4888upt9i9rquuuu%;&&;,,1%",
",,2222,,<qu,22222229w<:#@6q22222222ay;$$$:%%<%<%$$::%***<;,2,&",
"&*1,,1,1&65222222,25u::##sq,22222229y;$:$##::%%:::$:****&&,22,",
"#$::*1,,,sp,2221;;,qu:%:$5q22,22222aw,<%<::%%%%%%::*&<*&1,222,",
"#$=#$#*,23w2,2,,,,,q6::#=6q,1,2222,ea,*#$#$:%<<::::<*%<&12,,,;",
"$:$$$$::,aa222,2,,,p5p65r6p,,,222,;weepwt5rrpppr5pr63&&1,21&*$",
"$%:::$$%*4e2222,,,155pssppp,,,2,22,yyei9p556p66666653**,2,;*<%",
"%<:%**&&&9e22222,1,,,,&1,,,22,2,22,;222222222222222w5;,,,;*:%:",
"&;;,1,,1;4a22222222,,,,2,,,,2,222222222222222222222w5,221*$::%",
",;&&%<%&;3i2222222222,,222222,22222,222222222222222r5122&%%%*;",
"&*%&%%:%:r922222222222222,,;,,2,222,2222222,2222222wr;,,&%%*;;",
"<%<&<*%::rw222222222222,,,2,,,,,222,222222222222222rs;2,&**%<%",
":%%*<&<%<ww2,22222222111;,;1,,,,2222222222222222222ts121*<%%%:",
"%%%&&11;&3922222222222,2,,,,2,,22222222222222222222t3,,1;*<%<%",
"%%*<<*<*;34222222221,,,,,222222222222222222222222229y2,*::%%%%",
":%<%%*<&*tww9yyaaatwwtw999w22222222ayw3iaee22222222ea2;*%%<%%%",
"**%::<:%:wwwyyyeeeytwwwwwtt222222224aeee22e22222222a22*%:%%%%%",
"<%<%**%*%<%*;11,,21&**;11tt222222229e2,,,wy22222222ee,&*%&*&&;",
"&&&*&**&**%*&&1,,,21;;,;&ww,2222222ee,,%%w922222222ea,**%&*&&;",
";1;;11;;*<%***&;,,22;1,&;ww22222222ei;%%%9w21,,2,229e2;;&;&;11",
",,11;&&&<**&**;1,,,2,1;;1wy22222222yy%:*&9w22222,223a21;1111;;",
";1;1;;&;*9993y9aaie2ea4393y2222222299**1*w92222222,ii,,1111;;;",
";;&&&;&;&9yy39ieiaeeeeei9ie2222222,aa1;*%9922222222y91,2,,,;&&",
"11;11;;;;iy22222222222222222222222239**<%332,,22222991,22,,1;1",
",,,,,,,,,ee222222222222222222222222a3&&**y922222222y311,22,,1,",
"22222222222222222222222222222222222ee,,1193,222222233,,2222222",
"222222222ee222222222222222222222222ee;11134222222224i222,,2,,,",
";11,,222,3322222,222222222222222222222,,,yi22222222ee2,211;;,,",
"&;&11,222ei2222222,,22222222222,2224e22213322222222ae;;&*;&,,*",
"**<;&11222e222,222222222222,2222222ya222,ay2222222,4y;;;;;1,;&",
";;&;&;&,,2222222,222222222,22,,,222yy;222ea22222222iy;&;;1,1;&",
";&&&&&&11e22a4yyiyaee2eyyyiyy4aaiyyyy*,,2eee44iyyyae4,,11,;*;;",
",1;;;&*&;4e2eeiiiee22ayiyyyyiyiyyyyyi;1,,ee4iyiyyiyae2,,1;*&;;",
"1111;&;;;;,22211,,,2,;*&;11;;1,,;&&&&;1,22,11;&*;&;,,;&1;;11,,",
",11;11;&;;1,22,1,,2,,&;,111;1,,11&&&&1,,22,&**&&;1,,&&;,,;;;1,",
"1,1;;;&;&&,,,221,22,1111;;1,,,11;&&&;,,222,;;;&*;,1;;1,1,,11;;",
";;&&11;1;;;1,22,22,,&&;;&;1,,,,;&&11,,2222111;;1,,,,,,,,,,1&;1",
";;;;1;11;;;;,222221&*&;;&1,,,,;*;11,,222,2,1111,,,,,,,,,,,;;&&",
";;111,,1;1;,,222,,&&;;&;;1,,1;&&1;12222,222,,,2,,1,,111,,,,;;;",
"1,,,,,1;1,,,2222&1&;&&&;,,,,;;1111,22,,1,222,,,,1,,1111;,;,11;",
",,,,1,111,,,22,1&;*&;;;,,,,1&;11,222,;&;1,22,,,,11;11;;1,1,111",
",,,,,,11,,,22,&&;;1111,,11,1;,,,222,1;1,11222,,,,;1;&11,,1;,,1"
};
