/* XPM */
static char *result[] = {
/* columns rows colors chars-per-pixel */
"125 123 55 1 ",
"  c #4B371B",
". c #4F3B23",
"X c #43331B",
"o c #3F2F17",
"O c #533F1F",
"+ c #332B13",
"@ c #533F2F",
"# c #2F2F2F",
"$ c #272727",
"% c #373F27",
"& c #2B230F",
"* c #232323",
"= c #373737",
"- c gray23",
"; c black",
": c #434343",
"> c #5F4B37",
", c #1F170B",
"< c #170F07",
"1 c #131313",
"2 c #2F371F",
"3 c #474F33",
"4 c #5B6347",
"5 c gray28",
"6 c #473323",
"7 c #53573B",
"8 c #3F2B1B",
"9 c #574333",
"0 c #6F5743",
"q c #3F472B",
"w c #4F3B2B",
"e c #5B472B",
"r c #372313",
"t c #1B1B1B",
"y c #676B4F",
"u c #6F7357",
"i c gray31",
"p c #4F3B27",
"a c #5B5B5B",
"s c #13230B",
"d c #070707",
"f c #4B4B4B",
"g c #67533F",
"h c #775F4B",
"j c #732B00",
"k c #874307",
"l c #9B5B13",
"z c #AF7B1F",
"x c #C39B2F",
"c c #D7BB43",
"v c #5F4323",
"b c gray34",
"n c #775F3F",
"m c #675333",
"M c white",
/* pixels */
"  .XoX.o .XoX.oo    oX XXO. o..X  +....+.XX O.Xo.X..o . XX.    .  .XoX.o .XoX.oo    oX XXO. o..X  +....+.XX O.Xo.X..o . XX.  ",
"  .XXXo+XXXo o+oXoXXoXX X oXXX.oX ooXX+XXX XXXXXXX XoXXXooXX X+   .XXXo+XXXo o+oXoXXoXX X oXXX.oX ooXX+XXX XXXXXXX XoXXXooXX ",
"  .XXo+++ Xo+XoXXoXX+XXXX@oXXXXXX +XoX+XXXXXXXoXXX+o+XXo+ooXXooX  .XXo+++ Xo+XoXXoXX+XXXX@oXXXXXX +XoX+XXXXXXXoXXX+o+XXo+ooXX",
"X XX+XooXooooXo+XoXo+ooX XXXo@XXoX+oooooooXXXXX+XXo++oXo+XoX ++oX XX+XooXooooXo+XoXo+ooX XXXo@XXoX+oooooooXXXXX+XXo++oXo+XoX ",
"X o X+oo++oo++++oX#++Xo+Xo+XooX+oo+oo+o+++o+ooo+oX$+++o+++X+%oX+X o X+oo++oo++++oX#++Xo+Xo+XooX+oo+oo+o+++o+ooo+oX$+++o+++X+%",
" XoX++o++$+o&o+oo+#oo+oo+oo+oXoXXo+oo+o+++ooXoXoo+#o++oo++o+#XXo XoX++o++$+o&o+oo+#oo+oo+oo+oXoXXo+oo+o+++ooXoXoo+#o++oo++o+#",
"#XoX+o+++o#++oXXX+o+++o+oo+*XXXXooooooo+oo#+oX+o+++$++++++oX XoX#XoX+o+++o#++oXXX+o+++o+oo+*XXXXooooooo+oo#+oX+o+++$++++++oX ",
"#+X+o+++++$+o+ooXoo+++o+oX+oXXXo+$ooooo++++oo+ooo+++$+oX+XX+oXo+#+X+o+++++$+o+ooXoo+++o+oX+oXXXo+$ooooo++++oo+ooo+++$+oX+XX+o",
"o++o+#o++++ooo#=#+o+o+$+oooo@#=---====oooo+oo+oXXo+o+++#XooooXXoo++o+#o++++ooo#=#+o+o+$+oooo@#=---====oooo+oo+oXXo+o+++#Xoooo",
"ooo+$#o++oooo-;;;:o+o++++X+@>X*,,<,,,,,,,,,<,,11,1<+$+o#ooX o oXooo+$#o++oooo-;;;:o+o++++X+@>X*,,<,,,,,,,,,<,,11,1<+$+o#ooX o",
"X+ooo#$++oo$-;**,;:+o$$++oo>,,,,,,,,,,,,,,,,,,,,,,,,$$++XXooo o#X+ooo#$++oo$-;**,;:+o$$++oo>,,,,,,,,,,,,,,,,,,,,,,,,$$++XXooo",
"o%oo+$+++oo$;*234$;=o+ooXoo5*6@O6768@937703q@%86:%;;,++O+oXo+ XXo%oo+$+++oo$;*234$;=o+ooXoo5*6@O6768@937703q@%86:%;;,++O+oXo+",
"o#oo$&+++o=;*q2q48$;=X#+X+oX5*w66q68q9q73eqqqr86%%7;,XoX oXo+XO+o#oo$&+++o=;*q2q48$;=X#+X+oX5*w66q68q9q73eqqqr86%%7;,XoX oXo+",
"o%oo$++++=;*862q783$;=$+$$oXX5*e%7w:qq3449q%88882%7;t$#+ooo+X  oo%oo$++++=;*862q783$;=$+$$oXX5*e%7w:qq3449q%88882%7;t$#+ooo+X",
"XXoo#+++-;#q%68q7633$;$$#$+XXo5*63@qO3qy79qqq66q:q7;&$$#+ XXXXXoXXoo#+++-;#q%68q7633$;$$#$+XXo5*63@qO3qy79qqq66q:q7;&$$#+ XXX",
"X+oX$$$:;#qq%w2q46qq7$;+X$+XXXX5*q3867q37@+qqX89%%3;t$X+oXXX  +oX+oX$$$:;#qq%w2q46qq7$;+X$+XXXX5*q3867q37@+qqX89%%3;t$X+oXXX ",
"Xo+X$+:;#63q6$237:6%33$;$$ooXXX+5*w8q7%3q3%%2X6>q%$;,$o%oXXoXX++Xo+X$+:;#63q6$237:6%33$;$$ooXXX+5*w8q7%3q3%%2X6>q%$;,$o%oXXoX",
"#+$X+$@.#22222%3y%22222$;+$oX+XX+5*222222222$282222;t+o%oXoooX#+#+$X+$@.#22222%3y%22222$;+$oX+XX+5*222222222$282222;t+o%oXooo",
"o+oo$&+9:q%%%%q7u333q%q%$;$ooooXX+5*2%qq337q%%q3337;t$+++XX+oXX$o+oo$&+9:q%%%%q7u333q%q%$;$ooooXX+5*2%qq337q%%q3337;t$+++XX+o",
"####&$++9i6q636Xp66q%3886$;o+ooXo++5*q%qq72%:2673q3;,++ +oXoXXX+####&$++9i6q636Xp66q%3886$;o+ooXo++5*q%qq72%:2673q3;,++ +oXoX",
"+++o&+++o9i36q86pwqq%qq63%$;Xo+oX$+$5*%7q6%%q8X93q3;,Xo+ oo++X ++++o&+++o9i36q86pwqq%qq63%$;Xo+oX$+$5*%7q6%%q8X93q3;,Xo+ oo++",
"Xo+++$#+#+9iq868w%w32qq86q2$;o+oo++$o5*3q92%q66>737;t$#+oOo+XX#oXo+++$#+#+9iq868w%w32qq86q2$;o+oo++$o5*3q92%q66>737;t$#+oOo+X",
"%#+o&&#+&$#:i:w868q3q36:8%23$;+o$++++X5*73%2q8673%3;&$$#XXooXX+#%#+o&&#+&$#:i:w868q3q36:8%23$;+o$++++X5*73%2q8673%3;&$$#XXooX",
"%#+#$&#+++#+@i@68:q33q68w%234$;o+++$$$#5*q%2q8673qq;,$XXoXooX +#%#+#$&#+++#+@i@68:q33q68w%234$;o+++$$$#5*q%2q8673qq;,$XXoXooX",
"o+&%$*#+&&++&:ipa6qq336687237q$;s$$$XX$+5*q%qXe773q;,$o$OXooX +#o+&%$*#+&&++&:ipa6qq336687237q$;s$$$XX$+5*q%qXe773q;,$o$OXooX",
"#+##$$#+&s$+$$9iaXq%338>q32%4qw$;+$+$#$++5*q38:w7qq;t+o#XooX X+X#+##$$#+&s$+$$9iaXq%338>q32%4qw$;+$+$#$++5*q38:w7qq;t+o#XooX ",
"++#%*$X+&$$&+$+9i66233686$$%3266$;$$$#X+&$5*%2:97qq;t$+ +oXo+X+#++#%*$X+&$$&+$+9i66233686$$%3266$;$$$#X+&$5*%2:97qq;t$+ +oXo+",
"++##+#X+&&$$&&+X9i2222222$2%32222$;$$+X+$$+5*2%%222;,+oX++oo+X%#++##+#X+&&$$&&+X9i2222222$2%32222$;$$+X+$$+5*2%%222;,+oX++oo+",
"++$#$##&&$$$&++Xo9i37q3%7%%7y33373$;$+$&$$+&5*33q%q;,X#Xo+ o+X##++$#$##&&$$$&++Xo9i37q3%7%%7y33373$;$+$&$$+&5*33q%q;,X#Xo+ o+",
"+o##+$$&&$$$&&+Xo+:iq368X%=8666pqqq$;+$s$$+&$5*+q%3;t$$Xoo +XX##+o##+$$&&$$$&&+Xo+:iq368X%=8666pqqq$;+$s$$+&$5*+q%3;t$$Xoo +X",
"+o##++$=#*$$&++Xoo&9iq%:qq86q36:qq6+$;#+$$+&$$5*qq3;&X$#XooXoX%#+o##++$=#*$$&++Xoo&9iq%:qq86q36:qq6+$;#+$$+&$$5*qq3;&X$#XooXo",
"++##+$=,,,d$&&+X+X$+:i%627r:83wp%qq+6$;++$+&$$+5*q3;+X&+Xoooo +%++##+$=,,,d$&&+X+X$+:i%627r:83wp%qq+6$;++$+&$$+5*q3;+X&+Xoooo",
"#&##+$#*q2*1$&+X+o++$:i6%qr@q2O@2q3rq3$;+$$&$$+$:**;%$&#ooooX++%#&##+$#*q2*1$&+X+o++$:i6%qr@q2O@2q3rq3$;+$$&$$+$:**;%$&#ooooX",
"o+$%++#*w23*<&+X++$++$:i%q8@wqpf%%%8362$;$++$$++o--%++&+XXo+oX+#o+$%++#*w23*<&+X++$++$:i%q8@wqpf%%%8362$;$++$$++o--%++&+XXo+o",
"+#&#+&=*7233*<+X++$+$$$:iq6a97O83q723w23$;+$&$+&+$+$+&+$+ooooX$o+#&#+&=*7233*<+X++$+$$$:iq6a97O83q723w23$;+$&$+&+$+$+&+$+oooo",
"+&$$+&@*q2336*<X++$+&$$+@i@@93p63388432q7$;&$$+&+$##+++ooooooX+o+&$$+&@*q2336*<X++$+&$$+@i@@93p63388432q7$;&$$+&+$##+++oooooo",
"o+##+&:*22333@*,++$$&+#$$9i@4qp8wq98922q79$;$$+&$$+#$+$X+ oo+o$#o+##+&:*22333@*,++$$&+#$$9i@4qp8wq98922q79$;$$+&$$+#$+$X+ oo+",
"o+##++:*2237%22*<++$#$+$$s@i%%2%%%82222qy%2$;$++$$$$$&$++ooXoo%$o+##++:*2237%22*<++$#$+$$s@i%%2%%%82222qy%2$;$++$$$$$&$++ooXo",
"+$#++&5*%%7y3%%%*<$+$++$#++9i77yu7q%%%qyu73%$;+&+$$&$+&#XXoXoX&#+$#++&5*%%7y3%%%*<$+$++$#++9i77yu7q%%%qyu73%$;+&+$$&$+&#XXoXo",
"o+##+&5*9433qqw88*<++$++X$&$9i%47%66q7q333qqq$;&$$+&#$&++Xo+Oo+oo+##+&5*9433qqw88*<++$++X$&$9i%47%66q7q333qqq$;&$$+&#$&++Xo+O",
"o+$X+*5*>433O66666*<+$++X+++o9i33%6q6346393q6X$;$$$$+$++++++XX++o+$X+*5*>433O66666*<+$++X+++o9i33%6q6346393q6X$;$$$$+$++++++X",
"&+##+$5*9g33@66pw6w*<$+$$++$o$:i3hq6q7q6q333%XX$;$$++$++X+XX+X++&+##+$5*9g33@66pw6w*<$+$$++$o$:i3hq6q7q6q333%XX$;$$++$++X+XX+",
"++o$+$e*4>33e=6p@>9q*<++$s+$+++9iq68q3q77373qX:6$;$&++++X+o++X++++o$+$e*4>33e=6p@>9q*<++$s+$+++9iq68q3q77373qX:6$;$&++++X+o++",
"+++++#e*9>73966O663w3*1+$$++$X+o:i8+33qq3q736X66q$;#&&$+X+o++o&o+++++#e*9>73966O663w3*1+$$++$X+o:i8+33qq3q736X66q$;#&&$+X+o++",
"#+&+$#5*7473e66f@q9377*1$$$++$+oX:i8>7347373OXO877$;=&$##+ ++o,o#+&+$#5*7473e66f@q9377*1$$$++$+oX:i8>7347373OXO877$;=&$##+ ++",
"+o+++$:*>4y736666877qq6*1+++$$+o$#9i99334737w:X2737$;=$++X ++X&++o+++$:*>4y736666877qq6*1+++$$+o$#9i99334737w:X2737$;=$++X ++",
"&o++++:*94773866:w33qq:9*1++$$+o$++9i73343q7q6X37q4*=$$XX+o+++++&o++++:*94773866:w33qq:9*1++$$+o$++9i73343q7q6X37q4*=$$XX+o++",
"&+++&$5*77733ww66qq2%2623*<s$o$o+++#9iqqq3376X6743*.#$+#++++++&+&+++&$5*77733ww66qq2%2623*<s$o$o+++#9iqqq3376X6743*.#$+#+++++",
"++#++$@*22%%%2282%%222&222*<$$&o#++++:i222%228822*9&$$$#+++++o++++#++$@*22%%%2282%%222&222*<$$&o#++++:i222%228822*9&$$$#+++++",
"++++++:*q344733%7yy3q%%%qq3*1$++tttttttttttttttttttttttttttttttttttttttttttttttttttttttttttt1$++++$$$#:i333333q%#:$++$$%++XX+",
"##+++&:*7766Ow66373%3q663%Xe*<+tttttttttttttttttttttttttttttttttttttttttttttttttttttttttttttt<+++$$X$$$@i73w673=9$$+$$$#&#X++",
"#+&+&&@*94q36pp623363%6X3qXe3*1tttttttttttttttttttttttttttttttttttttttttttttttttttttttttttttt*1o$$&X#$+&9i3X6%-@&$$+&$$++++++",
"+++#+&:*33%3q3w82%3q3%66q%X>6q*ttttjjkkkkkkkkkkkkkkkkkkkkkkkkkkkkkkkkkkkkkkkkkkkkkkkkkkjjttttq*1$+&+X$$$$:i.q:9&&+$$&+###X+++",
"+&++++ @***********************ttttjlllllllllllttttjljtttjlttljtttljtttjlttttjlllllllllljtttt**1=+++$#++#$@=:9+++++$#$+#+++++",
"++&&$$+ ::@@@@@9@@@::::@@@@@@@-ttttjllzzzzzzzzzttzttzttzttzttzttzzzttzttlttzttzzzzzzzzlkjtttt@-=+s$$$+&+$$&XX&$$$$&$$$$++++++",
"$&&&$$$&$$$&&+++++++$+$#&+&$$&++ttttklzxxxxxxxxttttlxttxttxttxlttlxttxttlttxttxxxxxxxxzktttt$&++$+&$$$+&$$$&&&$$$X++$+$#&$+++",
"+$+&$$$+##+$&+++++++$$$$$$&+o$$otttttlzxcccccxcttccxxttcttcttxccttcttcttlttcttxcccccxzzttttto$$o$+++$$&+##+$+&$$$$++$$$#&+++$",
"+$$&$+$$$#+$&++++&+$$s+$+++$$&+o$tttttzxcccccxcttccxxltttlcttxtttlcltttllttcttxcccccxzttttt$$&+o$+s+$#&$$#+$$&$++$$$$s+#+#+++",
"$+$+$+$&+$$&++&+&++++&+$+++$$$+o$$tttttxcccccxcxcccxxcxccccccxcccccccccclxccccxcccccxttttt+$$$+o$$$&+#$&+$$+$+$++++++&+$ #+X+",
"$$$+$+$++$$&++&&&+s+++++$+++$$&+&++tttttxccccxcxcccxxcxccccccxcccccccccclxccccxccccxttttt+++$$&+&++$+$$++$$$$+$+$+s++++++++oX",
"$$+$#$++++$&+&&&&&&+&++$$+&+$&&&&&&$tttttxcccxcxcccxxcxccczttttttzcccccclxccccxcccxttttt$+&+$&&&&&&$+$$++$$$+$#$*&+++++$&o+oo",
"1<<<11<<<<<<<<<<<<<<<<<<<<<<<<<<<<<<<tttttxccxcxcccxxcxccztjlzzljtzccccclxccccxccxttttt<<<<<<<<<<<<<<<<<111<<<11<<<<1111<,,,,",
"$+$$$$#&#X$+$$$$++$&$**$&*$$&s&*****##tttttxcxcxcccxxcxcctjzxccxzjtccccclxccccxcxttttt*$&*$$&s&*****###&#X$+$$$$++$&$**$$$&s&",
"9.. .9..999..9..9999.5e@@@.@. .   ....Xtttttxxcxcccxxcktktkxxccxxktktkcczxccccxxttttt5e@@@.@. .   ....X ...  .  @.@ .3e@...@.",
"  .XoX.o .XoX.oo    oX XXO. o..X  +....+tttttxcxcccxxcttttljttttjlttttcczxccccxtttttoX XXO. o..X  +....+.XX O.Xo.X..o . XX.  ",
"  .XXXo+XXXo o+oXoXXoXX X oXXX.oX ooXX+XXtttttxxcccxxcztktlttkkttltktzcczxcccxtttttXoXX X oXXX.oX ooXX+XXX XXXXXXX XoXXXooXX ",
"  .XXo+++ Xo+XoXXoXX+XXXX@oXXXXXX +XoX+XXXtttttxcccxxccxtktkzcczktktxccczxccxtttttXX+XXXX@oXXXXXX +XoX+XXXXXXXoXXX+o+XXo+ooXX",
"X XX+XooXooooXo+XoXo+ooX XXXo@XXoX+oooooooXtttttxccxxcccxtttkzzktttxccccxxcxtttttoXo+ooX XXXo@XXoX+oooooooXXXXX+XXo++oXo+XoX ",
"X o X+oo++oo++++oX#++Xo+Xo+XooX+oo+oo+o+++o+tttttxcxxcccxlttttttttlxccccxxxtttttoX#++Xo+Xo+XooX+oo+oo+o+++o+ooo+oX$+++o+++X+%",
" XoX++o++$+o&o+oo+#oo+oo+oo+oXoXXo+oo+o+++ooXtttttxxxccxltjtkzzktjtlxcxcxxtttttoo+#oo+oo+oo+oXoXXo+oo+o+++ooXoXoo+#o++oo++o+#",
"#XoX+o+++o#++oXXX+o+++o+oo+*XXXXooooooo+oo#+oXtttttxxcxttttttttttttttxxcxtttttXXX+o+++o+oo+*XXXXooooooo+oo#+oX+o+++$++++++oX ",
"#+X+o+++++$+o+ooXoo+++o+oX+oXXXo+$ooooo++++oo+otttttxxxtttxzkttkzxxttxcxttttt+ooXoo+++o+oX+oXXXo+$ooooo++++oo+ooo+++$+oX+XX+o",
"o++o+#o++++ooo#=#+o+o+$+oooo@#=---====oooo+oo+oXtttttxxxxxxxxxxxxxxxxxxtttttoo#=#+o+o+$+oooo@#=---====oooo+oo+oXXo+o+++#Xoooo",
"ooo+$#o++oooo-;;;:o+o++++X+@>X*,,<,,,,,,,,,<,,11,tttttxzxzxzzxzxxxzxxxtttttoo-;;;:o+o++++X+@>X*,,<,,,,,,,,,<,,11,1<+$+o#ooX o",
"X+ooo#$++oo$-;**,;:+o$$++oo>,,,,,,,,,,,,,,,,,,,,,,tttttxxzzzzzzzzzzzzttttto$-;**,;:+o$$++oo>,,,,,,,,,,,,,,,,,,,,,,,,$$++XXooo",
"o%oo+$+++oo$;*%7y$;=o+ooXoo5*q888%86qw33366%qXX63%;tttttlzlzlzzlzlzktttttoo$;*%7y$;=o+ooXoo5*q888%86qw33366%qXX63%;;,++O+oXo+",
"o#oo$&+++o=;*8234>$;=X#+X+oX5*8pw88334349692X.6w7%%;tttttllllllllzkttttt+o=;*8234>$;=X#+X+oX5*8pw88334349692X.6w7%%;,XoX oXo+",
"o%oo$++++=;*9:2q4e9$;=$+$$oXX5*66q6:3>77>@746X88qqq;ttttttkkkkkkkkttttt++=;*9:2q4e9$;=$+$$oXX5*66q6:3>77>@746X88qqq;t$#+ooo+X",
"XXoo#+++-;#97:2q779w$;$$#$+XXo5*q48XO>733>37q826363;&$tttttkkkkjjttttt++-;#97:2q779w$;$$#$+XXo5*q48XO>733>37q826363;&$$#+ XXX",
"X+oX$$$:;#>ww82q76f67$;+X$+XXXX5*q66wh337933qoXqq>>;t$Xtttttjjjjttttt$$:;#>ww82q76f67$;+X$+XXXX5*q66wh337933qoXqq>>;t$X+oXXX ",
"Xo+X$+:;#9gw382q43374@$;$$ooXXX+5*w%pg@37>3qpX6q794;,$o%tttttjjttttt$+:;#9gw382q43374@$;$$ooXXX+5*w%pg@37>3qpX6q794;,$o%oXXoX",
"#+$X+$@.#9496&2373>7479$;+$oX+XX+5*%@>ww793q2o8q772;t+o%ottttttttttX+$@.#9496&2373>7479$;+$oX+XX+5*%@>ww793q2o8q772;t+o%oXooo",
"o+oo$&+9:22222%3y%%%%228$;$ooooXX+5*28822%22$222%%2;t$+++Xttttttttoo$&+9:22222%3y%%%%228$;$ooooXX+5*28822%22$222%%2;t$+++XX+o",
"####&$++9i%%%%q7u333q%q%q$;o+ooXo++5*%qq337q%%q3337;,++ +oXtttttt###&$++9i%%%%q7u333q%q%q$;o+ooXo++5*%qq337q%%q3337;,++ +oXoX",
"+++o&+++o9i4@9896699479vOq$;Xo+oX$+$5*74407q@vXw63@;,Xo+ oo+tttt+++o&+++o9i4@9896699479vOq$;Xo+oX$+$5*74407q@vXw63@;,Xo+ oo++",
"Xo+++$#+#+9iO>666637977O9%%$;o+oo++$o5*44033q.X%2qq;t$#+oOo+XX#oXo+++$#+#+9iO>666637977O9%%$;o+oo++$o5*44033q.X%2qq;t$#+oOo+X",
"%#+o&&#+&$#:i@:83r3343963%23$;+o$++++X5*7g74qw.X3q9;&$$#XXooXX+#%#+o&&#+&$#:i@:83r3343963%23$;+o$++++X5*7g74qw.X3q9;&$$#XXooX",
"%#+#$&#+++#+@iXww@w673w:O%23y$;o+++$$$#5*>73qO38%%7;,$XXoXooX +#%#+#$&#+++#+@iXww@w673w:O%23y$;o+++$$$#5*>73qO38%%7;,$XXoXooX",
"o+&%$*#+&&++&:ipp7q@336p6q23yw$;s$$$XX$+5*736Op6q%7;,$o$OXooX +#o+&%$*#+&&++&:ipp7q@336p6q23yw$;s$$$XX$+5*736Op6q%7;,$o$OXooX",
"#+##$$#+&s$+$$9i@4wq378ppq234p:$;+$+$#$++5*4qvp3qq3;t+o#XooX X+X#+##$$#+&s$+$$9i@4wq378ppq234p:$;+$+$#$++5*4qvp3qq3;t+o#XooX ",
"++#%*$X+&$$&+$+9ie7373wrqq23788:$;$$$#X+&$5*q:X3:63;t$+ +oXo+X+#++#%*$X+&$$&+$+9ie7373wrqq23788:$;$$$#X+&$5*q:X3:63;t$+ +oXo+",
"++##+#X+&&$$&&+X9i73336w6q2%4886@$;$$+X+$$+5*.wp%q7;,+oX++oo+X%#++##+#X+&&$$&&+X9i73336w6q2%4886@$;$$+X+$$+5*.wp%q7;,+oX++oo+",
"++$#$##&&$$$&++Xo9i%3q6bp&$%36866q$;$+$&$$+&5*X6qq3;,X#Xo+ o+X##++$#$##&&$$$&++Xo9i%3q6bp&$%36866q$;$+$&$$+&5*X6qq3;,X#Xo+ o+",
"+o##+$$&&$$$&&+Xo+:i222%8$2%3222222$;+$s$$+&$5*8222;t$$Xoo +XX##+o##+$$&&$$$&&+Xo+:i222%8$2%3222222$;+$s$$+&$5*8222;t$$Xoo +X",
"+o##++$=#*$$&++Xoo&9iq3%7%%7y3337373$;#+$$+&$$5*q%q;&X$#XooXoX%#+o##++$=#*$$&++Xoo&9iq3%7%%7y3337373$;#+$$+&$$5*q%q;&X$#XooXo",
"++##+$=,,,d$&&+X+X$+:i>w73846%8f6qqq9$;++$+&$$+5*q7;+X&+Xoooo +%++##+$=,,,d$&&+X+X$+:i>w73846%8f6qqq9$;++$+&$$+5*q7;+X&+Xoooo",
"#&##+$#*32*1$&+X+o++$:iwwq646%8fqqq834$;+$$&$$+$:**;%$&#ooooX++%#&##+$#*32*1$&+X+o++$:iwwq646%8fqqq834$;+$$&$$+$:**;%$&#ooooX",
"o+$%++#*727*<&+X++$++$:i@%6yf%8p67qw7>%$;$++$$++o--%++&+XXo+oX+#o+$%++#*727*<&+X++$++$:i@%6yf%8p67qw7>%$;$++$$++o--%++&+XXo+o",
"+#&#+&=*9233*<+X++$+$$$:i%8e6683q3qq@>%3$;+$&$+&+$+$+&+$+ooooX$o+#&#+&=*9233*<+X++$+$$$:i%8e6683q3qq@>%3$;+$&$+&+$+$+&+$+oooo",
"+&$$+&@*q233%*<X++$+&$$+@i84:32p97qf>4%37$;&$$+&+$##+++ooooooX+o+&$$+&@*q233%*<X++$+&$$+@i84:32p97qf>4%37$;&$$+&+$##+++oooooo",
"o+##+&:*623383*,++$$&+#$$9i>66np63q:47%37g$;$$+&$$+#$+$X+ oo+o$#o+##+&:*623383*,++$$&+#$$9i>66np63q:47%37g$;$$+&$$+#$+$X+ oo+",
"o+##++:*q233qw6*<++$#$+$$s@i=q23q@33972q7>7$;$++$$$$$&$++ooXoo%$o+##++:*q233qw6*<++$#$+$$s@i=q23q@33972q7>7$;$++$$$$$&$++ooXo",
"+$#++&5*22338q6p*<$+$++$#++9i662%33q322q7>37$;+&+$$&$+&#XXoXoX&#+$#++&5*22338q6p*<$+$++$#++9i662%33q322q7>37$;+&+$$&$+&#XXoXo",
"o+##+&5*2237%2282*<++$++X$&$9i2%%%22222qy%228$;&$$+&#$&++Xo+Oo+oo+##+&5*2237%2282*<++$++X$&$9i2%%%22222qy%228$;&$$+&#$&++Xo+O",
"o+$X+*5*%%7y3%%%33*<+$++X+++o9iyu7q%%%qyu73%%3$;$$$$+$++++++XX++o+$X+*5*%%7y3%%%33*<+$++X+++o9iyu7q%%%qyu73%%3$;$$$$+$++++++X",
"&+##+$5*%>q%qq:p9w6*<$+$$++$o$:i7%33473473q73.:$;$$++$++X+XX+X++&+##+$5*%>q%qq:p9w6*<$+$$++$o$:i7%33473473q73.:$;$$++$++X+XX+",
"++o$+$e*q>62qq8Oe96q*<++$s+$+++9iq3q343347q336:9$;$&++++X+o++X++++o$+$e*q>62qq8Oe96q*<++$s+$+++9iq3q343347q336:9$;$&++++X+o++",
"+++++#e*83%%868@>9763*1+$$++$X+o:i@%37q377qq3X66%$;#&&$+X+o++o&o+++++#e*83%%868@>9763*1+$$++$X+o:i@%37q377qq3X66%$;#&&$+X+o++",
"#+&+$#5*86%q%X8be>9%%q*1$$$++$+oX:i%373777qqOX@6qq$;=&$##+ ++o,o#+&+$#5*86%q%X8be>9%%q*1$$$++$+oX:i%373777qqOX@6qq$;=&$##+ ++",
"+o+++$:*6%%3:688@39q22q*1+++$$+o$#9i69733733w:Xq2%q$;=$++X ++X&++o+++$:*6%%3:688@39q22q*1+++$$+o$#9i69733733w:Xq2%q$;=$++X ++",
"&o++++:*8%37686p:q7%qq76*1++$$+o$++9i73737qqw8p62q3*=$$XX+o+++++&o++++:*8%37686p:q7%qq76*1++$$+o$++9i73737qqw8p62q3*=$$XX+o++",
"&+++&$5*2q336%82p8q%43363*<s$o$o+++#9iq737q%6rfq%q*.#$+#++++++&+&+++&$5*2q336%82p8q%43363*<s$o$o+++#9iq737q%6rfq%q*.#$+#+++++",
"++#++$@*hqqqq8886%3%7%32qq*<$$&o#++++:iq47q%wXXqq*9&$$$#+++++o++++#++$@*hqqqq8886%3%7%32qq*<$$&o#++++:iq47q%wXXqq*9&$$$#+++++",
"++++++:*22%%%2822%%22222222*1$++++$$$#:i%%222822#:$++$$%++XX++##++++++:*22%%%2822%%22222222*1$++++$$$#:i%%222822#:$++$$%++XX+",
"##+++&:*q344733%7yy3q%%%qq33*<+++$$X$$$@i33333q=9$$+$$$#&#X++o#+##+++&:*q344733%7yy3q%%%qq33*<+++$$X$$$@i33333q=9$$+$$$#&#X++",
"#+&+&&@*q%q%6w86373%q7qw336m3*1o$$&X#$+&9iq237-@&$$+&$$++++++o++#+&+&&@*q%q%6w86373%q7qw336m3*1o$$&X#$+&9iq237-@&$$+&$$++++++",
"+++#+&:*6%%%qw66233qq39e3q6Oqq*1$+&+X$$$$:iq6:9&&+$$&+###X+++o#$+++#+&:*6%%%qw66233qq39e3q6Oqq*1$+&+X$$$$:iq6:9&&+$$&+###X+++",
"+&++++ @***********************1=+++$#++#$@=:9+++++$#$+#+++++o##+&++++ @***********************1=+++$#++#$@=:9+++++$#$+#+++++",
"++&&$$+ ::@@@@@9@@@::::@@@@@@@-=+s$$$+&+$$&XX&$$$$&$$$$++++++o##++&&$$+ ::@@@@@9@@@::::@@@@@@@-=+s$$$+&+$$&XX&$$$$&$$$$++++++",
"$&&&$$$&$$$&&+++++++$+$#&+&$$&++$+&$$$+&$$$&&&$$$X++$+$#&$+++o$$$&&&$$$&$$$&&+++++++$+$#&+&$$&++$+&$$$+&$$$&&&$$$X++$+$#&$+++",
"+$+&$$$+##+$&+++++++$$$$$$&+o$$o$+++$$&+##+$+&$$$$++$$$#&+++$o##+$+&$$$+##+$&+++++++$$$$$$&+o$$o$+++$$&+##+$+&$$$$++$$$#&+++$",
"+$$&$+$$$#+$&++++&+$$s+$+++$$&+o$+s+$#&$$#+$$&$++$$$$s+#+#+++o$#+$$&$+$$$#+$&++++&+$$s+$+++$$&+o$+s+$#&$$#+$$&$++$$$$s+#+#+++",
"$+$+$+$&+$$&++&+&++++&+$+++$$$+o$$$&+#$&+$$+$+$++++++&+$ #+X+o+$$+$+$+$&+$$&++&+&++++&+$+++$$$+o$$$&+#$&+$$+$+$++++++&+$ #+X+"
};
