/* XPM */
static char *result[] = {
/* columns rows colors chars-per-pixel */
"62 61 49 1 ",
"  c #775F4B",
". c #4F3B23",
"X c #4B371B",
"o c gray23",
"O c #2F2F2F",
"+ c #3F2F17",
"@ c #43331B",
"# c #332B13",
"$ c #272727",
"% c #533F1F",
"& c #1B1B1B",
"* c #5B5B5B",
"= c #6F5743",
"- c black",
"; c #67533F",
": c #2B230F",
"> c #6B4727",
", c #7F532F",
"< c #8F5F37",
"1 c #BF7B4B",
"2 c #CB7F4F",
"3 c #DF9363",
"4 c #D78B5B",
"5 c #AB6F43",
"6 c #9B633B",
"7 c #5F4B37",
"8 c #574333",
"9 c #EFA373",
"0 c #E79B6B",
"q c #F7AB7B",
"w c #A36B3F",
"e c #774F2B",
"r c #CF8353",
"t c #B37347",
"y c #533F2F",
"u c #5F4323",
"i c #1F170B",
"p c #4F3B2B",
"a c #875733",
"s c #170F07",
"d c #070707",
"f c #3F2B1B",
"g c #FF1F1F",
"h c #2F371F",
"j c #13230B",
"k c #131313",
"l c #372313",
"z c #0B1707",
"x c white",
/* pixels */
"   ..XXooOOX++@@@@@###$$@@OO@@XX%%XXXX@@++@##@@+++++++#ooOO##@",
"   ..XXooOOX++@@@@@###$$@@OO@@XX%%XXXX@@++@##@@+++++++#ooOO##@",
"   @@&&**oo&@@@@@@@##$++@@@@##@@%%XXXX@@@@@##++#####++&**oo&&@",
"   @@&&**oo&@@@@@@@##$++@@@@##@@%%XXXX@@@@@##++#####++&**oo&&@",
"===@@--$$&&-++##@@@###++@@++@@@@XXXXXX@@@@+##@@#####++-$$&&--+",
"===@@--$$&&-++##@@@###++@@++@@@@XXXXXX@@@@+##@@#####++-$$&&--+",
";;;@@::----:++++@@@##$++::::XX>>,,<<>>>>++:::#######++#----@@+",
";;;@@::----:++++@@@##$++::::XX>>,,<<>>>>++:::#######++#----@@+",
";;;....XX..@++@@@@@##:@@<<1122333344225566,XX:::::##++###++@@@",
"77788XXXX..@++@@@@@::,113399999999334422556<<>>@@@::++###++++#",
"77788XXXX..@++@@@@@::,113399999999334422556<<>>@@@::++###++++#",
"777%%@@XX..X##@@:::<<144330099qqqq99334411w<<ee>>>++::###++++$",
"777%%@@XX..X##@@:::<<144330099qqqq99334411w<<ee>>>++::###++++$",
"777XX@@XX..X++++eeeww1rr330099qqqq99004411t66ee>>>%%&&:##++@@$",
"777XX@@XX..X++++eeeww1rr330099qqqq99004411t66ee>>>%%&&:##++@@$",
"777XX@@XX..X++++eeeww1rr330099qqqq99004411t66ee>>>%%&&:##++@@$",
"777@@++XX88X++++eee66t22443300000000004411t66ee>>>%%&&:##++@@+",
"777@@++XX88X++++eee66t22443300000000004411t66ee>>>%%&&:##++@@+",
"777@@##@@yyX##++eeewwt112244333333334422ttw<<eeuuu%%ii:##++@@#",
"777@@##@@yyX##++eeewwt112244333333334422ttw<<eeuuu%%ii:##++@@#",
"ppp@@++++..X++##eee<<66655tt111111115555<<<,,>>uuuXXii:##++$$+",
"888@@++@@%%X++iiuuuee,<<<<<<<<666666aaeeee>uu%%XXX##ii:::++@@$",
"888@@++@@%%X++iiuuuee,<<<<<<<<666666aaeeee>uu%%XXX##ii:::++@@$",
"888@@##@@XX@++ii+++uue,,,,,,aaaa<<aaee>>uu%XX++###::ii:::++OO#",
"888@@##@@XX@++ii+++uue,,,,,,aaaa<<aaee>>uu%XX++###::ii:::++OO#",
"888@@++##@@@++iiiii++u>>>>>>eeee>>uu%%%%XX+####:::ss--:::++@@#",
"888@@++##@@@++iiiii++u>>>>>>eeee>>uu%%%%XX+####:::ss--:::++@@#",
"%%%@@++++@@@##iiiii::+%%%%>>>>>>%%XX++++###::::iiiss--:++@@##+",
"%%%@@++++@@@##iiiii::+%%%%>>>>>>%%XX++++###::::iiiss--:++@@##+",
"...++@@@@@@@##iiiii::+XXuuuu%%XX+++++++++++##::iiiss--:++$$$$$",
"...++@@@@@@@##iiiii::+XXuuuu%%XX+++++++++++##::iiiss--:++$$$$$",
"888##@@@@@@+++ssiii++u>>ee<<eeuu%%uuee>>uu%XX++:::ii--:++OO##O",
"888##@@@@@@+++ssiii++u>>ee<<eeuu%%uuee>>uu%XX++:::ii--:++OO##O",
"...@@@@##@@+$$dd###uu%%%XXXX>>aa,,ee>>XX#######+++ff--:++$$$$@",
"...@@@@##@@+$$dd###uu%%%XXXX>>aa,,ee>>XX#######+++ff--:++$$$$@",
"888@@+++++++$$ss%%%++iss--ss::++XX++iiii-----ss###++ss:++##$$#",
"888@@+++++++$$ss%%%++iss--ss::++XX++iiii-----ss###++ss:++##$$#",
"%%%@@++++##+++ss%%%iisggggg-ss##eeuuii---ggggg-sssXXss:#######",
"%%%@@++++##+++ss%%%iissggg--ss##eeuuii----ggg--sssXXss:#######",
"888++##++@@+##iiuuuiisssgsssss::>>++::ss---g---:::uu--:$$$$##$",
"888++##++@@+##iiuuuiisssssssss::>>++::ss-------:::uu--:$$$$##$",
"%%%++##++@@+##ii,,,++issii::++>>::::%%++ss-ss::XXX>>--:++$$###",
"ppp++##++@@+##iiuuu<<w<<>>uu%%##--ss####++%%%>>eee++--:#######",
"ppp++##++@@+##iiuuu<<w<<>>uu%%##--ss####++%%%>>eee++--:#######",
"...++##++@@$::iiiii%%%XX++####ssssss--####+++%%XXXii--:OO$$###",
"...++##++@@$::iiiii%%%XX++####ssssss--####+++%%XXXii--:OO$$###",
"...++##++@@$::iiiii%%%XX++####ssssss--####+++%%XXXii--:OO$$###",
"hhh++##++++###iiiii++###iiii++::ssss::##iii::#####----:@@$$$$$",
"hhh++##++++###iiiii++###iiii++::ssss::##iii::#####----:@@$$$$$",
"ppp++##++++$##ii--------::XX%%>>ee>>uuXX::----------ii:OO##$$#",
"ppp++##++++$##ii--------::XX%%>>ee>>uuXX::----------ii:OO##$$#",
"888++##++##$##jjkkk-----::XX>>eeuuee>>XX::-----iiiiiii:OO$$$$$",
"ppp++##ooOO###$$&&&&&&ss::%%XXaa%%aa%%%%::i&&&&&&&&&@@$$$ooOO$",
"ppp++##ooOO###$$&&&&&&ss::%%XXaa%%aa%%%%::i&&&&&&&&&@@$$$ooOO$",
"888++&&**oo&$$$$$$$$$$kk------------------k$$$$:::::$$$&&**oo&",
"888++&&**oo&$$$$$$$$$$kk------------------k$$$$:::::$$$&&**oo&",
"ppp++--$$&&-####OOO##$&&iiiiiiiiiiiiiiiiii&$$$$:::::$$#--$$&&-",
"ppp++--$$&&-####OOO##$&&iiiiiiiiiiiiiiiiii&$$$$:::::$$#--$$&&-",
"ppp++&&----&##$$$$$##$$$&&&&::&&&&@@&&&&&&&:::::::$$$$$&&----&",
"ppp++&&----&##$$$$$##$$$&&&&::&&&&@@&&&&&&&:::::::$$$$$&&----&",
"lll::ii::&&ziiii&&&&&i&&&&ii&&::ii::iiiiii&zzii&&&ii&&&&&&&ii&"
};
