/* XPM */
static char *result[] = {
/* columns rows colors chars-per-pixel */
"59 60 17 1 ",
"  c #272727",
". c #3F2F17",
"X c #13230B",
"o c #332B13",
"O c #2B230F",
"+ c #232323",
"@ c #43331B",
"# c #2F2F2F",
"$ c #732B00",
"% c #874307",
"& c #9B5B13",
"* c #1B1B1B",
"= c #AF7B1F",
"- c #C39B2F",
"; c #D7BB43",
": c #373737",
"> c white",
/* pixels */
" .   X  o  oO .  .   X O oo O   OOo  o o oooOoo   oOoOXo O ",
" .o o O Oo oXo.o .o o  oOooOOo+o+ o +o O oo O  oO oo +@Oo o",
"     #o  ooo# .o     ## o O OOX#OooXoo oOooOOo OO o o o.OOo",
"       OoOO O#.@      ## . oo   oo oo## o O OO#o oOoOoXOo o",
"  @  @ OOo  OoO   @  @ Oo.oOO.Oo+O#   ## . oo  o+o ooO# OOO",
" # o#oOO o o oX  # o#ooO O o. .o oo.o  Oo.oOO.Oo  Ooo OOOOO",
" oooo       Ooo# oooo  oO ooo@ o     oo oO .o o O     oo  O",
" o#ooo# o OoOoo# o#ooo O O oO o oOoXO oooOOOO o oO Ooo o+ +",
" oo oo#O   o oXo oo oo@oo o #  o #O  oXOOO Oo +o o     O  o",
"oo  oo #oo o+.O oo  ooO .Oooo . Xo o . O oOo o   o ooXo  oo",
"oo@ ooOOo  o.OO oo@ ooo   .oooO @  o Ooo   Ooo @  ooo  OO  ",
"oo@Oo + o +. o ooo@Oo oO @oo ooO   o. o o o ooOooo ooo o +X",
"o oOo OooXoo.o  o oOo  O ooo ooO oo.o oooo    o oo  o o Oo ",
"#oXoo oo oo#o.oX#oXoo OO #oOO .ooX@ o oo  O+ #oo  Ooo  o ##",
"Xoooo +O#   oo #Xoooo +O#   oo.O o o OO OOOo OOO o    oo# o",
".oO#ooO OoOoo.O+.oO#ooO OoOoo.O # oO+    Oo oOO # oO+ Oo#oo",
" ooo  o O  o# o  ooo  o O  o# OoO#oOoXO OoOoo  oO#oOoXooo  ",
"o O#  o o#oX O+ o O#  o o#oX O  O  OOOo O  o# # O  OOOX ooo",
"oX   Oo@o   o#OOoX   Oo@o   o##ooo +O o o#oX OOooo +O    oO",
"# o$$%%%%%%%%%%%%%%%%%%%%%%%%%%%%%%%%%%%%%%%%%%%%%%%%%%$$o#",
"X#o$&&&&&&&&&&&****$&$***$&**&$***&$***$&****$&&&&&&&&&&$ o",
"o o$&&=========**=**=**=**=**=**===**=**&**=**========&%$ o",
" Oo#%&=--------****&-**-**-**-&**&-**-**&**-**--------=%+OO",
"oo+ #&=-;;;;;-;**;;--**;**;**-;;**;**;**&**;**-;;;;;-==O o ",
"@O  o#=-;;;;;-;**;;--&***&;**-***&;&***&&**;**-;;;;;-= oo #",
"+ O  o@-;;;;;-;-;;;--;-;;;;;;-;;;;;;;;;;&-;;;;-;;;;;-oooO+o",
"  oO  #o-;;;;-;-;;;--;-;;;;;;-;;;;;;;;;;&-;;;;-;;;;-XoOoOO ",
"ooo#  O  -;;;-;-;;;--;-;;;=******=;;;;;;&-;;;;-;;;-o  OOoOO",
" ooOo  o  -;;-;-;;;--;-;;=*$&==&$*=;;;;;&-;;;;-;;-oOo Oo oo",
"##ooo Oo #o-;-;-;;;--;-;;*$=-;;-=$*;;;;;&-;;;;-;-oooo ooooO",
" Oo#X Oo#ooo--;-;;;--;%*%*%--;;--%*%*%;;=-;;;;--  O    O+OO",
"oo+ #O o oooO-;-;;;--;****&$****$&****;;=-;;;;-oo  oO #O o ",
"@O  o# O oo O --;;;--;=*%*&**%%**&*%*=;;=-;;;-o   oOoO oo #",
"+ O  o oOooOOo -;;;--;;-*%*%=;;=%*%*-;;;=-;;-o oO oo +ooO+o",
"  oO  # o O OO o-;;--;;;-***%==%***-;;;;--;- o OO o o OoOO ",
"ooo#  ## . oo # o-;--;;;-&********&-;;;;---o  #o oOoOoOOoOO",
" ooOo  Oo.oOO.## .---;;-&*$*%==%*$*&-;-;--Oo   o+o ooOOo oo",
"##ooo oO O o.  Oo.o--;-**************--;- Oo  Oo  Ooo ooooO",
" oo.o  oO ooo@o##O #---***-=%**%=--**-;- #o O O#oo oO#Xo   ",
"   ooo O O oO oX# o# ------------------o#ooo ooOOo#ooooOoo ",
" .   X@oo o # +O#Ooo  -=-=-==-=---=--- o oooOoO#oooo #Xo O ",
" .o o O .Oooo     oO o@--============o O oo O O  O   o@Oo o",
"     #o   .ooo@o  Oo oo.&=&=&==&=&=% o oOooOOo+ooo@ Xoo.OOo",
"      oO @oo o#o  Oo  XOo&&&&&&&&=%  O# o O OO ooo@o  XOo o",
"  @  @ O ooo oO   Oo  # OO%%%%%%%%OOoO## . oo oooooOo # OOO",
" # o#oOO #oOO  o  Oo  OOOOO%%%%$$OOooo Oo.oOO.oo#oooo OOOOO",
" oooo  o oooOoOo #o O oo  Oo$$$$  Oo  o oO .o  X  O   oo  O",
" o#ooo#oo#ooooOo#ooo o o+ +  $$o+ +   oooOOOO ooo  oO  o+ +",
" oo oo  o  oO  o oooOo O  o  o O  o  oXOOO Oo o   oOoO O  o",
"oo  ooO Oo ooO O oo O o  ooo#oo  ooo#o O oOo o oO oo +o  oo",
"oo@ ooo  ooo#. oOooOOo OO  o O OO  o Ooo   Ooo OO o o  OO  ",
"oo@Oo  OoOO O## o O OO o +XoO  o +XoO o o o oo#o oOoOo o +X",
"o oOo  OOo  Oo## . oo o Oo  # o Oo  # oooo     o+o ooOo Oo ",
"#oXoo OO o o o Oo.oOO. o ##o   o ##o  oo  O+ #Oo  Ooo  o ##",
"Xoooo    Oo oO #Xoooo oo# o oooo# o ooO OOOo OOO o    oo# o",
".oO#ooO OoOoo O+.oO#ooOo#oo OoOo#oo Oo   Oo oOO # oO+ Oo#oo",
" ooo  oo  o ooo  ooo  ooo  o  ooo  o  O OoOoo  oO#oOoXooo  ",
"o O#      oo  + o O#  X ooo:  X ooo:  o O  o# # O  OOOX ooo",
"oX   O o oo OoOOoX   O   oOooO   oOooOo o#oX OOooo +O    oO",
"# oo    Oo     O# oo  oo o#Ooooo o#Oooo@o   o#OOO#Oo  oo o#"
};
