/* XPM */
static char *result[] = {
/* columns rows colors chars-per-pixel */
"61 61 47 1 ",
"  c #775F4B",
". c #6F5743",
"X c #67533F",
"o c #5B472B",
"O c #533F1F",
"+ c #574333",
"@ c #4F3B23",
"# c #4B371B",
"$ c gray23",
"% c #2F2F2F",
"& c #3F2F17",
"* c #43331B",
"= c #332B13",
"- c #272727",
"; c #1B1B1B",
": c #5B5B5B",
"> c black",
", c #2B230F",
"< c #6B4727",
"1 c #7F532F",
"2 c #8F5F37",
"3 c #BF7B4B",
"4 c #CB7F4F",
"5 c #DF9363",
"6 c #D78B5B",
"7 c #AB6F43",
"8 c #9B633B",
"9 c #5F4B37",
"0 c #EFA373",
"q c #E79B6B",
"w c #F7AB7B",
"e c #A36B3F",
"r c #774F2B",
"t c #CF8353",
"y c #B37347",
"u c #533F2F",
"i c #5F4323",
"p c #1F170B",
"a c #4F3B2B",
"s c #875733",
"d c #170F07",
"f c #070707",
"g c #3F2B1B",
"h c #2F371F",
"j c #13230B",
"k c #131313",
"l c white",
/* pixels */
"     ..XXXXoOO+++++@@@@@++++++ooooooooOO+++OO++OOOOO++@OOOOOO",
"   @@##$$%%#&&*****===--**%%**##OO####**&&*==**&&&&&&&=$$%%==",
"   @@##$$%%#&&*****===--**%%**##OO####**&&*==**&&&&&&&=$$%%==",
"   **;;::$$;*******==-&&****==**OO####*****==&&=====&&;::$$;;",
"   **;;::$$;*******==-&&****==**OO####*****==&&=====&&;::$$;;",
"...**>>--;;>&&==***===&&**&&****######****&==**=====&&>--;;>>",
"...**>>--;;>&&==***===&&**&&****######****&==**=====&&>--;;>>",
"XXX**,,>>>>,&&&&***==-&&,,,,##<<1122<<<<&&,,,=======&&=>>>>**",
"XXX**,,>>>>,&&&&***==-&&,,,,##<<1122<<<<&&,,,=======&&=>>>>**",
"XXX@@@@##@@*&&*****==,**2233445555664477881##,,,,,==&&===&&**",
"999++####@@*&&*****,,133550000000055664477822<<***,,&&===&&&&",
"999++####@@*&&*****,,133550000000055664477822<<***,,&&===&&&&",
"999OO**##@@#==**,,,2236655qq00wwww00556633e22rr<<<&&,,===&&&&",
"999OO**##@@#==**,,,2236655qq00wwww00556633e22rr<<<&&,,===&&&&",
"999##**##@@#&&&&rrree3tt55qq00wwww00qq6633y88rr<<<OO;;,==&&**",
"999##**##@@#&&&&rrree3tt55qq00wwww00qq6633y88rr<<<OO;;,==&&**",
"999##**##@@#&&&&rrree3tt55qq00wwww00qq6633y88rr<<<OO;;,==&&**",
"999**&&##++#&&&&rrr88y446655qqqqqqqqqq6633y88rr<<<OO;;,==&&**",
"999**&&##++#&&&&rrr88y446655qqqqqqqqqq6633y88rr<<<OO;;,==&&**",
"999**==**uu#==&&rrreey334466555555556644yye22rriiiOOpp,==&&**",
"999**==**uu#==&&rrreey334466555555556644yye22rriiiOOpp,==&&**",
"aaa**&&&&@@#&&==rrr2288877yy33333333777722211<<iii##pp,==&&--",
"+++**&&**OO#&&ppiiirr122222222888888ssrrrr<iiOO###==pp,,,&&**",
"+++**&&**OO#&&ppiiirr122222222888888ssrrrr<iiOO###==pp,,,&&**",
"+++**==**##*&&pp&&&iir111111ssss22ssrr<<iiO##&&===,,pp,,,&&%%",
"+++**==**##*&&pp&&&iir111111ssss22ssrr<<iiO##&&===,,pp,,,&&%%",
"+++**&&==***&&ppppp&&i<<<<<<rrrr<<iiOOOO##&====,,,dd>>,,,&&**",
"+++**&&==***&&ppppp&&i<<<<<<rrrr<<iiOOOO##&====,,,dd>>,,,&&**",
"OOO**&&&&***==ppppp,,&OOOO<<<<<<OO##&&&&===,,,,pppdd>>,&&**==",
"OOO**&&&&***==ppppp,,&OOOO<<<<<<OO##&&&&===,,,,pppdd>>,&&**==",
"@@@&&*******==ppppp,,&##iiiiOO##&&&&&&&&&&&==,,pppdd>>,&&----",
"@@@&&*******==ppppp,,&##iiiiOO##&&&&&&&&&&&==,,pppdd>>,&&----",
"+++==******&&&ddppp&&i<<rr22rriiOOiirr<<iiO##&&,,,pp>>,&&%%==",
"+++==******&&&ddppp&&i<<rr22rriiOOiirr<<iiO##&&,,,pp>>,&&%%==",
"@@@****==**&--ff===iiOOO####<<ss11rr<<##=======&&&gg>>,&&----",
"@@@****==**&--ff===iiOOO####<<ss11rr<<##=======&&&gg>>,&&----",
"+++**&&&&&&&--ddOOO&&pdd>>dd,,&&##&&pppp>>>>>dd===&&dd,&&==--",
"+++**&&&&&&&--ddOOO&&pdd>>dd,,&&##&&pppp>>>>>dd===&&dd,&&==--",
"OOO**&&&&==&&&ddOOOppddd>>>>dd==rriipp>>>>>>>>>ddd##dd,======",
"OOO**&&&&==&&&ddOOOppddd>>>>dd==rriipp>>>>>>>>>ddd##dd,======",
"+++&&==&&**&==ppiiippddddddddd,,<<&&,,dd>>>>>>>,,,ii>>,----==",
"+++&&==&&**&==ppiiippddddddddd,,<<&&,,dd>>>>>>>,,,ii>>,----==",
"OOO&&==&&**&==pp111&&pddpp,,&&<<,,,,OO&&dd>dd,,###<<>>,&&--==",
"aaa&&==&&**&==ppiii22e22<<iiOO==>>dd====&&OOO<<rrr&&>>,======",
"aaa&&==&&**&==ppiii22e22<<iiOO==>>dd====&&OOO<<rrr&&>>,======",
"@@@&&==&&**-,,pppppOOO##&&====dddddd>>====&&&OO###pp>>,%%--==",
"@@@&&==&&**-,,pppppOOO##&&====dddddd>>====&&&OO###pp>>,%%--==",
"@@@&&==&&**-,,pppppOOO##&&====dddddd>>====&&&OO###pp>>,%%--==",
"hhh&&==&&&&===ppppp&&===pppp&&,,dddd,,==ppp,,=====>>>>,**----",
"hhh&&==&&&&===ppppp&&===pppp&&,,dddd,,==ppp,,=====>>>>,**----",
"aaa&&==&&&&-==pp>>>>>>>>,,##OO<<rr<<ii##,,>>>>>>>>>>pp,%%==--",
"aaa&&==&&&&-==pp>>>>>>>>,,##OO<<rr<<ii##,,>>>>>>>>>>pp,%%==--",
"+++&&==&&==-==jjkkk>>>>>,,##<<rriirr<<##,,>>>>>ppppppp,%%----",
"aaa&&==$$%%===--;;;;;;dd,,OO##ssOOssOOOO,,p;;;;;;;;;**---$$%%",
"aaa&&==$$%%===--;;;;;;dd,,OO##ssOOssOOOO,,p;;;;;;;;;**---$$%%",
"+++&&;;::$$;----------kk>>>>>>>>>>>>>>>>>>k----,,,,,---;;::$$",
"+++&&;;::$$;----------kk>>>>>>>>>>>>>>>>>>k----,,,,,---;;::$$",
"aaa&&>>--;;>====%%%==-;;pppppppppppppppppp;----,,,,,--=>>--;;",
"aaa&&>>--;;>====%%%==-;;pppppppppppppppppp;----,,,,,--=>>--;;",
"aaa&&;;>>>>;==-----==---;;;;,,;;;;**;;;;;;;,,,,,,,-----;;>>>>",
"aaa&&;;>>>>;==-----==---;;;;,,;;;;**;;;;;;;,,,,,,,-----;;>>>>"
};
