/* XPM */
static char *result[] = {
/* columns rows colors chars-per-pixel */
"62 61 19 1 ",
"  c #0000A4",
". c #000088",
"X c #00007C",
"o c #000098",
"O c #000070",
"+ c #000058",
"@ c black",
"# c #202020",
"$ c #0000BC",
"% c #0000B0",
"& c #000064",
"* c #0000C8",
"= c #000040",
"- c #0000E0",
"; c #0000D4",
": c #00004C",
"> c #4040FC",
", c gray22",
"< c white",
/* pixels */
"  . X  oXooXooX XOO+@#$ $%X $oOOo.  .O. $ .o $$ oO@#%$ o %%oX@",
"oX.oooXX o &ooXOXXO&@#$$ oooOo+O++X  &OO&OO+O..O&O@#%%  Xo  +@",
". O**oXXXo..X&+XO++&@#@@@@@@@@@@@@@@@@@@@@@@@@@@@@@#% %$$% XX@",
".X **&XXX ooo.OOX++=@#                   ###########%$ % XX&+@",
"oo%%   o   ooOO&+&O&@# $$$% oo$oo%oo%$$  @#    oo&##%oo X..&&@",
" o %% oX&  o..X&&+==@# %$-*% $ ooo%%   o @# oo.oX&@#%oo O...&@",
"oXo  .oXoOO...OXX&+=@# %*$*o%  $oo X Xo X@# oooXX&@#%$ o  ..=@",
"... XXX  O+&&O&XXX+=@# %%%ooo%    o.&XXX&@#  oXX++@#$XXo  o+=@",
"X. ..Oo  OO&+&&&XX+=@# $%%%oo%$$  &&.XX&+@#  oX X+@#$X$ Xoo+=@",
".oXX .&X+X&+&X=+==&=@# $  %%%%$%% &&O &&=@# X.oX++@#$$XX&&XX=@",
"XoX&..X&X&X&=OO===&=@# %  o$oo %% ooXX++&@# ...OO&@#$XO&X&XX=@",
"oXXXO&++&X&O&==O=&+=@# %-*..oo.XXX.o.X&&=@#  ..OO&@#$XXO++++=@",
"Xo&&O&X&============@# $**...  X..X.OX&+=@# Xo +++@#@@@@@@@@@@",
"@@@@@@@@@@@@@@@@@@@@@# $  o..   ..o&&X&+=@#   o +&@###########",
"% %     %    @%%%  oo@ %o .o    XooXX++==@#o o oO&@#    @$$$$$",
" o $% .  X oX@%%o$$X$@    $ o   .&OX==&+=@#ooXOXO+@# %.X@$$ %$",
"oo.  .XooXXoo@%$$%oXX@ %o $ .X..&XXO==&==@#oo+++&=@# %%X@$ %%%",
"o%%ooXXXoXXXX@%$%%oo&@ %   . XX&OO+++&&+=@#oX+&++=@# .X+@$$$%%",
"o%$%XXooXo+XX@%$oXoo&@   ooooX&+&&+&&+===@#oX&++==@# +&+@$$%%%",
".o%;XoXX&&OXX@%o$XXX&@@@@@@@@@@@@@@@@@@@@@#@@@@@@@@@@@@@#$$  o",
"X.o oXXo&OX++@%oo&XX+@#########################%%%%%%%%##$  oo",
".oXoXooXOX&X+@%$o.&+&@#%%%%%%%%%%%%%%%%%%%%o ##%*%*   o@#$%ooo",
"o.%ooooXXO+++@ $X..&+@#%$% $$$%$ % $%X $$$X +@#%*%** o.@#$$ooo",
".X.%%&Xo..O+&@ X&OO+&@#%$ %*--$;- $  $$    X+@#%**** .X@#$%$  ",
"X. %% oX..O+&@oX++++&@#%% $;;-$-;;%X XX XX ++@#%% * . &@#$$$  ",
"%oo % &XOOO++@@@@@@@@@#%$$%%**  ;;  XXXO XX++@#%*    .&@#$$$%%",
".  o  &O+&+==@#########%%$%%%   $   X..XX+++&@#%**  .XO@#$  $%",
".   oXO&+&&++@#%%%%  ##%  $%.. $%X  X...OOO++@#%**oo  +@#$  %%",
"o.  X&&+++&=&@#%%. o.@#%$%$%..   X   O..+OOO=@#%%*ooo +@#$$ooX",
".X..X&&OXX&==@#%  o.o@#%$$ %%%o XXX  O+&+&OO=@#%% .%  &@#$..oo",
" oOXXO&OXX&+=@#% o.O&@#%$ X %%  XOX&OOO+==+==@#%%*.%%o&@#$..XX",
"o..X&&+::O&+=@#%%.%.+@#%  $X  oXOXX&&OO&==&&=@#% * .oo+@#$$XXX",
"o.XXXX+::++&=@#%%%OO&@#%X$X  XXO&XXX&&++&&&:=@#%*  o+O&@#$  oo",
".XOXXX++&++++@#%%% ++@#% $X  O&&+XXX&++++:::=@#%* oXoO+@#$  o.",
"&OX&XX+&+=+&+@#%oo+.&@#% X  X++++&&&&+=======@#%* XooX&@#$o  X",
"X&X&O+&==+===@#%oo%+&@#@@@@@@@@@@@@@@@@@@@@@@@# % X&XX&@#$o..X",
"o.OXO+++=&=+=@#%%.%.+@######################### %% X+&=@#$$..X",
".X&OXO=======@#%%..+&@#                      ## % $ X&=@#$ooX.",
"@@@@@@@@@@@@@@#%%XX++@# $$$$$$%       o.X$o X@# *  $.+=@#@@@@@",
"###++OO...XO&## %XXX+@#%$**$  %%*$oo  oX.X.oX@#    ..+=@#.o..@",
" %$$$$$$$$$$$##  .XX&@#%$***%%%%$$XXXX   ooX&@# * XO++=@#ooXX@",
"$$$$$% %$   $@#  o+&&@#%$$$$;;%%%XXXXXXoXXOo&@# %.O&+O=@#oXOO@",
"$%%;;%$$$o $$@# o.+++@#%$$%$;;;X oXXOOO.XXXX&@#  O&O++=@#oOX+@",
"$$%;;$oo $$o%@#@@@@@@@# %$%$$;;$  oXOO&&+XXX&@#.XX+++&=@#.XO+@",
" % %%%ooo$ ..@#########  %*oo$ $    XX&&X&+::@#@@@@@@@@@#.O+&@",
"$%o.%% oo $$ @#$$%  o##  **ooo%   XXo.O&&++==@###############@",
"$o $%. %%%X  @#$X$.o.@# $$$%oo$$$ XXXX&&&++==@#%%%%$$$$$$$$$$@",
"$$$ .$.%XX . @#$ %%oX@# %  %%%$$$$ X.O+&&&O+:@#%%  %%%% .$  X@",
" $o  $%oX:X  @#$$X XO@# $   o $$$$   ++++&OO&@#% %;;%%%o   oX@",
"%oo$-$ . XX  @#$%  X @# $$  $..$$$   O++&+:::@#%$$;**%%.. oX&@",
" $ ->-oo o.X.@#$% X O@#  $ooXXX.   XXX&&+++==@#%o$o**%%  XXX+@",
"%$%$-$ X  ::&@#$ %%X&@#  $ ..XXX.X.++ooOO+:==@#%$%ooo  XXXX+&@",
" $%%%...XO::&@#$$%o.&@# o$$o$XX.XX.X+oo.OO&+&@#%% ooo XO&X++&@",
"$%% XXo ooX&&@#$% ..X@# $o $ .XOO..++XooXO++=@#%%o oo XO&OX++@",
" $%..%X  oOX+@#$ $XXX@# $   o.  OO+O++XXX&++=@#%%$%.%%oX&oo+=@",
" $ o.X&.  oO&@#$$ &&&@#   ooX.   O&OO+:::&===@#$$%. %%%oXooX=@",
" ... &:&.ooOO@#$% XO+@# % oo$ X  ++OO&+==+===@#$% .  %%oXXXX=@",
" O&.& XXo+&++@#% &&&+@# %$X$$ +&&&++:::==:+==@#$% $  X.OOXX+=@",
" ..&.+&+&O&O&@#% .O&&@#  %$ Xo+&&&++==OO&=:=+@#$$$o XXOXXO&=&@",
"oXXXXXOOOOXXX## .XXXX##  o oXXXXXXO&++XXXX++O##$  Xo XXXXXOOX@",
"..XXXXXXXXXXX,,..XXXX,, *.....XXXXXXXXXXXXXXX,,$..XXXXXXXXXXX#"
};
