/* XPM */
static char *result[] = {
/* columns rows colors chars-per-pixel */
"60 64 30 1 ",
"  c #00007C",
". c gray22",
"X c #0000A4",
"o c #000098",
"O c #000088",
"+ c #202020",
"@ c #000070",
"# c #000064",
"$ c #0000B0",
"% c #000058",
"& c black",
"* c #0000BC",
"= c #0000C8",
"- c #0000EC",
"; c #000040",
": c #00004C",
"> c gray55",
", c #7C7C7C",
"< c #646464",
"1 c gray33",
"2 c #2C2C2C",
"3 c #484848",
"4 c #0000E0",
"5 c #4040FC",
"6 c #B4B4B4",
"7 c #989898",
"8 c #C0C0C0",
"9 c #D0D0D0",
"0 c gray66",
"q c white",
/* pixels */
"                          ..             ..            .    ",
"XXXXXXXXXXXXXXXXXXXXoooO  ++XXXXXXXXoOOOO++XXXXXXXXOO@#+$$$$",
"XXOX XXo oo ooo  XO    @#%&+XXooOXXoOOOO%&+X*$*$*****o &$$Oo",
"o Oooo XX$$o o#O  oo  @##%&+XoXXOoo O X@%&+X$**X*=$*Xo &XX$o",
"OX@o@o  o$$$o#O@#    #%%%#&+XoOOoo O @%#%&+X*$X=*$XoOO@&O@  ",
"O XXX#oo o$$oOO # ##   #%#&+XXOXX @@@O#%%&+X*X=-=X*Xo@ &oO@#",
"oO $$XXo   oO@O%  ###;;%:%&+XXXOO @OOO@#%&+X$*X**X    @&o %%",
"XoO$$Xo ##O  o @@@###;;;:%&+XXO OOO O #%%&+X$*$X$$ %%@ &o#%#",
"o oOOOo ###o  #::@#@ @;;:;&+XoOO@OXX @ %#&+X$=$$*X %%@#&&&&&",
"OOOX     #%#  %;;:#   #%:;&+XOO@  OO@#%#%&+X$*X$XXOoO#%&o$$$",
" OX##@o  ##%O% ;;:#@  @%:;&+oO @@OO@ #%#%&+X$**X*XOO ##&X$o$",
"Oo ####      %##::%%@@%%%;&+oO @@@O%@%@%%&+X$**$XOXo ##&oXOo",
" o ### # # #%@%@%%##;;;;;;&+o O@@##@#%##%&+X$**Xoo O@%%&oXo@",
"o   @#%%#++++++++++++++++++++++++++++++++++++++++++  %#&OO #",
" o##@# #@+>>,,,,,,,,,,,,,,,,,,,,,,,,,,,,,,,,,,,<<12@#%%& @#%",
"&&&&&&&&&+><333333333333333333333333333333333333332#%#%&&&&&",
"$X$XXXXX$+,3333333333333333333333333333333333333332 #%%&@===",
"XoX*$XOXX+,33&&&&&&&&&&&&&&&&&&&&&&&&&&&&&&&&&&1332 @#%&O==4",
"ooOXXO oo+,33&&&.2&&&&&.2&&&&&.2&&&&&.2&&&&.2&&1332 @%#&X=45",
"oXXoo   o+,33&&&1.&&&&&1.&&&&&1.&&&&&1.&&&&1.&&<332#%##&X==4",
"o$*X  oo +,33&&&<.&&&&&<.&&&&&<.&&&&&<.&&&&<.&&<332@##%&$==$",
"Oo$XXo  #+,33&&&<.&&&&&<.&&&&&<.&&&&&<.&&&&<.&&,332@%%%&*==$",
" OoXX  o#+,33&&&<.&&&&&<.&&&&&<.&&&&&<.&&&&<.&&,332#%%%&$=$*",
"Oo o oo @+,33&&&<.&&&&&<.&&&&&<.&&&&&<.&&&&<.&&,332@%#%&$=$X",
"oO$oooo  +,33&&&<.&&&&&<.&&&&&<.&&&&&<.&&&&<.&&,333%#%%&X==$",
"O OO # o@+,33&&&<.&&&&&<.&&&&&<.&&&&&<.&&&&<.&&,33<###%&X=$=",
" OXo Oo #+,33&&&<.&&&&&<.&&&&&<.&&&&&<.&&&&<.&&,33.#%##&X===",
"$ooXX # #+,33&&&<.&&&&&<.&&&&&<.&&&&&<.&&&&<.&&,33<##@%&O===",
"O  XXO#@%+,33&&&<.&&&&&<.&&&&&<.&&&&&<.&&&&<.&&,33<%%%#&O=$=",
"XXO OO@#%+,33&&&<.&&&&&<.&&&&&<.&&&&&<.&&&&<.&&,333%%;;&O==*",
"XXX  ##%%+,33&&&<.&&&&&<.&&&&&<.&&&&&<.&&&&<.&&,332%@;;&O==$",
"OXXO OO@%+,33&&&<.&&&&&<.&&&&&<.&&&&&<.&&&&<.&&,332  %:&O=$=",
"Xo@  OO#%+,331<,<311&&&<.&&&&&<.&&&&&<.&&&&<.&&,332# #:&O=$=",
"oOO ##%:%+,333333333&&&<.&&&&&<.&&&&&<.&&&&<.&&,332O#%:&O==O",
"oO OO@:;;+,333333333&&&<.&&&&&<.&&&&&<.&&&&<.&&,332O @%&@=$=",
"O @OO#%::+,333333333&&&<.&&&&&<.&&&&&<.&&&&<.&&,332 @#%&@=$o",
"#@ #%@%#%+,33333&333&&&<.&&&&&<.&&&&&<.&&&&<.&&,332###%&@$$o",
" # #@%#%:+,33&3&2233&&&<.&&&&&<.&&&&&<.&&&&<.&&,332@%%%&@$oO",
"oO@ #%:::+,3323&2233&&&<.&&&&&<.&&&&&<.&&&&<.&&,332%;;%&@$oo",
" @#%%%%%%+,3333&3233&&&<.&&&&&<.&&&&&<.&&&&<.&&,332#;;:&@ooo",
"&&&&&&&&&+,33332<233&&&<.&&&&&<.&&&&&<.&&&&<.&&,332#%:%&&&&&",
"++++%%@@O+,333332333&&&<.&&&&&<.&&&&&<.&&&&<.&&,332%%%%&+@@@",
"oX$******+,333333333&&&<.&&&&&<.&&&&&<.&&&&<.&&,332#%@%&+@% ",
"X*****$X$+,333333333&&&<.&&&&&<.&&&&&<.&&&&<.&&,332&&&&&+%%%",
"X*$$X$$**+,333333333&&&<.&&&&&<.&&&&&<.&&&&<.&&,332+++++++++",
"***$$**$$+,33&&&&&&&&&&<.&&&&&<.6&&&&<.&&&&<.&&,332******$$$",
"*X$X$$$$$+,33&&&3.&&&&&<.&&&&666<<&&&<.&&&&<.&&,332X$$$XX$*X",
"**$oO$$o*+,33&&&1.&&&&&<.&&&&33..3&&&<.&2..<.&&,332XX$Xo**oo",
"**oX*$OX$+,33&&&<.&&&&&<.&&&&777.&&&&<.2<,,<..&,332oX$oO o@O",
"****XO*O$+,33&&&<.&&&&&<.&&&&<<<.&&&&<.&8>><..&,331X$XooX   ",
"*X*oXX*$o+,33&&&<.&&&&&<.&&&&&,...211<.&&90<.<&,33<XooOXOOo#",
"*$oo*4*XO+,33&&&<.&&&&&<.&&&&&<.&&&>><.&+89<.<&,33.$Xo$ @oo#",
"*X*X454oo+,33&&&<.&&&&&<.&&&&&<.&&..><.2,1&<.<&,33<o o Ooo::",
"*$*X*4*X +,33&&&<.&&&&&<.&&&&&<.&32<+<.&282<.3&,33<OXO OXO::",
"*X*X$$OOO+,33&&&<.&&&&&<.&&&&&<.+3+<+<.>>88<.&&,333 OoooO@#%",
"X*XoX  XO+,33&&&<.&&&&&<.&&&&&<.+1+<1<.&<.&<.&&,332@ Oo #%#@",
"*X*$OO$  +,33&&&<.&&&&&<.&&&&&<.+...<<.&&&&<.&&,332#@ @%;;@#",
"*X*XoO #O+,33&&&<.&&&&&<.&++++<.+233<<.<33&<.&&,332 @#@%;;;#",
"$XOOOX#O#+,33&&&<.&&&&&<.+++++<.+22..<.0313<.&&,332 #@%@%;;%",
"$X@#O#X  +,33&&&<.&&&&+<.+++++<.+++++<.2313<.&&,332 %#%%%###",
"XXOO#O%:%+,33&&&<.&&&++<.++&1><.+++++<.2313<.&&>132@#%#%##:#",
"Xo#######+<33<<,,,,,,,,,,,,,,,,,,,,,,,,,,,,,,,>>132  ###::::",
"         +13333333333333333333333333333333333331132         ",
"111111113.22222222222222222222222222222222222222222111111111"
};
