/* XPM */
static char *result[] = {
/* columns rows colors chars-per-pixel */
"60 64 57 1 ",
"  c #008080",
". c gray55",
"X c #484848",
"o c #FC0000",
"O c #B4B4B4",
"+ c #989898",
"@ c gray66",
"# c gray22",
"$ c gray19",
"% c #E00000",
"& c #282828",
"* c gray44",
"= c #EC0000",
"- c #4040FC",
"; c #2024FC",
": c #0000B0",
"> c #BC0000",
", c #7C7C7C",
"< c #5454FC",
"1 c #00007C",
"2 c #00002C",
"3 c #B00000",
"4 c #000070",
"5 c #000064",
"6 c #000058",
"7 c #640000",
"8 c #980000",
"9 c #700000",
"0 c #000040",
"q c #00004C",
"w c #00001C",
"e c #580000",
"r c #A40000",
"t c #400000",
"y c #D40000",
"u c #7C0000",
"i c #202020",
"p c #C80000",
"a c #000034",
"s c #0000FC",
"d c #0000D4",
"f c #0000BC",
"g c #880000",
"h c #4C0000",
"j c #000098",
"k c #0000C8",
"l c gray11",
"z c #A80000",
"x c #0000A8",
"c c #0000EC",
"v c #0000A4",
"b c #646464",
"n c gray33",
"m c #000088",
"M c black",
"N c gray25",
"B c white",
/* pixels */
"                                                            ",
".XoooooooooooooooooooooooooooooooooooooooooooooooooooooooXO+",
"@XoooooooooooooooooooooooooooooooooooooooooooooooooooooooX+.",
".#ooooooooooooooooooooooooooooooooooooooooooooooooooooooo#.+",
"@#ooooooooooooooooooooooooooooooooooooooooooooooooooooooo#O.",
"O$%oooooooooooooooooooooooooooooooooooooooooooooooooooo%o$.+",
"@#ooooooooooooooooooooooooooooooooooooooooooooooooooooooo$.+",
"@&ooooooooooooooooooooooooooooooooooooooooooooooooooooooo&*@",
"*$ooooooooooooooooooooooooooooooooooooooooooooooooooo=ooo$.+",
".$oooooooooooooo-;;;;;;;;;;;;;;;;;;;;;;;;:>=ooooooooooooo$+,",
"@$oooooooooooooo;;--<<<<-----;---;;;;-;;12>3ooooo=%oooooo&@,",
".&oooooooooooooo4144444444455555545666622278oooooooooo=oo&,,",
".&ooooooooooooo=9055qqqq6666666666qqqq02w2e>ooo=ooooooooo&..",
"+$%oooooooo=oooor906qqqqqq666666qqqqq02wwtryooooooooooo%o$.,",
".&oooo%oooooooooo8t20qqqqqqqqqqqqqq002wwtuyoooooo=o=ooyoo&.*",
".ioo%ooooooooyoooyuww200qqqqqqq000002www9u%oo=oooooooopooi,.",
",&o=ooo=oo=oooooyo8tww000000000000222wwtu>oooooooooooo%oo&,,",
",&ooooo=oooo=oooooy7aw20200022222222wwt9po%3oyooooo=%oooo&,,",
",&yoooooooy=%=%ooo%89ww222222222222wwte8ooooo%o=%opp=o=yo&*,",
".&oo=oo=o>ooooooooo>uaw222222222222wwt7yop=popoo>o%:s:yyo&,,",
",i=ppsdfooo%oooo%ooygtww22222222222wth3o%oooopoppp:sj598=i*,",
"*i==y:skfoyo=%o%ooo>%ua222220000002wt78=%opop%poy:sjqq9u=i,*",
"*ly>z:5q1xjy>ooyo%%opu0200000000002we7yoyo%o==op:cj62279%l,*",
"*&>%=:0q26jfvyy=%oyoy=6wqqqqqqqqqqwwe7o=oo=oppjsdj6qwwe7%&**",
",i%%%:002w04vdv%%=y===1q666666666qwwe8==p>op:ds:166qwwhu%ib,",
"biypp100222261vdvyy=yyx46665555566wae8yoopdsdj15566qwwhuyib*",
"nipyy1a0220qq5qjffvyyymj55555555552qe8oyds:j1555555qwwe9yinb",
"bi>yy1a000qq666561jvdsff44444444450q1:ds:1555555555qwwe9yiX*",
"biyy>160qq666555444411111111141444615m1444555555556qwwh9pl**",
"nlpp>16qq6655544444111111111111111444444455555555660wwe9plbn",
"bir>p16q665554441111111mmm11111111444445555555556660wwee>inb",
"*i>3>15665554441111mmmmmmmmmm11111444455555556666qq2wwe9>inb",
"ni3>>15655544411111mmmmmmmm111111444455555666666qqq2wMt7>ibb",
"nl>>>156554441111111mmmmm11111114445555666666qqqq002wMe73lnn",
"ni>g>1565544411111111111111111444455566666qqqq000022wMeezinn",
"bi3z>1565544441111111111111444455556666qqqqq0000222wMMe7zinn",
"#i8r314655544444111141444444455556666qqqq0000022222wMMthzlXn",
"Xlz3314665555444444555554555556666q002222222222222wwMMeerlXb",
"nlzzz156665555566q002220655666666q2wwwwwwww22222wwwwMMeerlnn",
"nlzzz15q66666q02222tttt2q6666qqqq0wwttttwwwwwwwwwwwwMMhe8lnn",
"nl88810qqq02wwwwttthtttqqqqqqqqq00wMttthttwMMwwwwwwMMMhh8lnN",
"#l8rr15q02wwwwtthtte7uu5qq00000002wMt97hthttMMMwwwMMMMhh8lX#",
"nl8rg662wMMMthttteu8rzu50000002222wwtzuu9etteMMMwMMMMMhh8lXn",
"nl98r62wMMthttteg8z8z8062222222222ww2r8z889htttMMMMMMMtt8lXX",
"nl88862MMhttteggrrrgru602222222222w228r888r97tthtMMMMMhh8l#n",
"nlg886MMhtth98g88g8urr42222222222222agrr888889etthtMMMht8lXX",
"#lu88u7httegg88888r8866222222222222227r8888888g9ttttMMtt8lXX",
"Xlg88uehteggg8g88g8ugm022222222222222288888888ug97ttthth8lNX",
"Xlg88uehe98888u8888g642222222222222222788g8u8888ug9hthh98lXN",
"Xl9887979g8ug8888u875q222222222222222207g88g8988g89u97778l$N",
"Xlgg8g8gg8ugggug8896m222222222222222222a8888889u88g89uggglNn",
"Xlguug99ug8gg888g874q222222222222222222a98guuu988gu9gg9gglN#",
"$lg7gguggggugguu8g6m2w22222222222222w22208ugugggu99ug9ggglX#",
"Nl9ugu9ggg9gggugg74qww222222222222wwww2209ugguugggggggg9gl##",
"#lggg9ugggug9ggg7562wwwwwwwwwwwwwwwwww22209gu9gugguug9uggl##",
"Nlu9gg9g9uuggggg5q2wwMMMMMMMMMMMMMMMMMww0q9u9g9gu9ug7ug9ulX$",
"Xleuuuug9guguguu502wMMMMMMMMMMMMMMMMMMMMwqe9gg9gguguuu9eul##",
"Nluuu9uuuuuguu7u9eeteehheetheheheeeeeeeehhee7u9u9uu99uuuul$#",
"Nluu77u9u7uuu9uue7htttttttttttttttttttttttteu99u9u99uuuuul$N",
"&luuu9uuuuuuu9uuuuu9e7777eheee7h7e7h7e77779uuu9u7uu7ue7uul##",
"$lu99u9u99uuuuuu99uuuuuuu9euuuu9u9u9u9uuuuu99uuuuuu7u9uuulN$",
"Xl999u7uuuu9979u99uuuu979uuu9u9uu9u9uuuuuuuu9u99uee7uu79ulN$",
"#l9u779uu7999uuuuuu9999u7uuuu7e9uu9uuu97uu7uuuuu7uuu79799l$$",
"#l97799979uuuu9u7999999u9u79e9uuuue97u99u9euu97e9u9799999l##"
};
