/* XPM */
static char *result[] = {
/* columns rows colors chars-per-pixel */
"61 62 24 1 ",
"  c #C0C0C0",
". c #B4B4B4",
"X c #D0D0D0",
"o c gray99",
"O c gray66",
"+ c gainsboro",
"@ c #CCC400",
"# c #E4D800",
"$ c #FCF400",
"% c #9C9C00",
"& c #848400",
"* c #B4AC00",
"= c #706C00",
"- c #585400",
"; c black",
": c #28200C",
"> c #404000",
", c #FCF420",
"< c #FCF440",
"1 c #FCFC7C",
"2 c #FCFC54",
"3 c #989898",
"4 c #ECECEC",
"5 c white",
/* pixels */
" .      XooooooooooooooooooooooooooX.         ..        .O . ",
" .   .  Xoooooooooooooooooooooooooo+.  .   .  .       .      ",
"    . @@#$$$$$$$$$$$$$$$$$$$$$$$$$$$@@@@@@@@@@@@@@@@@@    .  ",
". . . @%&%*@#$$$$$$$$$$$$$$$$$$$#@*%&&&&&&&&&&&&====*@ .O   .",
"      @-;::::::::::::::::::::::::::::;;;;;;;;;;;;;;;=@.    . ",
" . .  @->$$$$$$$$$$$$$$$$$$$$$$$$$$$$#@@@@@@@@@@@@@;=@.  ..  ",
"   .  @->$$$$$,,,,,,,,,,,,,,,,,,,,,$$#@@@@@@@@@@@@@;=@  .  ..",
".  .  @->$$$$,<1<<<<<22<<<<<<<<<<<,,,,@@@@@@@@@@@@@;=@.   .. ",
". .   @-:$$$$$$2$$$$,22<$$$$$$$$$$$$<%@@@@@@@@@@@@@;=@       ",
".    .@>:$$$$$$$$$$<2>;2,$$$$$$$$$$,-;=@@@@@@@@@@@@;=@   . ..",
".. .. @>:$$$$$$$$$,<:;;-<$$$$$$$$$$<;;;-@@@@@@@@@@@;=@  .. . ",
".  O  @>:$$$$$$$$,2;;;;;<,$$$$$$$$,>;;;;-@@@@@@@@@@;=@. .    ",
"   . .@>:$$$$$$$$2>;;;;;-<$$$$$$$,%;;;;;;&@@@@@@@@@;-@..O.   ",
"..O   @>:#$$$$$$,&;;;;;;;&,$$$$$$<:;;;;;;;*@@@@@@@@;-@O  .  .",
".   ..@>:#$$$$$$<:;;;;;;;><$$$$$,&;;;;;;;;-@@@@@@@@;-@ . .  O",
"..... @>:#$$$$$,=;;;;;;;;;=<$$$$<;;;;;;;;;>%@@@@@@@;-@.......",
"......@>:#$$$$$,>;;;;;;;;;=<$$$,<;;;;;;;;;;=@@@@@@@;-@..O....",
"..O.O.@>:#$$$$$<;;;;;;;;;-<,,,,,,&;;;;;;;;;>@@@@@@@;-@..O....",
"O.O...@>:#$$$$$%;;;;;;;;><,@=>-@,<>;;;;;;;;:*@@@@@@;-@.......",
"O.O..O@>:@$$$$$=;;;;;;;;-,<=;;;=<,&;;;;;;;;;*@@@@@@;-@OOO...O",
"..O...@>:@#$$$$<=&&&&%==<,,>;;;;<$,&----->>>*@@@@@*;-@..O..O.",
"......@>:@#$$$$,,,,,,,,,,$,=;;;=<$,,,,,,,#@*@@@@@@*;-@O.O..O.",
"OO....@>:@#$$$$$$$$$$$$$$$$@=;=@,$$$$$$$$$#@@@@@@@*;-@....O..",
"...OO.@>:@#$$$$$$$$$$$$$$$$$<<<,$$$$$$$$$$#@@@@@@@*;-@.......",
".O.O..*>:@@#$$$$$$$$$$$$$$,,,$,,,$$$$$$$$$#@@@@@@@*;-*O.OOOO.",
".O...O*>:*@#$$$$$$$$$$$$$$<-&&&-<$$$$$$$$$#@@@@@@**;-*O.O...O",
"......*>:*@#$$$$$$$$$$$$$<&;;;;;><$$$$$$$$#@@@@@***;-*O..OO.O",
".OO.OO*>:*@#$$$$$$$$$$$$,@>;;;;;;@,$$$$$$$##@@@@***;-*..OO..O",
"....O.*>:*@@#$$$$$$$$$$$,-;;;;;;;>,$$$$$$$##@@@****;-*O.O...O",
".OO.O.*>:**@#$$$$$$$$$$$&;;;;;;;;;&,$$$$$$##@@@****;-*O...OOO",
"...OO.*>:**@#$$$$$$$$$$,>;;;;;;;;;>*$$$$$$##@@*****;-*..OO.O.",
"OOOOOO*>:**@##$$$$$$$$,=;;;;;;;;;;;-,$$$$$##@@****%;>*OOOOOOO",
"OOOOOO*>:**@@#$$$$$$$$=>;;;;;;;;;;;;=$$$$$##@@****%;>*OOOOOOO",
"OOOOOO*>:***@##$$$$$$$*>>;;;;;;;;;>-*$$$$$##@@****%;>*OOOOOOO",
"OOOOOO*>:***@##$$$$$$$$#%>->;;;>>>%#$$$$$$##@@****%;>*OOOOOOO",
"3OOOOO*>:***@@#$$$$$$$$$$$,,$$$,,$$$$$$$$$##@@****%;>*OOOOOOO",
"OOOOOO%>:***@@##$$$$$$$$$$$$$$$$$$$$$$$$$$##@@****%;>%3OOOOOO",
"OOOOO3%>:%%*@@##$$$$$$$$$$$$$$$$$$$$$$$$$$##@@**%%%;>%OOOOO3O",
"O3OOOO%>:%%**@@##$$$$$$$$$$$$$$$$$$$$$$$$$##@@@*%%%;>%OO33O3O",
"O3OOO3%>:%%**@@##$$$$$$$$$$$$$$$$$$$$$$$$$##@@@**%%;>%3OOOOOO",
"OOOO3O%>:%%%*@@###$$$$$$$$$$$$$$$$$$$$$$$$##@@@*%%%;>%OOOO3OO",
"3O3O3O%>:%%;;;;@;;;$;$$$;$;;;$;$$;$;$$$;$#;;;;@*;%%;>%O33OOO3",
"OOOOOO%>:%%;**;@;##$;$$$;$$;$$;$$;$;;$$;$;#@@@;*;%%;>%3OOOO3O",
"O3OOOO%>:%%;;;;@;###;;;;;$$;$$;$$;$;$;$;$;##@@@*;%%;>%3OO33OO",
"OOO3OO%>:%%;%*;@;###;$$$;$$;$$;$$;$;$$;;$;@#;;;*;%&;>%OO3OOO3",
"3OO3OO%>:%%;%*;@;###;$$$;$$;$$;$$;$;$$$;#;#@@*;***%;>%3OOO33O",
"3O3OOO%>:%%;%*;@;;;#;#$$;$$;$$;;;;$;$$$;##;;;;;*;*%;>%OOOOOOO",
"3OOOO3%>:%%%%***@@####$$$$$$$$$$$$$$$$$#####@@@***%;>%OOO3O33",
"O3O33O%>:%%%%***@@@####$$$$$$$$$$$$$$$$#####@@@***%;>%OO33O3O",
"3OO3OO%>:%%%%%**@@@#####$$$$$$$$$$$$$$#####@@@@***%;>%3OOOOOO",
"OOO3O3%>;::::::::::::::::::::::::::::::::::::::::::;>%3333OOO",
"O33OOO%->>>>>>>>>>>>>>>>>>>>-------->>>>>>>>>>>>>>>>-%3OO3OO3",
"3OOO33%%%%%%%%%**@@@@#######$$$$$$$########@@@@***%%%%O3O3OO3",
"33O33OO3OO3O3O X ++++o44ooooooooooo4ooo4o44o44++ XOO.OOOO33O3",
"3OOOO33OO33OO. XX+ 44oo4ooooooooooooooooooo++4+XXX  OOOO3OO3O",
"OOOO3OOO3OOO3. .XX+4++oooo4oooooooooooooo4Xo44X+XX...OO3OO333",
"             XX+44ooooooooooooooooooooooooooooooo44+XX       ",
"OOOOOOOOOOOOO.. XX++44oooooooooooooooooooooo444++XX  .OOOOOOO",
"OOOOOOOOOOOOOO. XX++444ooooooooooooooooooooo444++XX  ..OOOOOO",
"OOOOOOOOOOOOOO. XX++444ooooooooooooooooooooo444++XXX ..OOOOOO",
"OOOOOOOOOOOOOO.  XX++444ooooooooooooooooooo4444++XXX  .OOOOOO",
"              XX+44ooooooooooooooooooooooooooooooo44+XX      "
};
