/* XPM */
static char *result[] = {
/* columns rows colors chars-per-pixel */
"62 63 41 1 ",
"  c gainsboro",
". c gray99",
"X c #ECECEC",
"o c #D0D0D0",
"O c #B4B4B4",
"+ c #C0C0C0",
"@ c gray66",
"# c black",
"$ c #989898",
"% c #880000",
"& c #202020",
"* c #646464",
"= c gray19",
"- c gray11",
"; c #7C7C7C",
": c #C80000",
"> c #484848",
", c gray44",
"< c #282828",
"1 c gray55",
"2 c gray22",
"3 c gray25",
"4 c #FC4040",
"5 c #FC0000",
"6 c #744C28",
"7 c #B00000",
"8 c #FC2020",
"9 c gray33",
"0 c #4C0000",
"q c #580000",
"w c #FC5454",
"e c #7C0000",
"r c #543C1C",
"t c #700000",
"y c #400000",
"u c #BC0000",
"i c #E00000",
"p c #BC7848",
"a c #A80000",
"s c #A40000",
"d c white",
/* pixels */
" .............................................................",
" .XXXXXXXoXXXXXXoXXXXXXXXXoO.ooXoXX+@ooXXXXoXoXXXXoXXXoXXXXXXX",
" .XoXXoXXoX++.oXXXoXXooXoXO#.@$+XoXO#XX+@+oXoXXXoXXXoXXXoXXooX",
" XXoXXoXooXO#.oXo+.o@XXXXoo..@#@@@@@XoX@#XX.@@+@$XoX@Oo@@oXXXX",
" Xooo%%XoOO..XoX@&.@#XX#X*=##########=*+XXoo@#X$#@@O%% @#XoOO+",
" X.%%%%@XO#.oooXO..OX.$-################-$XX+X. @%%%%%%@XXO%%%",
" X$%%%%%%...o@#.X+#@@######@#;###;##@######$..#$%:%:::%+$O%:::",
" X.XX%%%%@+oXoXXoX+-##################>##@##-o,%%%%%%%+%%%%%%%",
" XXXo.<<<<<+ooXoX1###@#>####@###@##@>###>#####,&2=>===>3>3333.",
" XoXX.%4555@O#XX=########@###>>>>>>##########6%555555755589;..",
" XXoXo.%77:7+X.2###@#@#@#<1 #+..oo #.1<#####%%%77705:::77...Xo",
" XXXXX.%%7::o.2###@####9O#@O.#.#o# ..#Xo*#%%%7:77:57::::..oo@X",
"oooX+o..%77:X*##$##@#=Xo@.@#..#..O#X+oo%%7%05::05::057:7.oX@#.",
"oXXX@#... 77%#######2.X@##..#...#..o%%%%7%75:::57:75:77..+O..X",
"oXXoX..+X3<%%%#####O.#.X.##..o$$$$O%%%%qq0%%%%%%%%%%==.$X+#...",
"oXoXo O# 999,;,,##OoX.X#..@>########<<<<<<<<<<<<<<<<<<+@@@XXoX",
"oXXX.@#.oo%%7555555O.#..#-######$####8wwwwww8>;55555555%%O%%%.",
"ooXXXOo%%%%:::7:057OOO  ###$#$#####$77:05::7%995:::777::7:77.X",
"oXXXo%%%%7::7:::5:77%>1########$####77:5:::7%>*5::7::::::7..Xo",
"oX.X.e%%:::::05::::7%>;%%##%%-$$$$-#7:::::05%>;57::05:::7..o+X",
"oO+X...%7777:57:7:77%>;77%%7%e..#..X77:77:57%3$57::57::7.o+ #.",
"o+#. ...%%%%%%%%%%%%%>*%%%%%%%.#.##.%%%%%%%%%2*8%%%%%oOo.o#XX.",
"oO..++X.O@@@22<@@<<22>*222222<<....&&&=2222222*93=&&$##9.     ",
"oX  +#..9###++...@55555555557>,77>%%%%555555555555581##>.   XX",
"oXX ....=1####X.#.@$$$777777%=,57r%%%:77::7::::777881##=<@@ XX",
"o  .....###1#2#...=<--977777%2,57%7:7:7:05:7:::057$@###2<%%@ot",
"o Xoo..######3...#3####...77%=,5777:705:5:7:7::5:7yy0y--98%%X ",
"o XX o .##1#12..#.3##1#1.#.7%=,57:777577777057777777%<>**87.XX",
"o  XO#..#####2....;####1#..%%=,%%%%%%%%%%%2%%%%%%%%%%<2995X   ",
"oo XoXXX##;##2#..#;####1.#@O2>,,<<<<<<<<<<<<<<<<<<<<<<<*... Xo",
"oX    XX####;2..#.X#;##-@$%%%8444445555444447>9444445:*#X #  X",
"o++X+OoX>##### XX#.#####99%77:7:7777:::::77:%<,47:u::##># X  o",
"oO#X+#XX>#;### #XXo9##-<>>47::77705:::7::::7%<947:7:###> X o+@",
"o   +XXX;#####,Xo,O+#%%<>94:uuuu75:7::7::777%<>w7:04%##; + +@#",
"o +  X X ###;#>@@O%%%%%&>,57::7X777::7:05777%<>47747%;#Xo@+o+ ",
"+  X + #X&##%%%%%%%%%%%&9,u%%%XXq%%%%%%%%%%%%<*77%%%$#1 @# @$+",
"+X + X XX1#===<22<<<=<<29>222 o;;<===<<======<>9=<#-##>X+X @#X",
"+    X+OO%555%<955555::5:5555+###%<>88888..uu448887###X+@+ O  ",
"+     O%%%:::%<95:i:::7::7:7:o####<98777.X#X%777777779X@#  + o",
"+  + O%%::::7%<>5:7:7:777705: ####<>877..#XXX%:777777@ +      ",
"+   @%%7::7:7%<>5705:705::55o&####<<8777+XXX#,$@@%%777$    o +",
"+ + @%.....@7%<*5:577:5::::...X#XX$<:777@   1####O%%%%%@+ +   ",
"+   .... @@@ %<*7%%%%%%%%%.. O  # $<%%%%%O =###;##+%%%%%@@  @@",
"+  @O   O$#O ;<*3<=<<<<<<=.. # O# $<<<<<<@########;.999*9*$ O#",
"+ OO#.OOO   +@:55555555555.       $%::3>wp#######* . %777%*@O ",
"+  ...$$O   +1%7i05:7i:7io*o# # # 1%:%<*4u###;#;* # ..%%%%9;  ",
"+    $$  O  O1%:754i::::7o###$2222=O%%<94:#####;   o++...%9:@o",
"OoOoOO   O X 1%:::i:0iiiiO;####;###$%%<94:u#### OO  @#  ..*:a@",
"Oooo$oo#. -.@$%:7i:77:i7o###;####;#%%:<*au###0+ O# OO+oooo.as@",
"Ooooooo..X.X@=%%%%%%%OoOO,#########%%%%*&&&-1   +@o@#o+oo+o...",
"OoOoooOOooo$3<2>33>3.. 9-##,##,###>>>>>>>3>91Ooo@#o+oo++Xoo+#.",
"OooOoooooO@,%%:555..X+o...,3<####%%55555@oa55@@@ooooo+@#.ooo.o",
"OooOooo$;,,%:::7::.+O#XoooO+o@#**%77::777@oosso$oO@oooo.X+oooo",
"Oooooo$%%%%%:7:::7.....ooo@#.ooo$%%7:05:::ooooo#$@#ooooOoooooo",
"Ooooo$%%77s77::7..o+ooo..oX..+oo$$%7:5:77:@#.oooo$OXoOoooooooo",
"Ooo+o1%XXXXs7:7XXoO@o+oo+oo+o$$$>%%%%s::77@.X#.ooo1.oooooo#ooo",
"OooooXXXoooX%%%Xoo@#.oooooooo>%%%%%%%%%%%%Ooo.Xooo.oOooooooooo",
"XXXXXXXXXXXXXXXXXX...XXXXXXX2X;XXXXXXXXXXXXXXXXXXXXXXXXXXXXXXX",
"ooo$+ooooooooooooooooooooo>>ooooooooooo,ooooooooo#9>@ooooooooo",
"ooo+#.ooooooooX**>>@oooo9#9ooo23222>>1*2===2#9=#####3oooo,.ooo",
"oooo..ooo@OooooXXXX92==<###=3==1oo,====XXX,==<2XX,..99999@.ooo",
"ooooooooo+#.ooooooXXX@@#XXXXX,ooooXo,XXXooooooooXXoo.....Xoooo",
"XXXXXXXXX...XXXXXXXXXXXXXXXXXXXXXXXXXXXXXXXXXXXXXXXXXXXXXXXXXX"
};
