/* XPM */
static char *result[] = {
/* columns rows colors chars-per-pixel */
"63 64 86 1 ",
"  c black",
". c #0000C8",
"X c #60009C",
"o c #840084",
"O c #600064",
"+ c #6C0070",
"@ c #000098",
"# c #004040",
"$ c #000070",
"% c #C80000",
"& c #E00000",
"* c #0004FC",
"= c #A80000",
"- c #7400B4",
"; c #400000",
": c #A40000",
"> c #700000",
", c #880000",
"< c #B00000",
"1 c #A800A8",
"2 c #FC4040",
"3 c #580000",
"4 c #00001C",
"5 c gray19",
"6 c #046400",
"7 c #047000",
"8 c gray25",
"9 c gray44",
"0 c #048800",
"q c #005858",
"w c #005C9C",
"e c #006464",
"r c #006060",
"t c #006CB4",
"y c #400040",
"u c #640000",
"i c #5C4020",
"p c gray11",
"a c #045800",
"s c #049800",
"d c #006C6C",
"f c #04A400",
"g c gray33",
"h c #B47044",
"j c #007070",
"k c #007C7C",
"l c #343434",
"z c gray55",
"x c #008484",
"c c #646464",
"v c #04B000",
"b c #047C00",
"n c #008C8C",
"m c #04C800",
"M c #04BC00",
"N c #00D400",
"B c #403018",
"V c #00EC00",
"C c #980000",
"Z c #9C4C00",
"A c #00FC00",
"S c #484848",
"D c #7C0000",
"F c #706C00",
"G c #40FC40",
"H c #007878",
"J c #00E000",
"K c #989898",
"L c #609C00",
"P c #302410",
"I c #404000",
"U c #044000",
"Y c #28200C",
"T c #20FC20",
"R c #044C00",
"E c #9CFC9C",
"W c #60FC5C",
"Q c #80FC7C",
"! c #00A8A8",
"~ c #00E4E4",
"^ c #40FCFC",
"/ c #00CCCC",
"( c #54FC54",
") c #BCFCB8",
"_ c #D8FCD8",
"` c white",
/* pixels */
" .XooOO+X@@#$OX@@%%oX@@Oo++&&X*XXXX@O%Xo&=o+oo%o+XX+oX.******-X",
" @@OO;:&%@$;>==+@@O>,,X++=%o+.@,:&<>OOO++%%XXXXo&&%ooo1*****-2&",
">3; 4#@$5##6789@$##0qqwweqqrw@@@$;:&%o==OXX9tt*@@$$@@w999oX1o&%",
"&&>yu,i7#p#a6qq#qssdwwf007ffrO=>$@...9+O$@w$w$@ttw**..9ggh%&%2%",
"fffp866w@$eq@$0fejffffffkwffffffqqlqw@$#@#q99j$q8jkelggg9w*@@-1",
"u@fffffffr70sw@f9fwfw@fffffr.fwff#qqwfq6qez9999wql70q7777@@#w9g",
"5*fffkwqfqqqx*wffffjw@ffffff$rf#8fkkff7qjfwwwwd0fk8cw7$q#q#$9h,",
"fetwffvqffff@wff@fs@$fffdbffqqf9sfqqf7dqxw.ns777kw007wq0c#q*q0f",
"fffffwmfffsqdfffff0qffffqbbffgfgsffffMek886q7777777s7780qf#7sff",
"q7svffffff0s7fejwNmfffq#bbbffff0ffeqNqvf06as6l77770sq7sfqqf7fBi",
",uBsffffffff0ffvfVtff#l#0bbbqff0rswfzMNv7bs7bbbl0fqqq0fqN7f7s:C",
">C:ZfffffNvffvfffMffqq#800bbbbs0vsvfzvA7bbb6bSbglvqqqqqqf7f7iDD",
"<&C&FjffMNNffMAffNffi###b0bbqbfsfffsfG0b6bbbbggggdMrqkHlf770DiD",
";uC<ssdfNMffMvNNfJff<Bq##0bbbbfMfffsNmu07bbbbg9KLq0dqfeqf77fDDD",
"CuBus7sjfANfJfMJvMfi:,bHqbb0bbHfsMsMJS>i00bbFL9cScfjq7qsf77vCDD",
";3u:sss7sNNfJfMJNvfB<CbM6b00bbbMfMNfv3u,P0bbkLZ9Szs0r7qV777NCCD",
"C3u>sss7C3VfJNVMvfNiu>bb#bi0bbbsfMNrvB;>300bLFillL77r77v777vIDC",
"i:>3ussmC3AfMNNMMvmZ<>fj7ZC0sbbfdvjjs3 ;300iFii88Ls7#77777vmCDD",
"u>;;>msm&3AAMMJvMm6;;u0fs,:0sbbdNkkvIu;;u00ZiSFSSF0fesqff7viCDC",
"CuuC:msm:uNAMmNvMmBu;3FvLC:fbfbqvxvv7u,uu00i;SFLcFLf777q77vDCDC",
"u,CC:m7mCCvAMVmNNNi,>,ikL>>fbfvrmmmMIuu;u00B;S;cfC<77sv00qfCDCU",
"C<:<<mmmC:LJMJNANmY ;CBfFu;fbL>jmMmmlu3;u0f;;SuLL<:f77NsvqfDCDC",
"uB,CiSsv,<BTNAMmVm,>::ifiCufmvBMmMvvBu;;>ff3;S3LL:uf07777NvCCCC",
";;C;6vsvIBUNMVMMVm;u,i&fi,,MvLBMMmvv3u;uuff,;L>LL&3sj7vsVfmCDDD",
"CC;Ua#sm6UUNMJMkJmUUUa&f#;;MjF3fMmMv;u;>>ff>;SuLL<uve7sqVsfCCCC",
"C  URUmmRU VMvvmJs  p#>vq UajU jvxMv#;3>uffB;L<fc&3frNvqVmAaUUC",
"C  Ua6mmaU VMmNvms   p;vU   vU vMkTvsaUaSfgU Lif9BiveVM0NvAUp6R",
"4 UUU6vmU  AJJVmG04    sU   vU mmkGf76#UUfSpU06Gd6bvvJssNvAaUaR",
"p    6mm#4pAVJVVEjq#pp###p4pf  xVNWG666URfSpU0Ufk6qmvsfsmfVaUR6",
"p  UUpvm#4#AJNGTEeqer#qqUp44sUpkVmQG776UUf8p U sf66NsfMfmMv7UUU",
"pUUUUpmmqp#AJNTGTfHjHHqe7#ppsUUMVGWG6a#UUf#pUUUff6#NsfNMvfM6RRR",
"4UUU UmmqqrNJNTGANx!nnnxqeq#sUUmTkTTqU#UUf#pRUUfM6aMfmJTNMV6#UR",
"4UU  lmmknHVAATGJV~~!n!!j#eq#ppmWxGG###URfU5aURMfaRNfNVTNvV6RUR",
"4   4qmmznnAAATGJA^^^~Hk/n#pep#kQGWG####af7la UMf6#VfvmMVvV6#UU",
"p  p#qmm!n^AATWEAA^^^^^~k!wqqq#TQQmG##4#qf8laURMvqqNqNvMVvA7#Uq",
"p 4#qqVmn^^AATQWAG^^^^^^~#nnpq#WQQGW##4U#q###U6TvrqmmJmNMsA7UUU",
"  #4jqmVG^^A(GEGAQ^^^^^^^~w!eq#EW(GW##4U6qeq6UUTTqqvWAmkmfA7qUU",
"4#4#qwmVQ^^GE(QGAW^^^^^^^^jw!##E(WWW0##qqqq###pMfqqvkNmfNvAq#qq",
"#p4qewVVG^^GQEQQT(^^^^^^^^^wwqr(k)EWb#qq#qq####GW#pNANTNANVe#qq",
"#ppwwHVV^^^((EWEQW^^^^^^^^^eeeeWQ)_zd#eq##q#q#qG9l6NNNANANAGq#q",
"#qjvvkVVkvvWQEGQQGNffffddddfffdW)Q_EqqdddddddsvT(jfNANANAAA(m77",
"7fkkkkGVMNMQQQ(QEGVVJNNTTNNNNmmE_E_)0fmMMMMMMmMvMMMAAAAAVAQW777",
"fffMMMWVGVJQEQQEE(GAG(WWWWWQWGGQ)E_)(VJJJJJJJmTMMMGGVATTGWWkz77",
"777MmJW(TAA))QEE)Q(QQQEEEEEEEEQQEWEQGTGG()QTVVGQEE)EQQWWQQQQQ77",
"7MMMNVTGGGW_)EE)_E)____))EQQE))QQEWQQQQ(GQWAAVTGMMMWQQQQMMMMMMs",
"ffNVJV(E)E_))EE)_)______EEE)EE)))_____))WGAATTTNNmmMMMMMfffffff",
"fvfGG(GGWQWW)EEEEEE)____)_)____________))ETTGQEQ(GmMmNNMfffffff",
"fffffVTGGGGQ))))_)___________________))_)))QQE)E(TMvvffffffffff",
"!fffNGQEE))EQQQQ)______)))_____)___)EQWQQWWGTTTTMMvfsssffffffff",
"NNNNJVTGGGGTTATGQ)))_))))__)__))))EEGTATVVTNNmMMMvvffffffffffvf",
"NNNJVVVVVVVVVVVAATQE________)WQ)EE))WGTTTVVJNNNmmmmNNNNNNNNNNNN",
"VVVVVVVVJJVVVVAAAAT(WGGQ_E))EGGQQEEQWQ(GGGTTTVVVVJJVVVVVVVJJVVV",
"VNVVJJJNNNNVVVVVVVVVVGG((G(GGTGTW(TTTTTATTTTTAVVVVVVVVVJJJJNVVV",
"!mmNNNJNmMvMmmmmmNNNNGGTVVVVVVVJJJJJJNNNNNNNNNNNNJJNNNNmMMMMMMM",
"svvvMMMMvffvvMmmmmNNNNNNNNmmmMMMMvvMMMMMMMmmNNmmmNNNmmmMMvfffvs",
"sssssffvvfvMMmmMMMMvvMMMvvffffffffvMmMMMMmMmmmMMMMMvvfffffssss0",
"ssssssssssffvvvvMMMvMMMMMvvvMMMMMMmmNNNNNNNNNNNmmMMvffsssssffff",
"sssssssssffvvMMMMMMMMMMMMmmNNNNNNNNmmmMmmmmMMMMMMmmmMMMMMMMffff",
"ffffffsssssffffffffffffffvvvvvfffssssssssfffsssffvvvvMMMMffffff",
"ffffffss00sssssssssssssfffffvvfffffsssssfvfffffvffffffffsfffffs",
"fffssfssssssssssssssssssssssfffffffffffffffssssssssss000ssssssf",
"fffffssssssssssssssssss0ssssssssssssssssssss000000000000000000s",
"ffsssssssssssssssssssssssssssssssssssssffsss0ss000000ssffssssss",
"nssssssssssssssssssssssffffsssssssssssssssssssssssssssssfffffvs"
};
