/* XPM */
static char *result[] = {
/* columns rows colors chars-per-pixel */
"94 66 16 1 ",
"  c #452439",
". c #201018",
"X c #8C5171",
"o c #351C28",
"O c #0C0408",
"+ c black",
"@ c #593145",
"# c #693D55",
"$ c #A0597F",
"% c #7D4565",
"& c #B06590",
"* c #EDA424",
"= c #BC7D14",
"- c #795524",
"; c #E1D931",
": c white",
/* pixels */
" .X..o.O+o++O.++Ooo@+##.o$X#@% .@+#Oo.o@+@+.%@oO@..#o .+Oo%#+.##@@@@+. # +.Oo.  +O+.o@oOO.#.%+",
"@OoX$@@o..@.  oO... o.#..o#o..o@%&$$@@o@ @.%o. @@#O@.@@####$X#...OOO.+XO. o .Oo#@O.oo. @$#Oo#.",
"#OoO$%. oO..o. o.O. @.%@@.o@.O.o#+ o#@#%X##++..O. XX% % oO. &.oO@.O++  o.+oO@ .o@..O...@# %##+",
" O..o @o .OOOoo..OO+o@X#@.O @.Oo@OOO+ @@@#+.++.... XOOO. .O.%@ .O.O.@  .++OO+.oo#.+...#.o@#  +",
"@+o..o @%@..O..OooO+++$.#.oO @.@O.O..O.   ....++oo.%...O  ...@@...oO@o +++O..OO.#+..#%.o#@.o#+",
"O .o.oo %X# .+... @.O+@O.%.O.@$O.....oO.*. +o.+++.@o=O...@#...%@.oo#.oXO.O.OOo.o#O.@%..#o..@o.",
"O +.@O.#ooX@o...+. @ . +o.# +%@%.OO.O+O-= @ .O +++@+*#OOO. @ .O##O# Oo% OOOO++.. ##@oO%o.+.%+O",
"+@.O.OO o..#$@OO++.o@.#..+@XO@.o#oo..++*#+$ .Oo.++ +-=OOO..o@..#@@@ ..#O OO++OO.%##@o #..+O@.+",
"+#oO+ooo@Oo#X&&X@  %X&X##%#%$+.O.  ## -=+.## OOoO+ O+*#O+.Oo # .&%%%X %###@  %###%.X @Oo...#OO",
". o@oO+O. % #O%@ O++o.X@@.OO%&% oOOOO+*#OO#o@ . @O +.-=.oO.oo#X$&#.O. X+.O+++.% %.#oX#. @..@.+",
"O OO O. % oO$ .%X..++.#O.@# o# . %  +-=+o@X.@O.O.o#+++*#O@#@#..@.@#o +%O+@O+@#++#ooX&..O.oo#+.",
"O OOo+.#O+OO+#oo$#+.++#...@#O@%o..@Oo*#O+.$@#..O.+Xo+.-=@O+...##..@@.. O.+.%X o@++ # %.O.+ $O+",
"O@....@OO..O.@O. o@.OO@.oo. @.#OOO.O-=++@@%&&%X#%##%%++*#+O..o#.oo.@@.#+++ +OO %..# @ $.o..%o+",
"O@Oo #O+..o.O%..+*#+#O oO..O@# #OO+.*#++o+ X&o. %#O.O.+-=O++o#OoO..O@.@+# -*#+O%%  .ooo$%.O#O.",
"O+%@O+OoOO..O OO.-*#.o#+.+.oO #.@o+-=+OO.o %$.o.XX OO.++*#+o#O O.+..O.%&X-*#++@& o @ .Oo#@# +O",
"++#..OO+oO.OO@O..O-*#+@+.+OOo.# ##@*#+O..+.$ #o%.% ..o +-=@X#Oo..+++OO&#-*#+o%@$O..oo.. oO@@O+",
"@ #o.O+.+o  .%...o.-*#+o#O...o.@@#-=+Oo..O $..#.@@#@O.o++*#@#OOoO.+O@@@-*#+.# o#+.OOO.. . XX%+",
"OO#OoO++++++o$  o.#.-*#+# OOo..$@o*#OOO..#o&o#.#.@O$oO..+-= %X.. +O @O-*#.%@.O.%#OO.O. @oo@OO#",
"+o#+....O +++o@+.% .o-*#++@OO @$@-= %#%o.&@#@$.@.%o%@+% oO*#O #+O.%.+-*#++o@@@%O o.+O. ...#..+",
"+o#OOO.... +++X  +oo@O-*#+.X .$++*#%#.oX%@X%%  #&#@@#%oO o-=oO +   o-*#+++OO %$@O.+..ooOOoX ++",
"OoX. O+OO  ..+  OO+.@..-*#++# @% =#+$#.XoO o#...%@o o .o@+-*%#@ @.+-*#O+O....O@ #O..o@ oO #o.+",
"Oo#o.oOOO ..##@Oo+. oO+#-*#+o. %.-*#+%X@ o.@#...#.@#oO@ @-*#+  .#+-*##oO..o..o##$@  @.OoO+@Oo.",
"OOo#.. .O O#OO@OO   #.. .-*#++.# +-*#+@.@%@##O O#+. ##X+-*#+% ++.-*#+# oOO..O+#..Xo@oO O. +o++",
"Oo@%.o o.X$o..%OO+o@@.o.##-*#+  @ @-*#O@o.@X%Oo.#+OO &&-*#+@# O.-*#.oOo+.O.OOO@.@o%&oOo.. ++.+",
"OOoX#Oo#@oo@ .%OO++@ .O#X+O-*#+oO+ O-*#.Ooo#%OOo#....#-*#+o.O +-*#+  #o.+....o#o@o.oXOOo.#O++O",
"+O.% .O&oo..# O#.OO%@##.#+O -*=#++  @-*#oOo#%oOo+..O#-*#. @o+-*=#++ #O@@o+++O# @ ...o$. @#.O++",
" @@@#$$ @o .  @%.@OO&#.O#ooo@+-*=#++  -*#o.O-===-+.@-*#@# +-*=#++oo.X+.O##O++# O+Oo.o@#@#%#@  ",
".OOo%@%%#XX$%Oo$oO#@O  #%#OO.  +-*=#+O#-*#+-****=-+-*#@ .-*=#++ #.O@.ooOO$% .@.O  @#$##@#+  ++",
".O.OO.##@+oO$X#$X@%#OO.O.Xo o+%@@+-*=#+ -*#**;***=-*#.+-*=#+.  O. oXo+oO+XX@@ @@#O.@ooX.o...o+",
"......oX@oO.O#@%@O#X##@@##X@o@O.@OO+-*=#.-**;****==#+-*=#++o ++ ..X$%@@#%$@++ ++++o#o%. o.O++.",
"..ooooOO%@# .+.*=#O  .oO+#X$X#@#$@. O+-*=#-*;****=--*=#o+. X#   %@#XOoo## +-*=#+++o@X.O.@O. +O",
"o.O ...O.#@ #Xoo-*=#...o+@#%@...#@@X#@@ -*=******==*#oo$@##%%++.+ @X...%.-*=#++#+++#%....OO ++",
"OOO.oo..OO#.%O.o@+-*=#+oO@+oX#X#.ooo +o@@.-*;****=-O#X @O.Ooo# +#O.% Oo-*=#+++.. .%o+Oo..ooo.+",
".O.O. oOoO.#oo.O. o.-*=#Oo.oo# @@.OOOo %-*==****=-*=#OO@@O.oo+O% .+@O-*=#++.OOoOo$@oo++Oo.OO++",
"oO.+O.o ..#.# . o+oO@.-*=#++#.#@#XXX%.-*=#+=*;**=#+-*=#o%%#@@  +@ .-*=#+o@@ @@@ & #OO.O++.. O+",
". oOO..Oo#..o%ooOOOO+.o.-*=#. ###. .-*=#++-*=**=-*#++-*=#++.@@@@o-*=#++oOOOO+. $@.+#..O.++. ++",
"O. o.OO.@o++O.@OO.###@@%X.-*=#++%O-*=#++O-*#+---+-*#+O.-*=#+ .+-*=##@#@    +.O@. o..#o....+oO+",
"O....O+ O++@@   ##%..o. @ O+-*=#-*=#+.oO-*#+#*==#.-*#+O#@-*=#-*=#++%#@oO.O#@ @#%%$@+o#OoO.++OO",
"O.oO$#@@  ###OO+ @..O+..@&o .+-*=#+OOo.-*#++*;**=+ -*#+O @+-*=#+++.%O @#@@oX%...@#&$X#@#$O.o++",
"@#%#@#O.OOOOO..+ +#@OOO.o#@@.OoO@+OO.+-*#+.+*;**=+@ -*#+.. @%o.O+++@o. #o##.X.OOO..o@..##@@X  ",
"OOo.##%OOoO.O...@+++#%..#oo@oO. ##..@-*#+@O+****=+O#O-*#...X$.Oo++OO@o.%$Oo.X.o +.Oo #X##oooO+",
"OOoo#oo@+O.O.O. o.O+++@ %.. @ o&%o# -*#+X..++**=+OOO#O-*#.@ #X. o++O%O@+.@@ .@.  +Ooo# @$.OO+O",
"OOO.$O. @oo.+Oo#O@.+OO+ #o .@O.@o %-*#+ .o.+; ++=oO+O#+-*#@O#@.OOOOO@XOo.+.O@X.oo+++#..O# @@O+",
"OO..#OO .##.o++#..@o  oO  # #..@#o.*#+$@.+  +;O=+O@o X%+-*O%&#.OO+###.@o+++++#oo#O  O...#. o++",
"O.O@.ooo +o# O+ +O...O %.++%$. #%Oo*# %.o..o @. O+...OX#-= o$X@.#@OO.@.OO.OOO O. $O+O...o%.o.+",
".OO%oOOO.oo #@o@++OOO..@o+O+o@ X%#+-=@###.O..X.#OO++O.@.*#+@%%%$ O+O+%OO..o.O%O##o@+O++oO#O+oo",
"O. $o.o.O. @ .@. +O Ooo&oo  X#@++.%.*#+@%@ o@%o@@oO.+ O-=+%o .%#$@o++XO#  @@oO#O+.#@ O++@@Oo+O",
"O..#@oO.O..o@.###++o...Xo..#& @#+O##-=+@#@@$%#.##%X%# +*#O@@@#%o#X@.O%@.o.oo&%@O+O.o@.O++ +O++",
"OOo# o  O.Oo #X..%o..+%o@O%.   X + #@*#+O%oo&@ X@oo%.O-=o   X#O.@O%#.+X.#Oo#@ $ OO+o # .O ++O+",
"+ oX.Oo@ O.oo.X@@.@OOoXO#Xo .Oo@   ..-=. #OO#$#&#..#o+*#+O#$o....OO$%+@+O@$@.OX#oO..o.@###+OO#",
"  %O@@oo ..O..#O.  X%+ %%+oO@ .o #@+++*#+oX %+% $O%.o-=+O@## @.O.oooX@@o$@oO@ % @O.OO..O.o%X#+",
"+O@++ @@@.+OO@....  O@ .+++++.oo$#+ O+-=+O X@@O@#X  +*#O.@.##oo@#.O+O #X.+OO+.@$@.+.OO...+X@++",
"+.##.+.  +...%OOoo.o%#O+++O+OOO.X+. .O+*#+Oo%.. %+oO-=+oo@o.#..O. ooo+. @.O..OO# +O...O.o@@@o+",
"O.%.##O.@OO.@XO.+OO XX.+O..OOo.% +O+#.+-=+O@X o %@++*#+o$.. .#....  .+O #@o..o.%@+O+oO+# O@O o",
"+O#.O+#O #o#.@ OO+#.+@ooOO..O+#. @.o Oo+*#O@@%XX@@@-=+O.&%  .OXO.+.o+.o%++#.O+.#o#. O+%+++@o+.",
".O#OOOO#o.@#.@o.# ++o#.+oO.OO@@.o. @# #@-=+oO. O  +*#. #%o#%.O%#.+OOOOo oO.@@OO#o.@@.@.OO+ O.+",
"O.#..o..#%.@XOO%#..OO%.O+.O..%..#%#Xo@O.+*#o+O...#-=+..#.X%&$OO%....OOO@.o..#%..#oo$%OO.+O@OOO",
"O@OO..o o.#o$$%$$##@#@# #@  @@%Xo..o  #  -*o.+++.o*#+O% o.o.#&#X$##@# @ %#@@##%X%.#o#@## +. .+",
"OX.+O.++.o #$@..o  oO%+.O@.  +++.o . O.@.o.#O ++O$O+O#++.o@OoO#.#%o.+++@O@.+O.+ #% .@O.+.Oo#+.",
"O#@o  oO++oX&o.O.+ #o% +..$% X.+++o @..@.+ $..@+O#@o XoO++ooo..$o X@.++#..@o  oO  o #..O.+o$O+",
"O#...O o.O# @@#.o..o %oO++#..@ .O+. @o .%.#% ..O+ #.#O o.O.@Oo %#.#o O+ +O...O o.O# %. OoOO#.O",
"+@OOO..O% o.oo #@.O..Xo.O +OO.#Oo+..oo. %.@#. ..O @O@..Oo+o..o# @o.#. .#+++OO..Oo+o#& Ooo.+#OO",
"O#O.O..@#o o .o.## OO%oO@oOO+..@.ooo .o. XXOOo.OOo #O..O.o@o.#o.@##.@o.@Oo++O..O.o o&%.+.  @+O",
"#. o.O#..+.@@.oo.o@..%@%#o oO+..#+. @.O##%X..o@..o#@#@...+o $.oo.o@ X%@#.o O+O...+.@@.#O+O .@O",
" .oo##o..O+  .O.@Oo@O% &.ooo.O..#O XX# + O#@Oo  Oo%OO.%##@ @%OO.@O.@o$ XOoooO+o..O+  .O %++o O",
"@..#X.O....@o....O.#o##  @@.X# @##.@o..O++@$o.. .##O.OO....$%####OO@o %X.... .+....@o...# +. +"
};
