/* XPM */
static char *result[] = {
/* columns rows colors chars-per-pixel */
"125 93 16 1 ",
"  c black",
". c #310820",
"X c #491431",
"o c #611431",
"O c #1C0414",
"+ c #791C35",
"@ c #902431",
"# c #A82D31",
"$ c #C04135",
"% c #D44939",
"& c #4D5118",
"* c #3D3514",
"= c #2D2410",
"- c #494114",
"; c #1C1408",
": c white",
/* pixels */
"                                         ...                                    ...                                          ",
".XXX.....X.......oO........X.....XXX....XoX.oooooooooooooooooooooooooooooooooooo.Xo.......X.....XXX....XX......XXXX....XX....",
"+oooooXXX..XX.X.X+O...X.XX..XXXooooo+ooooX.o@@#@o#@oo#@##@#@#o#$oo#@$@#oo@#o@#@@o.Xo.X.XX..XXXooooo+oooooo++##@@@@ooo+++++ooo",
"+++++ooXXXXXXXXXX+O..XXXXXXooooo+++++oooX.+@@##@#@##$##@+##$###$#$##@+#$##@#@##@@+.XoXXXXXXXXoo+++++oooo+@@@@@@@@@@##@#@++@++",
"ooo++ooooooXXXoXX@O..XoXoooooooo++oooooX.+@@###@###+#$##@@oo@@@#+###$#$#+###@###@@+.XoXXXoooooo++oooo++++++++++@++#@@#+@@@+++",
"++++++ooo+oooXXXX@O..XXoooo+ooo+++++oXX.+@+#+#######@#$$#o$$o#####$##$#@#######+#+@+.XXooooooo++++++++@+++++++@+##@@@@+++@@@@",
"++@++#+ooooooooXo@O.XXoo+ooooo+#++XXX..+@+#########$$#@oo+$$+oooooooo@#$$#########+@+..XXXooo+#++@+++@@@+@@+++@@@@@@@@@##++++",
"@+++oXXXXXXXXXXXXXXXXXXXXXXXXXXXXX...++@######$$####$$o$$%%%$$%%$$%%$+$$####$$######@++...XXXXXXXXXXXXXXXXXXXXXXXXXXXXXXo@@#@",
"@@+X    ..........................+++@@##@#####%+#####o$@@@@@$o@$o@$o@#####+%#####@##@@+++..........................    X###@",
"#@#X.++++++++++++++++++++++++++++@@#########@##@#####$o%@$##@%o@$o@$o#$#####@##@#########@@++++++++++++++++++++++++++++.X####",
"@@@X.++o@@+++@@+++@@+@+++#+@##@@@@#######$#$$####$$###o$@#$$@$o@$o@%o$###$$####$$#$#######@@@@##@+#+++@+@@+++@@+++@@o++.X@#+#",
"+++X.+++@+++@@++@@+@@@++@@@@####@#@######$#@%+$#$#$###o%@#$$@%o@%o@$o####$#$#$+%@#$######@#@####@@@@++@@@+@@++@@+++@+++.X@++@",
"@@@X.+o+o++@@@+++@+@@@#+@@@@#@#@%+@@#@##$#@####$#$$$$$+%@###@%+@%+@%+$$$$$$#$####@#$##@#@@+%@#@#@@@@+#@@@+@+++@@@++o+o+.X@#@#",
"@@+X.++++@++++++@@@@+@+#@#@###@@########$##$$#$####$$$#@#$#$#@##@##@#$$$$####$#$$##$########@@###@#@#+@+@@@@++++++@++++.X@@@@",
"@@@X.+@++++++++@+@+@##+#@##@@@#@@##@#@##$##$##$$$$$##$$$$###$$#$$$$$#$$##$$$$$##$##$##@#@##@@#@@@##@#+##@+@+@++++++++@+.X@@@#",
"@#@X.+@@+++@+@++@@#@+@#@@@@@@#@###@#@$#$##$$###$$$$$#$$$#$$$$$$##$%$#%$#$$$$$###$$##$#$@#@###@#@@@@@@#@+@#@@++@+@+++@@+.X###@",
"#@@X.++++@++@@++@@+@@@++@+@++##+##@$@####$$$$$##$$$$#%#$$$$$##$##$$#$$#$$###$###$$$$$####@#@#+##++@+#+@@#@+@@@@@+++++@+.X####",
"@@@X.+@+@++@++@+@@+#@@#+@@#@+######$#@######$$#$##$#$#$$####$%$####%#$$#$##$$$$$#$####$$#####@##+@@#@+@+@@+@@+@++++@+++.X####",
"##@X.@###$#$$##$#$$$%%$%%%%%$%%%%%%%$%%%%$$$%%%$%$%%%%%%%%%$$%%%$$%%%%%%%%%$%$%%%$$$%%%%$$%%$$%%$$$$%%$$$$$##$$#$$#$$#@.X@###",
"#@@X....................................................................................................................X@@+@",
"@@@@@@+X..++++++++++++++++++#.+++++++#+++@@oo#@@#++@++++++++++ooooooooooXXXXXoXX@O.Xo+@@@++++@.@++++++++++++++++++..X++++++++",
"+++++++X..++#@@@@%%$$#@####$$.++++++++++@++o#@$#@@@@@@@@@@+oooo++++oooXXXXXXXXXX@O.Xo+++++++++.$$#@@@$X@@@@$X+@+@+..X++++++++",
"@@++++@X..+++@+@%@@#@o@@@#@$$.oo++++++#++++X+++++$++$##+oooooooooooooXXX..XX.X.X@O.Xoo++++ooo+.$$##@@$X#+@++X@@@++..X@@+++ooo",
"#@#####X..+@+@+@%@+$@X##@##$%.@#$$$###@@##@@#@@@@@@@@@@@@@##$$$###@$@@@@@@@##@@ooO.X@@##@+++++.%$#@@#@$X@@@X@+@+++..X##@@@###",
".......X..+@@@#@%@+%@X@@@#@$%...........................................................OOOOOO.%$$@#@@#+X@X@@@+@@+..XOOOOOOOO",
"@##@@@@X..++@++@@$##o##XX@#$%.+@++++++#@.OOOOO..XXo+@@+@+++o#@@@@@@@@@@#@@$##@++o@@@#@@@###@@@.%$$@@###X@X$++@@+@+..X@@@@@@#@",
"+++++ooX..++@%#++@@#oXX@X@@$%.X..XX.X.X@.OOO..XXo++@++ooo+oo++@++@#@$#@@@@@@@+++oXo.Xo++++ooXX.%$$#@#@#X@@%@@@@@@+..X++++++++",
"++@#@##X..++@%+$%%$@$%%@X##$%.oXXXXXXXX#.OO.XXo++++++++oo+oo+++@@@+#@@#++@++++++oooXXoXo++oooo.%$#@@#@#@X$@+@@@@++..X+++++#++",
"@@@+#@@X..+@+%$@+@%o@##$o#@$%.oooXXXoXX#.O.Xo+@@++++$+@o+ooo@@@@+++@@@@$$++++++++ooXooo++++ooo.%$#@@@#XX@@@$@@++++..X@+@@o+@@",
"@+++@@@X..++@+@#@@$o@@@##@#$%.o+ooooXXX@.O.o+@@@++#++@+o+ooo++++$#@@@@@@@@@+++@@+++ooo+@++#+oo.%$#@#@X@@@@##%+@+++..X++@@o+++",
"+##@@@@X..+@@@@@@$@@X@@@@##$%.oooo+oXXo@..X+@@@++@#$@@++ooo++$@@@@$#$$@@@+@@@@++@@@Xo+++++++o+.%$@#@X@@#X+###$@@++..X++@+@#@#",
"@@@####X..++@++++%@#X@#####$%.+ooo+ooXo@..X+@@@@@$##@+++++o+@$#$@@@@+o@@+@@@@@@@##@oXo@++++@+o.%$#@@X#@X##%@@%+@++..X++@@+#@#",
"#@@@@o+X..+@@@+##%#@X#@#@@@$%.oo++o+ooo#..o+++@$$+##@@@+ooo+$#$$$$#@o@@@+++++@##+#$Xo$@#@$++#+.%$###X@@@+$#@@$@+@+..X@+++#@##",
"####@+@X..+@@#@@#$@@X@@##@#$%.+++++@+oo#..o@@$@@@++@$@@@o+++#++o@@@@##@#@@###@@@++@oo+++@@++++.%$$###X@#@#@+%#@@++..X@@+@@@#o",
"@#@####X..+@+#@+$#@@#.#####$%.$@#@#$+oo@..o@@##@@$+@@@@+o++++@@@#@@$$#$@@#@#$$@@#+@o@$++@#@+++.%$###@@+++$$%@#@@++..X@++@@@+@",
"@@@@@@@X..+@@@@#%%%$+o####@$%.+@@@@@@oo@..o@@#@$@@#@@@++o++@@++@@@@@@$#@#$@##@#@@#@#o#@#@#@#++.%$#@#@#@#@#@@@@@@@+..X+++@@@@o",
"@@#@#@#X..+@@#+@@@@#@@####$#$.$@@$@#@@@#..o+@@@@@@++++++oo+@@@@$@@@@#@@@@##@@@@@@++++##@@#$+++.$@##@#@@@@@#+$+@@@+..X+++++@@@",
"@#@@@+@X..+++++++++++++++++++.++@@#$@@+#..ooo##@#@$++@o@+++@@@@$@@@#@@@@@@@##$@$@#+++$$@#@@+++.#+++++++++++#++++++..Xo@@@+@@@",
"#@@@++++X....................o$+#@@$@@+#..Xoo@+++++#++#@#+#++##+$$@+++++@@@o@$####$@o@+++@@@#$o....................X+#@#@#++#",
"#@@@@@@X..+@@#$#$%%$$%%$%$%%$.#$@@@@@+o#O.Xoo+o++oo+@+++++++@##$@@@@@@@+@@o+@@@@###++o@@+++@#$.#$%%%%$%%%$%$$$+##+..X+++@++@#",
"@++@@@@X..++$o+@@@@@#@#@$o#$%.#@++@@@+o#O.XXo++ooo+o+++++o@@+##@++@@@@+@@@##$#@@@@#++@+@++@@$#.$$##@#@#XXXX@#+@#@+..X++++@@+#",
"+@@+++@X..+@$X@+@@@#@@@@%X$$%.#++@@@+oo@O.XXoo+ooooo+#++@o++@@@+@@+++@@@@@@@@@##+++oXo@@++@++#.%$##@+@Xo@++$@@@@@+..X++++++@@",
"+++++++X..++$X+@@##@####%X#$%.+++@@@+oo@...XXoooo+ooo++++X+++++++++++++$#@@@@+++@@@oXo@@+@+$++.%$@#@+#X#@@+%@@@@@+..X++++++++",
"+++++++X..+@$+X@@#@@@@#@$o$$%.+++++++oo#...XoXooXXoooo++oXoo++++++++++@++#@@#+@@@++X@+++++++++.%$#@@##X@##+$@@++@+..X+++ooo++",
"+@@@@@@X..+++%X@@@@#@@#@o##$%.+++@++ooo#...XXXXXXXXXoo+++X+oooo+@@@@@@@@@@$$@$@++@+oo+++++++#+.%$$@@#@#X++$+@@@+@+..X+++++ooo",
"XXoo@@+X..+@@$+X@@@#@@#oX#@$%.XXoXooooX@....X.XX..XXXoooo.+oooooo++##@@@@&oo+++++ooX.oooXoooXX.%$$@@#@#X.#$#+@@@@+..Xoooo+ooo",
"X......X..+@+@%+X##@@#oX@###%......X..X+.OOOOOOOO.OOOOO..OOOO.XX......*&X*=.&=X-*.&-X*.=...o...%$##@@@@X++%@@#@@++..XO...OOOO",
"OOOOOOO...+++@@%+X@@#oX####$%.OOOOOOOOOOOOOOOOOOOOOOOOOOOOOOOOOOOOOOOO=*==-*;-*&=&*=-;*O*-;O=O.%$###@#@X.#$#@++@++...OOOOOOOO",
"###@@+++..++@@#@$+X@oX@@#@#$%.#@@@@++oooooooo+@@##$$@+oooooo+@##$###$###$$==@==-;=;=&*@=@=@@=@.%$###@##X++%@##@@++..o##@@@@@@",
"+++++ooX..++@+@@#@+#X@@#@##$%.+++o+++ooooooo+o+++#$#$##oooo++++@+++++oooXXooXo=*=&*X==++@+++@+.%$$@###@X.#$@@@@@++..X@@@@+ooo",
"oooooooX..+++@@+@+#@#X@#@#@$$.+++++++oooooo+++##@@@@@@@+oo+oooo+++++ooXXXXXXXXX=@O.X=+++++++++.%$#####@X++%@@@+@@+..X++++++++",
"++oo++oX..+@@#@+$@@@#X@@@#@$%.++++++oo+ooo@@+#@@$++@++oooo++++oooo++ooooXXXXXoXX@O.Xo+@@@++++#.%$####@#X.#$#@@@+++..X++++++++",
"++@++++X..++@@@@%@#@#o@@#@#$%.#+@+@@o+ooo++++@@@@##++o+ooo+++++++++++ooo+oooXXXX#O.Xo+@@@++#++.%$##@###X++%##@@+XX..X++@@+@@@",
"@++++++X..+++@+@%@@##o###@#$$.+@++@@o+o+o+##@@@@@@@@@o+oo+++@@+++@++#+ooooooooXo#O.X+@@@++@##@.%$@@###@@X$++@@+X$#..X@@++@##+",
"+@++++@X..+@+@@#@%%%$#@@#@#$$.@@++@+@+ooo+@@$###@@@+@o+oo+o#$+@@++++++o+ooo+ooXo#O.X+@@@@@#$#@.$$#@##@#@X%@@++X$++..X@@@@###@",
"#@#@#++X..+@+@@@@@@@@@@##@@#$.@+++@@++o+o+@@@@++@@+@@ooooo+#$@++@++++@+oo++o+ooo#O.o+++@#$+##@.$#@@#@@#@X$@@++X#@+..X+@##+##+",
"+++@@++X..++++++++++++++++++#.@@@++++oooo#$##@++@@++++++oo+$#++$@#@#++#+++++@ooo@O.o@@#@@@++@$.@++++++++++++++.+++..X#@@@++@@",
"#@@@@@+oX....................o+@@#@##+oo+@#@#$#@@@@@@+++@o$@@@@+@@@o@++#@#@##o+o@O.oo@$#@@#+@@o....................Xo##@@#+@@",
"@@@@##@X..+@##$$$$%#$$$%%%$$+.+##@@@++o++@@@@@@#$@@@@@+o@o#@@@@+++++++++@@@@@@+o#O.oo@#@#@@#@@.@$%$#$%%%%%$$#$##@+..X#@#@@#@#",
"@@+@##@X..o@+@@@@+$o@@####@$$.#@#@#@+ooo+@@#@##@##@##@+o@o@@o@@@@+++@@@#@@$@#@@@#O.oo@@@@@@+++.$$@@+$@@@#+@@++@@+o..X@@@@@++@",
"#+@@@@@X..o+@@++@@@+@@@#$o#$$.+@#@+++o@oo$@@#$#@#@@$#+++@++@@+@@@++@@@@+#@@##@@+#O.X++##@#@#++.%$#@#@++@+@@@++@++o..X##@#@#+#",
"+@@@@@@X..o++@@+++++++#@##@$%.++@@+++ooo++@@@$##@@#@@@++@+o@o#@@@+@@@#@++@@@#@@+@O.XX+@++@++#+.%$#@@@@@+@++++@@@@o..X@#######",
"+@@++@@X..o++++oX...XX++@@#$%.@++++@++ooo+@@@@@@@+@@@@o@@++##@#+@@+++@###@@@@@+o#O.Xoo+o+@@@+@.%$@##@#@+@@+@+@++oo..X@@@@###@",
"@+@++@@X..o+@+@oXXX...Xo+@@+%.++++++@+ooo+++@@@@+@@@@+o#@@o@#@$@+@++@@##@++@@@+o#O.Xooo+o++@++.%$@$#@@@+.Xo@@@++oo..X##@@@@#@",
"+++++@@X..o@+#+ooXXX...X++#$%.+$++@+++@o@+@@+++@@@@@@o+@$@o++++o@@++@++#++@@@+oo#O.XXoo+o+oo+@.%$#@@@@@X@@$o+++++o..X@@##++++",
"+++++++X..o+#$++ooXXX...X+@+%.o+++++ooooo++++++++##@+oo++oo@@@+o@@+@+#++++@@@+oo@O..XXoo+o+o++.%$#@@+@+@X+o@+++o+o..X@+++@@@@",
"++o+++oX..o+##@+oooXXX..X+#$%.oo++oooooo++++++++@++#oX++@oo+++#+++++++++++++++oo@O..XoXooooo++.%$@@@@@+X@$+o@++o@o..X#+@@@+++",
"oo+++++X..o+#$#++oooXX...+@$%.oo+++++oooo+@@@@@@@@@@oXo@@+o@++++++++++#+++@++ooo+O..XXXXXXXooo.%#$@+@@+.$+X%+++@+o..X@#@++@++",
"oooXoooX..o+@$#@++oooXX..+@$%.Xooooo+oooooo++##@@@@+oX++++ooooXoooXoooXXXoXooooX+O...X.XX..XXX.#$+++@@@X+X.$@++++o..X+++++ooo",
".OOOO.oX..o@+#$#@++oooX.X#@$%.OOO...OOO.XX......XXXX.O..XX....X......o......X..XoO........X....%$@@@+@@+X@$@+@o+oo..XOOXX....",
"       O..oo+@#$#@+++ooXo@+$%.                                                   O            .%$@@@+@@+++@@++++oo..O        ",
"@@@@@@@X..o+@+@#$##@++oo+@#$%.+oo++o+oo@ XX@@@####@@@@@@@@@@@##+++++@@@#######+@###@@@@@@@@@@@.%$+@@+@@++@@++o@ooo..X########",
"XXo+o++X..o+@+++@#$##@++@@@$$..........- O.XXoo+ooo+oooooooooooooo++@@++++++++++oXXXXoooooXX...%$@@+#+@#@++@@++ooo..XoooooXXX",
"oooX+ooX..oo++o++++++@@++@@#$.X.....X..- =.Xooooooooooooooo@ooo+++++++@oo+ooooooooooXXXXooXXXX.$$@+@@++@+@+++++++o..XooXXXXoo",
"oXXXoooX..o+o++@@+@oo@+@++@@$.XoXXo....+ =.Xo+++oooo@o+o++Xo+++++++++++@@ooooooooooooooooooXXX.$@@@@++@++++@+++ooo..Xooo*oooo",
"X++ooooX..oooooooooooooooooo@.XXXXoo..X- -.Xo+++=o@oo+oo++XoooXX++oooooooooXXX=oX-ooooo+oo@oXX.@o++++++++ooooooooo..XXXo=XXoo",
"oo*+++=*X....................ooXXXooX.X& =.o+oo-Xo+*o-XXo-o+*+oXXXo+++o*oXooooXX*++-o+oooooo-oo....................X*o*oo++o*",
"+oo****X ;--&&-*&&&---&&&&&&- X-o-Xo*.*- O*o+o-oo++-*XX-oo*+**--*XX-.-=*Xoo=*oo=****X*+oo-o+*X -&&&&&&---&&&*-&---; XX****Xo=",
"o**oX**X ;;-**--**XX**-*-**-& ---=*-**-&;*Xo=-*--X+**oo==-*****+***X**-*X=***o+-X*-X--+**-oo@o &-**-*-**XX**--**-;; X***o***+",
"*o**o**= ;;--*X-o**X**-oX*--& ---*=X*--& =*o***oo-*o*X**-*=**--.*-**--o-o*****o**-*--**--****= &--*Xo-**X**o-X*--;; =*o*==***",
"**X****= ;;;*****X****;****;& -**-****;&;=**-*X***X**********-.***.**********-****X-*-.-****** &;****;****X*****;;; =********",
"*******= ;;*;-=*********=-;*& =**.*=-;*-;****-*X********X******.********o**********-=-**X**=-* &*;-=*********=-;*;; =***.****",
"*=**=*== ;;;****  *=*=;-***;& ****-***;*;-;**-***=**=*=*==*=*****=**=*=*==*=****************** &;***-        ***;;; =*=*==*=*",
"X==***== ;;;*=**&= **=;**=*;- =*==**=*;&;*=;==**X==***=**=******X==***=**=*****==**===*=*=*;*- -;*=*   ;;;;==;=*;;; =*=**=***",
"=*==*=*= ;;;==***&= =  =*==;- =**;=*==;*;========*==*=*==X**X====*==*=*==X**X==***====*X=***== &;==   ;====****=;;; ==*==X**X",
"===*===; ;;===*===&= = ;*===- ====;*====;===;*=====*===*====*======*===*====*========X====*=;= -===   ;====*&&&;=;; ;==*====*",
"=*===;=; ;;*====*==&= *====*& ========**;;;======*===;===========*===;==========;*===;====;=*= -*===   ;==*&&&;=*;; ;;=======",
"======;; ;;*======&=&= ====*- ========*=;=*===========;;==============;;===================*== **====  ;==*&&;==*;; ;=;;=====",
"=======; ;;*======&&=&= ===** ====;===*=;=-*=;;===============;================*;=======;====; &*=====  ;*&&;===*;; ;========",
"=======; ;;===========& ====& =========*;*=-=;;========;=;=;==;========;=;=;====;====;======-= -==;==;=  *&;=====;; ;==;=;=;=",
"==;=;==; ;;====;=;=;========- =;;======*;;=;=;====;=;==;====;;====;=;==;====;;===;====;=;==;== *===;==== *;=;==;=;; ;==;====;",
";=;;;=;; ;;;;;;;=;;;=;;=;;;;* =;;==;;;;*;==;;=;;;=;;;=;=;;;;;;;;;=;;;=;=;;;;;;-===;;;=;;===;** -;;;;=;;=;;;=;;;;;;; ;=;=;;;;;",
";;;;;;=; ;;==;;;;;;;;==;;;==* ;;;;;;;==*;==;=;;;;;;;;;==;;;;;=;;;;;;;;==;;;;;===*;==;;;;;;;;;; *==;;;==;;;;;;;;==;; ;;==;;;;;"
};
