/* XPM */
static char *result[] = {
/* columns rows colors chars-per-pixel */
"80 56 13 1 ",
"  c #4D5175",
". c #3D4165",
"X c #6D7198",
"o c black",
"O c #313555",
"+ c #202041",
"@ c #7D7FA8",
"# c #080818",
"$ c #5D5D84",
"% c #8890B8",
"& c #181831",
"* c #98A0C4",
"= c white",
/* pixels */
"       .   XXoO.     XX+  ..o XXXX@@@@XXXXXXXXX@@X o   ..O...O#  ..OO O ..oX$.  ",
"$ $ $$ X $$X%#O.     @@+ $Xo X@XX@@@@@@@@@@XX@X@XXX o$$ ......#$    .  .$.oX$  $",
" $$$$$ .X$XX%+. X.. X@@+$$o X@XX@XXXXX@@XXXXXXX@@@XX o$  $ $..&X$O $ .$ . #%$.$ ",
"$$X$oooooooooooooooooooooo XX@@@XXX@XXXXXX@XXXXXX@XXX oooooooooooooooooooooo$$ $",
" X$$o %%%%%%%%%%%%%%%%%%%XXXXX@@XXX@X@@XXX@XX@XXX@@@@X %%%%%%@%%%%%%%@%%%%$oX$$$",
"$ X$o XXX@@@@@@@@X@@@@@@@@XX@@@@@X@@XX@X@@@XX@X@XXXXXXX@@@@XXXXX@X@@XX@XXX o$ $$",
" $ $o X@@XXX@@X@X@@XX@XXXX@XX@@X@X@@XXXX@@@@@XXX@@@@X$XXXXX@XX@XXXXXXXX@@X o$$ $",
"$ XXo $XX$XXXXX$X$X$X@@@@@@XXXXXXXX@XXXXX@@@XXXX$XX@XXX$$XXX$XXXX$$$$XXXX$ oX X ",
"$X$Xo                                $    $  $     $$         $$       $   o$ $X",
"$X XXooooooooooooooooooooooooooooooooooooooooooooooooooooooooooooooooooooooo$ $ ",
"X$ $$ XXo$%%%%%%%%%%%%o @XXX@X@XXX@@X@@@@X@@@@@@@@@@@@@@@O%%%%%%%%%%%%Xo..o%$$ $",
"$ $$$X@Xo X@XX@  X@X@*o+  +.$$$$$$$$$$$$$$$XX@@@@@@@X@@X@O*XX @XX @X@X o $&%$$ $",
"$XX$X@XXo$XXX@@X XXXX%oOOO#+OOO&+OO.$$$   $..++&&#o#&+O $O%XX XXX @X@X o .#%X$$$",
"$$XXXXX@o XX   X   X@*oO X.X$X@ $XXXXXXXXXXX$$$   .+#oo##O%X@X X XX@XX o .#%X$  ",
" $$XXXX*o $X%XXX$X$XX%o @$@$@%@$%%%%%@%@%@@%@@@@XX$ &o*@XO*XXX $XXXXX$ o$ oXX$ $",
". $ $$X o XX@X%XXX@X@%o @%XX@%X%X@*%%%*%%%%@@*%@@@@$O#%%$O%@X $XX%XXXX o .#&X$ .",
"#&&#oooOo$XXXX@@$XX@@*o %@XXX%*%**%*%%%%%%@%%@%@%*@@ O@X@O*XX X@X@%XXX o  #o##oo",
"@%%%@O&.o $X@X%X$$XX@*o @$XX**%@@@@%%*%%%%%%%%%@%@@@$..X@O%@X$XXX%@XX$ o  oX%%XX",
"XXX@@%OOo XXXX%%X XXX*o @@X@%%@*%*%@*%%*%%*%@%*%@@XXX #o+O*XXX$X%@XXXX oOOO%XXXX",
".. XX@X+o XXXXXXXXXX@%o$@@@@*%@%*%%%@%*%%%%%@%@@@%@@$X+%XO%XXXXXXXX$XX$o$.o# ..O",
"+++. XO&o  $    $ $  $o@@$@%%%%%*%*%%%@%*@%*%%@%@*@@$ O%XOX  $   $  $  o@X .#+OO",
"@%%%%%%%oooooooooooooooX@XX%*%%*%*%%*%%%%*%@*%*%*%*@$$O%@O+++++++++++++oXX$X$XX$",
"$$XXXX@@oX%%%%%%%%*%%%oX%%X%%%*%@*%@%*%*%@*@%%%%%%@*$XO%XO%*%*%%*%%*%% o@@XXXXXX",
" X   $$$o @X%$X@@%$X@*o@%X@@*%X%%%*%%%@@**%%%*%%*%*@$.OXXO*@XX  X%XX$X o@X%$$$ $",
"X X   $$o XX% XXX% XX*o.@%X@@%%X%%%%*%%@@%%*%%*%%*%*@$.OXO%XX $XX@@X$$ oX@X%$$$ ",
"$XXXX $Xo$XX@ XXX@$XX*oOX%@@%X%@%%%%%*X%@*%%%*%*%*%@*$ O*O*@X$$XX@%XXX oO%X$$$X ",
"X$$X$X@Xo XXX% X@$XX@%o&X%@@%X@%%*%%*%%*%%**%%@@%%@%XO$O*O*@XX$$@%X@XX$o %XX@@@$",
"XXXX  XXo X@XXX@XXXXX*o#X%%@%@%@%%*%%@*%*%%%@%*%%@*%X.$O%O%XXX $X@XXX$ o@XX@XXXX",
" XXX  XXo XXX@@$ $XXX%o#X%%@%@%@%*%*%@%%%*%@%@*%%@*%X.$O%O*@XX $X%X$XX o@XX@XXXX",
"$ $$X$$ o$X@X@%X$ XX@*o&X$$X%%%%%%%%@%%*%%%@%@%%@@@*@$$.@O*XXX $X@XXX$.oX$@XXX$X",
".$ $XX$$o XXX@%@$$X@X*o& X$X@%@@%%%@@@%%%*%@%@XXX@*@X$ O%O*@XXX %XXX$ $oXX*X$$X$",
"&. .    o XXXXXXXXX@X%oo+  XXX@@@@@@@%@XX@@@@@@@@@X$$O+&XO%XX$X @XX$ @ o$$ $   .",
"@&++O.O.o  $  $ $  $ Xoo#+OOO. $X$$@@XX@X$$XX$.OO&&&&oooXO  $    $ .$  o.O..O+++",
"$@X@%%*Xooooooooooooooo**%%X O+++&oooooooooooo#O@%@@$$Xo&O+++++++++++++o*%%*%@@@",
" $$$X$@%oX%%%%%%***%*%o%%X@@*%%*********@OOX**@@X@@$X$ &*O%%%%%%%%@%%%$o*%@@@@$$",
"   X$XX%o XX@XXXXX@XX*o@X@X@X@$XXXX%%*%%%*+*XXX$@$@.X$$O%O*@X@XXX@$@XX o%@XXXX$X",
"$ XX $X@o @XXX$$$XX@X%o@X@@XX@X XX$XXX@%%*&%X X.X$@$$$ .XO*%XXXXXXX@XX o@XX$$$$$",
"$$ $$XX@o.XXX .   XXX*oX@@X@XX$X%*****X*@*&XXX$$$ O@X.$O@O*%@XXX XXXX$ o$X$.$ $X",
"$$$X.XX@o $X$ .    X@%oXX$$@X%X%$X@X@@@@X$&X%%$$$$$$$$ .XO%@XXX X%XXXX o  X@$X$@",
"X$OXXXX@o$XX%X..   XX*o$@@%@@@X$X X$X@@@**O@X@$$$$$ $. O@O@XXXX$ @XX@X o @@X. @$",
"X@OX@XX@o XX@%$..  XX%o$XX%@X@@$$$$ XXX@@*.@$X $$$$ .XO $O*@XXX X%XXXX oX$$$ XX$",
"X%@XXXX@o $XX*%$..$XX*o*%%X@@@@@ $$ $XX@XX.$$$.$ $$$ O#ooO*XX@XX%XXX@X oX$.$$$ X",
"@XXXXXX@o.XXXX@X XXXX*o$%X@XX@XX$$..  X$@@X $  $   .+&o *O*@XXX@XXXXXX o$.@%$X $",
"XXXXX$%@o X$XXXXXXX$X%o$$XXX@X$$$$$X. X@XXXO.OO&oo+ **%@XO*XX@XXXX$XX$ oX$X$X$ X",
"$ $%XX*@o  $  $  .    o$X$$XX$$@$@@@$.$XX@XoX***XX@@XX@$@O$        $   o$.$.   $",
"X  XXX*@ooooooooooooooo XXX$@%@X$$X@@$.$@@XoX**%@@@@@X$@XO+++++++++++++o$$.. X $",
"$X$XX*$@o$%%%*%%*%*%%%o.$ %$$X@@X@XX@X$ X$ o*%@X@%XX@$XX O%*%%@%%%%@%%$o  $X$$  ",
" $ X$$X$o XX@XX@X@X@X*o$X  XX@XXX$XXX$ $$  o*%X XXXXXX@@$O*X@XX@@XX@XX oOO..   O",
"&+&#oooOo$XXX $XX@@X@%o$.@ X@$XXXX XXX..$O.o*@@XX@$$$XX@$O*@XXXXXX@X$X oX$+#oooo",
"X$X%%*%$o XX@X $X@XXX*o$ $$ @$X$XX   X$ XO+o*@%@ X@@$$XX$O*XX  $$$%XX$ o$X$$$X$X",
"X$$@@%*Xo $XX%X $X XX*o@X $$$$$X$$X $X$$  +o*@XX%%@X@@XX$O*X  $$$$%%XX o$XXX$X$$",
"$X $$%*Xo XXXX%X  XX@*oX$ X$@X$$@XX   X$$O+o*@X%XXX@@@XX$O*X$$$X%%%XXX$o$ X$X $X",
"$XX X%*Xo$X@XX@%X $XX%o$X$  $XX$  $$ $@@ O+o*X@@XXXX@X@@@O%XX$$$%%XX@X o XX$ $X$",
"X$$$$%*Xo XXXX@X%X $X*oX$$$  $$ $    $X  O+o%XXX@XXX X$X O%@XX$$%XXXXX$o@X$ @$$ ",
"X X$X@*Xo XX@XXXX%XX@*o$$$ .   $$@$$ $ $.O.o%XXXXXX@ %$X%O*XXXX$XXX@XX o    $$ $",
"$XX$$X*Xo XXXX@XXXXXX%o.$$$ ...$$$$$ ....++o%XXXX@XX$XX@XO%X$XXXX$XXX$ o $  $ $X"
};
