/* XPM */
static char *result[] = {
/* columns rows colors chars-per-pixel */
"123 91 12 1 ",
"  c #C4ACCC",
". c #D9C4DD",
"X c #84658C",
"o c #EDDDF1",
"O c #9C7DA4",
"+ c #B094B8",
"@ c #553559",
"# c #6D4D75",
"$ c black",
"% c #3D2441",
"& c #311831",
"* c white",
/* pixels */
" . X . X . X .oX o X . X . X . X . X . X . X . X . X . X ..X .. X.. X . X . X . X . X . X . X . Xo. X . X . X . Xo. X . X .",
"O+O@O+O@O+O@O+O@O+O@O+O@O+O@O+O@O+O@O+O@O+O@O+O@O+O@O+O@O++@O++O@++O@O+O@O+O@O+O@O+O@O+O@O+O@O+O@O+O@O+O@O+O@O+O@O+O@O+O@O+",
"@X@@@@@X@@@X@@@X@@@X@@@X@@@X@@@X@@@X@@@X@@@X@@@X@@@X@@@X@@@X@@@@X@@@X@@@X@@@X@@@X@@@X@@@X@@@X@@@X@@@X@@@X@@@X@@@X@@@X@@@@@X",
" o @....oooo.....oooooooooooooo................................................oooo..........oooooooooooooo.....oooo....@ o",
" . X.##XX##XXXXXXXX###XXXXXXXXXXXXXXXXXXXXXXXXXXXXXX###############################################$#################$X.X .",
"O+O@o+.......  .... ..................................................................................................+o@O+",
"@X@#o#+  .    +. .+.+ .+ . .    ++++ +    +  + ++  +   +ooooooooooo+       +++++O+      ++++          + . +   .    +++Xo@@X",
" o #oX+++++++ ++++++.++++ +++++++++++++  + +       +.  +o..  + +.   # .+   +   .            +++ ++  ++O.+ + ++++++++++#o@ o",
" . @oX+++++++ ++++ +.#++++++++++.X    + +     +       .  +o.#o.#o.###. ..+    +  +   + ++  .    +     O +++++++++++++O#oX .",
"O+O@oX++++.++++++++++. ++ ++ + ++X++      + +  +  . .  ..+o #o #o.#+  ++..   ++  ++  +     .+  ++ ++    ++ ++++++ O+++#o@O+",
"@X@@oX+++  ++++++  ++  ++ + +++ +  ++     +     ..     + +o+#o.#o #++   + .++       +  +  + + +  ++++   ++ ++++++ O+++#o@@X",
" o @oXO+++++  +++++++++++ +++   +          .      .....+ +o+#o.#o #++   + .++       +  +  + + +  ++++  +      ++++++++#o@ o",
" . @o#+++.++ +++++++.+++ +.+++ ++++++++++  .+ +    + . ... +# +# +# .. .+ .  +    +          ++  ++++++ ++      ++ +++XoX .",
"O+O@o#+++.++ +++++++.+++ +.+++ ++++++++++  .+ +    + . +   ## ##+##++++++ +         +     +   ++  ++ ++.+ + + + +++ +X#o@O+",
"@X@@oXOO X+++++++++++++X+++++++O++O++OOOO+++++O++++++++++++++OO+++++++O++++++++++++O+++++++++++++O+++++++++++++++++XOX#o@@X",
" o #o##O#####@#####@######@###@##@@###@##@@########@#########@@########################@##@####@#@##@#####@########@@##o@ o",
" .oXo@@%%%%%%%%@@@@@@@@@@@@@@@@@@@@@@@@@@@@@@@@@@@@@@@@@@@@@@@@@@@@@@@@@@@@@@@@@@@@@@@@@@@@@@@@@@@@@@@@@@@@@@@@@@@@@@@$oXo.",
"O+O@o#+o%#+..+..............+@+ .$#X+++O++       +                 + +        +  ++   +  +++++$........ ....+....+#%o+#o@O+",
"@X@@o#++%@#..++++X##X+++ ++..#+ .$$#XOOX###X+++++++++++++++++++++++++++           +   + +    +#..    #.O.  +#. + ##%++#o@@X",
" o @o###%@@+++++O+++OX+++  ..#+ .$$$$$@@&&$$$@@@@&&%@@@@@@@@$@@@@###XXOOOOOOOOO++++++++ ++ +++#.. +++X. +++O#.+++##%###o@ o",
" . Xo#+o%## + ++.+#.+#O++++..#+ .$$#####@@@######@@####XO++++OOOOO+OXX###@@@@@$$@@@###XXOO++++#.. +++OX. ++#. ++ ##%o+#oX .",
"O+O@o#++%#@ ++++. O+OX+++++..#+ .$##OO+++XX++++ +OX++++++++++++++++++++++OOOOOOX#@@$$$$@@@@@@@#...+++++X#+#. ++++##%++#o@O+",
"@X@@o###%@#++O#+ .++#+O##+ ..#  .$#O+++++OO++  . ++.  .  ..  ...... ++++++++O++OX#@$# ++#######...  +++#+#. ++++OX#%###o@@X",
" o @.#+o%##++.OXX++++##O#++..#+ .$#O+ +.  ++  . ++ .. ....  . ...  .. .  +  ++++OX@$ ..  ++ + #...+++++#++.++++++X#%o+#.@ o",
" .oX.#++%@# +.+ ...+.. +#++..#+ .$#O+ .. +++ ..++. + ... .. .... ..   ....      +X#@..  .++  +#.. ++++++X. ++++  O#%++#.X o",
"O+O@.###%## +.. ++.#++ .O+ ..#  .$#O +..++.. ... .. ..... ..........   ....    +++#@X..   +.  #.. ++++#X+++. ++++##%###.@O+",
"@X@@.#+o%@#++++++ .#O++++++..#+ .$#O . +++.++..... ............... .... .. ...   +O#@ ..+   ++#.. +++#O++++ . +++X#%o+#.@@X",
" o @.#++%##+ ++++..O#  + ++..#  .$#O  ++ +.+....  .    ................... .. .  ++X@X+.+   ++#..+++#O++X+++ .+++X#%++#.@ o",
" . X.###%##    ++. +#++++++..# +.$OO++ + ++...... ...  .... ...... .... ...  +..+++X#@#########.. ++#++X++.++.+++##%###.X .",
"O+O@o#+o%@# +  + .++#O+ ++ ..#  .$#O   +++  ... ....... .............  .. ..   ++++O#@$$$$$$$$#.. ++#++++..+ .+++##%o+#.@O+",
"@X@@o#++%@#+ +++..++XX+++++..#++.$#+  ++++   .  ... .........  ... ......  ..   + +OX@$+.. +  #.. ++O#+++++ . +++X#%++#.@@X",
" o @o###%@#+ +++. ++O#+++++..#+  $O+   ++   ... .. ...... ........... .. .   ..   ++X#$.. ++++#.. +++++++... +++O##%###.@ o",
" . X.#+o%@#+.X++.....++++ +..#+ X$O + ++  .................. .... .... . ..  ..  ++OX#%...++++#.. +++++++++++++++X#%o+#.X .",
"O+O@.#++%@#+ .#X++++++++++++.$$$$@# + +   .. ............ .............. .. .. . + OO#%. .++++#.  ++ ++++++ + ++#O#%++#.@O+",
"@X@@.###%#@##+##############+#@$$#X++ ++ + ....... .. ........ ..... .... .... .  ++O#@... +++#O###################%###.@@X",
" oo@.#+o%@@@@@@@@@@@@@@@@@@@@#+#$X++ ..  + .....+.. ... ...... .. .. ...... ..  . ++O#@ . ++++#@@@@@@@@@@@@@@@@@@@@%o+#.@ o",
" . X.#++%#+....+.... ........#. %O++ .      +......... ..+............. ..... ...++OO#@..+ +++#+..............+..+#%++#.X .",
"O+O@.###%## .+ .+  .O   .+ ..#..%XO ..+     ...+.. .........  ........ .. ......  +X##@ + ++++#..     +X##O+   .+##%###.@O+",
"@X@@o#+o%##+.#++ +++++++.# ..#..@#O+..     .+.. ..........+..  .... ..........  . +OX#@ .. +++#..  +++XO+++ +++ +#@%o+#o@@X",
" o @o#++%## .#++  + ++++.# ..#..##++. ..    +..  ..............  ............     XO+#@...++++#.. ++O+#++++.+ ++++#%++#o@ o",
" . Xo###%##+.+#+++++ +++.#...#..#@O+.. .   .+. . .......+....... .....    ..  ..+ #+ #@.. ++++#.. ++++X+++ .++++O##%###oX .",
"O+O@o#+o%#XO+.#+++.+++++#+...#..O@++ ...   . .. ........+ .... . . .  ... .. . .+ X++#@..  +++#...+++++X++. ++  +##%o+#o@O+",
"@X@@o#++%#X++.+#+++++++#O+...#...@++  .. + .... . .............  ........... ... ++OX#@ . ++++#...+++++#X..+++++O#@%++#o@@X",
" o @o###%##O++.+#+++++#O++ ..# ..@O++ ..+  . ... ..   .. ... ....... ..   . ...   +OXX@.. ++++#.. +++++X++.+++++O##%###o@oo",
" . Xo#+o%X#++++.+#+++#O+++ ..# ..@O +++..  ..  ... . .......  ......... ... . +. +++#X%..  +++#..  ++++#X..+++X +#@%o+#oX .",
"O+O@o#++%@X+++++.+#.#O++++ ..# ..@#+ ++ .+ ....... .... ..........  . +...     . +++XX%.   +++#.. ++ ++X++.+++ .+##%++#o@O+",
"@X@@.###%##O++++++#.#++++++..#+ .@#O++++++  ..   .....    ........ ..  ++++  .. +++OX#%... +++#...++  +#X..+ ++++##%###.@@X",
" o @.#+o%##O++++ +++O#++++ ..#+  @##O+++++ + +..   +..  .   + ..   +++     + +  +++XX#$.  ++++#.. +++++X++.+++ ++#@%o+#.@ o",
" . X.#++%##++++ .++++#O+++ ..#O+O%@##OO+++++++    +     +.  +++              ++++X##@@$.+++++O#.. ++ ++#X..++ ++X@X%++#.X .",
"O+O@.###%#X++++ .++++#O+++ ..###@$@@@##OX###XOO+++++++   +++ +++++++++OX###@@@@@@@%&%&$++++OX##.. +++++X++.+ ++X#+#%###.@O+",
"@X@@.#+o%##X++++. ++O#++++ ..$$@@@$$$$$@@@####XXXX####@##@#############@@%%%@@@%%%$$$$$O+OX#@@#.. ++++++#.+++++#.X#%o+#.@@X",
" oo@.#++%#XX++++ ... +++++ ..#..........++XO######@@%%%%%%%%%%%%%%%%%%$@#O ..   ++++@$$$@@@@%$#.. ++++++#.++++#. ##%++#.@ o",
" . X.###%#O#X+ + ++++++ ++  .# ..... + ..  .. ............... X#$#+ ...  +++  +++ +O#@$+....  #.+++O++++#.+++X#.+##%###.X .",
"O+O@.#+o%###################O#++ +  +  + .+ . +............. .. #O... OOOOO++++O++XOX#$..++ ..#+##@X###@#@@##@OX###%o+#.@O+",
"@X@@.#++%@@@@@@@@@@@@@@@@@@@@#+++  ++ +   ++  +++++++ .......... #. ++++++ ++ +X+X++O#$..+ +..#@@@@@@@@@@@@@@@@@@@@%++#.@@X",
" o @.###%#O..................#O    +     +++ ++O +++++++++ ......@. +OO+X++++ +++++OOX&.+ + ..#........ ....+....O#%###.@ o",
" o X.#+o%## +    .....   +...#+++    ++  +++++ OO+++++       .. .@  OO+++O+++X#O+XOXOO@++  +++#.. .   .        + ##%o+#.X .",
"O+O@.#++%##++++++++ ++++.X...#+++++   +    +++++O.........++. .. @+.++++++++O#+ +OX+OO#O  ++++#..     + + +++ +++##%++#.@O+",
"@X@@.###%##++ +O##XXXO++ + ..#+++   +  .++OO#O++. ++     ..... . #O +++ ++OOX#.+++OO+O@#.+.+++#.. + +++++++ +++++##%###.@@X",
" o @.#+o%##+++O###XXXXXO++...#X+++++   +OXO+O++. .O+.....  . ....X# O+X++++O+O+++++++O#%.+++++#...++++ +++++++ ++##%o+#.@ o",
" . X.#++%#X++.+#####XXXXO+...#XO++ ++++O+++ +..++.O++O +   +  .+.+@ +.+.+++++++++++++O#$.+++++#.... + ++#X++++ +OX#%++#.X .",
"O+O@.###%#X+..+######XXXX+...#OXX++  +++.......+O +OOO +++    ....@++++ +++OO+++O+O+OO#$.  +++#... ++ +#++.++++++X#%###.@O+",
"@X@@.#+o%##+..+X######XXXO ..#+O+++++  . ..    +++++OO++++     . .#O ++ ++++++ +OO+XOO#$+. ++O#.. ++++++X+++ ++X+##%o+#.@@X",
" oo@.#++%##+...+#######XXX ..#OO+#+++++...+ +   ++O++++OO++ +    .X# +++OO++++O+OOX+O#@$O+++O+#.. ++ ++#+.+++++O+##%++#.@ o",
" .oX.###%#X+...+X######XXX ..#X###+  +... +++  +  +O+OO++++     +.+@+++++O++OO+++O+O##@%#$#####.. ++ ++#.+X.++ ++X#%###.X .",
"O+O@.#+o%#X+....+X######XX+..#+OO .....+++      + +O+++O+++ +  + + @++X+X+++O+X++OO#@@%%%$$$$$#..++++ +X+O#.+++++X#%o+#.@O+",
"@X@@.#++%##++....+X######O ..#.  +++..+++ +++  +++++++XXXOO+++    +@O++OOO+XOOOOX##@%$%#O+....#.. + ++++X+..+ +++##%++#.@@X",
" o @.###%O#O+.....++X####+ ..#.++++  + +++ +   ++ . OXXXXX+++ ++  +##O+++OOXX##@%$%#O+......  #.. +++ ++++++++  +##%###.@ o",
" . X.#+o%#O+++......++X# + ..#++O++++++ ++ + +++++++++++XXOO+ ++ ++X#X####@%$$%#O+.....  ++.  #..  ++++ +++ +++++X#%o+#.X o",
"O+O@.#++%##++ ++......++ + ..# .++OO O+ ++ + +++++++.. OXXXO+++++++X@%%$$$%#O+.....   XX++++++#..  +.++.+ +++ +OX##%++#.@O+",
"@X@@.###%#X++++ ++++++++++ ..#O++O+O++++++  +++++++  .++OXOXO+++ ++X$$%#O+.......   +X+. ++   #..  + +++++++ +++XX#%###.@@X",
" o @.#+o%#OO++O++OOO++O++O  .#+++OO+O++++++++++++  +    ++XX++ ++ +O$+ .....++   .++  .+++ +  #.  + ++++++++++OX#O#%o+#.@ o",
" . X.#++%###################O#+++++OO+++.+++ +. +++++++ + ++X+  + +O$+.....      + +++++  +++ #O###X###############%++#.X .",
"O+O@.###%@@@@@@@@@@@@@@@@@@@@#+++++OOO++ ..++++..++ ++ +++++OO+++++O$.... ++ O.++++++++  +OO++#@@@@@@@@@@@@@@@@@@@@%###.@O+",
"@X@@.#+o%#O....+.... ........#+++O+XX+O++. ++++ + ++ +++  +++OO+++OO$... ++  ..++  ++++ ++O+++#........ ....+....O#%o+#.@@X",
" o @.#++%## +  .+  .O + +++..#+++OO+O+O +O++++ ++++++++++++OO+++OOOO$...++O ++ ++++++ +X +++OO#..      +.   .  + ##%++#.@ o",
" . X.###%##++++   + + ++++ ..#++++++O+X++O++++   + + + ++++++OOOO#OO$...+ ++++++ +O+++X+ ++++O#.. + ++++ ++ +++++##%###.Xo.",
"O+O@.#+o%##  ++++ +++++ + +..#++++++OX O+OO+ +++++++++O+++++XXO+O#XX$..  ++++ .+++++ +OO O+++O#.. ++O.+++ ++++++ ##%o+#.@O+",
"@X@@.#++%##+ + ++ + + ++ +...#+++  +OOOO++O++++++ ++++OO+++OO+O+####$.. O++ +++++++++++O O+++O#...+++++++++++++++##%++#.@@X",
" o @.###%#XO   #+  + ++.  ...#+++  ++O+ ++OO +++++++++OOOO+O+OX+###@$.. .. +O+   +++ ++++O++++#...+++X######X+++OX#%###.@ o",
" .oX.#+o%#X+ ++ ##+ +++ + ...#++++   +O+++ ++++++++++++OO++O++XO#O#@$.. ++++..+ +   +++++++ ++#...++X######X++ ++X#%o+#.X .",
"O+O@o#++%##++   .O#+  ++   ..#  ++++++++++++++++++ ++++O++O+++OO###@$.. +O++   ++++ ++++ +++++#.. +X######X++++++##%++#.@O+",
"@X@@o###%##+ ++  .O#+#+ ++ ..#O  +++++O+++++ ++++++ +++OOOO+++++###@$.  +..+++++     +O+++++++#.. +####++++....++##%###.@@X",
" o @o#+o%#X+  ++  .O#+ + + ..#O++++++++O+O+O+ ++++OOOO++OO+   +O####$. + + +++++++ ++ ++ +  ++#.. ++X##X++ ... ++X#%o+#.@ o",
" . Xo#++%#X++ + +  .O#+  ++..#OO++++++ O++O+++  ++O++++++++ +++O###@$. +++ +++ +++++ +++ + +++#..++++X##++... ++ X#%++#.X .",
"O+O@o###%##+ .    . .OX+   ..#+X++++++++O+XOOX++OO++OOOO+O+++O+O###@$. ++++  +++++O+++++++O.++#.. ++++X#X .. ++++##%###.@O+",
"@X@@o#+o%##+         .O# + ..#+X+++++++++OXXOXOOO+++ ++++O++O++X##X@$. ++++.++++ +O.++++++.+++#.. + +++X#.. ++ ++##%o+#.@@X",
" o @o#++%#X+      +   .#   ..#+XXO+++XXX++OXXXX+ +++++++OO+O+XXXX##@$. ++++++ ++. .+++++ +++++#..  +++++X. +++ ++X#%++#.@ o",
" . Xo###%##X+  +   ++    + ..#OO##XX++++++OOXXXX++++++++OOXXXXOXO##@$. ++++++  +++++++++  ++++#.. ++ ++++++++ +++##%###.X .",
"O+O@o#+o%#XX+              ..#XX##+OOOO+OOO+OXXXXXOOOOOOXXXO++XXX##@$+++++++++++++++++++++++++#.. +++++++++++++++X#%o+#.@O+",
"@@@Xo#++%#O#X+ + ++++++ ++  .#OO+##XO++XX++OOXX#X#XXXXXXXX#########@$#######++++++++++++++++++#.  +++++++++ + +++O#%++#.X@@"
};
