/* XPM */
static char *result[] = {
/* columns rows colors chars-per-pixel */
"122 90 14 1 ",
"  c #0C0408",
". c #201018",
"X c #A0597F",
"o c #452439",
"O c #8C5171",
"+ c black",
"@ c #351C28",
"# c #593145",
"$ c #693D55",
"% c #C4719C",
"& c #7D4565",
"* c #B06590",
"= c #D979AC",
"- c white",
/* pixels */
"     .X oO+@   ..@+.++#$$$$$##.$O++++.+++O%OOO&$&$&&$&&$&&&$#&$#&&##$#o#o#o#o@o@.+ ++.++.+@ +.++o+++oo @@.+ @.   @@+.+@...",
"$&#$#*XX@&o# # .@#+.+#XX$#.@. .$X+.+@+++$X#$#o$#oooo@@$oooo$o@o@oo&#@o@oooo@$$oo@.+.+ + + + .. o+.@+&o@#@++ .#  ++.o@+..@@",
".   @#  + +  &&&O#+.+o##@.++ @..& @+.++$O$o$o#&##@@o###$.#o$o##@#o$o$#@#@@$O&oo@o@.++++ #.@+.++#.+.+&o#$ +# .@++ +#&#+.+.@",
"   @@   ++.&& ..O#+..+++.++  ..@%+.+++$O#o$o@#$$o@##@@@o##$o@#$##$o@#&#o#&&o@@@#@o@.+++@o@O$+ .+    &$oo o@@oo#.+oX#@+ + .",
".#oo  ..++&.  ..@#+@$o  .+.   ##&+++$OO#oo@$#@#$oo@@oo$#.#@$#@###@$#@$#$&#ooo$$@$@o@..+++$###& ..+++&$@@@.+ X ##&o #.+ + +",
".# ++++++++++++++++++++++++++++++$OO&$#o@@@.ooo$ooooo##@@@@.ooo#@@.oooO&#ooo##@@##@@@@.. ++++++++++++++++++++++++++++++++.",
"* +&*XO&&OOOOOOOOOOXX&OOOOOOO&&OO&&&$ooooooo@@@o$o##$@@@oooo@@@oooo@@@O$#o##@@@ooooooo#$$$#&O&&OO&OXOOXX&&&OO&O&&$#$#o +@#",
"$&+%X&&$&&O$&&$###&#$$#$$&$$O&$$###@oo@oo#oo#o@@##$@oo@oo#oo#o@@#oo#o@$#@#@oo@oo#oo#o@o#oo##$#o$#oo$o$o##o##&$$&&$##@@.+#$",
"&.+*&##o@$@.o#@@oooooooo&o@#$@@o$oooooo@$@.o#@@#$#ooooo@$@.o#@@o@.o#@@&$oooooo@$@.o#@@oooo@$@@#$@@o#oooooo@$@.o#@@o#o@.+$#",
"  +*&#oooo&o$$#@.ooo@oooo&$&$#@.$ooo@oooo&o$$#@.$ooo@oooo&o$$#@.&o$$#@o&ooo@oooo&o$$#@.ooooo&o$$#@.#ooo@oooo&o$$#@.#o..+@$",
"  +XX$@@@@ooo@$$o#@&o@@@@ooo@$$o$$.$o@@@@ooo@$#o##@&o@@@@ooo@$#oooo@$##&#@&o@@@@ooo@$#o##@@@ooo@$#o##@&o@@@@ooo@$#o##@.+oo",
"@ +*#$@o@@@@@oo@$oo@o@o@@@@@ooo$##o@o@o@@@@@oo@##oo@o@o@@@@@oo@#@@@oo@#&$o@o@o@@@@@oo@##oo@@@@@oo@##oo@o@o@@@@@oo@##o@.+.@",
" o+*&o#@@#@o@oo@o$ooo#@@#@o@oo@oo&ooo#@@#@o@oo@oo#ooo#@@#@o@oo@o@o@oo@o#&$oo#@@#@o@oo@oo#o@#@o@oo@oo#ooo#@@#@o@oo@oo#..+ #",
" .+*&##oo#$#o@@oo$$o##oo#$#o@oooo#$o##oo#$#o@@@@@ooo##oo#$#o@ooo$#o@oooo###$#oo#$#o@oooo##o#$#o@oooo##o##oo#$#o@ooooo..+..",
"  +X$.@@ @@@..@. .@# .o @@@..@. . .o .o @oo@@@..@.@o..@ @@@@@o@@o@..@. . .o..o @@@..@. . . @@@..@. . .# .o @@o@@o@.@.@.+++",
"  +&o  o....o. . ...  o....o. . ....  o....@....@..........@@.@ ..o........@......@...........o. . ....  o....o. . ....+.+",
"   ++++++++++++++++++++++++++++++++++++++++++++++++++++++++++++++++++++++++++++++++++++++++++++++++++++++++++++++++++++@# ",
"# .  . +XXXOXOO&X&O&$$&$$$$o+.OX++o&#$o#$&#$$$#&o#$$#&&$$$*$&&O##o$#@o###@ooo#oo.@@@o.@o&#...+XXXO$O$&X&O&$$#O$$$o+.o Xo$.",
"@o&o . +X&$####o++++o#####o.+.@*+++#$OXO&OX%%XOOO%%**&XX*%=%*XXXOOO%*&O##$$$&$$$##oo#@$$$o@#o+X&$#@ O$####@ O$##o.+$# %oO.",
"&&X&...+%$#ooo@+ @@@ o#@@o@ +.@= ++++++  +++++  +++++. +++ + ++++++++@#####XX$&O&&&*#$&O&#%#$+%$#oo. O$##@ O$@@o@ +O$+*#& ",
"..  &$@+*&#ooo@+@O+@&$$#@.. +##*+ &*OXOXo*oO==%*&oo$$Oo$&X%==*%=*O$oO.  +++++     &&##OXX&&&&+*&#ooo. X$o O&o#@.. +@#+X@#@",
" . .#*#+XO##@&@+.$ oOo@$#o@ +.@*+O%&&&OO*%O&XO&&$$##oo&$#&&&$&O*%&O%&&OO$=&*$$oo#++++++++ ++++XO##@oo. O $&o@$#o@ +$& XoO*",
" ..##&$+&$#o++o@+@@O$@+ @#..+@@X+%*#@#$$%#&$O#$$###o#&#o#$#$O$*$XOOXXOO*O%%o=%oXo#++&&&X%=o%*+&$#oo@o@.o O$@oo@#..+@# O$#O",
" oo...$+O&o#+ ++@@@@++ &@oo@+.O*+=XO$oX%&##o$##@o..@.o#oo@#O&$#o#%$o&OoX*$$#OX**X$ @*$&$#&*OO+O&o#oooo..#$$@oo@oo@+@#+O&X$",
"@   .@#+X&o#+@#&#@XO$#@&oo .+&@*+*#XXX&#&o &#+@+@@.@oo@@o@@o#oo@@&%@&$@.#o$&&&&O%$ oX*$#..$o@+X&o##oo@+@@O$o@ooo .+##+#.&#",
"&#&&##@+*&o@ $@o#+O$#o&&o@. +O@X+&$$o@$$o$#&@##$#@@o@o@o@@@@@@@**o.$.@ o$o####$$$X#+o=$o@ #@@+*&o@o$@+.@@oO#o#o@. +o#++##&",
"++++ + +*$oooo@@o+&$o$o@o@..+.@*+O$o@@+&#o#O#oO#@@oo@@Xooo@@@@@@@O.&.@O.@ .@ooo&#X$+@%@..  .++*$oooo .@.#ooO#@o@..+o#+++++",
"XXXXO@.+X$#@@o#@+ #&#$o##@. +oo*+X#o@@.@&@.X#O#@@@@@@@@&@o@@@o@@@@O.@@.O#$X@$@#$$$Xo+&@.++++++X$#@@o @ @.&@X$##@. +o#+*XX%",
"@@@@@Xo+*Oo@##@@+.oO$o@#$# .+ooX+%&.#o.@ &*ooOooOX@@@&OOO@@@ooooo@&+@@@@..o$ @@o&$%o+++#o@@##+*Oo@## @  .$oX$#$# .+oo+%%#@",
"&..@@##+O&oo@@o@+.@O#$#@##.@+o#O+X#o.#@ .@@X%@O%ooo@X..@@$@.oX@@oo@$ @@o@@.@.@.o#$XO@++++  +++O&oo@@ .@@oo#X$@##.@+@o.%@.&",
" &*&.@#+X$oooo@++@@#&.ooo#@.+$#$+X#.@+##@@@@o##&%&.O.@oooo&o&&#@@@oo&O& &@@@@@..o$&X$ *=%O&OO+X$oooo@ ..o#O&#oo#@.+ @#&*&.",
"+  .&o$+&$#oo#@+ @@o&o@@@o.@+#$#+&@@  .@ooooo@@$X&$@Xo@@@@ooo@$&OO@X...@@@@@#o#@@$&*X XXO&&&$+&$#o@ooo#$$&&#@@@o.@+++++#Xo",
"#####&@+$&#@#@@o$&OXOo#o@@..+o#+#&#@ +..@#O##oo@@O@o@o@o@@@@@oo@$.@@@@@@@@@@oo###$&=& *&O&#o@+$&#@#@oo@#$$#oo@@@..+ o#o++o",
"++++++++Oo@o.@ @o..@@. @@..+++++#$#@o+.  ..#$#ooo$O@oo#@@#@o@oo@oXXo@@@@###@@###.##X#+*O$ooo@+Oo@o.@ @o..@@. @@..++@$.#*o+",
"XXOXX#@+#@@@@@.@ o.@...... +++++##o@o...+  o.oo@o@#&.%Ooo#$#o@@@o@oOoX#o@@@o@@o@@ #O$+XX$#o@@+#@@@@@.@ o.@...... ++$@&&@ &",
" oo@o&$++++++++++++++++++++++.++o&oo.@@. . . @o.oo@oX.OO@###o@@@.@@@##Xoo@O*@@@o@ oO$+%&@@@ .++++++++++++++++++++++&&....@",
"@OoX&&O+XXXOXOO&X&O&$$&$&$$o+*@+X&#.+@@...@..@ .@@ooo@@*oooo$o@@.oo@.o.@@#@oOXoo.@&&O+=&o@. .+XXXOXOO&X&O&$$&$$$$o+&.....#",
"@@.#.oO+X&$.&###o#ooo##.&#o.+O%+oX#@+##@@.@oo@.@@#@@o###O.#o$o##@ @.#@o@..#o@@o@@ @##+O&oo. .+X&$#####++.&######o. &.@ .oX",
".o.@.o$ %$o &oooo@$@.o#+&o@ +o%+&$#o.@##@@@.oo@##@@##@@@oO&Oo@#$#.o @......@##@oO&.$#+O$oo...+%$#oooo+ @@#&$#@@o@ .&. .#*.",
"..  .@& *&o &o@oooo&o$$+&@. +X= o&#O.o@@##@.oo#@o@o@@oo$X.#@X#@##o#oo @o   o  @#@+ ##+*#oo.. +*&#ooo@+@@@@O&$#@.. +$.$$## ",
"o.  ..O XOo o$o@@@@ooo.@$o@ +oO o# @#@o@@@###@@#@@ooooO#.@@@@&XO*&o#&@@@.  + .+ o+ oo+*#oo.  +XO##@&o+.@@oO#@$#o@ +&#$@o$o",
"&=* #@&+&$o@.$o@o@@@@@+$o#..+@#+&&o. .#@@@@###@@@oooXX. @oooo@@@o#O$@&&@@$o@o+++o+ @o+*oo##  +&$#oo@o.+@@&$@oo@#..+$o@..@#",
"  o$*&X+O&o@+&#o@@#@o. $@oo@+o#& &+..+ @.@@o#@@@OX@X@X*@ooo@@o@@@o*ooo@$$o$Oo .@.  .o+Ooo.# &+O&o#ooo#+.#O#@oo@oo@+#...@@$",
"++ #$&X+X&oo@+&#oo#$. &ooo .+#.&+X+@+@..@@XO##XO@#O@@@X%ooo@@@@@.@o@@@@@@@@o..o@@# .@+X@o.*O$+X&o##o##.@@&#o@ooo .+o ...#@",
" ++.#O&+*&o@o@+&#@#. &o#o@. +&#$+X@ +.@@OO@#OO#@####@@#@X@#@@oo..  .@@o@o@ooo@#..  .o+X#o&.o++*&o@o&@o+.#O#oo#o@. +@.@..&@",
"++++#o$+*$oooo@+&@. &$o@o@..+.oO &X$&oOX*##@@@@@@##o#o@@@@X#####@@@..o  .@@@@.. .  +.+@$&@. o+*$oooo@@.@@&o$o@o@..+oo.. #+",
"++  o.$+X$#@@oo@+$+$#$o##@. +.o@+&@@. ##.@@##@@@@@@o@@..@&.@@...oo##@@#.    ..++   + +Xoo@...+X$#@@o##+.#Oo$o##@. +@$# .+o",
".++@.@o+*Oo@##@@ @@&$o@#$# .+.#o+o.  ....@.@.#@... ..... o .. @@..o@.... .++++@   ++.+&.o#.# +*Oo@##@@.@@&$o@#$# .+.@& &#o",
"+++@ o@+O&oo@@o .@@@&$#@##.@+$# +o oo+ ............ ... @ @ ++ .++ . ++++++++.+++++  +@.o.  @+O&oo@@oo$.##@$#@##.@+.o ## #",
".o@@o@.+X$ooooo .@@o&.ooo#@.+#@+++@o  @+ .++       ++++ @  .  ++++ +  ++ +.@ooo#.@ +++&.. @@++X$ooooo##.$@@.ooo#@.+ .@o###",
"++  ++++&$#oo#o# oo&$o@@@o.@++++++++  ++  .@@@oooooo@@@ooooo@.  .@@ooo@.+++++++++++++ oo$&O$$+&$#oo##@@+&ooo@@@o.@++++++++",
"*%OXXo.+$&#@#@oo#&&$oo#o@@..+&O&&&O&O&X&#O&&$. o@++++++++++++++++++++++ .$OO*o=*X&#&  ++ +++++$&#@#@oo@+$#oo#o@@..+.#%*%XO",
"#&$$$&@+Oo@o.@ @o..@@. @@..++&&O&&OO&$$$&&$$#&OXOOOXXXXXXO$o ++++@oO*=o*&&$#oo#$$o@.&+#X**XOO+Oo@o.@ @o #@@. @@..++@O$#&O&",
"#$&o&#$+#@@@@@.@ o.@...... ++##$#$#oo#$$##oo###XXO$%X&O$X&&##. ++$=*O&&##@#$$o#$&$@+#+*X$$$#$+#@@@@@.@ o.@...... ++o$$o$.o",
"@o@ #o#++++++++++++++++++++++@ooo#ooooooo.o@oo#o#@&&&&#$%X$&&$@  oXO&#o#. # $ +#o@  #+XO$##$o++++++++++++++++++++++$$@$$@#",
"@.  o@$+XXXOXOO&X&O&$$&$$$$o+@@@.@.o@o.o@o#oO#&$o#@o .@.#@$$$O$@ =O$#@o#++  #.+ # @ #+O$#o$o.+XXXOXOO&X&O&$$&$$$$o+&& @@$#",
"   @#@#+X&$#####o#ooo#####o.+  .@@o@..@@...+o#@.o@.oo$ $$o&@$*=o+X&&&$o@  +@@$  $ @oO+o$#$o@++X&$#####o#ooo#####o.+O... @@",
"  .@.@#+%$#oooo@@o@@@@#@@o@ +  ...@@@.@@@@..+ o++ &@o@o.@@.$#&X&+O&oo $@@.+.  $#@+. o+#O##+.@+%$#oooooo@$@.o#@@o@ +$ +...$",
". $@+@#+*&#ooo@.  +++ @#@.. +  .@@@.@@@.    @.+@.+   +o$#$@o##%%.O$@$& $$    o.@&   o +X.#+@@+*&#ooo@oooo&o$$#@.. +#+..+.#",
" @# +.#+XO##@.++++++++ @#o@ ++.....@@@ ++++ . ..o ++ @.oOo##X@OO@@Xoo@. &$   . @@&#o o O #..++XO##@&o@@@@ooo@$#o@ +o . oo ",
".&. +@#+&$#@.+++++++++@#@#..++  .@... +   @.o@. #. +++@@@o.@#o&X$ &#@#oo+ #o +@@o$OOo& $@o++.+&$#oo@o@@+.$#ooo@#..+o .o.+.",
"$o@@.o&+O&o@ +++++++++@$#@o@+ ++ .@@  .ooo@@@@. #.   .+o@+. .OXXO@$#+ @ .+   oO$&  +#&+o o+  +O&o#ooo#+@@oO#oo@oo@+#.o   +",
"&...$#$+X&o.++++++++++@$$@ .+o.  .  @@o@@@@@@@@o ..  . + @  .o$XX@@O @# +  @ @ .@ + .o++..@+++X&o##o##o+o&$#@ooo .+&#$. + ",
"...ooo#+*&o +++++++++@$&$@. +  o.  ...@@@.@.o#@#.      +o@@o$.@&X#+O# ..@ @@ o++o++  #+. +++++*&o@o&@o+@$@&oo#o@. +$.  . .",
"# .&o@o+*$o +++++++++@$O$@..+++++ @@.o@@o.@$$o&oo.    +$@ooo...&%&..O@@@+. + .+   ++@o++++ .@+*$oooo@@+#o+$$o@o@..+o..    ",
"@@$#..o+X$@+++++++++@$&&#@. +   @@oo#@#O$O&$oo@.@.     &.o&@@@.&*X +&o+     + .+  @. o++++++++X$#@@o##+@++O$o##@. + @@o@  ",
"&&&##.o+*Oo +++++++@$&O$@# .+@@@ $#&&&O$o...@@....   #++ @#O++o$*O$ @o++  + +  .@@+ oo$X*%***+*Oo@##@@@+#O$o@#$# .++ @##o.",
"$o#&&o#+O&o@+++++@@$&O$#@#.@+#.#@@o@.@...@.@@@..@@@#o.+  .$oo+.#oO# @o.  ..@@.++ .#OOX&$$$$$#+O&oo@@oo$##$@$#@##.@+ @@.o##",
"#@ ..o#+X$ooo++@@$$O&$#@o#@.+#o $&&  .@..@.@..   .X & .++ @.@ @.oX# +..o@++ .@&XO$$$#$#ooo&.o+X$ooooo##@@@@.ooo#@.+ @.  .o",
"oo@+..o+&$#oo@@$&O&$#@@@@o.@+OX&.  $$o...@.@...#*X&@@@ ++@+ . .+.&@.+++  $o*XOOO$$o.o$@@o#$#@+&$#oo##@@@oooo@@@o.@+.    .+",
" oo@ .o+$&#@#@o@@@@.@o#o@@..+.#@.. .o#&#.O@...&&#&%%@   +@+ . .+@*o.+$o*OO&O&&@.#oo.@ o.##@@@+$&#@#@oo@oo#oo#o@@..+   ..  ",
"@ .   @+Oo@o.@ @o..@@. @@..++  .    . .+$ &.&& .@@o@O@@. @@ .+ .@*# &O%$#$#O&o#@## @@@$&@@.#@+Oo@o.@ @o..@@. @@..++.  +   ",
"o+ . .o+#@@@@@.@ o.@...... ++.      ...@#  O&@@...oo.&@.@oo+    o=# &*$#&#.o&O@o@@#$o#.@@...#+#@@@@@.@ o.@...... ++ . +  .",
"@+ ++.#++++++++++++++++++++++#o ..    &@@@ &X&@@..@ #@&#.o   + +$O#+*X#ooo.$#@X#.&.   @@.  .#++++++++++++++++++++++...  + ",
"oo ++ o+XXXOXOO&X&O&$$&$$$$o+@#& @+@ $&&X@ &..O.@..@#.&@##o  $$++o&+*O#o. @o@@&.@&o ..@..    +XXXOXOO&X&O&$$&$$$$o+ . ++++",
" $ + @o+X&$#####o#ooo#####o.+#o@#@ o& @  &&..@o@...  ##&.o @  +.+$#+%&o   +...$###&&#.@#.    +X&$#####o#ooo#####o.++ +    ",
"+ ++.o.+%$#oooooo@$@.o#@@o@ + +..&&# +   ....##@.@.@ @#=&oo  @+ +o$+X&$@ ++.@#o..oo#&@.@. *  +%$#oooooo@#..o#@@o@ ++++++++",
"++++++++*&#ooo@oooo&o$$#@.. + .... #o@    .@o........ &*=*o@@@@ +&#+X&o@++ +$@+  o.oo$$@  # @+*&#ooo@###$&&#o@@.. +..@@@@@",
"==*XX#.+XO##@#o@oo@ooo@$#o@ + ..@@.oO#..   o#   @....#$o#%X#o @o.&o+X$$o. @o#&&#o. ..& #& .  +XO##o@  ....o&$o#o@ +o#&OOO&",
"#&$&&O#+&$#oo@#o##o@@@oo@#..+oo.@@ o.O%$#$&#. ..  .&. @ @o & #.&.$#+OO#&#&#o#.#%&& @   @@$.  +&$#o.++++++++o&&@#..+#&$#o@ ",
" &o###$+O&o#o+$$#o#@o@oo@oo@+.o##@@@. .*&@  .  ...O$.&   $  &X#. *$ &$#@ ...#.@.@@@ .  ..o&  +O&o.+++......@oO#oo@+&@@@ ++",
"@%# .#&+X&o###++$##$#o@ooo .+@@..o#.  #@&  .. +o$O$.     @#+ #X.&o$+&$o&$.##@@....@..  @..$. +X&o.+++.@@@@#$$&#o .+&  ..@@",
".oX  @& *&o@o#. +$&$##o#o@. + @@. .# @+#XO&@$O$#+.@&&.    #&@oo#+.#+$o@&o$##...@@@@@. ... .##+*&oo.+++.@@o$$&#o@. +Oo.  .+",
"&.&$.#$+*$oooo#. +$#O#o@o@..+  #   .#  $#@@o... &   # &  o@&$  ++.o+#@+o.@.&##&..@..@..@@oo.o+*$ooo.++.@@#$&#@o@..+&#o@+ +",
"#@#O o$+X$#@@###. +&$oo##@. +   . . o@$&+   o@@    $&&+ ++##.  ++ #+#.. .O&.&O##...@. .#@o.@@+X$#@@o.++.o$&#o##@. +$+oo.o@",
"o+@O .#+*Oo@#o@@#.++$###$# .+ +.# .#o &  +  +#.+.  @@.#*$@@.   . oo+#@.&o.@@..&.#@##oo .@.@..+*Oo@##o.+.$&$o@#$# .+#@@+++.",
" +  &$@+O&oo@@oo@+@ +$#@##.@+@+  o  o*   ++.@#o.@.oOoo@#+X    ++ #$+#o## .@....&. @.   ..@  @+O&oo@@oo.@&$oo#@##.@+o o++++",
"..o.o@#+X$ooooo#@.#@ +$#o#@.+ ++    oO@+##.. #&&@o .@@@  .+o@o++o.o+oo @....@.&O @.... @. ++ +X$ooooooo.@oo@ooo#@.+o+..+++",
"   # +.+&$#oo##ooo##@o#o@o.@++ +++o#++o#+++  ++@+@ o+ ...+.+ +o@### @#@@....@@.&+@ ... @@ ++++&$#oo##@@@oooo@@@o.@+@+ . +@",
"..+  . +$&#@#@oo@ooooooo@@..+++++.++++++#   +.++@+++ @ +++...@o@@@.+.o...  ....+$o+.... ++++++$&#@#@oo@oo#oo#o@@..+@ .  @ "
};
